<svg width="24" height="37" viewBox="0 0 24 37" fill="none" xmlns="http://www.w3.org/2000/svg">
<path d="M0.616 8.6C0.616 7.192 0.872 5.96533 1.384 4.92C1.91733 3.896 2.67467 3.04267 3.656 2.36C4.63733 1.69867 5.84267 1.208 7.272 0.888C8.70133 0.568 10.3333 0.408 12.168 0.408C13.9813 0.408 15.6027 0.568 17.032 0.888C18.4827 1.208 19.6987 1.69867 20.68 2.36C21.6613 3.04267 22.408 3.896 22.92 4.92C23.4533 5.96533 23.72 7.192 23.72 8.6C23.72 10.008 23.4533 11.224 22.92 12.248C22.408 13.2933 21.6613 14.1467 20.68 14.808C19.6987 15.4907 18.4827 15.992 17.032 16.312C15.6027 16.632 13.9813 16.792 12.168 16.792C10.3333 16.792 8.70133 16.632 7.272 16.312C5.84267 15.992 4.63733 15.4907 3.656 14.808C2.67467 14.1467 1.91733 13.2933 1.384 12.248C0.872 11.224 0.616 10.008 0.616 8.6ZM3.56 8.6C3.56 10.2213 4.15733 11.3733 5.352 12.056C6.568 12.76 8.2 13.112 10.248 13.112H14.088C16.136 13.112 17.7573 12.76 18.952 12.056C20.168 11.3733 20.776 10.2213 20.776 8.6C20.776 7.78933 20.616 7.096 20.296 6.52C19.9973 5.944 19.5493 5.47467 18.952 5.112C18.376 4.74933 17.672 4.48267 16.84 4.312C16.0293 4.16267 15.112 4.088 14.088 4.088H10.248C9.224 4.088 8.296 4.16267 7.464 4.312C6.65333 4.48267 5.94933 4.74933 5.352 5.112C4.776 5.47467 4.328 5.944 4.008 6.52C3.70933 7.096 3.56 7.78933 3.56 8.6ZM10.28 8.6C10.28 7.85333 10.4293 7.33067 10.728 7.032C11.0267 6.75467 11.3893 6.616 11.816 6.616H12.52C12.9467 6.616 13.3093 6.75467 13.608 7.032C13.9067 7.33067 14.056 7.85333 14.056 8.6C14.056 9.34667 13.9067 9.85867 13.608 10.136C13.3093 10.4347 12.9467 10.584 12.52 10.584H11.816C11.3893 10.584 11.0267 10.4347 10.728 10.136C10.4293 9.85867 10.28 9.34667 10.28 8.6ZM0.616 28.4275C0.616 27.0195 0.872 25.7928 1.384 24.7475C1.91733 23.7235 2.67467 22.8702 3.656 22.1875C4.63733 21.5262 5.84267 21.0355 7.272 20.7155C8.70133 20.3955 10.3333 20.2355 12.168 20.2355C13.9813 20.2355 15.6027 20.3955 17.032 20.7155C18.4827 21.0355 19.6987 21.5262 20.68 22.1875C21.6613 22.8702 22.408 23.7235 22.92 24.7475C23.4533 25.7928 23.72 27.0195 23.72 28.4275C23.72 29.8355 23.4533 31.0515 22.92 32.0755C22.408 33.1208 21.6613 33.9742 20.68 34.6355C19.6987 35.3182 18.4827 35.8195 17.032 36.1395C15.6027 36.4595 13.9813 36.6195 12.168 36.6195C10.3333 36.6195 8.70133 36.4595 7.272 36.1395C5.84267 35.8195 4.63733 35.3182 3.656 34.6355C2.67467 33.9742 1.91733 33.1208 1.384 32.0755C0.872 31.0515 0.616 29.8355 0.616 28.4275ZM3.56 28.4275C3.56 30.0488 4.15733 31.2008 5.352 31.8835C6.568 32.5875 8.2 32.9395 10.248 32.9395H14.088C16.136 32.9395 17.7573 32.5875 18.952 31.8835C20.168 31.2008 20.776 30.0488 20.776 28.4275C20.776 27.6168 20.616 26.9235 20.296 26.3475C19.9973 25.7715 19.5493 25.3022 18.952 24.9395C18.376 24.5768 17.672 24.3102 16.84 24.1395C16.0293 23.9902 15.112 23.9155 14.088 23.9155H10.248C9.224 23.9155 8.296 23.9902 7.464 24.1395C6.65333 24.3102 5.94933 24.5768 5.352 24.9395C4.776 25.3022 4.328 25.7715 4.008 26.3475C3.70933 26.9235 3.56 27.6168 3.56 28.4275ZM10.28 28.4275C10.28 27.6808 10.4293 27.1582 10.728 26.8595C11.0267 26.5822 11.3893 26.4435 11.816 26.4435H12.52C12.9467 26.4435 13.3093 26.5822 13.608 26.8595C13.9067 27.1582 14.056 27.6808 14.056 28.4275C14.056 29.1742 13.9067 29.6862 13.608 29.9635C13.3093 30.2622 12.9467 30.4115 12.52 30.4115H11.816C11.3893 30.4115 11.0267 30.2622 10.728 29.9635C10.4293 29.6862 10.28 29.1742 10.28 28.4275Z" fill="currentColor"/>
</svg>
