<svg width="542" height="152" viewBox="0 0 542 152" fill="none" xmlns="http://www.w3.org/2000/svg">
<g clip-path="url(#clip0_3637_2512)">
<path d="M630.519 -270.005L630.519 100.201L622.712 100.201L622.712 83.2339L606.85 83.2339L606.85 91.383L614.487 91.383L614.487 100.065L617.791 100.065C617.966 100.065 618.142 100.065 618.314 100.065L618.832 100.065C619.004 100.065 619.174 100.065 619.344 100.065L619.851 100.065C620.02 100.065 620.187 100.065 620.354 100.065C620.521 100.065 620.688 100.065 620.855 100.065C621.022 100.065 621.187 100.065 621.354 100.065C621.521 100.065 621.685 100.065 621.849 100.065C622.013 100.065 622.18 100.065 622.344 100.065C622.509 100.065 622.673 100.065 622.84 100.065C622.84 100.234 622.84 100.4 622.84 100.569C622.84 100.737 622.84 100.903 622.84 101.072C622.84 101.241 622.84 101.409 622.84 101.578L622.84 102.088C622.84 102.256 622.84 102.428 622.84 102.6C622.84 102.772 622.84 102.943 622.84 103.115L622.84 104.687C622.84 104.865 622.84 105.043 622.84 105.223L622.84 108.623L630.616 108.623L630.616 117.104L622.689 117.104L622.689 125.996L622.698 125.987L622.706 125.978L622.715 125.969L622.723 125.96L622.731 125.952L622.74 125.943L622.748 125.934L622.756 125.925L622.765 125.916L622.773 125.907L622.781 125.898L622.79 125.889L622.798 125.88L622.806 125.872L622.815 125.863L622.823 125.854L614.813 125.854L614.813 134.266L606.828 134.266L606.828 117.409L614.37 117.409L614.37 108.795L598.442 108.795L598.442 91.8213L590.571 91.8213L590.571 99.8815L582.382 99.8815L582.382 117.403L574.344 117.403L574.344 108.91L566.498 108.91L566.498 100.269L573.966 100.269L573.966 91.7384L558.226 91.7384L558.226 108.481C558.046 108.49 557.865 108.501 557.687 108.51C557.508 108.519 557.33 108.528 557.155 108.54C556.98 108.549 556.804 108.558 556.632 108.57C556.459 108.578 556.287 108.587 556.117 108.596C555.947 108.605 555.777 108.614 555.607 108.623C555.438 108.632 555.271 108.641 555.104 108.65C554.937 108.658 554.77 108.667 554.603 108.676C554.436 108.685 554.271 108.694 554.107 108.703C553.943 108.712 553.776 108.721 553.612 108.729C553.448 108.738 553.283 108.747 553.116 108.756C552.952 108.765 552.788 108.774 552.621 108.783C552.457 108.792 552.29 108.801 552.126 108.809C551.959 108.818 551.794 108.827 551.627 108.836C551.46 108.845 551.293 108.854 551.126 108.863C550.959 108.872 550.79 108.88 550.62 108.889C550.45 108.898 550.28 108.907 550.108 108.916L550.108 117.104L541.797 117.104L541.797 125.987L541.805 125.978L541.814 125.969L541.822 125.96L541.83 125.952L541.839 125.943L541.847 125.934L541.855 125.925L541.864 125.916L541.872 125.907L541.88 125.898L541.889 125.889L541.897 125.88L541.905 125.872L541.914 125.863L541.922 125.854L541.931 125.845L533.898 125.845L533.898 108.756L517.719 108.756L517.719 100.287L501.64 100.287C501.632 100.095 501.623 99.9052 501.615 99.7157C501.607 99.5262 501.598 99.3396 501.59 99.1531C501.582 98.9665 501.573 98.7829 501.565 98.5994C501.557 98.4158 501.548 98.2351 501.54 98.0545C501.532 97.8739 501.523 97.6932 501.515 97.5156C501.507 97.3379 501.498 97.1602 501.49 96.9826C501.481 96.8049 501.473 96.6302 501.465 96.4555C501.456 96.2808 501.448 96.1061 501.443 95.9314C501.434 95.7566 501.426 95.5849 501.42 95.4102C501.412 95.2355 501.404 95.0637 501.398 94.892C501.39 94.7202 501.381 94.5455 501.376 94.3738C501.367 94.202 501.359 94.0273 501.353 93.8556C501.345 93.6838 501.337 93.5091 501.331 93.3344C501.323 93.1597 501.314 92.985 501.309 92.8103C501.301 92.6356 501.292 92.4609 501.287 92.2832C501.278 92.1085 501.27 91.9308 501.262 91.7532L493.566 91.7532L493.566 108.377L485.455 108.377C485.447 108.214 485.439 108.054 485.43 107.891C485.422 107.729 485.414 107.566 485.405 107.403C485.397 107.24 485.389 107.077 485.38 106.914C485.372 106.751 485.364 106.589 485.355 106.426C485.347 106.263 485.339 106.1 485.33 105.934C485.322 105.771 485.314 105.605 485.305 105.443C485.297 105.277 485.288 105.114 485.28 104.948C485.272 104.782 485.263 104.616 485.255 104.451C485.247 104.285 485.238 104.116 485.23 103.95C485.222 103.781 485.213 103.616 485.205 103.447C485.197 103.278 485.188 103.109 485.18 102.94C485.172 102.772 485.163 102.6 485.155 102.431C485.147 102.259 485.138 102.088 485.13 101.916C485.121 101.744 485.113 101.569 485.105 101.398C485.096 101.226 485.088 101.048 485.08 100.874C485.071 100.699 485.063 100.521 485.055 100.346L477.356 100.346L477.356 108.801L469.015 108.801L469.015 100.192L460.924 100.192L460.924 91.842L453.181 91.842L453.181 100.056L456.137 100.056C456.301 100.056 456.465 100.056 456.629 100.056L457.122 100.056C457.286 100.056 457.45 100.056 457.615 100.056C457.779 100.056 457.943 100.056 458.107 100.056L458.6 100.056C458.764 100.056 458.928 100.056 459.092 100.056C459.257 100.056 459.421 100.056 459.585 100.056C459.749 100.056 459.914 100.056 460.078 100.056C460.242 100.056 460.406 100.056 460.57 100.056C460.735 100.056 460.899 100.056 461.063 100.056C461.063 100.225 461.063 100.391 461.063 100.56C461.063 100.728 461.063 100.894 461.063 101.063C461.063 101.232 461.063 101.401 461.063 101.569C461.063 101.738 461.063 101.907 461.063 102.079L461.063 102.591C461.063 102.763 461.063 102.934 461.063 103.106L461.063 104.152C461.063 104.329 461.063 104.507 461.063 104.685L461.063 108.664L464.67 108.664C464.837 108.664 465.007 108.664 465.174 108.664L466.674 108.664C466.841 108.664 467.005 108.664 467.172 108.664C467.339 108.664 467.503 108.664 467.668 108.664L468.163 108.664C468.327 108.664 468.494 108.664 468.659 108.664C468.823 108.664 468.99 108.664 469.154 108.664C469.154 108.833 469.154 108.999 469.154 109.168C469.154 109.336 469.154 109.502 469.154 109.671L469.154 110.174C469.154 110.343 469.154 110.512 469.154 110.681L469.154 111.187C469.154 111.356 469.154 111.525 469.154 111.697L469.154 112.724C469.154 112.896 469.154 113.07 469.154 113.242L469.154 117.012L453.111 117.012C453.103 116.849 453.095 116.686 453.086 116.523C453.078 116.36 453.07 116.197 453.061 116.035C453.053 115.872 453.044 115.709 453.036 115.546C453.028 115.383 453.019 115.22 453.011 115.054C453.003 114.892 452.994 114.726 452.986 114.563C452.978 114.4 452.969 114.234 452.961 114.068C452.953 113.903 452.944 113.74 452.936 113.574C452.928 113.408 452.919 113.242 452.911 113.076C452.903 112.911 452.894 112.742 452.886 112.576C452.877 112.407 452.869 112.241 452.861 112.073C452.852 111.904 452.844 111.735 452.836 111.566C452.827 111.397 452.819 111.226 452.811 111.057C452.802 110.885 452.794 110.713 452.786 110.542C452.777 110.37 452.769 110.195 452.761 110.023C452.752 109.849 452.744 109.674 452.736 109.499C452.727 109.325 452.719 109.147 452.708 108.969L445.048 108.969L445.048 116.997L436.643 116.997L436.643 100.059L444.492 100.059L444.492 91.8213L436.771 91.8213L436.771 94.966C436.771 95.1407 436.771 95.3154 436.771 95.4901L436.771 96.0143C436.771 96.189 436.771 96.3637 436.771 96.5384C436.771 96.7131 436.771 96.8878 436.771 97.0625L436.771 97.5866C436.771 97.7613 436.771 97.9361 436.771 98.1108C436.771 98.2855 436.771 98.4602 436.771 98.6349C436.771 98.8096 436.771 98.9843 436.771 99.159C436.771 99.3337 436.771 99.5084 436.771 99.6831C436.771 99.8578 436.771 100.033 436.771 100.207C436.601 100.207 436.428 100.207 436.259 100.207C436.089 100.207 435.916 100.207 435.747 100.207C435.577 100.207 435.404 100.207 435.234 100.207C435.065 100.207 434.892 100.207 434.722 100.207C434.552 100.207 434.38 100.207 434.21 100.207C434.04 100.207 433.868 100.207 433.698 100.207C433.528 100.207 433.356 100.207 433.186 100.207C433.016 100.207 432.844 100.207 432.674 100.207C432.504 100.207 432.331 100.207 432.162 100.207C431.992 100.207 431.819 100.207 431.65 100.207C431.48 100.207 431.307 100.207 431.137 100.207C430.968 100.207 430.795 100.207 430.625 100.207C430.456 100.207 430.283 100.207 430.113 100.207C429.943 100.207 429.771 100.207 429.601 100.207C429.431 100.207 429.259 100.207 429.089 100.207C428.919 100.207 428.747 100.207 428.577 100.207L428.577 91.5992L420.486 91.5992L420.486 83.2487L412.743 83.2487L412.743 91.463L416.191 91.463C416.356 91.463 416.52 91.463 416.684 91.463L417.666 91.463C417.831 91.463 417.995 91.463 418.159 91.463L418.652 91.463C418.816 91.463 418.98 91.463 419.144 91.463L419.637 91.463C419.801 91.463 419.965 91.463 420.13 91.463C420.294 91.463 420.458 91.463 420.622 91.463C420.622 91.6318 420.622 91.7976 420.622 91.9664C420.622 92.1352 420.622 92.301 420.622 92.4698C420.622 92.6385 420.622 92.8073 420.622 92.9761C420.622 93.1449 420.622 93.3137 420.622 93.4854L420.622 93.9977C420.622 94.1695 420.622 94.3412 420.622 94.513L420.622 95.5582C420.622 95.7359 420.622 95.9136 420.622 96.0913L420.622 100.071L423.723 100.071C423.893 100.071 424.06 100.071 424.229 100.071L424.733 100.071C424.9 100.071 425.067 100.071 425.234 100.071C425.401 100.071 425.568 100.071 425.735 100.071L426.233 100.071C426.4 100.071 426.565 100.071 426.732 100.071C426.896 100.071 427.063 100.071 427.227 100.071C427.391 100.071 427.558 100.071 427.722 100.071C427.887 100.071 428.054 100.071 428.218 100.071C428.382 100.071 428.549 100.071 428.713 100.071C428.713 100.237 428.713 100.406 428.713 100.571C428.713 100.737 428.713 100.906 428.713 101.072L428.713 101.575C428.713 101.744 428.713 101.913 428.713 102.082C428.713 102.25 428.713 102.419 428.713 102.588L428.713 103.616C428.713 103.787 428.713 103.962 428.713 104.137L428.713 108.549L412.615 108.549L412.615 117.263L404.321 117.263L404.329 117.272L404.337 117.281L404.346 117.29L404.354 117.299L404.363 117.308L404.371 117.317L404.379 117.326L404.388 117.335L404.396 117.343L404.404 117.352L404.413 117.361L404.421 117.37L404.429 117.379L404.438 117.388L404.446 117.397L404.454 117.406L404.454 91.8746L396.383 91.8746L396.383 108.469L380.234 108.469L380.234 100.036L364.036 100.036L364.036 91.5785L361.3 91.5785C361.125 91.5785 360.949 91.5785 360.774 91.5785L359.741 91.5785C359.572 91.5785 359.402 91.5785 359.232 91.5785C359.062 91.5785 358.895 91.5785 358.728 91.5785C358.561 91.5785 358.394 91.5785 358.227 91.5785C358.06 91.5785 357.896 91.5785 357.729 91.5785C357.565 91.5785 357.398 91.5785 357.234 91.5785C357.069 91.5785 356.905 91.5785 356.741 91.5785C356.577 91.5785 356.413 91.5785 356.248 91.5785C356.084 91.5785 355.92 91.5785 355.756 91.5785C355.756 91.232 355.756 90.8885 355.756 90.5421L355.756 89.5056C355.756 89.1592 355.756 88.8157 355.756 88.4692C355.756 88.1228 355.756 87.7763 355.756 87.4299L355.756 86.3905C355.756 86.0441 355.756 85.6946 355.756 85.3482L355.756 82.1975C355.756 81.8451 355.756 81.4928 355.756 81.1404L355.756 74.6644L348.032 74.6644L348.032 91.4422L355.884 91.4422L355.884 99.917L356.941 99.917C357.117 99.917 357.292 99.917 357.467 99.917C357.643 99.917 357.815 99.917 357.991 99.917C358.166 99.917 358.339 99.917 358.511 99.917C358.684 99.917 358.856 99.917 359.032 99.917C359.204 99.917 359.377 99.917 359.549 99.917C359.722 99.917 359.894 99.917 360.067 99.917C360.24 99.917 360.409 99.917 360.582 99.917C360.754 99.917 360.924 99.917 361.097 99.917C361.269 99.917 361.439 99.917 361.609 99.917C361.779 99.917 361.951 99.917 362.121 99.917C362.291 99.917 362.463 99.917 362.633 99.917C362.803 99.917 362.975 99.917 363.145 99.917C363.315 99.917 363.488 99.917 363.657 99.917C363.827 99.917 364 99.917 364.169 99.917C364.161 100.089 364.153 100.264 364.142 100.435C364.133 100.607 364.125 100.782 364.114 100.956C364.105 101.131 364.097 101.303 364.086 101.478C364.078 101.652 364.067 101.824 364.058 101.999C364.05 102.173 364.039 102.348 364.03 102.523C364.022 102.698 364.011 102.872 364.003 103.05C363.994 103.225 363.983 103.402 363.975 103.58C363.966 103.758 363.955 103.935 363.947 104.113C363.939 104.291 363.927 104.468 363.919 104.649C363.911 104.83 363.9 105.007 363.891 105.188C363.883 105.369 363.872 105.549 363.863 105.733C363.855 105.916 363.844 106.097 363.833 106.284C363.822 106.467 363.813 106.654 363.802 106.837C363.791 107.021 363.783 107.21 363.771 107.397C363.76 107.583 363.752 107.773 363.741 107.965C363.73 108.155 363.721 108.347 363.71 108.54C363.552 108.549 363.39 108.558 363.232 108.564C363.073 108.57 362.914 108.581 362.756 108.587C362.597 108.596 362.438 108.602 362.28 108.611C362.121 108.62 361.962 108.626 361.807 108.635C361.648 108.644 361.492 108.649 361.333 108.658C361.175 108.667 361.016 108.673 360.857 108.682C360.699 108.691 360.54 108.7 360.382 108.706C360.223 108.715 360.064 108.724 359.903 108.729C359.744 108.738 359.583 108.747 359.421 108.753C359.26 108.762 359.098 108.771 358.937 108.777C358.776 108.786 358.611 108.795 358.447 108.803C358.283 108.812 358.119 108.821 357.952 108.83C357.785 108.839 357.618 108.848 357.451 108.857C357.284 108.866 357.114 108.875 356.941 108.883C356.769 108.892 356.599 108.901 356.426 108.91C356.254 108.919 356.079 108.928 355.9 108.937L355.9 117.412L348.049 117.412L348.049 125.889L355.9 125.889L355.9 134.406L347.957 134.406C347.949 134.598 347.94 134.788 347.929 134.977C347.921 135.167 347.913 135.353 347.904 135.537C347.896 135.723 347.887 135.907 347.879 136.088C347.871 136.271 347.862 136.452 347.854 136.632C347.846 136.813 347.837 136.991 347.829 137.168C347.821 137.346 347.812 137.524 347.804 137.701C347.796 137.879 347.787 138.054 347.779 138.228C347.771 138.403 347.762 138.578 347.754 138.753C347.746 138.927 347.737 139.099 347.729 139.274C347.72 139.445 347.712 139.62 347.704 139.792C347.695 139.964 347.687 140.138 347.679 140.31C347.67 140.482 347.662 140.657 347.654 140.828C347.645 141 347.637 141.175 347.629 141.347C347.62 141.521 347.612 141.693 347.604 141.868C347.595 142.042 347.587 142.217 347.579 142.392C347.57 142.567 347.562 142.744 347.553 142.922L339.888 142.922L339.888 134.746L331.475 134.746L331.475 125.898L339.34 125.898L339.34 100.45L331.603 100.45L331.603 110.059C331.603 110.592 331.603 111.125 331.603 111.658L331.603 113.257C331.603 113.79 331.603 114.323 331.603 114.856L331.603 116.455C331.603 116.988 331.603 117.521 331.603 118.051C331.603 118.581 331.603 119.117 331.603 119.647C331.603 120.177 331.603 120.713 331.603 121.243C331.603 121.776 331.603 122.306 331.603 122.839C331.603 123.372 331.603 123.902 331.603 124.435C331.603 124.968 331.603 125.498 331.603 126.031L323.609 126.031L323.609 100.213L315.321 100.213L315.321 91.8627L307.578 91.8627L307.578 100.077L310.533 100.077C310.698 100.077 310.862 100.077 311.026 100.077L311.519 100.077C311.683 100.077 311.847 100.077 312.011 100.077C312.176 100.077 312.34 100.077 312.504 100.077L312.997 100.077C313.161 100.077 313.325 100.077 313.489 100.077C313.653 100.077 313.818 100.077 313.982 100.077C314.146 100.077 314.31 100.077 314.474 100.077C314.639 100.077 314.803 100.077 314.967 100.077C315.131 100.077 315.296 100.077 315.46 100.077C315.46 100.423 315.46 100.77 315.46 101.116C315.46 101.463 315.46 101.809 315.46 102.156C315.46 102.502 315.46 102.849 315.46 103.198L315.46 104.24C315.46 104.587 315.46 104.936 315.46 105.286C315.46 105.635 315.46 105.981 315.46 106.331L315.46 109.49C315.46 109.843 315.46 110.195 315.46 110.551L315.46 117.027L299.236 117.027L299.236 91.7443L291.273 91.7443L291.273 108.442L283.16 108.442L283.16 91.8953L275.047 91.8953L275.047 108.472L267.095 108.472L267.095 100.468L258.957 100.468C258.948 100.631 258.94 100.791 258.932 100.953C258.923 101.116 258.915 101.279 258.907 101.442C258.898 101.605 258.89 101.768 258.882 101.931C258.873 102.093 258.865 102.256 258.857 102.422C258.848 102.585 258.84 102.751 258.832 102.914C258.823 103.08 258.815 103.242 258.807 103.408C258.798 103.574 258.79 103.74 258.781 103.906C258.773 104.072 258.765 104.24 258.756 104.406C258.748 104.575 258.74 104.744 258.731 104.913C258.723 105.081 258.715 105.253 258.706 105.422C258.698 105.591 258.69 105.765 258.681 105.937C258.673 106.109 258.665 106.284 258.656 106.458C258.648 106.633 258.64 106.808 258.631 106.982C258.623 107.157 258.615 107.335 258.606 107.512C258.598 107.69 258.589 107.871 258.581 108.048C258.573 108.226 258.564 108.41 258.553 108.593L250.849 108.593L250.849 134.471L242.522 134.471L242.53 134.48L242.538 134.488L242.547 134.497L242.555 134.506L242.563 134.515L242.572 134.524L242.58 134.533L242.589 134.542L242.597 134.551L242.605 134.56L242.614 134.568L242.622 134.577L242.63 134.586L242.639 134.595L242.647 134.604L242.655 134.613L242.655 108.833L218.452 108.833L218.452 100.489L210.306 100.489L210.306 117.074L201.911 117.074C201.911 117.074 201.911 117.074 201.914 117.08C201.917 117.086 201.917 117.086 201.92 117.089C201.922 117.092 201.925 117.095 201.928 117.098C201.931 117.101 201.934 117.107 201.939 117.109C201.942 117.112 201.947 117.118 201.95 117.121C201.953 117.127 201.959 117.13 201.961 117.136C201.964 117.142 201.97 117.145 201.972 117.151C201.975 117.157 201.981 117.16 201.984 117.166C201.986 117.172 201.992 117.175 201.995 117.181C201.997 117.186 202.003 117.189 202.006 117.192C202.009 117.195 202.011 117.201 202.014 117.204C202.017 117.207 202.02 117.21 202.023 117.213L202.028 117.219C202.028 117.219 202.028 117.222 202.031 117.222C202.031 117.056 202.031 116.89 202.031 116.722C202.031 116.556 202.031 116.387 202.031 116.221C202.031 116.055 202.031 115.887 202.031 115.721C202.031 115.552 202.031 115.386 202.031 115.217C202.031 115.049 202.031 114.88 202.031 114.711C202.031 114.542 202.031 114.373 202.031 114.202C202.031 114.033 202.031 113.861 202.031 113.689C202.031 113.518 202.031 113.346 202.031 113.171C202.031 112.999 202.031 112.825 202.031 112.65C202.031 112.475 202.031 112.301 202.031 112.123C202.031 111.945 202.031 111.768 202.031 111.59C202.031 111.412 202.031 111.232 202.031 111.048C202.031 110.867 202.031 110.684 202.031 110.5C202.031 110.317 202.031 110.13 202.031 109.943L202.031 108.803L177.792 108.803L177.792 100.45L169.823 100.45L169.823 108.803L161.843 108.803L161.843 117.204L145.417 117.204L145.417 125.996L145.425 125.987L145.433 125.978L145.442 125.969L145.45 125.96L145.458 125.951L145.467 125.943L145.475 125.934L145.483 125.925L145.492 125.916L145.5 125.907L145.509 125.898L145.517 125.889L145.525 125.88L145.534 125.872L145.542 125.863L145.55 125.854C145.38 125.854 145.208 125.854 145.038 125.854C144.868 125.854 144.696 125.854 144.526 125.854C144.356 125.854 144.184 125.854 144.014 125.854C143.844 125.854 143.672 125.854 143.502 125.854C143.332 125.854 143.159 125.854 142.99 125.854C142.82 125.854 142.647 125.854 142.478 125.854C142.308 125.854 142.135 125.854 141.965 125.854C141.796 125.854 141.623 125.854 141.453 125.854C141.284 125.854 141.111 125.854 140.941 125.854C140.771 125.854 140.599 125.854 140.429 125.854C140.259 125.854 140.087 125.854 139.917 125.854L139.405 125.854C139.235 125.854 139.063 125.854 138.893 125.854C138.723 125.854 138.55 125.854 138.381 125.854C138.211 125.854 138.038 125.854 137.868 125.854C137.699 125.854 137.526 125.854 137.356 125.854L137.365 125.863L137.373 125.872L137.381 125.88L137.39 125.889L137.398 125.898L137.406 125.907L137.415 125.916L137.423 125.925L137.432 125.934L137.44 125.943L137.448 125.951L137.457 125.96L137.465 125.969L137.473 125.978L137.482 125.987L137.49 125.996L137.49 117.637L121.4 117.637L121.4 125.564L113.264 125.564L113.264 108.999L105.14 108.999L105.14 125.596L97.0158 125.596L97.0158 108.957L89.0529 108.957L89.0529 117.406L48.3562 117.406C48.3534 117.219 48.3506 117.032 48.3478 116.846C48.345 116.659 48.3422 116.473 48.3395 116.286C48.3367 116.1 48.3339 115.913 48.3311 115.727C48.3283 115.54 48.3256 115.354 48.3228 115.167C48.32 114.98 48.3173 114.794 48.3145 114.607C48.3116 114.421 48.3089 114.234 48.3061 114.048C48.3033 113.861 48.3005 113.675 48.2977 113.488C48.2949 113.301 48.2922 113.115 48.2894 112.928C48.2866 112.742 48.2838 112.555 48.281 112.369L48.2726 111.809C48.2699 111.622 48.2671 111.436 48.2643 111.249C48.2615 111.063 48.2587 110.876 48.2559 110.69C48.2532 110.503 48.2504 110.317 48.2477 110.13C48.2449 109.943 48.2421 109.757 48.2393 109.57C48.2365 109.384 48.2337 109.197 48.231 109.011C48.2282 108.824 48.2253 108.638 48.2226 108.451C48.3868 108.451 48.551 108.451 48.7152 108.451C48.8795 108.451 49.0436 108.451 49.2079 108.451C49.3721 108.451 49.5363 108.451 49.7005 108.451C49.8647 108.451 50.0289 108.451 50.1932 108.451C50.3574 108.451 50.5216 108.451 50.6886 108.451C50.8528 108.451 51.0197 108.451 51.184 108.451C51.3481 108.451 51.5151 108.451 51.6821 108.451C51.8491 108.451 52.0162 108.451 52.1832 108.451C52.3502 108.451 52.5172 108.451 52.6841 108.451C52.8511 108.451 53.0209 108.451 53.1879 108.451C53.3577 108.451 53.5247 108.451 53.6945 108.451C53.8642 108.451 54.034 108.451 54.2038 108.451C54.3736 108.451 54.5461 108.451 54.7188 108.451C54.8913 108.451 55.0638 108.451 55.2364 108.451L56.2829 108.451L56.2829 91.7087L48.3367 91.7087L48.3367 108.596C48.1697 108.599 47.9999 108.602 47.8329 108.608C47.666 108.611 47.4962 108.614 47.3292 108.62C47.1622 108.623 46.9924 108.626 46.8254 108.632C46.6584 108.635 46.4886 108.638 46.3216 108.644C46.1546 108.646 45.9849 108.649 45.8179 108.655C45.6509 108.658 45.4811 108.661 45.3141 108.667C45.1471 108.67 44.9773 108.673 44.8103 108.679C44.6433 108.682 44.4735 108.685 44.3065 108.691C44.1395 108.694 43.9697 108.697 43.8027 108.703C43.6357 108.706 43.466 108.709 43.299 108.715C43.132 108.718 42.9622 108.721 42.7952 108.726C42.6282 108.732 42.4584 108.732 42.2914 108.738C42.1245 108.741 41.9547 108.744 41.7877 108.75L41.2839 108.762C41.1169 108.765 40.9471 108.768 40.7802 108.774L40.2764 108.786C40.2764 108.259 40.2764 107.734 40.2764 107.207C40.2764 106.68 40.2764 106.156 40.2764 105.629L40.2764 104.048C40.2764 103.521 40.2764 102.994 40.2764 102.467L40.2764 100.882C40.2764 100.355 40.2764 99.8252 40.2764 99.2981L40.2764 96.1179C40.2764 95.5878 40.2764 95.0548 40.2764 94.5218L40.2764 83.2191L32.4109 83.2191L32.4109 91.2971L24.4619 91.2971L24.4619 99.9526L32.0408 99.9526L32.0408 108.649L40.4016 108.649C40.4016 108.833 40.4016 109.014 40.4016 109.197C40.4016 109.381 40.4016 109.561 40.4016 109.745C40.4016 109.929 40.4016 110.109 40.4016 110.293L40.4016 110.841C40.4016 111.024 40.4016 111.205 40.4016 111.389C40.4016 111.572 40.4016 111.753 40.4016 111.936C40.4016 112.12 40.4016 112.301 40.4016 112.484L40.4016 113.032C40.4016 113.216 40.4016 113.396 40.4016 113.58C40.4016 113.763 40.4016 113.944 40.4016 114.128C40.4016 114.311 40.4016 114.492 40.4016 114.675C40.4016 114.859 40.4016 115.04 40.4016 115.223C40.4016 115.407 40.4016 115.587 40.4016 115.771C40.4016 115.955 40.4016 116.135 40.4016 116.319C40.4016 116.502 40.4016 116.683 40.4016 116.867C40.4016 117.05 40.4016 117.231 40.4016 117.414L24.3645 117.414C24.3561 117.228 24.3478 117.044 24.3394 116.861C24.3311 116.677 24.3228 116.497 24.3145 116.316C24.3061 116.135 24.2977 115.955 24.2922 115.777C24.2838 115.599 24.2755 115.422 24.2698 115.244C24.2615 115.066 24.2532 114.892 24.2476 114.714C24.2421 114.536 24.2337 114.362 24.2253 114.187C24.217 114.012 24.2114 113.837 24.2031 113.663C24.1947 113.488 24.1892 113.313 24.1808 113.142C24.1724 112.967 24.1669 112.795 24.1586 112.62C24.1502 112.446 24.1446 112.274 24.1363 112.099C24.1279 111.924 24.1223 111.75 24.114 111.575C24.1057 111.4 24.1001 111.226 24.0917 111.048C24.0834 110.873 24.075 110.696 24.0695 110.518C24.0611 110.34 24.0527 110.163 24.0472 109.985C24.0388 109.807 24.0305 109.627 24.025 109.446C24.0166 109.265 24.0082 109.085 23.9999 108.901L16.2708 108.901L16.2708 91.8272L8.14093 91.8272L8.14093 99.8933L-0.0390587 99.8933L-0.0390595 108.795C-0.211606 108.795 -0.381406 108.795 -0.554013 108.795C-0.72656 108.795 -0.896359 108.795 -1.06891 108.795L-1.5838 108.795C-1.75634 108.795 -1.92614 108.795 -2.09869 108.795C-2.2713 108.795 -2.44104 108.795 -2.61358 108.795L-3.64062 108.795C-3.81323 108.795 -3.98297 108.795 -4.15551 108.795L-8.26916 108.795L-8.26916 100.186L-16.3601 100.186L-16.3601 91.5991L-40.6161 91.5991L-40.6161 83.2487L-48.3592 83.2487L-48.3592 91.4629L-45.4034 91.4629C-45.2391 91.4629 -45.075 91.4629 -44.9108 91.4629L-44.4181 91.4629C-44.2539 91.4629 -44.0897 91.4629 -43.9255 91.4629L-43.4329 91.4629C-43.2686 91.4629 -43.1044 91.4629 -42.9402 91.4629C-42.776 91.4629 -42.6118 91.4629 -42.4476 91.4629C-42.2834 91.4629 -42.1191 91.4629 -41.955 91.4629C-41.7907 91.4629 -41.6265 91.4629 -41.4623 91.4629C-41.2981 91.4629 -41.1338 91.4629 -40.9697 91.4629C-40.8054 91.4629 -40.6412 91.4629 -40.477 91.4629L-40.477 92.0078C-40.477 92.1884 -40.477 92.372 -40.477 92.5526C-40.477 92.7333 -40.477 92.9168 -40.477 93.0975C-40.477 93.2781 -40.477 93.4617 -40.477 93.6423C-40.477 93.823 -40.477 94.0066 -40.477 94.1872L-40.477 94.732C-40.477 94.9127 -40.477 95.0963 -40.477 95.2769C-40.477 95.4575 -40.477 95.6411 -40.477 95.8217C-40.477 96.0024 -40.477 96.186 -40.477 96.3666C-40.477 96.5472 -40.477 96.7308 -40.477 96.9114C-40.477 97.0921 -40.477 97.2757 -40.477 97.4563C-40.477 97.6369 -40.477 97.8205 -40.477 98.0011C-40.477 98.1818 -40.477 98.3654 -40.477 98.546C-40.477 98.7266 -40.477 98.9102 -40.477 99.0909C-40.477 99.2715 -40.477 99.4551 -40.477 99.6357C-40.477 99.8163 -40.477 99.9999 -40.477 100.181L-48.5318 100.181L-48.5318 117.065L-56.4946 117.065L-56.4946 108.833L-80.9678 108.833L-80.9678 91.4037L-88.9669 91.4037L-88.9669 83.1806L-97.1191 83.1806L-97.1191 86.352C-97.1191 86.5267 -97.1191 86.7014 -97.1191 86.8761L-97.1191 88.4485C-97.1191 88.6232 -97.1191 88.7979 -97.1191 88.9696C-97.1191 89.1414 -97.1191 89.3191 -97.1191 89.4908L-97.1191 90.012C-97.1191 90.1867 -97.1191 90.3584 -97.1191 90.5331C-97.1191 90.7078 -97.1191 90.8796 -97.1191 91.0543C-97.1191 91.229 -97.1191 91.4007 -97.1191 91.5754C-97.2749 91.5754 -97.4335 91.5754 -97.5894 91.5754C-97.7453 91.5754 -97.904 91.5754 -98.0598 91.5754L-98.5302 91.5754C-98.6888 91.5754 -98.8447 91.5754 -99.0034 91.5754L-99.4764 91.5754C-99.6351 91.5754 -99.7938 91.5754 -99.9524 91.5754L-100.915 91.5754C-101.077 91.5754 -101.238 91.5754 -101.403 91.5754L-104.946 91.5754L-104.946 99.7926L-97.2471 99.7926L-97.2471 91.4392C-97.0717 91.4363 -96.8964 91.4333 -96.7211 91.4304C-96.5457 91.4274 -96.3704 91.4244 -96.1951 91.4215C-96.0197 91.4185 -95.8444 91.4155 -95.669 91.4126C-95.4936 91.4096 -95.3184 91.4067 -95.143 91.4037C-94.9676 91.4007 -94.7922 91.3978 -94.6169 91.3948C-94.4416 91.3919 -94.2662 91.3889 -94.0909 91.3859C-93.9156 91.383 -93.7402 91.38 -93.5648 91.3771C-93.3895 91.3741 -93.2142 91.3711 -93.0388 91.3682C-92.8635 91.3652 -92.6881 91.3622 -92.5128 91.3593L-91.9868 91.3504C-91.8114 91.3474 -91.6361 91.3445 -91.4607 91.3415C-91.2854 91.3386 -91.11 91.3356 -90.9347 91.3297C-90.7593 91.3267 -90.584 91.3238 -90.4087 91.3178C-90.2333 91.3149 -90.0579 91.3119 -89.8826 91.306C-89.7073 91.303 -89.5319 91.3001 -89.3566 91.2941C-89.1812 91.2912 -89.0059 91.2882 -88.8305 91.2823C-88.8305 91.6288 -88.8305 91.9752 -88.8305 92.3217C-88.8305 92.6681 -88.8305 93.0146 -88.8305 93.364C-88.8305 93.7134 -88.8305 94.0599 -88.8305 94.4063C-88.8305 94.7557 -88.8305 95.1022 -88.8305 95.4516C-88.8305 95.801 -88.8305 96.1504 -88.8305 96.4998C-88.8305 96.8493 -88.8305 97.2016 -88.8305 97.5511C-88.8305 97.9005 -88.8305 98.2558 -88.8305 98.6082C-88.8305 98.9606 -88.8305 99.3159 -88.8305 99.6712C-88.8305 100.027 -88.8305 100.382 -88.8305 100.74C-88.8305 101.099 -88.8305 101.457 -88.8305 101.815C-88.8305 102.173 -88.8305 102.535 -88.8305 102.899C-88.8305 103.26 -88.8305 103.624 -88.8305 103.992C-88.8305 104.359 -88.8305 104.723 -88.8305 105.093C-88.8305 105.46 -88.8305 105.83 -88.8305 106.204L-88.8305 108.457L-105.096 108.457L-105.096 117.038L-113.217 117.038L-113.217 108.934L-121.523 108.934L-121.523 100.053L-113.674 100.053L-113.674 91.8153L-121.395 91.8153L-121.395 94.96C-121.395 95.1347 -121.395 95.3095 -121.395 95.4842L-121.395 97.0536C-121.395 97.2283 -121.395 97.403 -121.395 97.5777C-121.395 97.7524 -121.395 97.9271 -121.395 98.1018L-121.395 98.6259C-121.395 98.8007 -121.395 98.9754 -121.395 99.1501C-121.395 99.3248 -121.395 99.4995 -121.395 99.6742C-121.395 99.8489 -121.395 100.024 -121.395 100.198L-129.416 100.198L-129.416 108.685L-154.056 108.685L-154.056 126.168C-154.056 126.168 -154.056 126.168 -154.051 126.165C-154.045 126.162 -154.045 126.162 -154.042 126.159C-154.039 126.156 -154.037 126.153 -154.034 126.15C-154.031 126.147 -154.026 126.144 -154.023 126.138C-154.02 126.132 -154.014 126.129 -154.012 126.126C-154.006 126.123 -154.003 126.117 -153.998 126.114C-153.992 126.111 -153.989 126.105 -153.984 126.102C-153.978 126.1 -153.975 126.094 -153.97 126.091C-153.964 126.088 -153.961 126.082 -153.956 126.079C-153.95 126.076 -153.948 126.07 -153.945 126.067C-153.942 126.064 -153.936 126.061 -153.934 126.058C-153.931 126.055 -153.928 126.052 -153.925 126.049C-153.923 126.046 -153.92 126.043 -153.92 126.043C-153.92 126.043 -153.917 126.043 -153.917 126.04C-154.254 126.04 -154.591 126.04 -154.927 126.04C-155.264 126.04 -155.601 126.04 -155.935 126.04C-156.272 126.04 -156.608 126.04 -156.942 126.04C-157.279 126.04 -157.616 126.04 -157.95 126.04C-158.287 126.04 -158.624 126.04 -158.958 126.04C-159.294 126.04 -159.631 126.04 -159.965 126.04C-160.302 126.04 -160.639 126.04 -160.973 126.04C-161.309 126.04 -161.646 126.04 -161.98 126.04C-162.317 126.04 -162.654 126.04 -162.988 126.04C-163.324 126.04 -163.658 126.04 -163.995 126.04C-164.332 126.04 -164.666 126.04 -165.003 126.04C-165.339 126.04 -165.673 126.04 -166.01 126.04C-166.347 126.04 -166.681 126.04 -167.018 126.04C-167.355 126.04 -167.689 126.04 -168.025 126.04C-168.362 126.04 -168.696 126.04 -169.033 126.04C-169.37 126.04 -169.704 126.04 -170.04 126.04C-170.04 125.86 -170.04 125.676 -170.04 125.495C-170.04 125.315 -170.04 125.131 -170.04 124.951C-170.04 124.77 -170.04 124.586 -170.04 124.406C-170.04 124.225 -170.04 124.042 -170.04 123.861C-170.04 123.68 -170.04 123.497 -170.04 123.316C-170.04 123.135 -170.04 122.952 -170.04 122.771C-170.04 122.591 -170.04 122.407 -170.04 122.226C-170.04 122.046 -170.04 121.862 -170.04 121.681C-170.04 121.501 -170.04 121.317 -170.04 121.137C-170.04 120.956 -170.04 120.772 -170.04 120.592C-170.04 120.411 -170.04 120.228 -170.04 120.047C-170.04 119.866 -170.04 119.683 -170.04 119.502C-170.04 119.321 -170.04 119.138 -170.04 118.957C-170.04 118.777 -170.04 118.593 -170.04 118.412C-170.04 118.232 -170.04 118.048 -170.04 117.868C-170.04 117.687 -170.04 117.503 -170.04 117.323L-162.183 117.323L-162.183 108.854L-170.015 108.854L-170.015 100.246L-178.106 100.246L-178.106 91.8952L-185.849 91.8952L-185.849 100.109L-182.893 100.109C-182.729 100.109 -182.565 100.109 -182.401 100.109L-181.908 100.109C-181.744 100.109 -181.58 100.109 -181.416 100.109C-181.251 100.109 -181.087 100.109 -180.923 100.109L-180.43 100.109C-180.266 100.109 -180.102 100.109 -179.938 100.109C-179.773 100.109 -179.609 100.109 -179.445 100.109C-179.281 100.109 -179.117 100.109 -178.952 100.109C-178.788 100.109 -178.624 100.109 -178.46 100.109C-178.296 100.109 -178.131 100.109 -177.967 100.109L-177.967 108.718L-174.867 108.718C-174.697 108.718 -174.53 108.718 -174.36 108.718L-173.856 108.718C-173.689 108.718 -173.522 108.718 -173.355 108.718L-172.854 108.718C-172.687 108.718 -172.523 108.718 -172.356 108.718C-172.189 108.718 -172.025 108.718 -171.858 108.718C-171.691 108.718 -171.527 108.718 -171.362 108.718C-171.198 108.718 -171.031 108.718 -170.867 108.718C-170.703 108.718 -170.536 108.718 -170.372 108.718C-170.207 108.718 -170.04 108.718 -169.876 108.718C-169.876 108.898 -169.876 109.082 -169.876 109.262C-169.876 109.443 -169.876 109.627 -169.876 109.807C-169.876 109.988 -169.876 110.171 -169.876 110.352C-169.876 110.533 -169.876 110.716 -169.876 110.897C-169.876 111.078 -169.876 111.261 -169.876 111.442C-169.876 111.622 -169.876 111.806 -169.876 111.987C-169.876 112.167 -169.876 112.351 -169.876 112.532C-169.876 112.712 -169.876 112.896 -169.876 113.076C-169.876 113.257 -169.876 113.441 -169.876 113.621C-169.876 113.802 -169.876 113.985 -169.876 114.166C-169.876 114.347 -169.876 114.53 -169.876 114.711C-169.876 114.892 -169.876 115.075 -169.876 115.256C-169.876 115.436 -169.876 115.62 -169.876 115.801C-169.876 115.981 -169.876 116.165 -169.876 116.345C-169.876 116.526 -169.876 116.71 -169.876 116.89C-169.876 117.071 -169.876 117.255 -169.876 117.435L-177.956 117.435L-177.956 126.037L-178.975 126.028C-179.314 126.025 -179.654 126.023 -179.993 126.02C-180.333 126.017 -180.672 126.014 -181.012 126.011C-181.352 126.008 -181.691 126.005 -182.031 126.002C-182.37 125.999 -182.71 125.996 -183.049 125.993C-183.389 125.99 -183.728 125.987 -184.068 125.984C-184.408 125.981 -184.747 125.978 -185.087 125.975C-185.426 125.972 -185.766 125.969 -186.105 125.966C-186.445 125.963 -186.784 125.96 -187.124 125.957C-187.464 125.954 -187.803 125.951 -188.143 125.948C-188.482 125.946 -188.822 125.943 -189.161 125.94C-189.501 125.937 -189.841 125.934 -190.18 125.931C-190.52 125.928 -190.859 125.925 -191.199 125.922C-191.538 125.919 -191.878 125.916 -192.217 125.913C-192.557 125.91 -192.896 125.907 -193.236 125.904C-193.576 125.901 -193.915 125.898 -194.255 125.895L-194.246 125.904L-194.238 125.913L-194.23 125.922L-194.221 125.931L-194.213 125.94L-194.205 125.948L-194.196 125.957L-194.188 125.966L-194.18 125.975L-194.171 125.984L-194.163 125.993L-194.155 126.002L-194.146 126.011L-194.138 126.02L-194.129 126.028L-194.121 126.037L-194.121 117.506L-202.034 117.506L-202.034 108.892L-194.533 108.892L-194.533 100.275L-202.076 100.275C-202.084 100.083 -202.092 99.8904 -202.103 99.7008C-202.115 99.5113 -202.12 99.3248 -202.129 99.1382C-202.137 98.9517 -202.145 98.7681 -202.154 98.5845C-202.162 98.4009 -202.17 98.2203 -202.179 98.0396C-202.187 97.859 -202.195 97.6784 -202.204 97.5007C-202.212 97.323 -202.22 97.1454 -202.229 96.9677C-202.237 96.79 -202.245 96.6153 -202.254 96.4406C-202.262 96.2659 -202.271 96.0912 -202.279 95.9165C-202.287 95.7418 -202.296 95.57 -202.304 95.3983C-202.312 95.2265 -202.321 95.0518 -202.329 94.8801C-202.337 94.7083 -202.346 94.5366 -202.354 94.3648C-202.362 94.1931 -202.371 94.0214 -202.379 93.8496C-202.387 93.6779 -202.396 93.5061 -202.404 93.3344C-202.412 93.1626 -202.421 92.9879 -202.429 92.8162C-202.437 92.6444 -202.446 92.4697 -202.454 92.295C-202.463 92.1203 -202.471 91.9456 -202.479 91.7709L-210.214 91.7709L-210.214 108.685L-218.527 108.685L-218.519 108.694L-218.511 108.703L-218.502 108.712L-218.494 108.721L-218.486 108.729L-218.477 108.738L-218.469 108.747L-218.461 108.756L-218.452 108.765L-218.444 108.774L-218.436 108.783L-218.427 108.792L-218.419 108.8L-218.411 108.809L-218.402 108.818L-218.394 108.827L-218.394 100.302L-226.329 100.302C-226.34 100.109 -226.348 99.92 -226.357 99.7305C-226.365 99.5409 -226.376 99.3544 -226.385 99.1678C-226.393 98.9813 -226.404 98.7977 -226.412 98.6141C-226.421 98.4305 -226.432 98.2499 -226.44 98.0692C-226.449 97.8886 -226.46 97.708 -226.468 97.5303C-226.476 97.3526 -226.488 97.175 -226.496 96.9973C-226.504 96.8196 -226.513 96.6449 -226.524 96.4702C-226.535 96.2955 -226.54 96.1208 -226.552 95.9461C-226.56 95.7714 -226.568 95.5996 -226.579 95.4249C-226.591 95.2502 -226.596 95.0785 -226.607 94.9067C-226.616 94.735 -226.624 94.5632 -226.632 94.3885C-226.641 94.2168 -226.649 94.045 -226.657 93.8703C-226.666 93.6986 -226.674 93.5239 -226.685 93.3521C-226.696 93.1804 -226.702 93.0057 -226.713 92.831C-226.721 92.6563 -226.73 92.4845 -226.741 92.3098C-226.749 92.1351 -226.758 91.9604 -226.769 91.7827L-234.451 91.7827L-234.451 100.021L-242.514 100.021C-242.525 100.213 -242.533 100.403 -242.541 100.592C-242.55 100.782 -242.561 100.968 -242.569 101.155C-242.578 101.341 -242.589 101.525 -242.597 101.708C-242.605 101.892 -242.617 102.073 -242.625 102.253C-242.633 102.434 -242.644 102.615 -242.653 102.792C-242.661 102.97 -242.672 103.148 -242.681 103.325C-242.689 103.503 -242.697 103.678 -242.708 103.852C-242.717 104.027 -242.725 104.202 -242.736 104.376C-242.745 104.551 -242.753 104.723 -242.764 104.898C-242.772 105.069 -242.781 105.244 -242.792 105.416C-242.8 105.588 -242.809 105.759 -242.82 105.934C-242.828 106.106 -242.836 106.278 -242.845 106.452C-242.853 106.624 -242.862 106.796 -242.873 106.97C-242.881 107.142 -242.889 107.317 -242.9 107.492C-242.912 107.666 -242.917 107.838 -242.928 108.016C-242.939 108.193 -242.945 108.365 -242.956 108.543L-250.638 108.543L-250.638 100.169L-267.026 100.169L-267.026 -270.005L630.519 -270.005ZM169.651 74.6555L161.816 74.6555L161.816 83.154C161.651 83.154 161.49 83.154 161.326 83.154C161.162 83.154 161 83.154 160.836 83.154C160.672 83.154 160.507 83.154 160.343 83.154C160.179 83.154 160.015 83.154 159.851 83.154C159.686 83.154 159.522 83.154 159.358 83.154C159.194 83.154 159.027 83.154 158.863 83.154C158.698 83.154 158.531 83.154 158.364 83.154C158.197 83.154 158.03 83.154 157.863 83.154C157.696 83.154 157.529 83.154 157.36 83.154C157.19 83.154 157.023 83.154 156.853 83.154C156.683 83.154 156.514 83.154 156.344 83.154C156.174 83.154 156.004 83.154 155.832 83.154C155.659 83.154 155.489 83.154 155.317 83.154C155.144 83.154 154.972 83.154 154.796 83.154C154.621 83.154 154.448 83.154 154.273 83.154L153.744 83.154L153.744 91.1194L161.704 91.1195L161.704 83.0059C161.871 83.0029 162.041 83 162.208 82.9941C162.375 82.9911 162.545 82.9881 162.712 82.9822C162.879 82.9792 163.049 82.9763 163.216 82.9704C163.383 82.9674 163.552 82.9644 163.719 82.9585C163.886 82.9556 164.056 82.9526 164.223 82.9467C164.39 82.9437 164.56 82.9408 164.727 82.9348C164.894 82.9319 165.064 82.9289 165.231 82.923C165.398 82.92 165.567 82.9171 165.734 82.9111C165.901 82.9082 166.071 82.9052 166.238 82.8993C166.405 82.8963 166.575 82.8934 166.742 82.8875C166.909 82.8845 167.079 82.8815 167.246 82.8756C167.413 82.8726 167.583 82.8697 167.75 82.8638C167.917 82.8608 168.086 82.8578 168.253 82.8519C168.42 82.849 168.59 82.846 168.757 82.8401C168.924 82.8371 169.094 82.8342 169.261 82.8282C169.428 82.8253 169.598 82.8223 169.765 82.8164C169.765 82.9822 169.765 83.151 169.765 83.3168C169.765 83.4826 169.765 83.6514 169.765 83.8173C169.765 83.9831 169.765 84.1519 169.765 84.3177C169.765 84.4865 169.765 84.6523 169.765 84.8211C169.765 84.9899 169.765 85.1587 169.765 85.3245C169.765 85.4933 169.765 85.6621 169.765 85.8308L169.765 86.3402C169.765 86.5119 169.765 86.6807 169.765 86.8524L169.765 87.8918C169.765 88.0665 169.765 88.2412 169.765 88.4189L169.765 91.1402L177.488 91.1402L177.488 82.9496L169.637 82.9496L169.637 74.6199L169.651 74.6555ZM137.454 91.7976L129.302 91.7976L129.302 100.195C129.146 100.195 128.987 100.195 128.831 100.195C128.675 100.195 128.517 100.195 128.361 100.195C128.205 100.195 128.046 100.195 127.891 100.195L127.417 100.195C127.259 100.195 127.1 100.195 126.944 100.195L126.468 100.195C126.31 100.195 126.148 100.195 125.99 100.195L125.021 100.195C124.86 100.195 124.695 100.195 124.531 100.195L121.478 100.195L121.478 108.413L129.176 108.413L129.176 100.059C129.352 100.056 129.527 100.053 129.702 100.05C129.878 100.047 130.053 100.044 130.228 100.041C130.404 100.038 130.579 100.035 130.754 100.033C130.93 100.03 131.105 100.027 131.281 100.024C131.456 100.021 131.631 100.018 131.807 100.015C131.982 100.012 132.157 100.009 132.333 100.006C132.508 100.003 132.683 99.9999 132.859 99.997C133.034 99.994 133.209 99.9911 133.385 99.9881C133.56 99.9851 133.735 99.9822 133.911 99.9792C134.086 99.9763 134.261 99.9733 134.437 99.9703C134.612 99.9674 134.787 99.9644 134.963 99.9615C135.138 99.9585 135.313 99.9555 135.489 99.9526C135.664 99.9496 135.839 99.9466 136.015 99.9437C136.19 99.9407 136.366 99.9378 136.541 99.9348C136.716 99.9318 136.892 99.9289 137.067 99.9259C137.242 99.9229 137.418 99.92 137.593 99.917C137.593 100.092 137.593 100.263 137.593 100.438C137.593 100.613 137.593 100.785 137.593 100.959C137.593 101.134 137.593 101.309 137.593 101.483C137.593 101.658 137.593 101.833 137.593 102.008C137.593 102.182 137.593 102.357 137.593 102.532C137.593 102.706 137.593 102.884 137.593 103.059C137.593 103.234 137.593 103.411 137.593 103.589C137.593 103.767 137.593 103.944 137.593 104.122C137.593 104.3 137.593 104.477 137.593 104.658C137.593 104.838 137.593 105.016 137.593 105.197C137.593 105.377 137.593 105.558 137.593 105.739C137.593 105.919 137.593 106.1 137.593 106.284C137.593 106.467 137.593 106.648 137.593 106.831C137.593 107.015 137.593 107.199 137.593 107.385C137.593 107.572 137.593 107.755 137.593 107.942L137.593 108.504L145.08 108.504L145.08 100.035L137.454 100.035L137.454 91.8124L137.454 91.7976ZM242.569 99.7779L250.312 99.7779L250.312 91.5636L242.441 91.5636C242.441 91.2172 242.441 90.8737 242.441 90.5272C242.441 90.1808 242.441 89.8373 242.441 89.4908C242.441 89.1444 242.441 88.8009 242.441 88.4544C242.441 88.108 242.441 87.7615 242.441 87.4151C242.441 87.0686 242.441 86.7222 242.441 86.3757C242.441 86.0292 242.441 85.6798 242.441 85.3334L242.441 84.2881C242.441 83.9387 242.441 83.5893 242.441 83.2369L242.441 81.1256C242.441 80.7732 242.441 80.4179 242.441 80.0625L242.441 74.6495L234.717 74.6495L234.717 91.4274L242.569 91.4274L242.569 99.7779ZM88.5186 99.9289L88.5186 83.1362L80.8813 83.1362L80.8813 91.2764C80.7004 91.2853 80.5195 91.2942 80.3414 91.306C80.1632 91.3149 79.9851 91.3238 79.8098 91.3326C79.6344 91.3415 79.459 91.3504 79.2865 91.3593C79.114 91.3682 78.9414 91.3771 78.7716 91.3859C78.6018 91.3948 78.432 91.4037 78.2623 91.4126C78.0925 91.4215 77.9255 91.4304 77.7585 91.4393C77.5915 91.4481 77.4273 91.457 77.2603 91.4659C77.0961 91.4748 76.9318 91.4837 76.7676 91.4926C76.6035 91.5014 76.4393 91.5103 76.2778 91.5192C76.1136 91.5281 75.9522 91.537 75.788 91.5458C75.6265 91.5547 75.4623 91.5636 75.3009 91.5725C75.1395 91.5814 74.9753 91.5903 74.8138 91.5991C74.6524 91.608 74.4882 91.6169 74.324 91.6258C74.1597 91.6347 73.9984 91.6436 73.8341 91.6525C73.6699 91.6613 73.5057 91.6702 73.3415 91.6791C73.1773 91.688 73.0103 91.6969 72.8433 91.7058L72.8433 99.9318L88.5214 99.9318L88.5186 99.9289ZM323.72 74.4837L323.72 82.6299L339.382 82.6299L339.382 74.4837L323.72 74.4837ZM-138.078 100.03L-138.078 91.836L-145.556 91.836L-145.556 100.03L-138.078 100.03ZM542.064 99.772L549.668 99.772L549.668 91.768L542.064 91.768L542.064 99.772ZM-243.112 83.2457L-250.713 83.2457L-250.713 91.2467L-243.112 91.2467L-243.112 83.2457ZM-154.148 91.303L-154.148 83.2753L-161.693 83.2753L-161.693 91.303L-154.148 91.303ZM-72.6876 83.1214L-72.6876 91.2083L-65.1672 91.2083L-65.1672 83.1214L-72.6876 83.1214ZM105.302 83.1214L105.302 91.2083L112.822 91.2083L112.822 83.1214L105.302 83.1214ZM-121.762 82.6742L-121.762 74.6465L-129.352 74.6465L-129.352 82.6742L-121.762 82.6742ZM137.181 65.9882L129.491 65.9882L129.491 73.9181L137.181 73.9181L137.181 65.9882ZM291.293 65.8964L291.293 73.9241L298.838 73.9241L298.838 65.8964L291.293 65.8964ZM428.683 73.9359L436.387 73.9359L436.387 66.08L428.683 66.08L428.683 73.9359ZM444.937 65.393L452.627 65.393L452.627 57.463L444.937 57.463L444.937 65.393ZM493.16 57.3801L485.469 57.3801L485.469 65.3101L493.16 65.3101L493.16 57.3801Z" fill="#BCBBF9"/>
<path d="M202.14 125.89L202.14 134.424L209.931 134.424C209.939 134.617 209.95 134.809 209.959 134.999C209.967 135.188 209.978 135.375 209.986 135.561C209.995 135.748 210.003 135.931 210.014 136.115C210.023 136.299 210.031 136.479 210.042 136.66C210.05 136.841 210.059 137.021 210.067 137.199C210.076 137.377 210.084 137.554 210.092 137.732C210.101 137.91 210.109 138.084 210.117 138.259C210.126 138.434 210.134 138.608 210.142 138.783C210.151 138.958 210.159 139.13 210.167 139.304C210.176 139.476 210.184 139.651 210.192 139.822C210.201 139.994 210.209 140.166 210.217 140.338C210.226 140.509 210.234 140.681 210.243 140.853C210.251 141.025 210.259 141.196 210.268 141.368C210.276 141.54 210.284 141.715 210.293 141.886C210.301 142.058 210.309 142.233 210.318 142.408C210.326 142.582 210.334 142.757 210.343 142.932L217.924 142.932L217.924 126.023L202.01 126.023L202.018 126.015L202.026 126.006L202.035 125.997L202.043 125.988L202.051 125.979L202.06 125.97L202.068 125.961L202.076 125.952L202.085 125.944L202.093 125.935L202.102 125.926L202.11 125.917L202.118 125.908L202.127 125.899L202.135 125.89L202.143 125.881L202.14 125.89Z" fill="#BCBBF9"/>
<path d="M202.012 126.023C202.009 125.837 202.007 125.65 202.004 125.464C202.001 125.277 201.998 125.091 201.996 124.904C201.993 124.718 201.99 124.531 201.987 124.344C201.984 124.158 201.982 123.971 201.979 123.785C201.976 123.598 201.973 123.412 201.971 123.225C201.968 123.039 201.965 122.852 201.962 122.665C201.959 122.479 201.957 122.292 201.954 122.106C201.951 121.919 201.948 121.733 201.945 121.546C201.943 121.36 201.94 121.173 201.937 120.987C201.934 120.8 201.932 120.613 201.929 120.427C201.926 120.24 201.923 120.054 201.92 119.867C201.918 119.681 201.915 119.494 201.909 119.308C201.906 119.121 201.904 118.934 201.898 118.748C201.895 118.561 201.893 118.375 201.887 118.188C201.884 118.002 201.881 117.815 201.876 117.629C201.873 117.442 201.87 117.255 201.865 117.069C201.865 117.069 201.865 117.069 201.868 117.072C201.87 117.075 201.87 117.075 201.873 117.078C201.873 117.078 201.879 117.084 201.881 117.087C201.884 117.09 201.887 117.093 201.89 117.099C201.893 117.104 201.895 117.107 201.901 117.11C201.904 117.113 201.909 117.119 201.912 117.125C201.915 117.131 201.92 117.134 201.923 117.14C201.926 117.146 201.932 117.149 201.934 117.155C201.937 117.161 201.943 117.164 201.945 117.17C201.948 117.176 201.954 117.178 201.957 117.181C201.959 117.184 201.962 117.19 201.965 117.193C201.968 117.196 201.971 117.199 201.973 117.202L201.979 117.208C201.979 117.208 201.979 117.211 201.982 117.211C201.659 117.211 201.333 117.211 201.01 117.211C200.687 117.211 200.362 117.211 200.039 117.211C199.716 117.211 199.39 117.211 199.068 117.211C198.745 117.211 198.419 117.211 198.093 117.211C197.768 117.211 197.445 117.211 197.119 117.211C196.794 117.211 196.468 117.211 196.142 117.211C195.817 117.211 195.491 117.211 195.163 117.211C194.837 117.211 194.509 117.211 194.18 117.211C193.852 117.211 193.523 117.211 193.195 117.211C192.866 117.211 192.535 117.211 192.207 117.211C191.876 117.211 191.544 117.211 191.213 117.211C190.882 117.211 190.548 117.211 190.217 117.211C189.883 117.211 189.549 117.211 189.215 117.211C188.881 117.211 188.544 117.211 188.207 117.211L186.176 117.211L186.176 125.884L193.187 125.884C193.521 125.884 193.852 125.884 194.183 125.884L196.176 125.884C196.507 125.884 196.841 125.884 197.172 125.884L198.169 125.884C198.5 125.884 198.831 125.884 199.162 125.884C199.493 125.884 199.825 125.884 200.156 125.884C200.487 125.884 200.818 125.884 201.149 125.884C201.481 125.884 201.812 125.884 202.143 125.884C202.143 125.884 202.143 125.884 202.14 125.887C202.137 125.89 202.137 125.89 202.135 125.893C202.135 125.893 202.129 125.899 202.126 125.902C202.124 125.905 202.121 125.908 202.118 125.911C202.115 125.914 202.11 125.92 202.107 125.923C202.104 125.926 202.099 125.932 202.096 125.935C202.093 125.938 202.087 125.943 202.085 125.946C202.082 125.949 202.076 125.955 202.073 125.958C202.071 125.961 202.065 125.967 202.062 125.97C202.06 125.973 202.054 125.979 202.051 125.982C202.048 125.985 202.046 125.988 202.043 125.991C202.04 125.994 202.037 125.997 202.035 126L202.029 126.006L202.026 126.009L202.012 126.023Z" fill="#BCBBF9"/>
<path d="M242.598 134.604L226.675 134.604L226.675 142.842L242.47 142.842L242.47 140.224C242.47 140.049 242.47 139.875 242.47 139.7L242.47 138.655C242.47 138.48 242.47 138.305 242.47 138.131L242.47 137.606C242.47 137.432 242.47 137.257 242.47 137.082C242.47 136.908 242.47 136.733 242.47 136.558C242.47 136.384 242.47 136.209 242.47 136.034C242.47 135.859 242.47 135.685 242.47 135.51C242.47 135.335 242.47 135.161 242.47 134.986C242.47 134.811 242.47 134.636 242.47 134.462C242.47 134.462 242.47 134.462 242.472 134.465C242.472 134.465 242.475 134.468 242.478 134.471C242.478 134.471 242.484 134.477 242.486 134.48C242.489 134.482 242.492 134.485 242.495 134.488C242.497 134.491 242.503 134.497 242.506 134.5C242.509 134.503 242.514 134.509 242.517 134.512C242.52 134.515 242.525 134.521 242.528 134.524C242.531 134.527 242.536 134.533 242.539 134.536C242.542 134.539 242.548 134.545 242.55 134.548C242.553 134.551 242.559 134.556 242.561 134.559C242.564 134.562 242.567 134.565 242.57 134.568C242.573 134.571 242.575 134.574 242.578 134.577L242.584 134.583L242.587 134.586L242.598 134.604Z" fill="#BCBBF9"/>
<path d="M404.405 117.391L388.479 117.391L388.479 125.629L404.274 125.629L404.274 123.535C404.274 123.361 404.274 123.186 404.274 123.011L404.274 121.966C404.274 121.791 404.274 121.617 404.274 121.442C404.274 121.267 404.274 121.092 404.274 120.918C404.274 120.743 404.274 120.568 404.274 120.394C404.274 120.219 404.274 120.044 404.274 119.869C404.274 119.695 404.274 119.52 404.274 119.345C404.274 119.171 404.274 118.996 404.274 118.821C404.274 118.647 404.274 118.472 404.274 118.297C404.274 118.122 404.274 117.948 404.274 117.773C404.274 117.598 404.274 117.424 404.274 117.249C404.274 117.249 404.274 117.249 404.277 117.252C404.277 117.252 404.28 117.255 404.282 117.258C404.285 117.261 404.288 117.264 404.291 117.267C404.293 117.27 404.296 117.273 404.299 117.275C404.302 117.278 404.307 117.284 404.31 117.287C404.313 117.29 404.319 117.296 404.321 117.299C404.324 117.302 404.33 117.308 404.332 117.311C404.335 117.314 404.341 117.32 404.344 117.323C404.346 117.326 404.352 117.332 404.355 117.335C404.357 117.338 404.363 117.344 404.366 117.347C404.369 117.35 404.371 117.352 404.374 117.355C404.377 117.358 404.38 117.361 404.383 117.364L404.388 117.37L404.391 117.373L404.405 117.391Z" fill="#BCBBF9"/>
<path d="M8.10235 126.2L8.10235 134.201L15.7034 134.201L15.7034 126.2L8.10235 126.2Z" fill="#BCBBF9"/>
<path d="M48.5993 125.715L48.5992 134.314L56.0862 134.314L56.0862 125.846L55.1677 125.846C55.0146 125.846 54.8588 125.846 54.7029 125.846C54.547 125.846 54.3912 125.846 54.2353 125.846C54.0795 125.846 53.9208 125.846 53.7649 125.846C53.6063 125.846 53.4504 125.846 53.2918 125.846C53.1331 125.846 52.9745 125.846 52.8159 125.846C52.6572 125.846 52.4986 125.846 52.3371 125.846C52.1785 125.846 52.0171 125.846 51.8556 125.846C51.6942 125.846 51.5356 125.846 51.3741 125.846C51.2127 125.846 51.0513 125.846 50.8899 125.846C50.7284 125.846 50.567 125.846 50.4056 125.846C50.2442 125.846 50.0827 125.846 49.9185 125.846C49.7571 125.846 49.5929 125.846 49.4314 125.846C49.27 125.846 49.1058 125.846 48.9444 125.846C48.7829 125.846 48.6187 125.846 48.4573 125.846C48.4573 125.846 48.4573 125.846 48.4601 125.843C48.4601 125.843 48.4628 125.84 48.4656 125.837C48.4656 125.837 48.4712 125.831 48.4739 125.828C48.4767 125.825 48.4795 125.822 48.4851 125.819C48.4879 125.816 48.4935 125.813 48.4962 125.807C48.5018 125.804 48.5046 125.798 48.5102 125.795C48.5157 125.792 48.5185 125.786 48.5241 125.783C48.5297 125.78 48.5324 125.774 48.538 125.772C48.5435 125.769 48.5463 125.763 48.5519 125.76C48.5575 125.757 48.5602 125.751 48.563 125.748C48.5658 125.745 48.5714 125.742 48.5742 125.736C48.577 125.73 48.5798 125.73 48.5825 125.727C48.5853 125.724 48.5881 125.721 48.5909 125.721C48.5909 125.721 48.5937 125.718 48.5965 125.718L48.5993 125.715Z" fill="#BCBBF9"/>
<path d="M137.421 125.996L129.572 125.996L129.572 134.234L137.293 134.234L137.293 131.614C137.293 131.439 137.293 131.264 137.293 131.09L137.293 130.044C137.293 129.87 137.293 129.695 137.293 129.52L137.293 128.996C137.293 128.821 137.293 128.647 137.293 128.472C137.293 128.297 137.293 128.123 137.293 127.948C137.293 127.773 137.293 127.598 137.293 127.424C137.293 127.249 137.293 127.074 137.293 126.9C137.293 126.725 137.293 126.55 137.293 126.375C137.293 126.201 137.293 126.026 137.293 125.851C137.293 125.851 137.293 125.851 137.296 125.854C137.298 125.857 137.298 125.857 137.301 125.86C137.301 125.86 137.307 125.866 137.31 125.869C137.312 125.872 137.315 125.875 137.318 125.878C137.321 125.881 137.326 125.887 137.329 125.89C137.332 125.893 137.337 125.899 137.34 125.902C137.343 125.905 137.349 125.911 137.351 125.914C137.354 125.917 137.36 125.922 137.362 125.925C137.365 125.928 137.371 125.934 137.374 125.937C137.376 125.94 137.382 125.946 137.385 125.949C137.387 125.952 137.39 125.955 137.393 125.958C137.396 125.961 137.399 125.964 137.401 125.967C137.404 125.97 137.407 125.973 137.407 125.973L137.41 125.973L137.41 125.979L137.421 125.996Z" fill="#BCBBF9"/>
<path d="M145.486 125.859L145.486 134.209L153.229 134.209L153.229 125.995L150.274 125.995C150.109 125.995 149.945 125.995 149.781 125.995L148.306 125.995C148.142 125.995 147.977 125.995 147.813 125.995C147.649 125.995 147.485 125.995 147.321 125.995L146.828 125.995C146.664 125.995 146.5 125.995 146.335 125.995C146.171 125.995 146.007 125.995 145.843 125.995C145.679 125.995 145.514 125.995 145.35 125.995C145.35 125.995 145.35 125.995 145.353 125.992C145.353 125.992 145.356 125.989 145.358 125.986C145.361 125.983 145.364 125.98 145.367 125.977C145.37 125.974 145.372 125.971 145.375 125.968C145.378 125.965 145.383 125.959 145.386 125.956C145.389 125.953 145.395 125.947 145.397 125.944C145.4 125.941 145.406 125.936 145.409 125.933C145.411 125.93 145.417 125.924 145.42 125.921C145.422 125.918 145.428 125.912 145.431 125.909C145.434 125.906 145.439 125.9 145.442 125.897C145.445 125.894 145.447 125.891 145.45 125.888C145.453 125.885 145.456 125.882 145.459 125.879C145.461 125.876 145.464 125.873 145.464 125.873L145.467 125.87L145.486 125.859Z" fill="#BCBBF9"/>
<path d="M266.865 125.886L266.865 134.213L274.589 134.213L274.589 126.022L266.737 126.022L266.746 126.013L266.754 126.005L266.762 125.996L266.771 125.987L266.779 125.978L266.787 125.969L266.796 125.96L266.804 125.951L266.812 125.942L266.821 125.934L266.829 125.925L266.838 125.916L266.846 125.907L266.854 125.898L266.863 125.889L266.871 125.88L266.865 125.886Z" fill="#BCBBF9"/>
<path d="M290.842 134.24L290.842 126.165L283.297 126.165L283.297 134.24L290.842 134.24Z" fill="#BCBBF9"/>
<path d="M420.553 126.018L412.727 126.018L412.727 134.238L420.425 134.238L420.425 125.882L420.434 125.891L420.442 125.9L420.45 125.909L420.459 125.917L420.467 125.926L420.475 125.935L420.484 125.944L420.492 125.953L420.5 125.962L420.509 125.971L420.517 125.98L420.525 125.989L420.534 125.997L420.542 126.006L420.55 126.015L420.559 126.024L420.553 126.018Z" fill="#BCBBF9"/>
<path d="M444.728 134.469L452.555 134.469L452.555 126.249L444.856 126.249L444.856 134.605L444.848 134.597L444.84 134.588L444.831 134.579L444.823 134.57L444.815 134.561L444.806 134.552L444.798 134.543L444.79 134.534L444.781 134.526L444.773 134.517L444.765 134.508L444.756 134.499L444.748 134.49L444.74 134.481L444.731 134.472L444.723 134.463L444.728 134.469Z" fill="#BCBBF9"/>
<path d="M461.175 126.249L461.175 134.324L468.72 134.324L468.72 126.249L461.175 126.249Z" fill="#BCBBF9"/>
<path d="M493.394 125.888L493.394 134.463L501.462 134.463L501.454 134.472L501.445 134.481L501.437 134.49L501.429 134.499L501.42 134.508L501.412 134.517L501.404 134.526L501.395 134.534L501.387 134.543L501.379 134.552L501.37 134.561L501.362 134.57L501.354 134.579L501.345 134.588L501.337 134.597L501.329 134.605L501.329 126.03L493.26 126.03L493.268 126.021L493.277 126.012L493.285 126.003L493.293 125.994L493.302 125.986L493.31 125.977L493.318 125.968L493.327 125.959L493.335 125.95L493.343 125.941L493.352 125.932L493.36 125.923L493.368 125.914L493.377 125.906L493.385 125.897L493.394 125.888Z" fill="#BCBBF9"/>
<path d="M541.914 125.859L541.914 134.209L549.657 134.209L549.657 125.995L547.194 125.995C547.03 125.995 546.865 125.995 546.701 125.995L545.719 125.995C545.554 125.995 545.39 125.995 545.226 125.995C545.062 125.995 544.898 125.995 544.733 125.995C544.569 125.995 544.405 125.995 544.241 125.995C544.077 125.995 543.912 125.995 543.748 125.995C543.584 125.995 543.42 125.995 543.255 125.995C543.091 125.995 542.927 125.995 542.763 125.995C542.599 125.995 542.434 125.995 542.27 125.995C542.106 125.995 541.942 125.995 541.778 125.995C541.778 125.995 541.778 125.995 541.78 125.992C541.78 125.992 541.783 125.989 541.786 125.986C541.789 125.983 541.791 125.98 541.794 125.977C541.797 125.974 541.8 125.971 541.803 125.968C541.805 125.965 541.811 125.959 541.814 125.956C541.817 125.953 541.822 125.947 541.825 125.944C541.828 125.941 541.833 125.936 541.836 125.933C541.839 125.93 541.844 125.924 541.847 125.921C541.85 125.918 541.856 125.912 541.858 125.909C541.861 125.906 541.867 125.9 541.869 125.897C541.872 125.894 541.875 125.891 541.878 125.888C541.881 125.885 541.883 125.882 541.886 125.879C541.889 125.876 541.892 125.873 541.892 125.873L541.894 125.87L541.914 125.859Z" fill="#BCBBF9"/>
<path d="M48.4132 117.267L40.197 117.267L40.197 125.727L41.2937 125.727C41.4746 125.727 41.6555 125.727 41.8336 125.727C42.0145 125.727 42.1926 125.727 42.3707 125.727C42.5489 125.727 42.727 125.727 42.9023 125.727C43.0805 125.727 43.2558 125.727 43.4312 125.727C43.6065 125.727 43.7818 125.727 43.9572 125.727C44.1325 125.727 44.3051 125.727 44.4805 125.727C44.653 125.727 44.8283 125.727 45.0009 125.727C45.1735 125.727 45.3461 125.727 45.5186 125.727C45.6912 125.727 45.8637 125.727 46.0335 125.727C46.206 125.727 46.3759 125.727 46.5484 125.727C46.721 125.727 46.8908 125.727 47.0606 125.727C47.2303 125.727 47.4029 125.727 47.5726 125.727C47.7424 125.727 47.915 125.727 48.0848 125.727L48.5969 125.727C48.5969 125.727 48.5969 125.727 48.5941 125.73C48.5941 125.73 48.5913 125.733 48.5886 125.736C48.5886 125.736 48.583 125.742 48.5802 125.745C48.5774 125.748 48.5746 125.751 48.5691 125.754C48.5663 125.757 48.5607 125.76 48.5579 125.766C48.5524 125.769 48.5496 125.775 48.544 125.778C48.5384 125.78 48.5357 125.786 48.5301 125.789C48.5246 125.792 48.5218 125.798 48.5162 125.801C48.5106 125.804 48.5078 125.81 48.5023 125.813C48.4995 125.816 48.4939 125.822 48.4911 125.825C48.4883 125.828 48.4828 125.831 48.48 125.834C48.4772 125.837 48.4744 125.84 48.4716 125.843L48.4661 125.849C48.4661 125.849 48.4633 125.849 48.4633 125.852C48.4633 125.674 48.4633 125.493 48.4633 125.316C48.4633 125.138 48.4633 124.957 48.4633 124.78C48.4633 124.602 48.4633 124.421 48.4633 124.244C48.4633 124.066 48.4633 123.885 48.4633 123.708C48.4633 123.53 48.4633 123.349 48.4633 123.172C48.4633 122.994 48.4633 122.813 48.4633 122.636C48.4633 122.458 48.4633 122.277 48.4633 122.1C48.4633 121.922 48.4633 121.741 48.4605 121.564C48.4605 121.386 48.4605 121.206 48.4578 121.028C48.4578 120.85 48.4578 120.67 48.455 120.492C48.455 120.314 48.455 120.134 48.4522 119.956C48.4522 119.778 48.4522 119.598 48.4494 119.42C48.4494 119.242 48.4494 119.062 48.4466 118.884C48.4438 118.706 48.4466 118.526 48.4438 118.348C48.4438 118.17 48.4438 117.99 48.441 117.812C48.441 117.634 48.441 117.454 48.4383 117.276L48.4132 117.267Z" fill="#BCBBF9"/>
<path d="M266.737 126.023L266.737 117.673L258.994 117.673L258.994 125.887L261.95 125.887C262.114 125.887 262.278 125.887 262.442 125.887L262.935 125.887C263.099 125.887 263.263 125.887 263.428 125.887C263.592 125.887 263.756 125.887 263.92 125.887L264.413 125.887C264.577 125.887 264.741 125.887 264.905 125.887C265.07 125.887 265.234 125.887 265.398 125.887C265.562 125.887 265.726 125.887 265.891 125.887C266.055 125.887 266.219 125.887 266.383 125.887C266.548 125.887 266.712 125.887 266.876 125.887C266.876 125.887 266.876 125.887 266.873 125.89C266.87 125.893 266.87 125.893 266.868 125.896C266.868 125.896 266.862 125.902 266.859 125.905C266.857 125.908 266.854 125.911 266.851 125.914C266.848 125.917 266.843 125.923 266.84 125.926C266.837 125.929 266.831 125.935 266.829 125.938C266.826 125.941 266.82 125.946 266.818 125.949C266.815 125.952 266.809 125.958 266.806 125.961L266.795 125.973C266.795 125.973 266.787 125.982 266.784 125.985C266.781 125.988 266.779 125.991 266.776 125.994C266.773 125.997 266.77 126 266.767 126.003L266.762 126.009L266.759 126.012L266.737 126.023Z" fill="#BCBBF9"/>
<path d="M355.72 117.268L355.72 126.01L363.566 126.01L363.566 117.268L355.72 117.268Z" fill="#BCBBF9"/>
<path d="M379.837 125.633L379.837 117.558L372.291 117.558L372.291 125.633L379.837 125.633Z" fill="#BCBBF9"/>
<path d="M420.426 125.884L428.278 125.884L428.278 117.646L420.554 117.646L420.554 120.267C420.554 120.442 420.554 120.616 420.554 120.791L420.554 121.836C420.554 122.011 420.554 122.186 420.554 122.36L420.554 122.885C420.554 123.059 420.554 123.234 420.554 123.409C420.554 123.583 420.554 123.758 420.554 123.933C420.554 124.108 420.554 124.282 420.554 124.457C420.554 124.632 420.554 124.806 420.554 124.981C420.554 125.156 420.554 125.33 420.554 125.505C420.554 125.68 420.554 125.855 420.554 126.029C420.554 126.029 420.554 126.029 420.551 126.026C420.551 126.026 420.548 126.023 420.546 126.02C420.546 126.02 420.54 126.014 420.537 126.012C420.535 126.009 420.532 126.006 420.529 126.003C420.526 126 420.521 125.994 420.518 125.991C420.515 125.988 420.51 125.982 420.507 125.979C420.504 125.976 420.498 125.97 420.496 125.967C420.493 125.964 420.487 125.958 420.484 125.955C420.482 125.952 420.476 125.946 420.473 125.943C420.471 125.94 420.465 125.935 420.462 125.932C420.459 125.929 420.457 125.926 420.454 125.923C420.451 125.92 420.448 125.917 420.445 125.914L420.44 125.908L420.437 125.905L420.426 125.884Z" fill="#BCBBF9"/>
<path d="M493.266 126.023L493.266 117.673L485.523 117.673L485.523 125.887L488.479 125.887C488.643 125.887 488.807 125.887 488.971 125.887L489.464 125.887C489.628 125.887 489.792 125.887 489.957 125.887C490.121 125.887 490.285 125.887 490.449 125.887L490.942 125.887C491.106 125.887 491.27 125.887 491.434 125.887C491.599 125.887 491.763 125.887 491.927 125.887C492.091 125.887 492.256 125.887 492.42 125.887C492.584 125.887 492.748 125.887 492.912 125.887C493.077 125.887 493.241 125.887 493.405 125.887C493.405 125.887 493.405 125.887 493.402 125.89C493.399 125.893 493.399 125.893 493.397 125.896C493.397 125.896 493.391 125.902 493.388 125.905C493.386 125.908 493.383 125.911 493.38 125.914C493.377 125.917 493.372 125.923 493.369 125.926C493.366 125.929 493.36 125.935 493.358 125.938C493.355 125.941 493.349 125.946 493.347 125.949C493.344 125.952 493.338 125.958 493.335 125.961L493.324 125.973C493.324 125.973 493.316 125.982 493.313 125.985C493.31 125.988 493.308 125.991 493.305 125.994C493.302 125.997 493.299 126 493.296 126.003L493.291 126.009L493.288 126.012L493.266 126.023Z" fill="#BCBBF9"/>
<path d="M509.79 125.711L517.38 125.711L517.38 117.683L509.79 117.683L509.79 125.711Z" fill="#BCBBF9"/>
<path d="M-0.255894 108.659L-0.255895 117.4L7.59009 117.4L7.59009 108.659L-0.255894 108.659Z" fill="#BCBBF9"/>
<path d="M177.856 108.66L169.64 108.66L169.64 117.008L177.856 117.008L177.856 108.66Z" fill="#BCBBF9"/>
<path d="M306.996 134.764L299.473 134.764L299.473 142.854L306.996 142.854L306.996 134.764Z" fill="#BCBBF9"/>
<path d="M444.855 134.604L437.004 134.604L437.004 142.842L444.727 142.842L444.727 140.221C444.727 140.046 444.727 139.872 444.727 139.697L444.727 138.652C444.727 138.477 444.727 138.302 444.727 138.128C444.727 137.953 444.727 137.778 444.727 137.604L444.727 137.079C444.727 136.905 444.727 136.73 444.727 136.555C444.727 136.381 444.727 136.206 444.727 136.031C444.727 135.856 444.727 135.682 444.727 135.507C444.727 135.332 444.727 135.158 444.727 134.983C444.727 134.808 444.727 134.633 444.727 134.459C444.727 134.459 444.727 134.459 444.73 134.462C444.73 134.462 444.733 134.465 444.736 134.468C444.736 134.468 444.741 134.474 444.744 134.477C444.747 134.48 444.75 134.482 444.752 134.485C444.755 134.488 444.761 134.494 444.764 134.497C444.766 134.5 444.772 134.506 444.775 134.509C444.778 134.512 444.783 134.518 444.786 134.521C444.789 134.524 444.794 134.53 444.797 134.533C444.8 134.536 444.805 134.542 444.808 134.545L444.819 134.556C444.819 134.556 444.825 134.562 444.828 134.565C444.83 134.568 444.833 134.571 444.836 134.574L444.842 134.58L444.844 134.583L444.855 134.604Z" fill="#BCBBF9"/>
<path d="M501.462 134.464L501.462 142.814L509.205 142.814L509.205 134.6L506.741 134.6C506.577 134.6 506.413 134.6 506.249 134.6L505.266 134.6C505.102 134.6 504.938 134.6 504.774 134.6C504.609 134.6 504.445 134.6 504.281 134.6L503.788 134.6C503.624 134.6 503.46 134.6 503.296 134.6C503.132 134.6 502.967 134.6 502.803 134.6C502.639 134.6 502.475 134.6 502.31 134.6C502.146 134.6 501.982 134.6 501.818 134.6C501.654 134.6 501.489 134.6 501.325 134.6C501.325 134.6 501.325 134.6 501.328 134.597C501.328 134.597 501.331 134.594 501.334 134.591C501.334 134.591 501.339 134.585 501.342 134.582C501.345 134.579 501.347 134.577 501.35 134.574C501.353 134.571 501.359 134.565 501.361 134.562C501.364 134.559 501.37 134.553 501.373 134.55C501.375 134.547 501.381 134.541 501.384 134.538C501.386 134.535 501.392 134.529 501.395 134.526C501.398 134.523 501.403 134.517 501.406 134.514C501.409 134.511 501.414 134.505 501.417 134.503C501.42 134.5 501.423 134.497 501.425 134.494C501.428 134.491 501.431 134.488 501.434 134.485L501.439 134.479L501.442 134.479L501.442 134.473L501.462 134.464Z" fill="#BCBBF9"/>
</g>
<defs>
<clipPath id="clip0_3637_2512">
<rect width="542.001" height="151.373" fill="white" transform="translate(542 151.373) rotate(-180)"/>
</clipPath>
</defs>
</svg>
