<svg width="400" height="416" viewBox="0 0 400 416" fill="none" xmlns="http://www.w3.org/2000/svg">
<g clip-path="url(#clip0_4375_6610)">
<path d="M400 11.2113V404.781C400 410.975 394.964 415.992 388.746 415.992H328.549C324.526 415.992 322.055 411.662 324.054 408.181C326.321 404.234 327.615 399.664 327.615 394.783C327.615 379.64 315.115 367.412 299.835 367.771C285.424 368.114 273.681 379.84 273.376 394.196C273.264 399.285 274.57 404.062 276.922 408.169C278.921 411.658 276.465 415.996 272.431 415.996H127.565C123.535 415.996 121.079 411.658 123.074 408.169C125.426 404.066 126.732 399.289 126.62 394.196C126.315 379.84 114.572 368.114 100.161 367.771C84.8807 367.412 72.3805 379.64 72.3805 394.783C72.3805 399.66 73.6746 404.23 75.9423 408.181C77.9415 411.666 75.4695 415.992 71.447 415.992H11.2541C5.03611 415.992 0 410.975 0 404.781V11.2113C0 5.01699 5.03611 8.49231e-05 11.2541 8.49231e-05H71.443C75.4775 8.49231e-05 77.9295 4.33849 75.9343 7.82678C73.5825 11.9297 72.2804 16.7071 72.3885 21.7999C72.693 36.1561 84.4399 47.8822 98.8512 48.2254C114.132 48.5846 126.632 36.3557 126.632 21.2132C126.632 16.336 125.334 11.7661 123.066 7.8148C121.071 4.33051 123.539 8.49231e-05 127.565 8.49231e-05H272.431C276.457 8.49231e-05 278.929 4.33051 276.93 7.81081C274.662 11.7581 273.364 16.328 273.364 21.2092C273.364 36.3517 285.864 48.5806 301.145 48.2214C315.556 47.8782 327.299 36.1521 327.607 21.7959C327.712 16.7071 326.41 11.9297 324.062 7.82278C322.059 4.3345 324.514 -0.00390625 328.549 -0.00390625H388.746C394.96 8.49231e-05 400 5.01699 400 11.2113Z" fill="#BCBBF9"/>
<path d="M400 11.2148V207.992H328.563C324.541 207.992 322.069 203.658 324.068 200.182C326.335 196.234 327.629 191.661 327.629 186.784C327.629 171.642 315.131 159.413 299.854 159.773C285.445 160.116 273.705 171.841 273.4 186.197C273.288 191.286 274.594 196.063 276.945 200.17C278.944 203.658 276.489 207.996 272.455 207.996H200V130.778C200 126.615 204.659 124.169 208.132 126.483C212.654 129.493 218.146 131.189 224.034 131.005C238.038 130.57 249.526 119.387 250.255 105.451C251.073 89.8658 238.639 76.9748 223.177 76.9748C217.601 76.9748 212.422 78.647 208.112 81.5246C204.647 83.8354 200 81.3729 200 77.2183V0.00399102H272.459C276.485 0.00399102 278.956 4.33425 276.957 7.81442C274.69 11.7615 273.392 16.3313 273.392 21.2123C273.392 36.3542 285.89 48.5827 301.168 48.2235C315.576 47.8803 327.317 36.1547 327.625 21.799C327.729 16.7104 326.428 11.9332 324.08 7.82639C322.077 4.33824 324.533 0 328.567 0H388.748C394.961 0.00399102 400 5.0207 400 11.2148Z" fill="#8F8DED"/>
<path d="M149.729 313.309C150.462 327.234 161.949 338.411 175.955 338.842C181.849 339.025 187.338 337.335 191.865 334.324C195.338 332.015 199.998 334.456 199.998 338.615V415.763H127.565C123.535 415.763 121.079 411.428 123.074 407.943C125.426 403.844 126.732 399.071 126.62 393.982C126.315 379.639 114.572 367.924 100.161 367.581C84.8807 367.222 72.3805 379.44 72.3805 394.569C72.3805 399.441 73.6746 404.007 75.9423 407.955C77.9415 411.436 75.4695 415.759 71.447 415.759H11.2541C5.03611 415.759 0 410.746 0 404.558V207.953H71.447C75.4695 207.953 77.9415 203.623 75.9423 200.15C73.6746 196.206 72.3805 191.636 72.3805 186.763C72.3805 171.634 84.8807 159.416 100.161 159.775C114.572 160.118 126.315 171.834 126.62 186.177C126.732 191.261 125.422 196.034 123.074 200.138C121.075 203.623 123.531 207.957 127.565 207.957H199.998V285.109C199.998 289.256 195.346 291.721 191.885 289.408C187.574 286.541 182.394 284.862 176.817 284.862C161.352 284.862 148.912 297.738 149.729 313.309Z" fill="#8F8DED"/>
</g>
<defs>
<clipPath id="clip0_4375_6610">
<rect width="400" height="416" fill="white"/>
</clipPath>
</defs>
</svg>
