<svg width="54" height="54" viewBox="0 0 54 54" fill="none" xmlns="http://www.w3.org/2000/svg">
<path d="M31.3994 10.8611L38.9055 4.31587L37.7829 14.2115L37.7026 14.9193L38.3956 14.7542L48.0837 12.447L42.4909 20.6874L42.0909 21.2768L42.7812 21.4527L52.4318 23.912L43.6501 28.6094L43.022 28.9454L43.5515 29.422L50.9538 36.0845L40.995 36.1628L40.2827 36.1684L40.5301 36.8364L43.9883 46.1758L35.1338 41.6171L34.5005 41.291L34.4091 41.9974L33.1309 51.8742L27.4092 43.7227L27 43.1397L26.5908 43.7227L20.8691 51.8742L19.5909 41.9974L19.4995 41.291L18.8662 41.6171L10.0117 46.1758L13.4699 36.8364L13.7173 36.1684L13.005 36.1628L3.04621 36.0845L10.4485 29.422L10.978 28.9454L10.3499 28.6094L1.56821 23.912L11.2188 21.4527L11.9091 21.2768L11.5091 20.6874L5.91632 12.447L15.6044 14.7542L16.2974 14.9193L16.2171 14.2115L15.0945 4.31587L22.6006 10.8611L23.1375 11.3293L23.3953 10.6653L27 1.38142L30.6047 10.6653L30.8625 11.3293L31.3994 10.8611Z" stroke="white"/>
</svg>
