<svg width="27" height="24" viewBox="0 0 27 24" fill="none" xmlns="http://www.w3.org/2000/svg">
<path d="M15.8417 5.05487L19.1248 2.51017L18.6439 6.27796L18.5548 6.9762L19.2434 6.83042L23.3944 5.95168L21.0549 9.01575L20.5823 9.63477L21.3419 9.80683L25.3826 10.7222L21.7283 12.4597L21.0069 12.8027L21.6306 13.3017L24.7097 15.7651L20.496 15.7946L19.7517 15.7998L20.0379 16.4868L21.4999 19.9965L17.6605 18.2394L17.0538 17.9617L16.9577 18.622L16.4033 22.4298L13.8924 19.2501L13.5 18.7532L13.1076 19.2501L10.5967 22.4298L10.0423 18.622L9.94619 17.9617L9.33946 18.2394L5.50008 19.9965L6.96208 16.4868L7.24828 15.7998L6.50402 15.7946L2.29027 15.7651L5.36937 13.3017L5.99307 12.8027L5.27172 12.4597L1.61739 10.7222L5.65815 9.80683L6.41773 9.63477L5.94509 9.01575L3.60555 5.95168L7.75659 6.83042L8.44524 6.9762L8.35612 6.27796L7.87524 2.51017L11.1583 5.05487L11.6658 5.44822L11.9228 4.85982L13.5 1.24911L15.0772 4.85982L15.3342 5.44822L15.8417 5.05487Z" stroke="#BCBBF9"/>
</svg>
