<svg width="68" height="68" viewBox="0 0 68 68" fill="none" xmlns="http://www.w3.org/2000/svg">
<path fill-rule="evenodd" clip-rule="evenodd" d="M47.2317 37.2021C51.1134 39.8371 53.8334 43.4071 53.8334 48.1671V56.6671H65.1667V48.1671C65.1667 41.9905 55.0517 38.3355 47.2317 37.2021Z" fill="#363535"/>
<path d="M25.5001 33.9997C31.7593 33.9997 36.8334 28.9256 36.8334 22.6663C36.8334 16.4071 31.7593 11.333 25.5001 11.333C19.2409 11.333 14.1667 16.4071 14.1667 22.6663C14.1667 28.9256 19.2409 33.9997 25.5001 33.9997Z" fill="#363535"/>
<path fill-rule="evenodd" clip-rule="evenodd" d="M42.4999 33.9997C48.7616 33.9997 53.8333 28.928 53.8333 22.6663C53.8333 16.4047 48.7616 11.333 42.4999 11.333C41.1683 11.333 39.9216 11.6163 38.7316 12.013C41.1697 15.0283 42.4998 18.7887 42.4998 22.6663C42.4998 26.544 41.1697 30.3044 38.7316 33.3197C39.9216 33.7163 41.1683 33.9997 42.4999 33.9997ZM25.4999 36.833C17.9349 36.833 2.83325 40.6297 2.83325 48.1663V56.6663H48.1666V48.1663C48.1666 40.6297 33.0649 36.833 25.4999 36.833Z" fill="#363535"/>
</svg>
