<svg width="120" height="120" viewBox="0 0 120 120" fill="none" xmlns="http://www.w3.org/2000/svg">
<path d="M109.132 71.3085C109.474 71.3662 109.776 71.3359 110.039 71.2174C110.3 71.104 110.533 70.9387 110.738 70.7215C110.938 70.5034 111.117 70.2555 111.274 69.9778C111.431 69.7052 111.575 69.4411 111.708 69.1854C111.903 68.8142 112.124 68.4397 112.372 68.0619C112.624 67.69 112.906 67.3599 113.218 67.0714C113.536 66.7788 113.89 66.5551 114.279 66.4003C114.672 66.2515 115.109 66.2176 115.59 66.2986C116.071 66.3796 116.482 66.5566 116.825 66.8294C117.167 67.1074 117.44 67.4392 117.643 67.8249C117.846 68.2105 117.977 68.6313 118.037 69.0872C118.101 69.544 118.096 69.9916 118.022 70.4303C117.94 70.9148 117.779 71.3676 117.539 71.7889C117.305 72.211 117.013 72.5709 116.662 72.8685C116.312 73.1662 115.912 73.3847 115.462 73.524C115.013 73.6634 114.531 73.695 114.018 73.6191L114.265 72.1655C114.594 72.179 114.899 72.1491 115.179 72.0757C115.465 72.0032 115.719 71.886 115.941 71.7241C116.163 71.5622 116.348 71.3547 116.496 71.1016C116.648 70.8545 116.753 70.5626 116.81 70.226C116.856 69.9557 116.862 69.6841 116.83 69.411C116.796 69.1431 116.72 68.8968 116.6 68.672C116.481 68.4422 116.32 68.2471 116.115 68.0868C115.91 67.9316 115.659 67.829 115.363 67.779C115.04 67.7298 114.752 67.7653 114.5 67.8855C114.254 68.0065 114.033 68.1765 113.838 68.3955C113.644 68.6094 113.472 68.8479 113.322 69.1112C113.172 69.3796 113.037 69.6322 112.918 69.8692C112.72 70.2608 112.494 70.6476 112.24 71.0297C111.991 71.4126 111.697 71.7513 111.358 72.0456C111.04 72.3382 110.675 72.5547 110.262 72.6949C109.848 72.8403 109.393 72.8711 108.897 72.7876C108.396 72.7031 107.977 72.5173 107.642 72.2299C107.306 71.9477 107.045 71.61 106.859 71.2167C106.668 70.8226 106.546 70.3929 106.494 69.9277C106.446 69.4633 106.46 69.0092 106.535 68.5655C106.625 68.0351 106.803 67.5275 107.069 67.0425C107.335 66.5627 107.668 66.1625 108.069 65.8419C108.418 65.5544 108.803 65.344 109.226 65.2106C109.652 65.0831 110.107 65.0522 110.591 65.1179L110.346 66.5638C109.99 66.5511 109.665 66.5933 109.369 66.6905C109.079 66.7885 108.823 66.9341 108.601 67.1275C108.374 67.32 108.187 67.5535 108.041 67.8278C107.899 68.1081 107.798 68.4217 107.739 68.7685C107.693 69.0439 107.68 69.3198 107.702 69.5962C107.727 69.8785 107.797 70.1368 107.91 70.3709C108.017 70.6041 108.17 70.8055 108.367 70.9752C108.57 71.1457 108.825 71.2568 109.132 71.3085Z" fill="#A1A1A1"/>
<path d="M105.72 82.8558C105.25 82.6148 104.842 82.3247 104.497 81.9854C104.156 81.6479 103.894 81.2756 103.711 80.8685C103.524 80.4547 103.424 80.0088 103.41 79.5306C103.399 79.0592 103.486 78.568 103.672 78.0574C103.83 77.6196 104.036 77.2428 104.289 76.9269C104.544 76.6176 104.832 76.3639 105.152 76.1658C105.474 75.9629 105.82 75.813 106.192 75.7161C106.562 75.624 106.946 75.5757 107.345 75.571C107.746 75.5616 108.151 75.5923 108.561 75.6632C108.969 75.739 109.372 75.8457 109.768 75.9834L111.253 76.5193C111.647 76.6667 112.024 76.8415 112.387 77.0438C112.747 77.2509 113.078 77.4859 113.38 77.7488C113.684 78.0068 113.948 78.2892 114.173 78.5959C114.401 78.9093 114.574 79.2467 114.691 79.608C114.81 79.9644 114.866 80.3421 114.859 80.7412C114.857 81.142 114.776 81.5637 114.615 82.0063C114.423 82.5364 114.168 82.9807 113.85 83.3392C113.538 83.6994 113.178 83.9766 112.771 84.1708C112.359 84.3633 111.911 84.4738 111.426 84.5024C110.94 84.5359 110.433 84.4903 109.904 84.3657L110.394 83.016C110.732 83.0883 111.059 83.1212 111.376 83.1145C111.692 83.1078 111.988 83.0523 112.263 82.948C112.538 82.8437 112.782 82.6814 112.994 82.461C113.21 82.2472 113.382 81.9628 113.511 81.6077C113.627 81.2867 113.677 80.9828 113.659 80.696C113.645 80.4159 113.58 80.1557 113.463 79.9155C113.348 79.6704 113.193 79.444 112.998 79.2362C112.801 79.0332 112.582 78.8468 112.34 78.6771C112.098 78.5074 111.842 78.3544 111.572 78.2183C111.304 78.0888 111.039 77.9766 110.776 77.8815L109.276 77.3404C109.013 77.2454 108.734 77.1614 108.441 77.0885C108.15 77.0223 107.858 76.9772 107.563 76.9534C107.264 76.9278 106.973 76.9303 106.692 76.9608C106.411 76.9913 106.147 77.0639 105.901 77.1788C105.651 77.2919 105.428 77.4507 105.232 77.6551C105.042 77.8614 104.887 78.1274 104.769 78.4533C104.64 78.8084 104.585 79.135 104.604 79.4333C104.621 79.7364 104.699 80.0149 104.838 80.2688C104.973 80.5209 105.157 80.7497 105.392 80.9552C105.631 81.1626 105.903 81.3462 106.209 81.5061L105.72 82.8558Z" fill="#A1A1A1"/>
<path d="M103.835 89.2447L104.967 87.2895L100.965 84.985L101.681 83.7488L111.49 89.3975L109.829 92.2664C109.555 92.7181 109.241 93.1106 108.886 93.4439C108.532 93.7772 108.145 94.0264 107.726 94.1913C107.31 94.3517 106.868 94.411 106.401 94.3691C105.936 94.3343 105.457 94.1747 104.963 93.8902C104.644 93.7065 104.379 93.4914 104.169 93.2447C103.956 93.0025 103.788 92.7388 103.666 92.4534C103.544 92.168 103.464 91.8654 103.428 91.5458C103.391 91.2261 103.392 90.8983 103.431 90.5623L98.0387 90.2253L97.9617 90.172L98.7203 88.8618L103.835 89.2447ZM105.991 87.8792L105.026 89.5455C104.87 89.8258 104.761 90.1124 104.699 90.4053C104.641 90.7008 104.637 90.9879 104.685 91.2666C104.736 91.5407 104.843 91.7962 105.005 92.0331C105.172 92.2725 105.403 92.4775 105.7 92.6482C106.014 92.8293 106.318 92.9355 106.611 92.967C106.909 93.001 107.192 92.9728 107.46 92.8823C107.723 92.7891 107.969 92.6382 108.198 92.4294C108.424 92.2252 108.626 91.9742 108.805 91.6767L109.75 90.044L105.991 87.8792Z" fill="#A1A1A1"/>
<path d="M95.5619 99.6047C95.2569 99.3395 94.9681 99.0474 94.6955 98.7283C94.4235 98.4165 94.1849 98.0854 93.9797 97.7352C93.7745 97.3849 93.6142 97.0218 93.4988 96.6458C93.3801 96.2739 93.3199 95.8971 93.3182 95.5156C93.3165 95.1341 93.3828 94.7526 93.5172 94.3711C93.6522 93.9968 93.8708 93.6323 94.173 93.2775C94.4751 92.9227 94.8021 92.6466 95.1539 92.4492C95.5064 92.2591 95.8714 92.134 96.2492 92.074C96.6269 92.0139 97.0111 92.0102 97.4018 92.0629C97.7964 92.1189 98.1836 92.2196 98.5634 92.3648C98.9465 92.5062 99.3161 92.6835 99.672 92.8967C100.028 93.11 100.362 93.3452 100.673 93.6025L101.658 94.4362C101.963 94.7013 102.251 94.9898 102.523 95.3016C102.796 95.6207 103.033 95.9574 103.235 96.3116C103.44 96.6619 103.602 97.023 103.721 97.395C103.84 97.7743 103.903 98.1564 103.908 98.5412C103.91 98.9227 103.843 99.3006 103.708 99.6748C103.574 100.056 103.356 100.425 103.053 100.779C102.751 101.134 102.422 101.409 102.067 101.603C101.715 101.8 101.35 101.929 100.972 101.989C100.594 102.049 100.21 102.049 99.8187 101.989C99.4281 101.936 99.0412 101.839 98.658 101.698C98.2782 101.553 97.91 101.37 97.5535 101.149C97.1936 100.933 96.8578 100.696 96.5461 100.438L95.5619 99.6047ZM97.4796 99.3663C97.6885 99.5364 97.9137 99.7035 98.1552 99.8673C98.4007 100.035 98.6576 100.184 98.926 100.317C99.1937 100.442 99.4667 100.541 99.745 100.613C100.027 100.689 100.306 100.722 100.581 100.711C100.852 100.696 101.113 100.629 101.365 100.509C101.62 100.393 101.857 100.207 102.075 99.9506C102.29 99.6983 102.434 99.4371 102.508 99.1669C102.581 98.8967 102.603 98.627 102.574 98.3579C102.541 98.0854 102.464 97.8164 102.343 97.551C102.226 97.289 102.082 97.0383 101.911 96.799C101.74 96.5523 101.554 96.3198 101.352 96.1013C101.151 95.8902 100.951 95.6972 100.753 95.5225L99.7569 94.6787C99.5519 94.5119 99.3267 94.3449 99.0813 94.1777C98.8324 94.0144 98.5741 93.8703 98.3064 93.7453C98.0346 93.6169 97.7577 93.5146 97.4755 93.4385C97.1933 93.3623 96.9167 93.3316 96.6456 93.3463C96.3706 93.3576 96.1054 93.4214 95.85 93.5375C95.5945 93.6537 95.3577 93.8399 95.1395 94.0962C94.9212 94.3524 94.7753 94.6156 94.7017 94.8858C94.6248 95.1599 94.603 95.4333 94.6363 95.7058C94.669 95.971 94.7455 96.2326 94.866 96.4907C94.987 96.7561 95.133 97.0121 95.304 97.2588C95.4744 97.4981 95.6639 97.7231 95.8724 97.9336C96.0776 98.1482 96.2813 98.3444 96.4835 98.5225L97.4796 99.3663Z" fill="#A1A1A1"/>
<path d="M89.1753 99.0114L84.9104 102.536L84.1311 101.598L89.5042 97.1577L96.7314 105.856L95.6232 106.772L89.1753 99.0114Z" fill="#A1A1A1"/>
<path d="M82.0537 104.29L77.239 107.021L76.6352 105.963L82.7009 102.522L88.3007 112.341L87.0497 113.051L82.0537 104.29Z" fill="#A1A1A1"/>
<path d="M75.1712 106.368L77.884 117.335L75.3386 117.962C74.9094 118.062 74.4953 118.116 74.0966 118.123C73.694 118.137 73.313 118.108 72.9534 118.037C72.4544 117.941 71.992 117.767 71.5664 117.515C71.137 117.269 70.765 116.953 70.4505 116.567C70.1723 116.241 69.9307 115.869 69.7257 115.451C69.5157 115.034 69.3461 114.575 69.2168 114.074L69.0175 113.268C68.8982 112.786 68.833 112.317 68.8219 111.861C68.8057 111.407 68.841 110.978 68.9278 110.573C69.0159 110.151 69.1605 109.754 69.3617 109.379C69.5629 109.005 69.808 108.667 70.097 108.367C70.4036 108.052 70.7712 107.778 71.1996 107.545C71.6229 107.313 72.0984 107.129 72.6258 106.994L75.1712 106.368ZM76.1808 116.54L74.0326 107.854L72.9072 108.131C72.5056 108.235 72.1529 108.375 71.8492 108.551C71.5405 108.729 71.2795 108.937 71.0661 109.176C70.839 109.423 70.6595 109.702 70.5277 110.011C70.3921 110.327 70.3068 110.662 70.2717 111.017C70.2368 111.308 70.2321 111.613 70.2575 111.932C70.2841 112.255 70.3366 112.586 70.4148 112.924L70.6178 113.745C70.7073 114.085 70.8183 114.404 70.9507 114.702C71.0793 115.006 71.23 115.28 71.4028 115.526C71.6257 115.844 71.8878 116.115 72.189 116.339C72.4863 116.57 72.8229 116.732 73.1988 116.826C73.4677 116.898 73.7569 116.934 74.0664 116.932C74.377 116.936 74.7067 116.897 75.0554 116.817L76.1808 116.54Z" fill="#A1A1A1"/>
<path d="M59.5414 113.769C59.5201 113.366 59.5294 112.956 59.5695 112.538C59.6048 112.127 59.6771 111.725 59.7865 111.335C59.8959 110.944 60.0458 110.576 60.2362 110.232C60.4215 109.888 60.6509 109.583 60.9244 109.316C61.1979 109.05 61.5187 108.832 61.887 108.662C62.2504 108.499 62.665 108.401 63.1308 108.371C63.5966 108.34 64.0229 108.382 64.4099 108.497C64.792 108.617 65.1361 108.792 65.4423 109.02C65.7484 109.249 66.0184 109.522 66.2523 109.838C66.4866 110.16 66.6836 110.507 66.8433 110.88C67.0082 111.253 67.1377 111.641 67.2318 112.044C67.326 112.448 67.3889 112.85 67.4206 113.253L67.5052 114.538C67.5265 114.941 67.5196 115.348 67.4843 115.76C67.4442 116.177 67.3669 116.581 67.2523 116.972C67.1429 117.363 66.9956 117.73 66.8104 118.074C66.6203 118.424 66.3887 118.734 66.1155 119.006C65.842 119.273 65.5236 119.488 65.1601 119.652C64.7918 119.821 64.3748 119.921 63.9091 119.952C63.4433 119.982 63.0168 119.938 62.6295 119.818C62.2425 119.703 61.896 119.531 61.5898 119.303C61.2837 119.074 61.0161 118.799 60.787 118.477C60.5531 118.16 60.3537 117.816 60.1888 117.443C60.0291 117.07 59.9046 116.679 59.8153 116.27C59.7208 115.862 59.6577 115.456 59.626 115.054L59.5414 113.769ZM61.0476 114.976C61.0705 115.244 61.107 115.522 61.157 115.809C61.2075 116.101 61.2784 116.389 61.3699 116.674C61.4662 116.952 61.585 117.217 61.7262 117.467C61.8677 117.722 62.0383 117.944 62.2378 118.133C62.4371 118.317 62.6672 118.457 62.9283 118.554C63.1897 118.656 63.4886 118.696 63.8249 118.674C64.1562 118.653 64.4446 118.574 64.6904 118.439C64.9362 118.303 65.1457 118.132 65.3191 117.923C65.4922 117.71 65.6321 117.467 65.739 117.196C65.8462 116.93 65.9267 116.652 65.9805 116.364C66.039 116.07 66.0768 115.774 66.0936 115.478C66.1056 115.187 66.1056 114.909 66.0934 114.646L66.0078 113.345C65.9852 113.082 65.9488 112.805 65.8983 112.513C65.8427 112.221 65.7668 111.936 65.6705 111.657C65.5738 111.373 65.4547 111.103 65.3132 110.848C65.1716 110.593 65.0012 110.374 64.802 110.19C64.6025 110.001 64.372 109.855 64.1106 109.753C63.8492 109.651 63.5503 109.611 63.2139 109.633C62.8775 109.655 62.5864 109.734 62.3407 109.869C62.0897 110.004 61.8777 110.179 61.7047 110.393C61.5365 110.601 61.4014 110.837 61.2993 111.103C61.1925 111.375 61.1097 111.657 61.0511 111.952C60.9974 112.24 60.9673 112.532 60.9608 112.828C60.9491 113.125 60.9495 113.407 60.962 113.676L61.0476 114.976Z" fill="#A1A1A1"/>
<path d="M57.1258 108.621L57.1867 120L55.8267 119.842L55.9164 112.011L55.9221 111.559L55.7833 112.011L53.5239 119.576L52.2798 119.432L51.8122 111.543L51.7802 111.079L51.68 111.536L49.9692 119.164L48.6169 119.007L51.2915 107.945L52.752 108.114L53.1899 116.257L53.2124 116.736L53.3531 116.268L55.6575 108.451L57.1258 108.621Z" fill="#A1A1A1"/>
<path d="M42.3459 105.48L43.7453 105.904L45.4906 115.255L47.9732 107.185L49.3651 107.607L46.0727 118.415L44.6733 117.991L42.9235 108.655L40.4454 116.71L39.0534 116.289L42.3459 105.48Z" fill="#A1A1A1"/>
<path d="M36.2074 108.592C36.0592 108.883 35.8374 109.078 35.5422 109.178C35.2399 109.28 34.9201 109.245 34.5827 109.074C34.2545 108.907 34.0416 108.674 33.944 108.375C33.8395 108.078 33.8636 107.78 34.0166 107.48C34.1695 107.181 34.397 106.986 34.6992 106.895C34.9968 106.803 35.3096 106.84 35.6378 107.006C35.9752 107.177 36.1927 107.413 36.2903 107.712C36.3832 108.008 36.3556 108.302 36.2074 108.592Z" fill="#D3FD50"/>
<path d="M26.8042 99.4933C26.5937 99.769 26.4802 100.05 26.4635 100.337C26.4428 100.62 26.4812 100.903 26.5787 101.185C26.6794 101.463 26.8164 101.736 26.9897 102.004C27.1589 102.269 27.3262 102.519 27.4914 102.755C27.7306 103.1 27.9603 103.469 28.1804 103.864C28.3933 104.259 28.5552 104.662 28.6664 105.071C28.7785 105.488 28.8127 105.904 28.7693 106.32C28.7185 106.736 28.5454 107.138 28.2501 107.525C27.9548 107.912 27.6063 108.193 27.2046 108.369C26.7988 108.542 26.3775 108.628 25.9408 108.628C25.5041 108.628 25.0696 108.549 24.6371 108.389C24.2016 108.234 23.8064 108.022 23.4515 107.752C23.0595 107.454 22.7322 107.102 22.4697 106.694C22.204 106.291 22.0204 105.866 21.9189 105.418C21.8174 104.97 21.8093 104.516 21.8946 104.054C21.9799 103.592 22.1756 103.152 22.4815 102.735L23.6575 103.628C23.4926 103.912 23.3774 104.195 23.3121 104.477C23.2436 104.763 23.2296 105.042 23.2702 105.313C23.3107 105.584 23.4089 105.844 23.5648 106.093C23.7134 106.342 23.9238 106.57 24.1962 106.777C24.4148 106.943 24.653 107.075 24.9105 107.173C25.164 107.268 25.4183 107.315 25.6735 107.314C25.9328 107.316 26.1811 107.264 26.4184 107.158C26.6515 107.049 26.8592 106.875 27.0414 106.636C27.2352 106.374 27.3373 106.103 27.3476 105.825C27.3548 105.551 27.3065 105.277 27.2027 105.003C27.1031 104.733 26.9712 104.47 26.8071 104.215C26.6388 103.958 26.4772 103.721 26.3221 103.506C26.0665 103.149 25.8281 102.77 25.6069 102.368C25.3827 101.97 25.2187 101.553 25.1151 101.117C25.003 100.7 24.9807 100.277 25.0481 99.8468C25.1114 99.4138 25.2955 98.9977 25.6003 98.5985C25.9082 98.1952 26.2676 97.9123 26.6785 97.7498C27.0853 97.5841 27.5065 97.5106 27.942 97.5293C28.3806 97.5439 28.8187 97.636 29.2563 97.8058C29.6907 97.9796 30.0873 98.2029 30.4463 98.4755C30.8755 98.8014 31.2434 99.1946 31.5502 99.6551C31.8528 100.112 32.0532 100.593 32.1511 101.096C32.2444 101.538 32.2521 101.976 32.1742 102.411C32.0891 102.847 31.905 103.263 31.6221 103.659L30.4523 102.771C30.6288 102.463 30.7425 102.156 30.7935 101.85C30.8414 101.548 30.8311 101.254 30.7626 100.968C30.6973 100.678 30.5769 100.405 30.4014 100.148C30.2187 99.8921 29.987 99.6577 29.7064 99.4446C29.4836 99.2754 29.2445 99.1361 28.9891 99.0266C28.7264 98.9181 28.4649 98.8594 28.2046 98.8502C27.9475 98.837 27.6977 98.8781 27.4553 98.9736C27.2098 99.0732 26.9928 99.2464 26.8042 99.4933Z" fill="#A1A1A1"/>
<path d="M18.9895 92.3857C19.4201 92.0808 19.866 91.8533 20.3271 91.7033C20.7844 91.5569 21.2365 91.4962 21.6832 91.5213C22.1373 91.5468 22.5804 91.6633 23.0125 91.8708C23.4373 92.0781 23.8343 92.3813 24.2037 92.7803C24.5203 93.1224 24.7611 93.4779 24.9262 93.8469C25.0839 94.2155 25.1772 94.5871 25.2063 94.9616C25.2388 95.3399 25.2127 95.7159 25.128 96.0895C25.0398 96.4594 24.906 96.8219 24.7266 97.1771C24.5507 97.5361 24.3368 97.8808 24.085 98.2112C23.8297 98.5378 23.5494 98.845 23.2443 99.133L22.0839 100.201C21.7717 100.482 21.4422 100.736 21.0954 100.963C20.7451 101.187 20.3835 101.373 20.0106 101.519C19.6412 101.669 19.2682 101.773 18.8915 101.831C18.5075 101.889 18.1277 101.886 17.7522 101.824C17.3802 101.765 17.0182 101.641 16.6661 101.451C16.3102 101.265 15.9722 100.999 15.6521 100.653C15.2687 100.239 14.9905 99.8086 14.8175 99.3624C14.6407 98.9198 14.5595 98.4737 14.5739 98.024C14.592 97.5709 14.6999 97.1231 14.8975 96.6808C15.0916 96.2346 15.3656 95.8063 15.7198 95.3959L16.6959 96.4505C16.4761 96.7163 16.2962 96.991 16.1564 97.2746C16.0166 97.5581 15.9298 97.8457 15.8961 98.1372C15.8624 98.4286 15.8948 98.7191 15.9933 99.0085C16.0845 99.2977 16.2585 99.581 16.5153 99.8584C16.7474 100.109 16.9951 100.293 17.2584 100.41C17.5143 100.526 17.7761 100.588 18.0437 100.595C18.3149 100.606 18.5878 100.572 18.8625 100.496C19.1336 100.415 19.4004 100.307 19.6628 100.171C19.9251 100.035 20.1791 99.8783 20.4248 99.7014C20.6631 99.5242 20.8852 99.3409 21.091 99.1515L22.2628 98.0726C22.4686 97.8832 22.6715 97.6753 22.8714 97.449C23.064 97.2225 23.2387 96.9842 23.3955 96.7342C23.5562 96.4807 23.6876 96.2224 23.7899 95.9593C23.8922 95.6962 23.9488 95.4294 23.9597 95.159C23.9743 94.885 23.9356 94.6145 23.8436 94.3473C23.7477 94.0835 23.5819 93.8244 23.3462 93.5697C23.0894 93.2923 22.824 93.0932 22.5499 92.9724C22.2723 92.8479 21.9884 92.789 21.6982 92.7957C21.4118 92.7989 21.1232 92.857 20.8324 92.9698C20.5377 93.0862 20.2489 93.243 19.9657 93.4404L18.9895 92.3857Z" fill="#A1A1A1"/>
<path d="M14.7788 88.2978L15.9941 90.2026L19.8928 87.7287L20.6612 88.9331L11.1047 94.9972L9.32152 92.2021C9.04629 91.7515 8.84247 91.2923 8.71004 90.8245C8.57762 90.3568 8.53489 89.8996 8.58186 89.4529C8.63161 89.0106 8.78299 88.5927 9.036 88.1992C9.28185 87.8041 9.64543 87.4538 10.1268 87.1484C10.4374 86.9513 10.7511 86.8166 11.0677 86.7444C11.3816 86.6679 11.6936 86.6415 12.0039 86.6654C12.3141 86.6892 12.6198 86.7588 12.9209 86.8743C13.222 86.9897 13.513 87.1423 13.7938 87.3319L16.5859 82.7187L16.6688 82.6753L17.4831 83.9517L14.7788 88.2978ZM14.9964 90.8357L13.9607 89.2123C13.7837 88.9445 13.5793 88.7156 13.3474 88.5256C13.1111 88.3383 12.858 88.2016 12.5879 88.1155C12.3206 88.0338 12.0441 88.01 11.7585 88.0441C11.4686 88.0809 11.1792 88.191 10.8904 88.3743C10.5841 88.5686 10.3492 88.7882 10.1857 89.033C10.0178 89.2805 9.91219 89.5437 9.86882 89.8226C9.82982 90.0987 9.85028 90.3861 9.93021 90.6848C10.0074 90.9791 10.137 91.2739 10.3192 91.5691L11.334 93.1597L14.9964 90.8357Z" fill="#A1A1A1"/>
<path d="M8.74101 76.7134C9.1173 76.5652 9.51018 76.4437 9.91966 76.349C10.3224 76.2515 10.7269 76.1924 11.1331 76.1717C11.5394 76.151 11.9364 76.176 12.3242 76.2467C12.71 76.3126 13.0731 76.4325 13.4136 76.6064C13.7541 76.7803 14.0633 77.0144 14.3412 77.3089C14.6124 77.6005 14.8365 77.9617 15.0135 78.3925C15.1905 78.8232 15.2859 79.2398 15.2999 79.6421C15.3072 80.0416 15.2507 80.4224 15.1305 80.7846C15.0102 81.1468 14.8369 81.4887 14.6104 81.8105C14.3791 82.1342 14.1114 82.4309 13.8075 82.7004C13.5054 82.9748 13.1776 83.2206 12.8241 83.4377C12.4705 83.6549 12.1076 83.8424 11.7352 84.0001L10.5403 84.4885C10.164 84.6367 9.77452 84.7596 9.37181 84.8571C8.96233 84.9518 8.55347 85.0071 8.14525 85.023C7.739 85.0437 7.34297 85.0211 6.95717 84.9552C6.56461 84.8865 6.19569 84.7661 5.8504 84.5942C5.50992 84.4203 5.2041 84.1876 4.93293 83.896C4.65499 83.6015 4.42752 83.2389 4.25052 82.8081C4.07352 82.3774 3.98043 81.9599 3.97123 81.5556C3.95724 81.1532 4.01035 80.771 4.13057 80.4088C4.25078 80.0467 4.42752 79.7061 4.66079 79.3872C4.88729 79.0654 5.15155 78.7674 5.45357 78.493C5.75756 78.2234 6.08971 77.9815 6.45003 77.7671C6.80838 77.548 7.17373 77.3595 7.54608 77.2018L8.74101 76.7134ZM8.07153 78.5214C7.82395 78.6282 7.57169 78.7509 7.31475 78.8894C7.05301 79.0299 6.80154 79.1886 6.56033 79.3655C6.32589 79.5451 6.11229 79.7414 5.91954 79.9544C5.722 80.1693 5.56504 80.4011 5.44868 80.6499C5.33712 80.8967 5.27674 81.159 5.26753 81.4366C5.25352 81.7163 5.31043 82.0116 5.43826 82.3227C5.56413 82.629 5.73043 82.8769 5.93717 83.0663C6.14392 83.2557 6.37387 83.3993 6.62703 83.497C6.88498 83.5928 7.15994 83.6482 7.45188 83.663C7.73903 83.6798 8.02834 83.6677 8.31981 83.6269C8.61806 83.5888 8.91083 83.5307 9.19814 83.4524C9.47868 83.3712 9.7423 83.2831 9.98902 83.1878L11.1983 82.6936C11.4411 82.5887 11.6934 82.4661 11.9551 82.3256C12.2149 82.1803 12.462 82.0178 12.6965 81.8381C12.9357 81.6565 13.1541 81.4582 13.3516 81.2433C13.5492 81.0284 13.7037 80.7976 13.8153 80.5507C13.9317 80.3019 13.9968 80.0377 14.0108 79.7581C14.0249 79.4785 13.9679 79.1831 13.8401 78.872C13.7123 78.5609 13.545 78.3107 13.3383 78.1213C13.1295 77.9271 12.8962 77.7821 12.6383 77.6863C12.3871 77.5933 12.1189 77.5408 11.8337 77.5288C11.5417 77.514 11.2467 77.5256 10.9484 77.5636C10.6569 77.6045 10.3695 77.6689 10.0861 77.7567C9.8008 77.8398 9.53237 77.93 9.28086 78.0272L8.07153 78.5214Z" fill="#A1A1A1"/>
<path d="M11.507 72.2863L10.3449 66.8852L11.5391 66.6296L13.0032 73.4341L1.92845 75.8042L1.62649 74.4008L11.507 72.2863Z" fill="#A1A1A1"/>
<path d="M10.0994 63.5879L9.90703 58.0672L11.1277 58.0249L11.37 64.9801L0.0499807 65.3724L0 63.9379L10.0994 63.5879Z" fill="#A1A1A1"/>
<path d="M12.6039 47.854L1.87045 44.2456L2.70788 41.7679C2.85361 41.353 3.03037 40.9757 3.23817 40.6362C3.44271 40.2901 3.67171 39.9851 3.92517 39.7209C4.27411 39.3524 4.66954 39.0569 5.11147 38.8343C5.55014 38.6052 6.01723 38.462 6.51272 38.4048C6.93769 38.3457 7.38216 38.3423 7.84612 38.3945C8.31174 38.4419 8.7911 38.5457 9.28421 38.7061L10.073 38.9712C10.5448 39.1298 10.9763 39.3268 11.3675 39.562C11.7603 39.7923 12.1047 40.0527 12.4005 40.3432C12.7095 40.6436 12.9683 40.9789 13.177 41.3493C13.3856 41.7196 13.5393 42.107 13.638 42.5113C13.7399 42.9386 13.7744 43.395 13.7416 43.8807C13.7105 44.3615 13.6104 44.86 13.4413 45.3763L12.6039 47.854ZM3.45814 43.2401L11.9579 46.0976L12.3282 45.0021C12.4558 44.6083 12.5268 44.2365 12.5411 43.8865C12.557 43.5316 12.5212 43.2003 12.4337 42.8925C12.3463 42.5683 12.207 42.2677 12.0161 41.9906C11.8219 41.707 11.5841 41.4552 11.3028 41.235C11.0754 41.0494 10.8201 40.8817 10.5369 40.7319C10.2488 40.5805 9.94091 40.447 9.61329 40.3314L8.80975 40.0612C8.4739 39.9538 8.14452 39.8758 7.82159 39.8273C7.4954 39.7722 7.18222 39.7515 6.88205 39.7652C6.4933 39.7819 6.12321 39.8567 5.77179 39.9897C5.41711 40.1161 5.09909 40.3121 4.81774 40.5777C4.6121 40.7651 4.42684 40.9894 4.26195 41.2506C4.09214 41.5101 3.94763 41.8081 3.8284 42.1446L3.45814 43.2401Z" fill="#A1A1A1"/>
<path d="M14.5939 30.9435C14.9464 31.1416 15.2884 31.3694 15.6201 31.627C15.9497 31.8775 16.2506 32.1535 16.5226 32.4552C16.7946 32.7568 17.0253 33.08 17.2145 33.4249C17.4062 33.7653 17.5415 34.1221 17.6206 34.4953C17.6997 34.8686 17.7121 35.2556 17.6579 35.6564C17.6016 36.0501 17.4615 36.4512 17.2375 36.8596C17.0136 37.2681 16.7494 37.6044 16.4448 37.8687C16.1383 38.126 15.8061 38.3221 15.4484 38.4571C15.0906 38.5922 14.7151 38.6733 14.3218 38.7005C13.9241 38.7253 13.5244 38.7049 13.123 38.6392C12.7191 38.5781 12.3212 38.479 11.9294 38.342C11.5376 38.2049 11.163 38.0419 10.8055 37.8529L9.67248 37.235C9.32004 37.0369 8.97901 36.8126 8.64939 36.5621C8.3177 36.3045 8.01709 36.0227 7.74754 35.7165C7.47551 35.4149 7.24364 35.0939 7.05195 34.7536C6.85819 34.4062 6.7195 34.0446 6.63588 33.6689C6.5568 33.2956 6.54541 32.9121 6.6017 32.5184C6.65594 32.1176 6.79503 31.713 7.01897 31.3046C7.24292 30.8962 7.50941 30.561 7.81847 30.2992C8.12297 30.0349 8.45411 29.8353 8.81187 29.7003C9.16963 29.5653 9.54617 29.4876 9.94147 29.4674C10.3347 29.4402 10.7333 29.4571 11.1372 29.5182C11.5386 29.5838 11.9363 29.6887 12.3302 29.8328C12.7266 29.9723 13.1035 30.1366 13.4609 30.3256L14.5939 30.9435ZM12.7642 31.5639C12.5251 31.4394 12.2707 31.3213 12.0009 31.2095C11.7266 31.0953 11.4446 31.0005 11.155 30.925C10.8674 30.8566 10.58 30.8148 10.2927 30.7997C10.0009 30.782 9.72151 30.8065 9.45447 30.8731C9.19197 30.9422 8.94971 31.0606 8.72768 31.2284C8.50109 31.3937 8.30693 31.6238 8.14519 31.9188C7.98594 32.2092 7.89769 32.4942 7.88042 32.7736C7.86315 33.0531 7.89619 33.3216 7.97953 33.5793C8.06741 33.8394 8.19753 34.0873 8.36989 34.3227C8.53769 34.5557 8.7293 34.7722 8.94474 34.9723C9.16224 35.1793 9.39196 35.3694 9.63392 35.5427C9.87381 35.7089 10.1085 35.8575 10.3381 35.9886L11.4848 36.614C11.7194 36.736 11.9738 36.8541 12.2481 36.9683C12.5249 37.078 12.8071 37.1671 13.0947 37.2355C13.3868 37.3064 13.6788 37.3506 13.9706 37.3683C14.2624 37.3859 14.5395 37.3602 14.802 37.2911C15.0691 37.2245 15.3159 37.1086 15.5425 36.9433C15.7691 36.778 15.9632 36.5479 16.125 36.2529C16.2867 35.9579 16.3762 35.6707 16.3935 35.3913C16.4132 35.1073 16.3791 34.8352 16.2913 34.575C16.2054 34.3219 16.0774 34.0811 15.9071 33.8527C15.7347 33.6172 15.5398 33.3959 15.3223 33.1889C15.1069 32.9889 14.8757 32.8068 14.6288 32.6426C14.3843 32.474 14.145 32.3228 13.9109 32.1892L12.7642 31.5639Z" fill="#A1A1A1"/>
<path d="M20.2079 31.6658L10.5344 25.631L11.3952 24.5692L17.9823 28.8334L18.3626 29.0801L18.0534 28.7211L12.8529 22.7713L13.6404 21.8L20.5736 25.625L20.9843 25.8464L20.6507 25.5175L15.1029 19.9961L15.9589 18.9403L23.9009 27.1108L22.9764 28.2511L15.8436 24.2651L15.4257 24.0279L15.7469 24.3967L21.1373 30.5195L20.2079 31.6658Z" fill="#A1A1A1"/>
<path d="M30.623 20.9615L29.5199 21.9192L20.6471 18.4311L26.1873 24.8129L25.0901 25.7656L17.6525 17.2457L18.7556 16.2879L27.6181 19.7643L22.0882 13.3942L23.1854 12.4416L30.623 20.9615Z" fill="#A1A1A1"/>
<path d="M31.4068 13.9753C31.2395 13.6954 31.1924 13.4043 31.2654 13.102C31.3402 12.7927 31.5403 12.5414 31.8655 12.3481C32.1819 12.1602 32.4929 12.1049 32.7986 12.1821C33.1062 12.2523 33.3462 12.4318 33.5187 12.7206C33.6912 13.0094 33.7352 13.3054 33.6507 13.6085C33.5705 13.909 33.3723 14.1532 33.056 14.3411C32.7307 14.5344 32.4152 14.5924 32.1095 14.5151C31.8082 14.4352 31.574 14.2553 31.4068 13.9753Z" fill="#D3FD50"/>
<path d="M44.1269 10.8655C44.0048 10.541 43.8266 10.2955 43.5923 10.1291C43.3628 9.96086 43.1024 9.84287 42.811 9.77512C42.5214 9.71222 42.2167 9.68261 41.8968 9.68631C41.5818 9.68819 41.2801 9.69612 40.9918 9.7101C40.5723 9.72894 40.1365 9.72631 39.6843 9.70218C39.2351 9.67139 38.8071 9.59399 38.4004 9.46996C37.987 9.34292 37.6155 9.15048 37.2858 8.89265C36.9592 8.62817 36.7102 8.26832 36.539 7.81311C36.3677 7.3579 36.3142 6.91386 36.3785 6.481C36.4476 6.04633 36.5983 5.64463 36.8307 5.27591C37.0632 4.90719 37.362 4.58265 37.7274 4.30229C38.091 4.01708 38.4815 3.79635 38.8991 3.64008C39.3604 3.46746 39.8339 3.37868 40.3195 3.37374C40.8032 3.36396 41.2622 3.4353 41.6962 3.58777C42.1302 3.74024 42.5206 3.97536 42.8673 4.29311C43.2139 4.61087 43.4832 5.01006 43.6751 5.49069L42.2912 6.00856C42.1376 5.71801 41.9585 5.47014 41.7539 5.26496C41.5475 5.05493 41.3183 4.89486 41.0664 4.78473C40.8144 4.6746 40.5416 4.61926 40.2478 4.61871C39.957 4.6115 39.6514 4.66786 39.3309 4.78779C39.0736 4.8841 38.8347 5.0149 38.6144 5.18022C38.399 5.34371 38.2239 5.53353 38.0892 5.74968C37.9496 5.96764 37.8616 6.20496 37.8253 6.46165C37.7937 6.71652 37.8308 6.98439 37.9365 7.26527C38.0561 7.56854 38.2313 7.79855 38.462 7.9553C38.6909 8.1072 38.9492 8.21218 39.2369 8.27024C39.5198 8.33012 39.813 8.35852 40.1165 8.35543C40.4248 8.35053 40.7117 8.33988 40.9769 8.32348C41.4158 8.29736 41.8647 8.29788 42.3236 8.32503C42.7806 8.34734 43.222 8.4308 43.6475 8.5754C44.0609 8.70245 44.4321 8.90881 44.7612 9.19449C45.0951 9.47834 45.3504 9.85514 45.5271 10.3249C45.7057 10.7995 45.7547 11.2535 45.674 11.687C45.5982 12.1186 45.4365 12.5133 45.1889 12.8712C44.9432 13.2338 44.6318 13.5547 44.2549 13.8339C43.8762 14.1082 43.4756 14.3244 43.0532 14.4825C42.5482 14.6715 42.0186 14.773 41.4644 14.787C40.9151 14.7992 40.4006 14.7128 39.921 14.5276C39.4967 14.3715 39.1206 14.1449 38.7928 13.8477C38.468 13.5438 38.2126 13.167 38.0268 12.7173L39.4034 12.2021C39.571 12.5151 39.7711 12.7745 40.0036 12.9802C40.2343 13.1812 40.4893 13.3288 40.7685 13.4232C41.0496 13.5225 41.3458 13.5663 41.6572 13.5547C41.9716 13.5365 42.2939 13.4656 42.6241 13.342C42.8863 13.2439 43.1318 13.1161 43.3606 12.9587C43.5925 12.7946 43.7815 12.6051 43.9278 12.3901C44.0758 12.18 44.1738 11.9473 44.2217 11.6918C44.2678 11.4315 44.2362 11.156 44.1269 10.8655Z" fill="#A1A1A1"/>
<path d="M54.2909 8.07009C54.3188 8.59607 54.2729 9.09344 54.1532 9.5622C54.0326 10.0259 53.8421 10.4392 53.5817 10.8021C53.3172 11.1711 52.9815 11.4821 52.5744 11.7351C52.1716 11.9821 51.7023 12.1544 51.1666 12.252C50.7074 12.3358 50.2774 12.3484 49.8766 12.2901C49.4799 12.2257 49.1152 12.1055 48.7824 11.9296C48.4445 11.7546 48.14 11.5314 47.8689 11.2601C47.6028 10.9879 47.3673 10.6812 47.1624 10.3399C46.9524 9.99966 46.7748 9.63505 46.6297 9.24611C46.4897 8.85625 46.3794 8.45572 46.2988 8.04453L46.0147 6.49522C45.9443 6.08216 45.9054 5.66861 45.898 5.25456C45.8958 4.83959 45.9325 4.43591 46.0082 4.04353C46.0788 3.65207 46.1902 3.28209 46.3425 2.93359C46.4989 2.57906 46.7041 2.26034 46.958 1.97743C47.2069 1.69545 47.5058 1.4569 47.8549 1.2618C48.2031 1.0616 48.6093 0.919181 49.0736 0.834533C49.6297 0.73314 50.143 0.728942 50.6134 0.821937C51.0829 0.909844 51.5043 1.08015 51.8775 1.33284C52.2516 1.59063 52.5732 1.92109 52.8422 2.32425C53.1163 2.72647 53.3324 3.18657 53.4906 3.70457L52.0749 3.9627C51.9674 3.63526 51.831 3.33677 51.6656 3.06721C51.5002 2.79766 51.303 2.5707 51.0742 2.38633C50.8453 2.20197 50.5819 2.07384 50.2841 2.00196C49.9903 1.92406 49.6573 1.91906 49.2848 1.98697C48.9481 2.04836 48.6599 2.15875 48.4203 2.31812C48.1848 2.47148 47.9925 2.65903 47.8433 2.88078C47.689 3.10345 47.571 3.35107 47.4892 3.62364C47.4124 3.89528 47.3614 4.178 47.3362 4.47179C47.311 4.76558 47.3076 5.06329 47.3259 5.3649C47.3485 5.6605 47.385 5.94568 47.4353 6.22043L47.7221 7.785C47.7725 8.05975 47.84 8.34189 47.9247 8.63141C48.0136 8.91492 48.122 9.18962 48.2498 9.4555C48.3786 9.72648 48.527 9.97546 48.6952 10.2024C48.8633 10.4294 49.059 10.6199 49.2823 10.7737C49.5065 10.9326 49.7564 11.0448 50.032 11.1102C50.3067 11.1706 50.6149 11.1696 50.9567 11.1072C51.3292 11.0393 51.6398 10.9222 51.8888 10.7559C52.1428 10.5886 52.3446 10.381 52.4942 10.1328C52.6448 9.88981 52.75 9.6156 52.81 9.31021C52.8691 8.99973 52.8908 8.6724 52.8752 8.32822L54.2909 8.07009Z" fill="#A1A1A1"/>
<path d="M60.2509 6.68785H57.9871V11.2964H56.5557V0H59.8775C60.4065 0.0103447 60.9044 0.0853438 61.3712 0.224997C61.8379 0.364651 62.2476 0.574131 62.6003 0.853438C62.9478 1.13274 63.2201 1.48446 63.4172 1.9086C63.6194 2.32756 63.7206 2.82152 63.7206 3.39048C63.7206 3.75771 63.6661 4.09391 63.5572 4.39908C63.4535 4.70425 63.3082 4.98097 63.1215 5.22925C62.9348 5.47752 62.7118 5.69734 62.4525 5.88872C62.1932 6.0801 61.9079 6.24303 61.5968 6.37751L64.0006 11.2033L63.9928 11.2964H62.4758L60.2509 6.68785ZM57.9871 5.50855H59.9164C60.238 5.50338 60.5414 5.45424 60.8266 5.36114C61.1118 5.26287 61.3634 5.12321 61.5812 4.94218C61.7938 4.76115 61.9624 4.54132 62.0869 4.28271C62.2113 4.01892 62.2736 3.71633 62.2736 3.37496C62.2736 3.01289 62.2139 2.69738 62.0946 2.42842C61.9754 2.15428 61.8094 1.92411 61.5968 1.73791C61.3841 1.55688 61.13 1.41981 60.8344 1.32671C60.5439 1.23361 60.225 1.18447 59.8775 1.1793H57.9871V5.50855Z" fill="#A1A1A1"/>
<path d="M72.9847 7.73738C72.9099 8.13389 72.8035 8.53016 72.6656 8.92617C72.5337 9.31798 72.3683 9.69081 72.1693 10.0447C71.9704 10.3985 71.7376 10.7202 71.4709 11.0098C71.2094 11.3002 70.9141 11.5427 70.5852 11.7374C70.2562 11.932 69.8927 12.0682 69.4947 12.1458C69.1028 12.2192 68.6769 12.2157 68.2171 12.1355C67.7573 12.0553 67.353 11.9139 67.0042 11.7113C66.6614 11.5044 66.3684 11.2538 66.1252 10.9593C65.882 10.6649 65.6843 10.3363 65.5321 9.97369C65.3807 9.60598 65.2717 9.22202 65.205 8.82182C65.1331 8.42073 65.0993 8.01314 65.1035 7.59905C65.1077 7.18496 65.1421 6.77876 65.2067 6.38046L65.4292 5.11181C65.504 4.71529 65.6074 4.32113 65.7393 3.92932C65.8772 3.53331 66.0482 3.15882 66.2522 2.80585C66.4512 2.45199 66.6814 2.12985 66.943 1.83942C67.2105 1.54479 67.5092 1.2976 67.8391 1.09785C68.1681 0.903204 68.5286 0.769182 68.9205 0.695786C69.3185 0.618187 69.7474 0.619494 70.2071 0.699706C70.6669 0.779917 71.0708 0.923883 71.4187 1.1316C71.7675 1.33423 72.0635 1.58278 72.3067 1.87725C72.5499 2.17171 72.7446 2.50236 72.8909 2.86918C73.0431 3.2318 73.1552 3.61366 73.227 4.01475C73.2937 4.41496 73.3219 4.8242 73.3117 5.2425C73.3067 5.66168 73.2718 6.07042 73.2072 6.46872L72.9847 7.73738ZM71.8076 6.20879C71.8489 5.94296 71.8793 5.66471 71.8987 5.37405C71.919 5.07829 71.9184 4.78151 71.8969 4.48371C71.8694 4.19012 71.8167 3.90525 71.7388 3.62911C71.6618 3.34788 71.5487 3.09187 71.3997 2.86108C71.2497 2.63538 71.0594 2.44465 70.8287 2.28889C70.599 2.12804 70.318 2.01865 69.986 1.96071C69.659 1.90368 69.3601 1.91191 69.0892 1.98543C68.8183 2.05894 68.5739 2.17646 68.3561 2.33798C68.1373 2.5046 67.9438 2.70714 67.7757 2.9456C67.6084 3.17896 67.4644 3.42951 67.3437 3.69726C67.217 3.96921 67.1103 4.24727 67.0236 4.53145C66.9429 4.81142 66.8773 5.08088 66.8266 5.33983L66.6014 6.62377C66.5609 6.8845 66.5305 7.16275 66.5102 7.45852C66.4951 7.75517 66.5012 8.05029 66.5287 8.34388C66.5553 8.64257 66.6071 8.93253 66.6841 9.21377C66.7612 9.495 66.8747 9.74847 67.0246 9.97416C67.1737 10.2049 67.3631 10.4008 67.5929 10.5616C67.8226 10.7225 68.1036 10.8319 68.4356 10.8898C68.7677 10.9477 69.0692 10.9399 69.34 10.8664C69.616 10.7938 69.8634 10.6742 70.0822 10.5076C70.2949 10.3452 70.4824 10.1468 70.6446 9.91257C70.8128 9.67411 70.9602 9.41891 71.0869 9.14696C71.2076 8.87921 71.3061 8.60236 71.3826 8.3164C71.4642 8.03134 71.5308 7.75678 71.5824 7.49273L71.8076 6.20879Z" fill="#A1A1A1"/>
<path d="M75.6546 12.5254L80.8478 14.4466L80.423 15.5886L73.8805 13.1682L77.8199 2.57701L79.1692 3.0762L75.6546 12.5254Z" fill="#A1A1A1"/>
<path d="M83.4997 15.8568L88.2791 18.6489L87.6617 19.6999L81.6406 16.1823L87.3657 6.43515L88.6076 7.16063L83.4997 15.8568Z" fill="#A1A1A1"/>
<path d="M95.3756 26.2143L104.131 19.0479L105.795 21.069C106.07 21.4121 106.297 21.7615 106.476 22.1171C106.662 22.4735 106.8 22.8289 106.89 23.1832C107.019 23.6736 107.06 24.1646 107.016 24.6564C106.978 25.1488 106.852 25.6197 106.638 26.0691C106.463 26.4599 106.231 26.8376 105.941 27.2024C105.654 27.5711 105.311 27.9215 104.914 28.2536L104.27 28.7803C103.885 29.0953 103.489 29.3559 103.082 29.5621C102.678 29.7724 102.274 29.9256 101.87 30.022C101.451 30.1241 101.029 30.1653 100.603 30.1456C100.178 30.1259 99.767 30.0506 99.3709 29.9198C98.9536 29.7796 98.5471 29.5669 98.1515 29.2819C97.7592 29.0008 97.3883 28.652 97.0388 28.2354L95.3756 26.2143ZM104.145 20.9235L97.2115 26.5986L97.9468 27.4922C98.2141 27.8088 98.4927 28.0658 98.7827 28.2634C99.076 28.4649 99.3768 28.6102 99.6849 28.6993C100.007 28.7971 100.336 28.8386 100.673 28.8239C101.017 28.8099 101.357 28.7423 101.694 28.6209C101.972 28.527 102.25 28.3999 102.527 28.2397C102.809 28.0763 103.085 27.8866 103.357 27.6708L104.013 27.1343C104.282 26.9072 104.523 26.6699 104.735 26.4224C104.955 26.1757 105.138 25.9218 105.286 25.6607C105.478 25.323 105.61 24.9703 105.683 24.6027C105.764 24.2357 105.766 23.8629 105.689 23.4841C105.638 23.2109 105.546 22.9354 105.411 22.6575C105.28 22.3764 105.103 22.0963 104.88 21.8171L104.145 20.9235Z" fill="#A1A1A1"/>
<path d="M108.939 37.259C108.583 37.4507 108.207 37.6177 107.812 37.7602C107.424 37.9046 107.029 38.0112 106.628 38.0798C106.227 38.1484 105.83 38.1705 105.437 38.1461C105.046 38.1263 104.671 38.0502 104.312 37.9178C103.953 37.7854 103.619 37.5895 103.308 37.33C103.004 37.0725 102.738 36.7403 102.511 36.3335C102.284 35.9268 102.14 35.5245 102.078 35.1266C102.024 34.7308 102.034 34.3459 102.111 33.9721C102.187 33.5983 102.318 33.2382 102.505 32.892C102.696 32.5432 102.927 32.217 103.197 31.9134C103.464 31.6052 103.76 31.3224 104.085 31.065C104.411 30.8075 104.749 30.5785 105.1 30.3778L106.228 29.7515C106.584 29.5599 106.956 29.3918 107.344 29.2474C107.74 29.1049 108.139 29.0017 108.543 28.9376C108.944 28.869 109.34 28.8446 109.73 28.8644C110.128 28.8863 110.509 28.9621 110.872 29.092C111.231 29.2244 111.562 29.4193 111.866 29.6768C112.177 29.9363 112.446 30.2695 112.673 30.6763C112.9 31.083 113.042 31.4866 113.099 31.887C113.161 32.2848 113.154 32.6707 113.078 33.0445C113.001 33.4183 112.866 33.7773 112.673 34.1216C112.486 34.4679 112.259 34.7951 111.992 35.1032C111.722 35.4069 111.421 35.6864 111.089 35.9418C110.759 36.2018 110.418 36.4321 110.067 36.6328L108.939 37.259ZM109.389 35.3846C109.622 35.2493 109.858 35.0977 110.097 34.9297C110.34 34.7592 110.571 34.5719 110.789 34.3678C111 34.1617 111.189 33.9415 111.355 33.7073C111.526 33.4706 111.654 33.2218 111.74 32.961C111.822 32.7027 111.85 32.4352 111.826 32.1584C111.807 31.8791 111.716 31.5925 111.552 31.2987C111.39 31.0095 111.196 30.783 110.968 30.6194C110.74 30.4558 110.495 30.3404 110.232 30.2733C109.964 30.2086 109.684 30.1862 109.393 30.206C109.106 30.2233 108.82 30.2695 108.535 30.3445C108.244 30.4176 107.96 30.5099 107.684 30.6217C107.415 30.7354 107.164 30.8541 106.93 30.9779L105.788 31.6117C105.559 31.7444 105.324 31.8961 105.08 32.0665C104.84 32.2415 104.614 32.4321 104.402 32.6382C104.186 32.8469 103.993 33.0695 103.822 33.3063C103.652 33.543 103.526 33.7905 103.444 34.0488C103.358 34.3096 103.325 34.5797 103.344 34.859C103.364 35.1383 103.455 35.4248 103.619 35.7186C103.783 36.0124 103.979 36.2411 104.207 36.4047C104.437 36.5729 104.686 36.6892 104.954 36.7539C105.214 36.8165 105.487 36.8369 105.771 36.8151C106.063 36.7953 106.355 36.7489 106.646 36.6758C106.931 36.6008 107.208 36.5029 107.479 36.3821C107.753 36.2659 108.009 36.1446 108.247 36.0184L109.389 35.3846Z" fill="#A1A1A1"/>
<path d="M105.271 41.4842L115.546 36.5359L115.988 37.8282L108.86 41.1152L108.448 41.3046L108.918 41.235L116.737 40.0163L117.142 41.1985L110.202 45.0116L109.795 45.2402L110.252 45.1339L117.893 43.3939L118.333 44.6789L107.168 47.0279L106.693 45.6402L113.876 41.7443L114.3 41.5181L113.816 41.5927L105.748 42.8793L105.271 41.4842Z" fill="#A1A1A1"/>
<path d="M108.801 56.1569L108.582 54.7147L116.293 49.1174L107.921 50.3574L107.703 48.9229L118.902 47.2327L119.121 48.6749L111.425 54.2698L119.782 53.0321L120 54.4667L108.801 56.1569Z" fill="#A1A1A1"/>
<path d="M113.633 61.0145C113.307 61.0394 113.025 60.952 112.786 60.7523C112.541 60.5479 112.405 60.2575 112.376 59.881C112.348 59.5148 112.436 59.2124 112.642 58.9737C112.841 58.7302 113.109 58.5956 113.446 58.57C113.782 58.5443 114.067 58.6367 114.302 58.847C114.536 59.0522 114.667 59.3379 114.695 59.7041C114.724 60.0806 114.636 60.3882 114.43 60.6269C114.225 60.8605 113.959 60.9897 113.633 61.0145Z" fill="#D3FD50"/>
</svg>
