<svg width="168" height="168" viewBox="0 0 168 168" fill="none" xmlns="http://www.w3.org/2000/svg">
<g opacity="0.6" filter="url(#filter0_d_2093_5676)">
<path fill-rule="evenodd" clip-rule="evenodd" d="M89.0125 6.98393C89.0125 9.75265 86.768 11.9972 83.9992 11.9972C81.2305 11.9972 78.986 9.75265 78.986 6.98393C78.986 4.2152 81.2305 1.9707 83.9992 1.9707C86.768 1.9707 89.0125 4.2152 89.0125 6.98393ZM90.0125 6.98393C90.0125 10.3049 87.3202 12.9972 83.9992 12.9972C80.6782 12.9972 77.986 10.3049 77.986 6.98393C77.986 3.66292 80.6782 0.970703 83.9992 0.970703C87.3202 0.970703 90.0125 3.66292 90.0125 6.98393ZM10.9834 85.009C13.7522 85.009 15.9967 82.7645 15.9967 79.9958C15.9967 77.2271 13.7522 74.9826 10.9834 74.9826C8.21471 74.9826 5.97021 77.2271 5.97021 79.9958C5.97021 82.7645 8.21471 85.009 10.9834 85.009ZM10.9834 86.009C14.3045 86.009 16.9967 83.3168 16.9967 79.9958C16.9967 76.6748 14.3045 73.9826 10.9834 73.9826C7.66243 73.9826 4.97021 76.6748 4.97021 79.9958C4.97021 83.3168 7.66243 86.009 10.9834 86.009ZM83.9992 158.024C86.768 158.024 89.0125 155.78 89.0125 153.011C89.0125 150.242 86.768 147.998 83.9992 147.998C81.2305 147.998 78.986 150.242 78.986 153.011C78.986 155.78 81.2305 158.024 83.9992 158.024ZM83.9992 159.024C87.3202 159.024 90.0125 156.332 90.0125 153.011C90.0125 149.69 87.3202 146.998 83.9992 146.998C80.6782 146.998 77.986 149.69 77.986 153.011C77.986 156.332 80.6782 159.024 83.9992 159.024ZM157.015 85.0125C159.784 85.0125 162.028 82.768 162.028 79.9993C162.028 77.2306 159.784 74.9861 157.015 74.9861C154.246 74.9861 152.002 77.2306 152.002 79.9993C152.002 82.768 154.246 85.0125 157.015 85.0125ZM157.015 86.0125C160.336 86.0125 163.028 83.3203 163.028 79.9993C163.028 76.6783 160.336 73.9861 157.015 73.9861C153.694 73.9861 151.002 76.6783 151.002 79.9993C151.002 83.3203 153.694 86.0125 157.015 86.0125ZM83.9992 157.308C86.3713 157.308 88.2943 155.385 88.2943 153.013C88.2943 150.641 86.3713 148.718 83.9992 148.718C81.627 148.718 79.704 150.641 79.704 153.013C79.704 155.385 81.627 157.308 83.9992 157.308ZM15.2785 79.9979C15.2785 82.3701 13.3555 84.2931 10.9834 84.2931C8.61123 84.2931 6.68822 82.3701 6.68822 79.9979C6.68822 77.6258 8.61123 75.7028 10.9834 75.7028C13.3555 75.7028 15.2785 77.6258 15.2785 79.9979ZM83.9992 11.2777C86.3713 11.2777 88.2943 9.3547 88.2943 6.98255C88.2943 4.6104 86.3713 2.68739 83.9992 2.68739C81.627 2.68739 79.704 4.6104 79.704 6.98255C79.704 9.3547 81.627 11.2777 83.9992 11.2777ZM161.31 79.9979C161.31 82.3701 159.387 84.2931 157.015 84.2931C154.643 84.2931 152.72 82.3701 152.72 79.9979C152.72 77.6258 154.643 75.7028 157.015 75.7028C159.387 75.7028 161.31 77.6258 161.31 79.9979ZM91.3501 6.79332C91.3336 7.13095 91.2943 7.4626 91.2337 7.78676C125.538 11.181 152.821 38.4629 156.217 72.7673C156.541 72.7069 156.872 72.6677 157.21 72.6513C153.761 37.8875 126.114 10.241 91.3501 6.79332ZM91.3504 153.212C91.3341 152.874 91.295 152.542 91.2347 152.218C125.541 148.823 152.824 121.539 156.217 87.2326C156.541 87.293 156.873 87.3321 157.211 87.3485C153.764 122.115 126.116 149.764 91.3504 153.212ZM76.7687 152.218C76.7084 152.542 76.6693 152.874 76.653 153.212C41.8868 149.764 14.2383 122.115 10.7918 87.3485C11.1294 87.3322 11.4611 87.2931 11.7853 87.2327C15.1786 121.539 42.4623 148.824 76.7687 152.218ZM11.7858 72.7671C15.1813 38.4625 42.4645 11.1804 76.7696 7.78666C76.7091 7.4625 76.6698 7.13085 76.6533 6.79322C41.8887 10.2404 14.241 37.8871 10.7923 72.6513C11.1299 72.6676 11.4616 72.7067 11.7858 72.7671Z" fill="#D3FD50"/>
</g>
<defs>
<filter id="filter0_d_2093_5676" x="0.970215" y="0.970703" width="166.058" height="166.054" filterUnits="userSpaceOnUse" color-interpolation-filters="sRGB">
<feFlood flood-opacity="0" result="BackgroundImageFix"/>
<feColorMatrix in="SourceAlpha" type="matrix" values="0 0 0 0 0 0 0 0 0 0 0 0 0 0 0 0 0 0 127 0" result="hardAlpha"/>
<feOffset dy="4"/>
<feGaussianBlur stdDeviation="2"/>
<feComposite in2="hardAlpha" operator="out"/>
<feColorMatrix type="matrix" values="0 0 0 0 1 0 0 0 0 1 0 0 0 0 1 0 0 0 0.25 0"/>
<feBlend mode="normal" in2="BackgroundImageFix" result="effect1_dropShadow_2093_5676"/>
<feBlend mode="normal" in="SourceGraphic" in2="effect1_dropShadow_2093_5676" result="shape"/>
</filter>
</defs>
</svg>
