<svg width="375" height="672" viewBox="0 0 375 672" fill="none" xmlns="http://www.w3.org/2000/svg">
<path opacity="0.6" d="M234.375 509.298H257.812M234.375 509.298H210.938M234.375 509.298V532.365M234.375 509.298V486.231M257.812 509.298V532.365M257.812 509.298V486.231M257.812 509.298H281.25M257.812 532.365H234.375M257.812 532.365V555.433M257.812 532.365H281.25M234.375 532.365H210.938M234.375 532.365V555.433M0 509.298H23.4375M23.4375 509.298V532.365M23.4375 509.298V486.231M23.4375 509.298H46.875M23.4375 532.365H0M23.4375 532.365V555.433M23.4375 532.365H46.875M234.375 601.567H257.812M234.375 601.567H210.938M234.375 601.567V624.865M234.375 601.567V578.5M257.812 601.567V624.865M257.812 601.567V578.5M257.812 601.567H281.25M257.812 624.865H234.375M257.812 624.865H281.25M257.812 624.865V647.933M234.375 624.865H210.938M234.375 624.865V647.933M0 601.567H23.4375M23.4375 601.567V624.865M23.4375 601.567V578.5M23.4375 601.567H46.875M23.4375 624.865L0 624.635M23.4375 624.865H46.875M23.4375 624.865V647.933M234.375 463.163H257.812M234.375 463.163H210.938M234.375 463.163V486.231M257.812 463.163V486.231M257.812 463.163H281.25M257.812 486.231H234.375M257.812 486.231H281.25M234.375 486.231H210.938M0 463.163H23.4375M23.4375 463.163V486.231M23.4375 463.163H46.875M23.4375 486.231H0M23.4375 486.231H46.875M234.375 555.433H257.812M234.375 555.433H210.938M234.375 555.433V578.5M257.812 555.433V578.5M257.812 555.433H281.25M257.812 578.5H234.375M257.812 578.5H281.25M234.375 578.5H210.938M0 555.433H23.4375M23.4375 555.433V578.5M23.4375 555.433H46.875M23.4375 578.5H0M23.4375 578.5H46.875M281.25 509.298V532.365M281.25 509.298V486.231M281.25 509.298H304.688M281.25 532.365V555.433M281.25 532.365H304.688M46.875 509.298V532.365M46.875 509.298V486.231M46.875 509.298H70.3125M46.875 532.365V555.433M46.875 532.365H70.3125M281.25 601.567V624.865M281.25 601.567V578.5M281.25 601.567H304.688M281.25 624.865H304.688M281.25 624.865V647.933M46.875 601.567V624.865M46.875 601.567V578.5M46.875 601.567H70.3125M46.875 624.865H70.3125M46.875 624.865V647.933M281.25 463.163V486.231M281.25 463.163H304.688M281.25 486.231H304.688M46.875 463.163V486.231M46.875 463.163H70.3125M46.875 486.231H70.3125M281.25 555.433V578.5M281.25 555.433H304.688M281.25 578.5H304.688M46.875 555.433V578.5M46.875 555.433H70.3125M46.875 578.5H70.3125M328.125 509.298H351.562M328.125 509.298H304.688M328.125 509.298V532.365M328.125 509.298V486.231M351.562 509.298V532.365M351.562 509.298V486.231M351.562 509.298H375M351.562 532.365H328.125M351.562 532.365V555.433M351.562 532.365H375M328.125 532.365H304.688M328.125 532.365V555.433M93.75 509.298H117.188M93.75 509.298H70.3125M93.75 509.298V532.365M93.75 509.298V486.231M117.188 509.298V532.365M117.188 509.298V486.231M117.188 509.298H140.625M117.188 532.365H93.75M117.188 532.365V555.433M117.188 532.365H140.625M93.75 532.365H70.3125M93.75 532.365V555.433M328.125 601.567H351.562M328.125 601.567H304.688M328.125 601.567V624.865M328.125 601.567V578.5M351.562 601.567V624.865M351.562 601.567V578.5M351.562 601.567H375M351.562 624.865H328.125M351.562 624.865V647.933M351.562 624.865H375M328.125 624.865H304.688M328.125 624.865V647.933M93.75 601.567H117.188M93.75 601.567H70.3125M93.75 601.567V624.865M93.75 601.567V578.5M117.188 601.567V624.865M117.188 601.567V578.5M117.188 601.567H140.625M117.188 624.865H93.75M117.188 624.865H140.625M117.188 624.865V647.933M93.75 624.865H70.3125M93.75 624.865V647.933M328.125 463.163H351.562M328.125 463.163H304.688M328.125 463.163V486.231M351.562 463.163V486.231M351.562 463.163H375V486.231M351.562 486.231H328.125M351.562 486.231H375M328.125 486.231H304.688M93.75 463.163H117.188M93.75 463.163H70.3125M93.75 463.163V486.231M117.188 463.163V486.231M117.188 463.163H140.625M117.188 486.231H93.75M117.188 486.231H140.625M93.75 486.231H70.3125M328.125 555.433H351.562M328.125 555.433H304.688M328.125 555.433V578.5M351.562 555.433V578.5M351.562 555.433H375M351.562 578.5H328.125M351.562 578.5H375M328.125 578.5H304.688M93.75 555.433H117.188M93.75 555.433H70.3125M93.75 555.433V578.5M117.188 555.433V578.5M117.188 555.433H140.625M117.188 578.5H93.75M117.188 578.5H140.625M93.75 578.5H70.3125M164.063 509.298H187.5M164.063 509.298H140.625M164.063 509.298V532.365M164.063 509.298V486.231M187.5 509.298V532.365M187.5 509.298V486.231M187.5 509.298H210.938M187.5 532.365H164.063M187.5 532.365V555.433M187.5 532.365H210.938M164.063 532.365H140.625M164.063 532.365V555.433M164.063 601.567H187.5M164.063 601.567H140.625M164.063 601.567V624.865M164.063 601.567V578.5M187.5 601.567V624.865M187.5 601.567V578.5M187.5 601.567H210.938M187.5 624.865H164.063M187.5 624.865H210.938M187.5 624.865V647.933M164.063 624.865H140.625M164.063 624.865V647.933M164.063 463.163H187.5M164.063 463.163H140.625M164.063 463.163V486.231M187.5 463.163V486.231M187.5 463.163H210.938M187.5 486.231H164.063M187.5 486.231H210.938M164.063 486.231H140.625M164.063 555.433H187.5M164.063 555.433H140.625M164.063 555.433V578.5M187.5 555.433V578.5M187.5 555.433H210.938M187.5 578.5H164.063M187.5 578.5H210.938M164.063 578.5H140.625M304.688 509.298V532.365M304.688 509.298V486.231M304.688 532.365V555.433M70.3125 509.298V532.365M70.3125 509.298V486.231M70.3125 532.365V555.433M304.688 601.567V624.865M304.688 601.567V578.5M304.688 624.865V647.933M70.3125 601.567V624.865M70.3125 601.567V578.5M70.3125 624.865V647.933M304.688 463.163V486.231M70.3125 463.163V486.231M304.688 555.433V578.5M70.3125 555.433V578.5M375 509.298V532.365M375 509.298V486.231M375 532.365V555.433M140.625 509.298V532.365M140.625 509.298V486.231M140.625 532.365V555.433M375 601.567V624.865M375 601.567V578.5M375 624.865V647.933M140.625 601.567V624.865M140.625 601.567V578.5M140.625 624.865V647.933M140.625 463.163V486.231M375 555.433V578.5M140.625 555.433V578.5M210.938 509.298V532.365M210.938 509.298V486.231M210.938 532.365V555.433M210.938 601.567V624.865M210.938 601.567V578.5M210.938 624.865V647.933M210.938 463.163V486.231M210.938 555.433V578.5M234.375 647.933H257.812M234.375 647.933H210.938M234.375 647.933V671M257.812 647.933V671M257.812 647.933H281.25M257.812 671H234.375M257.812 671H281.25M234.375 671H210.938M0 647.933H23.4375M23.4375 647.933V671M23.4375 647.933H46.875M23.4375 671H0V1H23.4375M23.4375 671H46.875M281.25 647.933V671M281.25 647.933H304.688M281.25 671H304.688M46.875 647.933V671M46.875 647.933H70.3125M46.875 671H70.3125M328.125 647.933H351.562M328.125 647.933H304.688M328.125 647.933V671M351.562 647.933V671M351.562 647.933H375M351.562 671H328.125M351.562 671H375V647.933M328.125 671H304.688M93.75 647.933H117.188M93.75 647.933H70.3125M93.75 647.933V671M117.188 647.933V671M117.188 647.933H140.625M117.188 671H93.75M117.188 671H140.625M93.75 671H70.3125M164.063 647.933H187.5M164.063 647.933H140.625M164.063 647.933V671M187.5 647.933V671M187.5 647.933H210.938M187.5 671H164.063M187.5 671H210.938M164.063 671H140.625M304.688 647.933V671M70.3125 647.933V671M140.625 647.933V671M210.938 647.933V671M234.375 47.1346H257.812M234.375 47.1346H210.938M234.375 47.1346V70.202M234.375 47.1346V24.0673M257.812 47.1346V70.202M257.812 47.1346V24.0673M257.812 47.1346H281.25M257.812 70.202H234.375M257.812 70.202V93.2693M257.812 70.202H281.25M234.375 70.202H210.938M234.375 70.202V93.2693M0 47.1346H23.4375M23.4375 47.1346V70.202M23.4375 47.1346V24.0673M23.4375 47.1346H46.875M23.4375 70.202H0M23.4375 70.202V93.2693M23.4375 70.202H46.875M234.375 139.404H257.812M234.375 139.404H210.938M234.375 139.404V162.702M234.375 139.404V116.337M257.812 139.404V162.702M257.812 139.404V116.337M257.812 139.404H281.25M257.812 162.702H234.375M257.812 162.702H281.25M257.812 162.702V185.769M234.375 162.702H210.938M234.375 162.702V185.769M0 139.404H23.4375M23.4375 139.404V162.702M23.4375 139.404V116.337M23.4375 139.404H46.875M23.4375 162.702L0 162.471M23.4375 162.702H46.875M23.4375 162.702V185.769M234.375 1H257.812M234.375 1H210.938M234.375 1V24.0673M257.812 1V24.0673M257.812 1H281.25M257.812 24.0673H234.375M257.812 24.0673H281.25M234.375 24.0673H210.938M23.4375 1V24.0673M23.4375 1H46.875M23.4375 24.0673H0M23.4375 24.0673H46.875M234.375 93.2693H257.812M234.375 93.2693H210.938M234.375 93.2693V116.337M257.812 93.2693V116.337M257.812 93.2693H281.25M257.812 116.337H234.375M257.812 116.337H281.25M234.375 116.337H210.938M0 93.2693H23.4375M23.4375 93.2693V116.337M23.4375 93.2693H46.875M23.4375 116.337H0M23.4375 116.337H46.875M281.25 47.1346V70.202M281.25 47.1346V24.0673M281.25 47.1346H304.688M281.25 70.202V93.2693M281.25 70.202H304.688M46.875 47.1346V70.202M46.875 47.1346V24.0673M46.875 47.1346H70.3125M46.875 70.202V93.2693M46.875 70.202H70.3125M281.25 139.404V162.702M281.25 139.404V116.337M281.25 139.404H304.688M281.25 162.702H304.688M281.25 162.702V185.769M46.875 139.404V162.702M46.875 139.404V116.337M46.875 139.404H70.3125M46.875 162.702H70.3125M46.875 162.702V185.769M281.25 1V24.0673M281.25 1H304.688M281.25 24.0673H304.688M46.875 1V24.0673M46.875 1H70.3125M46.875 24.0673H70.3125M281.25 93.2693V116.337M281.25 93.2693H304.688M281.25 116.337H304.688M46.875 93.2693V116.337M46.875 93.2693H70.3125M46.875 116.337H70.3125M328.125 47.1346H351.562M328.125 47.1346H304.688M328.125 47.1346V70.202M328.125 47.1346V24.0673M351.562 47.1346V70.202M351.562 47.1346V24.0673M351.562 47.1346H375M351.562 70.202H328.125M351.562 70.202V93.2693M351.562 70.202H375M328.125 70.202H304.688M328.125 70.202V93.2693M93.75 47.1346H117.188M93.75 47.1346H70.3125M93.75 47.1346V70.202M93.75 47.1346V24.0673M117.188 47.1346V70.202M117.188 47.1346V24.0673M117.188 47.1346H140.625M117.188 70.202H93.75M117.188 70.202V93.2693M117.188 70.202H140.625M93.75 70.202H70.3125M93.75 70.202V93.2693M328.125 139.404H351.562M328.125 139.404H304.688M328.125 139.404V162.702M328.125 139.404V116.337M351.562 139.404V162.702M351.562 139.404V116.337M351.562 139.404H375M351.562 162.702H328.125M351.562 162.702V185.769M351.562 162.702H375M328.125 162.702H304.688M328.125 162.702V185.769M93.75 139.404H117.188M93.75 139.404H70.3125M93.75 139.404V162.702M93.75 139.404V116.337M117.188 139.404V162.702M117.188 139.404V116.337M117.188 139.404H140.625M117.188 162.702H93.75M117.188 162.702H140.625M117.188 162.702V185.769M93.75 162.702H70.3125M93.75 162.702V185.769M328.125 1H351.562M328.125 1H304.688M328.125 1V24.0673M351.562 1V24.0673M351.562 1H375V24.0673M351.562 24.0673H328.125M351.562 24.0673H375M328.125 24.0673H304.688M93.75 1H117.188M93.75 1H70.3125M93.75 1V24.0673M117.188 1V24.0673M117.188 1H140.625M117.188 24.0673H93.75M117.188 24.0673H140.625M93.75 24.0673H70.3125M328.125 93.2693H351.562M328.125 93.2693H304.688M328.125 93.2693V116.337M351.562 93.2693V116.337M351.562 93.2693H375M351.562 116.337H328.125M351.562 116.337H375M328.125 116.337H304.688M93.75 93.2693H117.188M93.75 93.2693H70.3125M93.75 93.2693V116.337M117.188 93.2693V116.337M117.188 93.2693H140.625M117.188 116.337H93.75M117.188 116.337H140.625M93.75 116.337H70.3125M164.063 47.1346H187.5M164.063 47.1346H140.625M164.063 47.1346V70.202M164.063 47.1346V24.0673M187.5 47.1346V70.202M187.5 47.1346V24.0673M187.5 47.1346H210.938M187.5 70.202H164.063M187.5 70.202V93.2693M187.5 70.202H210.938M164.063 70.202H140.625M164.063 70.202V93.2693M164.063 139.404H187.5M164.063 139.404H140.625M164.063 139.404V162.702M164.063 139.404V116.337M187.5 139.404V162.702M187.5 139.404V116.337M187.5 139.404H210.938M187.5 162.702H164.063M187.5 162.702H210.938M187.5 162.702V185.769M164.063 162.702H140.625M164.063 162.702V185.769M164.063 1H187.5M164.063 1H140.625M164.063 1V24.0673M187.5 1V24.0673M187.5 1H210.938M187.5 24.0673H164.063M187.5 24.0673H210.938M164.063 24.0673H140.625M164.063 93.2693H187.5M164.063 93.2693H140.625M164.063 93.2693V116.337M187.5 93.2693V116.337M187.5 93.2693H210.938M187.5 116.337H164.063M187.5 116.337H210.938M164.063 116.337H140.625M304.688 47.1346V70.202M304.688 47.1346V24.0673M304.688 70.202V93.2693M70.3125 47.1346V70.202M70.3125 47.1346V24.0673M70.3125 70.202V93.2693M304.688 139.404V162.702M304.688 139.404V116.337M304.688 162.702V185.769M70.3125 139.404V162.702M70.3125 139.404V116.337M70.3125 162.702V185.769M304.688 1V24.0673M70.3125 1V24.0673M304.688 93.2693V116.337M70.3125 93.2693V116.337M375 47.1346V70.202M375 47.1346V24.0673M375 70.202V93.2693M140.625 47.1346V70.202M140.625 47.1346V24.0673M140.625 70.202V93.2693M375 139.404V162.702M375 139.404V116.337M375 162.702V185.769M140.625 139.404V162.702M140.625 139.404V116.337M140.625 162.702V185.769M140.625 1V24.0673M375 93.2693V116.337M140.625 93.2693V116.337M210.938 47.1346V70.202M210.938 47.1346V24.0673M210.938 70.202V93.2693M210.938 139.404V162.702M210.938 139.404V116.337M210.938 162.702V185.769M210.938 1V24.0673M210.938 93.2693V116.337M234.375 185.769H257.812M234.375 185.769H210.938M234.375 185.769V208.837M257.812 185.769V208.837M257.812 185.769H281.25M257.812 208.837H234.375M257.812 208.837V231.904M257.812 208.837H281.25M234.375 208.837H210.938M234.375 208.837V231.904M0 185.769H23.4375M23.4375 185.769V208.837M23.4375 185.769H46.875M23.4375 208.837H0M23.4375 208.837V231.904M23.4375 208.837H46.875M234.375 278.039H257.812M234.375 278.039H210.938M234.375 278.039V301.106M234.375 278.039V254.971M257.812 278.039V301.106M257.812 278.039V254.971M257.812 278.039H281.25M257.812 301.106H234.375M257.812 301.106H281.25M257.812 301.106V324.404M234.375 301.106H210.938M234.375 301.106V324.404M0 278.039H23.4375M23.4375 278.039V301.106M23.4375 278.039V254.971M23.4375 278.039H46.875M23.4375 301.106H0M23.4375 301.106H46.875M23.4375 301.106V324.404M234.375 231.904H257.812M234.375 231.904H210.938M234.375 231.904V254.971M257.812 231.904V254.971M257.812 231.904H281.25M257.812 254.971H234.375M257.812 254.971H281.25M234.375 254.971H210.938M0 231.904H23.4375M23.4375 231.904V254.971M23.4375 231.904H46.875M23.4375 254.971H0M23.4375 254.971H46.875M281.25 185.769V208.837M281.25 185.769H304.688M281.25 208.837V231.904M281.25 208.837H304.688M46.875 185.769V208.837M46.875 185.769H70.3125M46.875 208.837V231.904M46.875 208.837H70.3125M281.25 278.039V301.106M281.25 278.039V254.971M281.25 278.039H304.688M281.25 301.106H304.688M281.25 301.106V324.404M46.875 278.039V301.106M46.875 278.039V254.971M46.875 278.039H70.3125M46.875 301.106H70.3125M46.875 301.106V324.404M281.25 231.904V254.971M281.25 231.904H304.688M281.25 254.971H304.688M46.875 231.904V254.971M46.875 231.904H70.3125M46.875 254.971H70.3125M328.125 185.769H351.562M328.125 185.769H304.688M328.125 185.769V208.837M351.562 185.769V208.837M351.562 185.769H375M351.562 208.837H328.125M351.562 208.837V231.904M351.562 208.837H375M328.125 208.837H304.688M328.125 208.837V231.904M93.75 185.769H117.188M93.75 185.769H70.3125M93.75 185.769V208.837M117.188 185.769V208.837M117.188 185.769H140.625M117.188 208.837H93.75M117.188 208.837V231.904M117.188 208.837H140.625M93.75 208.837H70.3125M93.75 208.837V231.904M328.125 278.039H351.562M328.125 278.039H304.688M328.125 278.039V301.106M328.125 278.039V254.971M351.562 278.039V301.106M351.562 278.039V254.971M351.562 278.039H375M351.562 301.106H328.125M351.562 301.106H375M351.562 301.106V324.404M328.125 301.106H304.688M328.125 301.106V324.404M93.75 278.039H117.188M93.75 278.039H70.3125M93.75 278.039V301.106M93.75 278.039V254.971M117.188 278.039V301.106M117.188 278.039V254.971M117.188 278.039H140.625M117.188 301.106H93.75M117.188 301.106H140.625M117.188 301.106V324.404M93.75 301.106H70.3125M93.75 301.106V324.404M328.125 231.904H351.562M328.125 231.904H304.688M328.125 231.904V254.971M351.562 231.904V254.971M351.562 231.904H375M351.562 254.971H328.125M351.562 254.971H375M328.125 254.971H304.688M93.75 231.904H117.188M93.75 231.904H70.3125M93.75 231.904V254.971M117.188 231.904V254.971M117.188 231.904H140.625M117.188 254.971H93.75M117.188 254.971H140.625M93.75 254.971H70.3125M164.063 185.769H187.5M164.063 185.769H140.625M164.063 185.769V208.837M187.5 185.769V208.837M187.5 185.769H210.938M187.5 208.837H164.063M187.5 208.837V231.904M187.5 208.837H210.938M164.063 208.837H140.625M164.063 208.837V231.904M164.063 278.039H187.5M164.063 278.039H140.625M164.063 278.039V301.106M164.063 278.039V254.971M187.5 278.039V301.106M187.5 278.039V254.971M187.5 278.039H210.938M187.5 301.106H164.063M187.5 301.106H210.938M187.5 301.106V324.404M164.063 301.106H140.625M164.063 301.106V324.404M164.063 231.904H187.5M164.063 231.904H140.625M164.063 231.904V254.971M187.5 231.904V254.971M187.5 231.904H210.938M187.5 254.971H164.063M187.5 254.971H210.938M164.063 254.971H140.625M304.688 185.769V208.837M304.688 208.837V231.904M70.3125 185.769V208.837M70.3125 208.837V231.904M304.688 278.039V301.106M304.688 278.039V254.971M304.688 301.106V324.404M70.3125 278.039V301.106M70.3125 278.039V254.971M70.3125 301.106V324.404M304.688 231.904V254.971M70.3125 231.904V254.971M375 185.769V208.837M375 208.837V231.904M140.625 185.769V208.837M140.625 208.837V231.904M375 278.039V301.106M375 278.039V254.971M375 301.106V324.404M140.625 278.039V301.106M140.625 278.039V254.971M140.625 301.106V324.404M375 231.904V254.971M140.625 231.904V254.971M210.938 185.769V208.837M210.938 208.837V231.904M210.938 278.039V301.106M210.938 278.039V254.971M210.938 301.106V324.404M210.938 231.904V254.971M257.812 324.404H234.375M257.812 324.404H281.25M257.812 324.404V347.471M234.375 324.404H210.938M234.375 324.404V347.471M23.4375 324.404L0 324.173M23.4375 324.404H46.875M23.4375 324.404V347.471M281.25 324.404H304.688M281.25 324.404V347.471M46.875 324.404H70.3125M46.875 324.404V347.471M351.562 324.404H328.125M351.562 324.404V347.471M351.562 324.404H375M328.125 324.404H304.688M328.125 324.404V347.471M117.188 324.404H93.75M117.188 324.404H140.625M117.188 324.404V347.471M93.75 324.404H70.3125M93.75 324.404V347.471M187.5 324.404H164.063M187.5 324.404H210.938M187.5 324.404V347.471M164.063 324.404H140.625M164.063 324.404V347.471M304.688 324.404V347.471M70.3125 324.404V347.471M375 324.404V347.471M140.625 324.404V347.471M210.938 324.404V347.471M234.375 347.471H257.812M234.375 347.471H210.938M234.375 347.471V370.539M257.812 347.471V370.539M257.812 347.471H281.25M257.812 370.539H234.375M257.812 370.539V393.606M257.812 370.539H281.25M234.375 370.539H210.938M234.375 370.539V393.606M0 347.471H23.4375M23.4375 347.471V370.539M23.4375 347.471H46.875M23.4375 370.539H0M23.4375 370.539V393.606M23.4375 370.539H46.875M234.375 439.741H257.812M234.375 439.741H210.938M234.375 439.741V462.808M234.375 439.741V416.673M257.812 439.741V462.808M257.812 439.741V416.673M257.812 439.741H281.25M257.812 462.808H234.375M257.812 462.808H281.25M234.375 462.808H210.938M0 439.741H23.4375M23.4375 439.741V462.808M23.4375 439.741V416.673M23.4375 439.741H46.875M23.4375 462.808H0M23.4375 462.808H46.875M234.375 393.606H257.812M234.375 393.606H210.938M234.375 393.606V416.673M257.812 393.606V416.673M257.812 393.606H281.25M257.812 416.673H234.375M257.812 416.673H281.25M234.375 416.673H210.938M0 393.606H23.4375M23.4375 393.606V416.673M23.4375 393.606H46.875M23.4375 416.673H0M23.4375 416.673H46.875M281.25 347.471V370.539M281.25 347.471H304.688M281.25 370.539V393.606M281.25 370.539H304.688M46.875 347.471V370.539M46.875 347.471H70.3125M46.875 370.539V393.606M46.875 370.539H70.3125M281.25 439.741V462.808M281.25 439.741V416.673M281.25 439.741H304.688M281.25 462.808H304.688M46.875 439.741V462.808M46.875 439.741V416.673M46.875 439.741H70.3125M46.875 462.808H70.3125M281.25 393.606V416.673M281.25 393.606H304.688M281.25 416.673H304.688M46.875 393.606V416.673M46.875 393.606H70.3125M46.875 416.673H70.3125M328.125 347.471H351.562M328.125 347.471H304.688M328.125 347.471V370.539M351.562 347.471V370.539M351.562 347.471H375M351.562 370.539H328.125M351.562 370.539V393.606M351.562 370.539H375M328.125 370.539H304.688M328.125 370.539V393.606M93.75 347.471H117.188M93.75 347.471H70.3125M93.75 347.471V370.539M117.188 347.471V370.539M117.188 347.471H140.625M117.188 370.539H93.75M117.188 370.539V393.606M117.188 370.539H140.625M93.75 370.539H70.3125M93.75 370.539V393.606M328.125 439.741H351.562M328.125 439.741H304.688M328.125 439.741V462.808M328.125 439.741V416.673M351.562 439.741V462.808M351.562 439.741V416.673M351.562 439.741H375M351.562 462.808H328.125M351.562 462.808H375V439.741M328.125 462.808H304.688M93.75 439.741H117.188M93.75 439.741H70.3125M93.75 439.741V462.808M93.75 439.741V416.673M117.188 439.741V462.808M117.188 439.741V416.673M117.188 439.741H140.625M117.188 462.808H93.75M117.188 462.808H140.625M93.75 462.808H70.3125M328.125 393.606H351.562M328.125 393.606H304.688M328.125 393.606V416.673M351.562 393.606V416.673M351.562 393.606H375M351.562 416.673H328.125M351.562 416.673H375M328.125 416.673H304.688M93.75 393.606H117.188M93.75 393.606H70.3125M93.75 393.606V416.673M117.188 393.606V416.673M117.188 393.606H140.625M117.188 416.673H93.75M117.188 416.673H140.625M93.75 416.673H70.3125M164.063 347.471H187.5M164.063 347.471H140.625M164.063 347.471V370.539M187.5 347.471V370.539M187.5 347.471H210.938M187.5 370.539H164.063M187.5 370.539V393.606M187.5 370.539H210.938M164.063 370.539H140.625M164.063 370.539V393.606M164.063 439.741H187.5M164.063 439.741H140.625M164.063 439.741V462.808M164.063 439.741V416.673M187.5 439.741V462.808M187.5 439.741V416.673M187.5 439.741H210.938M187.5 462.808H164.063M187.5 462.808H210.938M164.063 462.808H140.625M164.063 393.606H187.5M164.063 393.606H140.625M164.063 393.606V416.673M187.5 393.606V416.673M187.5 393.606H210.938M187.5 416.673H164.063M187.5 416.673H210.938M164.063 416.673H140.625M304.688 347.471V370.539M304.688 370.539V393.606M70.3125 347.471V370.539M70.3125 370.539V393.606M304.688 439.741V462.808M304.688 439.741V416.673M70.3125 439.741V462.808M70.3125 439.741V416.673M304.688 393.606V416.673M70.3125 393.606V416.673M375 347.471V370.539M375 370.539V393.606M140.625 347.471V370.539M140.625 370.539V393.606M375 439.741V416.673M140.625 439.741V462.808M140.625 439.741V416.673M375 393.606V416.673M140.625 393.606V416.673M210.938 347.471V370.539M210.938 370.539V393.606M210.938 439.741V462.808M210.938 439.741V416.673M210.938 393.606V416.673" stroke="#6B6A6A" stroke-opacity="0.6"/>
</svg>
