<svg width="18" height="18" viewBox="0 0 18 18" fill="none" xmlns="http://www.w3.org/2000/svg">
<path d="M8.99951 0C4.02899 0 -0.000488281 4.04428 -0.000488281 9.03306C-0.000488281 13.2692 2.90543 16.8239 6.82547 17.8002V11.7936H4.96967V9.03306H6.82547V7.84359C6.82547 4.76909 8.21183 3.34404 11.2193 3.34404C11.7895 3.34404 12.7734 3.45641 13.1759 3.56842V6.07058C12.9635 6.04818 12.5945 6.03697 12.1362 6.03697C10.6606 6.03697 10.0903 6.59811 10.0903 8.05677V9.03306H13.0301L12.525 11.7936H10.0903V18C14.5468 17.4598 17.9999 13.6515 17.9999 9.03306C17.9995 4.04428 13.97 0 8.99951 0Z" fill="white"/>
</svg>
