<svg width="18" height="18" viewBox="0 0 18 18" fill="none" xmlns="http://www.w3.org/2000/svg">
<path d="M8.99951 0C4.03151 0 -0.000488281 4.032 -0.000488281 9C-0.000488281 13.968 4.03151 18 8.99951 18C13.9675 18 17.9995 13.968 17.9995 9C17.9995 4.032 13.9675 0 8.99951 0ZM13.1755 6.12C13.0405 7.542 12.4555 10.998 12.1585 12.591C12.0325 13.266 11.7805 13.491 11.5465 13.518C11.0245 13.563 10.6285 13.176 10.1245 12.843C9.33251 12.321 8.88251 11.997 8.11751 11.493C7.22651 10.908 7.80251 10.584 8.31551 10.062C8.45051 9.927 10.7545 7.83 10.7995 7.641C10.8058 7.61237 10.8049 7.58265 10.7971 7.55442C10.7892 7.52619 10.7746 7.5003 10.7545 7.479C10.7005 7.434 10.6285 7.452 10.5655 7.461C10.4845 7.479 9.22451 8.316 6.76751 9.972C6.40751 10.215 6.08351 10.341 5.79551 10.332C5.47151 10.323 4.85951 10.152 4.40051 9.999C3.83351 9.819 3.39251 9.72 3.42851 9.405C3.44651 9.243 3.67151 9.081 4.09451 8.91C6.72251 7.767 8.46851 7.011 9.34151 6.651C11.8435 5.607 12.3565 5.427 12.6985 5.427C12.7705 5.427 12.9415 5.445 13.0495 5.535C13.1395 5.607 13.1665 5.706 13.1755 5.778C13.1665 5.832 13.1845 5.994 13.1755 6.12Z" fill="currentColor"/>
</svg>
