<svg width="230" height="295" viewBox="0 0 230 295" fill="none" xmlns="http://www.w3.org/2000/svg">
<path d="M12.0004 295L0.453406 275L23.5474 275L12.0004 295ZM12.0002 95.7565L10.0002 95.7565L12.0002 95.7565ZM105.899 179.223C105.899 179.12 105.899 179.017 105.899 178.914C105.899 178.811 105.899 178.708 105.899 178.606C105.899 178.504 105.899 178.403 105.899 178.301C105.899 178.2 105.899 178.099 105.899 177.999C105.899 177.898 105.899 177.798 105.899 177.699C105.899 177.599 105.899 177.5 105.899 177.401C105.899 177.302 105.899 177.203 105.899 177.105C105.899 177.007 105.899 176.909 105.899 176.812C105.899 176.715 105.899 176.618 105.899 176.521C105.899 176.424 105.899 176.328 105.899 176.232C105.899 176.137 105.899 176.041 105.899 175.946C105.899 175.851 105.899 175.756 105.899 175.662C105.899 175.568 105.899 175.474 105.899 175.38C105.899 175.287 105.899 175.193 105.899 175.101C105.899 175.008 105.899 174.915 105.899 174.823C105.899 174.731 105.899 174.639 105.899 174.548C105.899 174.457 105.899 174.366 105.899 174.275C105.899 174.185 105.899 174.094 105.899 174.005C105.899 173.915 105.899 173.825 105.899 173.736C105.899 173.647 105.899 173.558 105.899 173.47C105.899 173.381 105.899 173.293 105.899 173.206C105.899 173.118 105.899 173.031 105.899 172.944C105.899 172.857 105.899 172.77 105.899 172.684C105.899 172.598 105.899 172.512 105.899 172.426C105.899 172.341 105.899 172.256 105.899 172.171C105.899 172.086 105.899 172.002 105.899 171.917C105.899 171.833 105.899 171.75 105.899 171.666C105.899 171.583 105.899 171.5 105.899 171.417C105.899 171.334 105.899 171.252 105.899 171.17C105.899 171.088 105.899 171.006 105.899 170.925C105.899 170.844 105.899 170.763 105.899 170.682C105.899 170.601 105.899 170.521 105.899 170.441C105.899 170.361 105.899 170.282 105.899 170.202C105.899 170.123 105.899 170.044 105.899 169.966C105.899 169.887 105.899 169.809 105.899 169.731C105.899 169.653 105.899 169.575 105.899 169.498C105.899 169.421 105.899 169.344 105.899 169.267C105.899 169.191 105.899 169.115 105.899 169.039C105.899 168.963 105.899 168.887 105.899 168.812C105.899 168.737 105.899 168.662 105.899 168.587C105.899 168.513 105.899 168.438 105.899 168.364C105.899 168.29 105.899 168.217 105.899 168.144C105.899 168.07 105.899 167.997 105.899 167.925C105.899 167.852 105.899 167.78 105.899 167.708C105.899 167.636 105.899 167.564 105.899 167.493C105.899 167.421 105.899 167.35 105.899 167.28C105.899 167.209 105.899 167.138 105.899 167.068C105.899 166.998 105.899 166.928 105.899 166.859C105.899 166.79 105.899 166.72 105.899 166.652C105.899 166.583 105.899 166.514 105.899 166.446C105.899 166.378 105.899 166.31 105.899 166.242C105.899 166.175 105.899 166.107 105.899 166.04C105.899 165.973 105.899 165.907 105.899 165.84C105.899 165.774 105.899 165.708 105.899 165.642C105.899 165.576 105.899 165.511 105.899 165.446C105.899 165.381 105.899 165.316 105.899 165.251C105.899 165.187 105.899 165.122 105.899 165.058C105.899 164.994 105.899 164.931 105.899 164.867C105.899 164.804 105.899 164.741 105.899 164.678C105.899 164.615 105.899 164.553 105.899 164.491C105.899 164.428 105.899 164.366 105.899 164.305C105.899 164.243 105.899 164.182 105.899 164.121C105.899 164.06 105.899 163.999 105.899 163.939C105.899 163.878 105.899 163.818 105.899 163.758C105.899 163.698 105.899 163.639 105.899 163.579C105.899 163.52 105.899 163.461 105.899 163.402C105.899 163.343 105.899 163.285 105.899 163.227C105.899 163.169 105.899 163.111 105.899 163.053C105.899 162.995 105.899 162.938 105.899 162.881C105.899 162.824 105.899 162.767 105.899 162.71C105.899 162.654 105.899 162.598 105.899 162.542C105.899 162.486 105.899 162.43 105.899 162.375C105.899 162.319 105.899 162.264 105.899 162.209C105.899 162.154 105.899 162.1 105.899 162.045C105.899 161.991 105.899 161.937 105.899 161.883C105.899 161.829 105.899 161.775 105.899 161.722C105.899 161.669 105.899 161.616 105.899 161.563C105.899 161.51 105.899 161.458 105.899 161.405C105.899 161.353 105.899 161.301 105.899 161.249C105.899 161.198 105.899 161.146 105.899 161.095C105.899 161.044 105.899 160.993 105.899 160.942C105.899 160.891 105.899 160.841 105.899 160.791C105.899 160.741 105.899 160.691 105.899 160.641C105.899 160.591 105.899 160.542 105.899 160.493C105.899 160.443 105.899 160.394 105.899 160.346C105.899 160.297 105.899 160.249 105.899 160.2C105.899 160.152 105.899 160.104 105.899 160.057C105.899 160.009 105.899 159.961 105.899 159.914C105.899 159.867 105.899 159.82 105.899 159.773C105.899 159.726 105.899 159.68 105.899 159.634C105.899 159.587 105.899 159.541 105.899 159.496C105.899 159.45 105.899 159.404 105.899 159.359C105.899 159.314 105.899 159.268 105.899 159.224C105.899 159.179 105.899 159.134 105.899 159.09C105.899 159.045 105.899 159.001 105.899 158.957C105.899 158.913 105.899 158.87 105.899 158.826C105.899 158.783 105.899 158.74 105.899 158.697C105.899 158.654 105.899 158.611 105.899 158.568C105.899 158.526 105.899 158.483 105.899 158.441C105.899 158.399 105.899 158.357 105.899 158.316C105.899 158.274 105.899 158.232 105.899 158.191C105.899 158.15 105.899 158.109 105.899 158.068C105.899 158.027 105.899 157.987 105.899 157.947C105.899 157.906 105.899 157.866 105.899 157.826C105.899 157.786 105.899 157.747 105.899 157.707C105.899 157.668 105.899 157.628 105.899 157.589C105.899 157.55 105.899 157.511 105.899 157.473C105.899 157.434 105.899 157.396 105.899 157.357C105.899 157.319 105.899 157.281 105.899 157.243C105.899 157.205 105.899 157.168 105.899 157.13C105.899 157.093 105.899 157.056 105.899 157.019C105.899 156.982 105.899 156.945 105.899 156.908C105.899 156.872 105.899 156.835 105.899 156.799C105.899 156.763 105.899 156.727 105.899 156.691C105.899 156.655 105.899 156.62 105.899 156.584C105.899 156.549 105.899 156.514 105.899 156.479C105.899 156.444 105.899 156.409 105.899 156.374C105.899 156.339 105.899 156.305 105.899 156.271C105.899 156.236 105.899 156.202 105.899 156.168C105.899 156.135 105.899 156.101 105.899 156.067C105.899 156.034 105.899 156 105.899 155.967C105.899 155.934 105.899 155.901 105.899 155.868C105.899 155.836 105.899 155.803 105.899 155.771C105.899 155.738 105.899 155.706 105.899 155.674C105.899 155.642 105.899 155.61 105.899 155.578C105.899 155.547 105.899 155.515 105.899 155.484C105.899 155.452 105.899 155.421 105.899 155.39C105.899 155.359 105.899 155.328 105.899 155.298C105.899 155.267 105.899 155.237 105.899 155.206C105.899 155.176 105.899 155.146 105.899 155.116C105.899 155.086 105.899 155.056 105.899 155.026C105.899 154.997 105.899 154.967 105.899 154.938C105.899 154.909 105.899 154.88 105.899 154.851C105.899 154.822 105.899 154.793 105.899 154.764C105.899 154.735 105.899 154.707 105.899 154.679C105.899 154.65 105.899 154.622 105.899 154.594C105.899 154.566 105.899 154.538 105.899 154.51C105.899 154.483 105.899 154.455 105.899 154.428C105.899 154.4 105.899 154.373 105.899 154.346C105.899 154.319 105.899 154.292 105.899 154.265C105.899 154.238 105.899 154.212 105.899 154.185C105.899 154.159 105.899 154.133 105.899 154.106C105.899 154.08 105.899 154.054 105.899 154.028C105.899 154.002 105.899 153.977 105.899 153.951C105.899 153.925 105.899 153.9 105.899 153.874C105.899 153.849 105.899 153.824 105.899 153.799C105.899 153.774 105.899 153.749 105.899 153.724C105.899 153.699 105.899 153.675 105.899 153.65C105.899 153.626 105.899 153.601 105.899 153.577C105.899 153.553 105.899 153.529 105.899 153.505C105.899 153.481 105.899 153.457 105.899 153.434C105.899 153.41 105.899 153.386 105.899 153.363C105.899 153.339 105.899 153.316 105.899 153.293C105.899 153.27 105.899 153.247 105.899 153.224C105.899 153.201 105.899 153.178 105.899 153.155C105.899 153.133 105.899 153.11 105.899 153.088C105.899 153.065 105.899 153.043 105.899 153.021C105.899 152.999 105.899 152.977 105.899 152.955C105.899 152.933 105.899 152.911 105.899 152.889C105.899 152.868 105.899 152.846 105.899 152.824C105.899 152.803 105.899 152.782 105.899 152.76C105.899 152.739 105.899 152.718 105.899 152.697C105.899 152.676 105.899 152.655 105.899 152.634C105.899 152.613 105.899 152.593 105.899 152.572C105.899 152.552 105.899 152.531 105.899 152.511C105.899 152.49 105.899 152.47 105.899 152.45C105.899 152.43 105.899 152.41 105.899 152.39C105.899 152.37 105.899 152.35 105.899 152.33C105.899 152.311 105.899 152.291 105.899 152.271C105.899 152.252 105.899 152.232 105.899 152.213C105.899 152.194 105.899 152.174 105.899 152.155C105.899 152.136 105.899 152.117 105.899 152.098C105.899 152.079 105.899 152.06 105.899 152.041C105.899 152.023 105.899 152.004 105.899 151.985C105.899 151.967 105.899 151.948 105.899 151.93C105.899 151.911 105.899 151.893 105.899 151.875C105.899 151.857 105.899 151.838 105.899 151.82C105.899 151.802 105.899 151.784 105.899 151.766C105.899 151.748 105.899 151.731 105.899 151.713C105.899 151.695 105.899 151.678 105.899 151.66C105.899 151.642 105.899 151.625 105.899 151.607C105.899 151.59 105.899 151.573 105.899 151.555C105.899 151.538 105.899 151.521 105.899 151.504C105.899 151.487 105.899 151.47 105.899 151.453C105.899 151.436 105.899 151.419 105.899 151.402C105.899 151.385 105.899 151.368 105.899 151.352C105.899 151.335 105.899 151.318 105.899 151.302C105.899 151.285 105.899 151.269 105.899 151.253C105.899 151.236 105.899 151.22 105.899 151.203C105.899 151.187 105.899 151.171 105.899 151.155C105.899 151.139 105.899 151.123 105.899 151.106C105.899 151.09 105.899 151.074 105.899 151.059C105.899 151.043 105.899 151.027 105.899 151.011C105.899 150.995 105.899 150.979 105.899 150.964C105.899 150.948 105.899 150.932 105.899 150.917C105.899 150.901 105.899 150.886 105.899 150.87C105.899 150.855 105.899 150.839 105.899 150.824C105.899 150.809 105.899 150.793 105.899 150.778C105.899 150.763 105.899 150.747 105.899 150.732C105.899 150.717 105.899 150.702 105.899 150.687C105.899 150.672 105.899 150.657 105.899 150.642C105.899 150.627 105.899 150.612 105.899 150.597C105.899 150.582 105.899 150.567 105.899 150.552C105.899 150.537 105.899 150.522 105.899 150.508C105.899 150.493 105.899 150.478 105.899 150.464C105.899 150.449 105.899 150.434 105.899 150.42C105.899 150.405 105.899 150.39 105.899 150.376C105.899 150.361 105.899 150.347 105.899 150.332C105.899 150.318 105.899 150.303 105.899 150.289C105.899 150.274 105.899 150.26 105.899 150.245C105.899 150.231 105.899 150.217 105.899 150.202C105.899 150.188 105.899 150.174 105.899 150.159C105.899 150.145 105.899 150.131 105.899 150.117C105.899 150.102 105.899 150.088 105.899 150.074C105.899 150.06 105.899 150.046 105.899 150.031C105.899 150.017 105.899 150.003 105.899 149.989C105.899 149.975 105.899 149.961 105.899 149.947C105.899 149.933 105.899 149.919 105.899 149.904C105.899 149.89 105.899 149.876 105.899 149.862C105.899 149.848 105.899 149.834 105.899 149.82C105.899 149.806 105.899 149.792 105.899 149.778C105.899 149.764 105.899 149.75 105.899 149.736C105.899 149.722 105.899 149.708 105.899 149.694C105.899 149.68 105.899 149.666 105.899 149.652C105.899 149.638 105.899 149.624 105.899 149.61C105.899 149.596 105.899 149.582 105.899 149.568C105.899 149.554 105.899 149.54 105.899 149.526C105.899 149.512 105.899 149.498 105.899 149.484C105.899 149.47 105.899 149.456 105.899 149.442C105.899 149.428 105.899 149.414 105.899 149.4C105.899 149.386 105.899 149.372 105.899 149.358C105.899 149.344 105.899 149.33 105.899 149.316C105.899 149.302 105.899 149.288 105.899 149.274C105.899 149.26 105.899 149.245 105.899 149.231C105.899 149.217 105.899 149.203 105.899 149.189C105.899 149.175 105.899 149.161 105.899 149.146C105.899 149.132 105.899 149.118 105.899 149.104C105.899 149.089 105.899 149.075 105.899 149.061C105.899 149.047 105.899 149.032 105.899 149.018C105.899 149.004 105.899 148.989 105.899 148.975C105.899 148.961 105.899 148.946 105.899 148.932C105.899 148.917 105.899 148.903 105.899 148.888C105.899 148.874 105.899 148.859 105.899 148.845C105.899 148.83 105.899 148.816 105.899 148.801C105.899 148.786 105.899 148.772 105.899 148.757C105.899 148.742 105.899 148.728 105.899 148.713C105.899 148.698 105.899 148.683 105.899 148.668C105.899 148.654 105.899 148.639 105.899 148.624C105.899 148.609 105.899 148.594 105.899 148.579C105.899 148.564 105.899 148.549 105.899 148.534C105.899 148.519 105.899 148.504 105.899 148.488C105.899 148.473 105.899 148.458 105.899 148.443C105.899 148.427 105.899 148.412 105.899 148.397C105.899 148.381 105.899 148.366 105.899 148.351C105.899 148.335 105.899 148.32 105.899 148.304C105.899 148.288 105.899 148.273 105.899 148.257C105.899 148.241 105.899 148.226 105.899 148.21C105.899 148.194 105.899 148.178 105.899 148.162C105.899 148.146 105.899 148.13 105.899 148.114C105.899 148.098 105.899 148.082 105.899 148.066C105.899 148.05 105.899 148.034 105.899 148.018C105.899 148.001 105.899 147.985 105.899 147.969C105.899 147.952 105.899 147.936 105.899 147.919C105.899 147.903 105.899 147.886 105.899 147.869C105.899 147.853 105.899 147.836 105.899 147.819C105.899 147.802 105.899 147.785 105.899 147.769C105.899 147.752 105.899 147.735 105.899 147.717C105.899 147.7 105.899 147.683 105.899 147.666C105.899 147.649 105.899 147.631 105.899 147.614C105.899 147.597 105.899 147.579 105.899 147.562C105.899 147.544 105.899 147.526 105.899 147.509C105.899 147.491 105.899 147.473 105.899 147.455C105.899 147.437 105.899 147.419 105.899 147.401C105.899 147.383 105.899 147.365 105.899 147.347C105.899 147.329 105.899 147.31 105.899 147.292C105.899 147.274 105.899 147.255 105.899 147.236C105.899 147.218 105.899 147.199 105.899 147.18C105.899 147.162 105.899 147.143 105.899 147.124C105.899 147.105 105.899 147.086 105.899 147.067C105.899 147.048 105.899 147.028 105.899 147.009C105.899 146.99 105.899 146.97 105.899 146.951C105.899 146.931 105.899 146.912 105.899 146.892C105.899 146.872 105.899 146.852 105.899 146.832C105.899 146.813 105.899 146.792 105.899 146.772C105.899 146.752 105.899 146.732 105.899 146.712C105.899 146.691 105.899 146.671 105.899 146.65C105.899 146.63 105.899 146.609 105.899 146.588C105.899 146.568 105.899 146.547 105.899 146.526C105.899 146.505 105.899 146.484 105.899 146.462C105.899 146.441 105.899 146.42 105.899 146.398C105.899 146.377 105.899 146.355 105.899 146.334C105.899 146.312 105.899 146.29 105.899 146.268C105.899 146.246 105.899 146.224 105.899 146.202C105.899 146.18 105.899 146.158 105.899 146.135C105.899 146.113 105.899 146.09 105.899 146.068C105.899 146.045 105.899 146.022 105.899 145.999C105.899 145.977 105.899 145.954 105.899 145.93C105.899 145.907 105.899 145.884 105.899 145.861C105.899 145.837 105.899 145.814 105.899 145.79C105.899 145.766 105.899 145.743 105.899 145.719C105.899 145.695 105.899 145.671 105.899 145.646C105.899 145.622 105.899 145.598 105.899 145.573C105.899 145.549 105.899 145.524 105.899 145.5C105.899 145.475 105.899 145.45 105.899 145.425C105.899 145.4 105.899 145.375 105.899 145.35C105.899 145.324 105.899 145.299 105.899 145.273C105.899 145.248 105.899 145.222 105.899 145.196C105.899 145.17 105.899 145.144 105.899 145.118C105.899 145.092 105.899 145.066 105.899 145.039C105.899 145.013 105.899 144.986 105.899 144.959C105.899 144.933 105.899 144.906 105.899 144.879C105.899 144.851 105.899 144.824 105.899 144.797C105.899 144.77 105.899 144.742 105.899 144.714C105.899 144.687 105.899 144.659 105.899 144.631C105.899 144.603 105.899 144.575 105.899 144.546C105.899 144.518 105.899 144.49 105.899 144.461C105.899 144.432 105.899 144.404 105.899 144.375C105.899 144.346 105.899 144.317 105.899 144.287C105.899 144.258 105.899 144.229 105.899 144.199C105.899 144.169 105.899 144.14 105.899 144.11C105.899 144.08 105.899 144.05 105.899 144.019C105.899 143.989 105.899 143.959 105.899 143.928C105.899 143.897 105.899 143.867 105.899 143.836C105.899 143.805 105.899 143.774 105.899 143.742C105.899 143.711 105.899 143.68 105.899 143.648C105.899 143.616 105.899 143.584 105.899 143.552C105.899 143.52 105.899 143.488 105.899 143.456C105.899 143.423 105.899 143.391 105.899 143.358C105.899 143.325 105.899 143.292 105.899 143.259C105.899 143.226 105.899 143.193 105.899 143.159C105.899 143.126 105.899 143.092 105.899 143.058C105.899 143.025 105.899 142.991 105.899 142.956C105.899 142.922 105.899 142.888 105.899 142.853C105.899 142.818 105.899 142.784 105.899 142.749C105.899 142.714 105.899 142.679 105.899 142.643C105.899 142.608 105.899 142.572 105.899 142.536C105.899 142.501 105.899 142.465 105.899 142.429C105.899 142.392 105.899 142.356 105.899 142.319C105.899 142.283 105.899 142.246 105.899 142.209C105.899 142.172 105.899 142.135 105.899 142.098C105.899 142.06 105.899 142.023 105.899 141.985C105.899 141.947 105.899 141.909 105.899 141.871C105.899 141.833 105.899 141.794 105.899 141.756C105.899 141.717 105.899 141.678 105.899 141.639C105.899 141.6 105.899 141.561 105.899 141.522C105.899 141.482 105.899 141.443 105.899 141.403C105.899 141.363 105.899 141.323 105.899 141.282C105.899 141.242 105.899 141.202 105.899 141.161C105.899 141.12 105.899 141.079 105.899 141.038C105.899 140.997 105.899 140.955 105.899 140.914C105.899 140.872 105.899 140.83 105.899 140.788C105.899 140.746 105.899 140.704 105.899 140.661C105.899 140.619 105.899 140.576 105.899 140.533C105.899 140.49 105.899 140.447 105.899 140.404C105.899 140.36 105.899 140.317 105.899 140.273C105.899 140.229 105.899 140.185 105.899 140.141C105.899 140.096 105.899 140.052 105.899 140.007C105.899 139.962 105.899 139.917 105.899 139.872C105.899 139.827 105.899 139.781 105.899 139.735C105.899 139.69 105.899 139.644 105.899 139.597C105.899 139.551 105.899 139.505 105.899 139.458C105.899 139.411 105.899 139.364 105.899 139.317C105.899 139.27 105.899 139.223 105.899 139.175C105.899 139.127 105.899 139.079 105.899 139.031C105.899 138.983 105.899 138.935 105.899 138.886C105.899 138.837 105.899 138.788 105.899 138.739C105.899 138.69 105.899 138.641 105.899 138.591C105.899 138.542 105.899 138.492 105.899 138.441C105.899 138.391 105.899 138.341 105.899 138.29C105.899 138.24 105.899 138.189 105.899 138.138C105.899 138.086 105.899 138.035 105.899 137.983C105.899 137.932 105.899 137.88 105.899 137.827C105.899 137.775 105.899 137.723 105.899 137.67C105.899 137.617 105.899 137.564 105.899 137.511C105.899 137.458 105.899 137.404 105.899 137.351C105.899 137.297 105.899 137.243 105.899 137.189C105.899 137.134 105.899 137.08 105.899 137.025C105.899 136.97 105.899 136.915 105.899 136.859C105.899 136.804 105.899 136.748 105.899 136.692C105.899 136.637 105.899 136.58 105.899 136.524C105.899 136.467 105.899 136.411 105.899 136.354C105.899 136.297 105.899 136.239 105.899 136.182C105.899 136.124 105.899 136.066 105.899 136.008C105.899 135.95 105.899 135.892 105.899 135.833C105.899 135.774 105.899 135.715 105.899 135.656C105.899 135.597 105.899 135.537 105.899 135.477C105.899 135.418 105.899 135.357 105.899 135.297C105.899 135.237 105.899 135.176 105.899 135.115C105.899 135.054 105.899 134.993 105.899 134.931C105.899 134.87 105.899 134.808 105.899 134.746C105.899 134.684 105.899 134.621 105.899 134.558C105.899 134.496 105.899 134.433 105.899 134.369C105.899 134.306 105.899 134.242 105.899 134.179C105.899 134.115 105.899 134.05 105.899 133.986C105.899 133.921 105.899 133.857 105.899 133.792C105.899 133.726 105.899 133.661 105.899 133.595C105.899 133.53 105.899 133.464 105.899 133.397C105.899 133.331 105.899 133.264 105.899 133.197C105.899 133.131 105.899 133.063 105.899 132.996C105.899 132.928 105.899 132.86 105.899 132.792C105.899 132.724 105.899 132.656 105.899 132.587C105.899 132.518 105.899 132.449 105.899 132.38C105.899 132.31 105.899 132.241 105.899 132.171C105.899 132.101 105.899 132.03 105.899 131.96C105.899 131.889 105.899 131.818 105.899 131.747C105.899 131.675 105.899 131.604 105.899 131.532C105.899 131.46 105.899 131.388 105.899 131.315C105.899 131.242 105.899 131.17 105.899 131.096C105.899 131.023 105.899 130.95 105.899 130.876C105.899 130.802 105.899 130.728 105.899 130.653C105.899 130.579 105.899 130.504 105.899 130.429C105.899 130.353 105.899 130.278 105.899 130.202C105.899 130.126 105.899 130.05 105.899 129.974C105.899 129.897 105.899 129.82 105.899 129.743C105.899 129.666 105.899 129.588 105.899 129.511C105.899 129.433 105.899 129.355 105.899 129.276C105.899 129.198 105.899 129.119 105.899 129.04C105.899 128.96 105.899 128.881 105.899 128.801C105.899 128.721 105.899 128.641 105.899 128.56C105.899 128.48 105.899 128.399 105.899 128.318C105.899 128.236 105.899 128.155 105.899 128.073C105.899 127.991 105.899 127.909 105.899 127.826C105.899 127.743 105.899 127.66 105.899 127.577C105.899 127.494 105.899 127.41 105.899 127.326C105.899 127.242 105.899 127.158 105.899 127.073C105.899 126.988 105.899 126.903 105.899 126.818C105.899 126.732 105.899 126.646 105.899 126.56C105.899 126.474 105.899 126.388 105.899 126.301C105.899 126.214 105.899 126.127 105.899 126.039C105.899 125.951 105.899 125.863 105.899 125.775C105.899 125.687 105.899 125.598 105.899 125.509C105.899 125.42 105.899 125.331 105.899 125.241C105.899 125.151 105.899 125.061 105.899 124.97C105.899 124.88 105.899 124.789 105.899 124.698C105.899 124.607 105.899 124.515 105.899 124.423C105.899 124.331 105.899 124.239 105.899 124.146C105.899 124.053 105.899 123.96 105.899 123.867C105.899 123.773 105.899 123.679 105.899 123.585C105.899 123.491 105.899 123.396 105.899 123.301C105.899 123.206 105.899 123.111 105.899 123.015C105.899 122.919 105.899 122.823 105.899 122.727C105.899 122.63 105.899 122.533 105.899 122.436C105.899 122.339 105.899 122.241 105.899 122.143C105.899 122.045 105.899 121.946 105.899 121.848C105.899 121.749 105.899 121.65 105.899 121.55C105.899 121.45 105.899 121.35 105.899 121.25C105.899 121.15 105.899 121.049 105.899 120.948C105.899 120.847 105.899 120.745 105.899 120.643C105.899 120.541 105.899 120.439 105.899 120.336C105.899 120.233 105.899 120.13 105.899 120.027C105.899 119.923 105.899 119.819 105.899 119.715C105.899 119.61 105.899 119.506 105.899 119.401C105.899 119.295 105.899 119.19 105.899 119.084C105.899 118.978 105.899 118.872 105.899 118.765C105.899 118.658 105.899 118.551 105.899 118.443C105.899 118.336 105.899 118.228 105.899 118.12C105.899 118.011 105.899 117.902 105.899 117.793C105.899 117.684 105.899 117.574 105.899 117.464C105.899 117.354 105.899 117.244 105.899 117.133C105.899 117.022 105.899 116.911 105.899 116.799C105.899 116.688 105.899 116.576 105.899 116.463C105.899 116.351 105.899 116.238 105.899 116.124C105.899 116.011 105.899 115.897 105.899 115.783C105.899 115.669 105.899 115.554 105.899 115.439C105.899 115.324 105.899 115.209 105.899 115.093C105.899 114.977 105.899 114.861 105.899 114.744C105.899 114.627 105.899 114.51 105.899 114.392C105.899 114.275 105.899 114.157 105.899 114.038C105.899 113.92 105.899 113.801 105.899 113.682C105.899 113.563 105.899 113.443 105.899 113.323C105.899 113.202 105.899 113.082 105.899 112.961C105.899 112.84 105.899 112.718 105.899 112.596C105.899 112.475 105.899 112.352 105.899 112.229C105.899 112.107 105.899 111.983 105.899 111.86C105.899 111.736 105.899 111.612 105.899 111.487C105.899 111.363 105.899 111.238 105.899 111.112C105.899 110.987 105.899 110.861 105.899 110.735C105.899 110.608 105.899 110.482 105.899 110.354C105.899 110.227 105.899 110.1 105.899 109.972C105.899 109.843 105.899 109.715 105.899 109.586C105.899 109.457 105.899 109.327 105.899 109.197C105.899 109.068 105.899 108.937 105.899 108.806C105.899 108.675 105.899 108.544 105.899 108.412C105.899 108.281 105.899 108.149 105.899 108.016C105.899 107.883 105.899 107.75 105.899 107.617C105.899 107.483 105.899 107.349 105.899 107.214C105.899 107.08 105.899 106.945 105.899 106.81C105.899 106.674 105.899 106.538 105.899 106.402C105.899 106.266 105.899 106.129 105.899 105.992C105.899 105.854 105.899 105.717 105.899 105.578C105.899 105.44 105.899 105.301 105.899 105.162C105.899 105.023 105.899 104.883 105.899 104.743C105.899 104.603 105.899 104.463 105.899 104.322C105.899 104.181 105.899 104.039 105.899 103.897C105.899 103.755 105.899 103.613 105.899 103.47C105.899 103.327 105.899 103.183 105.899 103.039C105.899 102.896 105.899 102.751 105.899 102.606C105.899 102.461 105.899 102.316 105.899 102.17C105.899 102.024 105.899 101.878 105.899 101.731C105.899 101.584 105.899 101.437 105.899 101.289C105.899 101.142 105.899 100.993 105.899 100.845C105.899 100.696 105.899 100.547 105.899 100.397C105.899 100.247 105.899 100.097 105.899 99.9463C105.899 99.7956 105.899 99.6444 105.899 99.4927C105.899 99.3411 105.899 99.1889 105.899 99.0362C105.899 98.8835 105.899 98.7303 105.899 98.5767C105.899 98.423 105.899 98.2688 105.899 98.1142C105.899 97.9595 105.899 97.8043 105.899 97.6487C105.899 97.493 105.899 97.3368 105.899 97.1802C105.899 97.0235 105.899 96.8663 105.899 96.7086C105.899 96.551 105.899 96.3928 105.899 96.2341C105.899 96.0754 105.899 95.9162 105.899 95.7565L109.899 95.7565C109.899 95.9162 109.899 96.0754 109.899 96.2341C109.899 96.3928 109.899 96.551 109.899 96.7086C109.899 96.8663 109.899 97.0235 109.899 97.1802C109.899 97.3368 109.899 97.493 109.899 97.6487C109.899 97.8043 109.899 97.9595 109.899 98.1142C109.899 98.2688 109.899 98.423 109.899 98.5767C109.899 98.7303 109.899 98.8835 109.899 99.0362C109.899 99.1889 109.899 99.3411 109.899 99.4927C109.899 99.6444 109.899 99.7956 109.899 99.9463C109.899 100.097 109.899 100.247 109.899 100.397C109.899 100.547 109.899 100.696 109.899 100.845C109.899 100.993 109.899 101.142 109.899 101.289C109.899 101.437 109.899 101.584 109.899 101.731C109.899 101.878 109.899 102.024 109.899 102.17C109.899 102.316 109.899 102.461 109.899 102.606C109.899 102.751 109.899 102.896 109.899 103.039C109.899 103.183 109.899 103.327 109.899 103.47C109.899 103.613 109.899 103.755 109.899 103.897C109.899 104.039 109.899 104.181 109.899 104.322C109.899 104.463 109.899 104.603 109.899 104.743C109.899 104.883 109.899 105.023 109.899 105.162C109.899 105.301 109.899 105.44 109.899 105.578C109.899 105.717 109.899 105.854 109.899 105.992C109.899 106.129 109.899 106.266 109.899 106.402C109.899 106.538 109.899 106.674 109.899 106.81C109.899 106.945 109.899 107.08 109.899 107.214C109.899 107.349 109.899 107.483 109.899 107.617C109.899 107.75 109.899 107.883 109.899 108.016C109.899 108.149 109.899 108.281 109.899 108.412C109.899 108.544 109.899 108.675 109.899 108.806C109.899 108.937 109.899 109.068 109.899 109.197C109.899 109.327 109.899 109.457 109.899 109.586C109.899 109.715 109.899 109.843 109.899 109.972C109.899 110.1 109.899 110.227 109.899 110.354C109.899 110.482 109.899 110.608 109.899 110.735C109.899 110.861 109.899 110.987 109.899 111.112C109.899 111.238 109.899 111.363 109.899 111.487C109.899 111.612 109.899 111.736 109.899 111.86C109.899 111.983 109.899 112.107 109.899 112.229C109.899 112.352 109.899 112.475 109.899 112.596C109.899 112.718 109.899 112.84 109.899 112.961C109.899 113.082 109.899 113.202 109.899 113.323C109.899 113.443 109.899 113.563 109.899 113.682C109.899 113.801 109.899 113.92 109.899 114.038C109.899 114.157 109.899 114.275 109.899 114.392C109.899 114.51 109.899 114.627 109.899 114.744C109.899 114.861 109.899 114.977 109.899 115.093C109.899 115.209 109.899 115.324 109.899 115.439C109.899 115.554 109.899 115.669 109.899 115.783C109.899 115.897 109.899 116.011 109.899 116.124C109.899 116.238 109.899 116.351 109.899 116.463C109.899 116.576 109.899 116.688 109.899 116.799C109.899 116.911 109.899 117.022 109.899 117.133C109.899 117.244 109.899 117.354 109.899 117.464C109.899 117.574 109.899 117.684 109.899 117.793C109.899 117.902 109.899 118.011 109.899 118.12C109.899 118.228 109.899 118.336 109.899 118.443C109.899 118.551 109.899 118.658 109.899 118.765C109.899 118.872 109.899 118.978 109.899 119.084C109.899 119.19 109.899 119.295 109.899 119.401C109.899 119.506 109.899 119.61 109.899 119.715C109.899 119.819 109.899 119.923 109.899 120.027C109.899 120.13 109.899 120.233 109.899 120.336C109.899 120.439 109.899 120.541 109.899 120.643C109.899 120.745 109.899 120.847 109.899 120.948C109.899 121.049 109.899 121.15 109.899 121.25C109.899 121.35 109.899 121.45 109.899 121.55C109.899 121.65 109.899 121.749 109.899 121.848C109.899 121.946 109.899 122.045 109.899 122.143C109.899 122.241 109.899 122.339 109.899 122.436C109.899 122.533 109.899 122.63 109.899 122.727C109.899 122.823 109.899 122.919 109.899 123.015C109.899 123.111 109.899 123.206 109.899 123.301C109.899 123.396 109.899 123.491 109.899 123.585C109.899 123.679 109.899 123.773 109.899 123.867C109.899 123.96 109.899 124.053 109.899 124.146C109.899 124.239 109.899 124.331 109.899 124.423C109.899 124.515 109.899 124.607 109.899 124.698C109.899 124.789 109.899 124.88 109.899 124.97C109.899 125.061 109.899 125.151 109.899 125.241C109.899 125.331 109.899 125.42 109.899 125.509C109.899 125.598 109.899 125.687 109.899 125.775C109.899 125.863 109.899 125.951 109.899 126.039C109.899 126.127 109.899 126.214 109.899 126.301C109.899 126.388 109.899 126.474 109.899 126.56C109.899 126.646 109.899 126.732 109.899 126.818C109.899 126.903 109.899 126.988 109.899 127.073C109.899 127.158 109.899 127.242 109.899 127.326C109.899 127.41 109.899 127.494 109.899 127.577C109.899 127.66 109.899 127.743 109.899 127.826C109.899 127.909 109.899 127.991 109.899 128.073C109.899 128.155 109.899 128.236 109.899 128.318C109.899 128.399 109.899 128.48 109.899 128.56C109.899 128.641 109.899 128.721 109.899 128.801C109.899 128.881 109.899 128.96 109.899 129.04C109.899 129.119 109.899 129.198 109.899 129.276C109.899 129.355 109.899 129.433 109.899 129.511C109.899 129.588 109.899 129.666 109.899 129.743C109.899 129.82 109.899 129.897 109.899 129.974C109.899 130.05 109.899 130.126 109.899 130.202C109.899 130.278 109.899 130.353 109.899 130.429C109.899 130.504 109.899 130.579 109.899 130.653C109.899 130.728 109.899 130.802 109.899 130.876C109.899 130.95 109.899 131.023 109.899 131.096C109.899 131.17 109.899 131.242 109.899 131.315C109.899 131.388 109.899 131.46 109.899 131.532C109.899 131.604 109.899 131.675 109.899 131.747C109.899 131.818 109.899 131.889 109.899 131.96C109.899 132.03 109.899 132.101 109.899 132.171C109.899 132.241 109.899 132.31 109.899 132.38C109.899 132.449 109.899 132.518 109.899 132.587C109.899 132.656 109.899 132.724 109.899 132.792C109.899 132.86 109.899 132.928 109.899 132.996C109.899 133.063 109.899 133.131 109.899 133.197C109.899 133.264 109.899 133.331 109.899 133.397C109.899 133.464 109.899 133.53 109.899 133.595C109.899 133.661 109.899 133.726 109.899 133.792C109.899 133.857 109.899 133.921 109.899 133.986C109.899 134.05 109.899 134.115 109.899 134.179C109.899 134.242 109.899 134.306 109.899 134.369C109.899 134.433 109.899 134.496 109.899 134.558C109.899 134.621 109.899 134.684 109.899 134.746C109.899 134.808 109.899 134.87 109.899 134.931C109.899 134.993 109.899 135.054 109.899 135.115C109.899 135.176 109.899 135.237 109.899 135.297C109.899 135.357 109.899 135.418 109.899 135.477C109.899 135.537 109.899 135.597 109.899 135.656C109.899 135.715 109.899 135.774 109.899 135.833C109.899 135.892 109.899 135.95 109.899 136.008C109.899 136.066 109.899 136.124 109.899 136.182C109.899 136.239 109.899 136.297 109.899 136.354C109.899 136.411 109.899 136.467 109.899 136.524C109.899 136.58 109.899 136.637 109.899 136.692C109.899 136.748 109.899 136.804 109.899 136.859C109.899 136.915 109.899 136.97 109.899 137.025C109.899 137.08 109.899 137.134 109.899 137.189C109.899 137.243 109.899 137.297 109.899 137.351C109.899 137.404 109.899 137.458 109.899 137.511C109.899 137.564 109.899 137.617 109.899 137.67C109.899 137.723 109.899 137.775 109.899 137.827C109.899 137.88 109.899 137.932 109.899 137.983C109.899 138.035 109.899 138.086 109.899 138.138C109.899 138.189 109.899 138.24 109.899 138.29C109.899 138.341 109.899 138.391 109.899 138.441C109.899 138.492 109.899 138.542 109.899 138.591C109.899 138.641 109.899 138.69 109.899 138.739C109.899 138.788 109.899 138.837 109.899 138.886C109.899 138.935 109.899 138.983 109.899 139.031C109.899 139.079 109.899 139.127 109.899 139.175C109.899 139.223 109.899 139.27 109.899 139.317C109.899 139.364 109.899 139.411 109.899 139.458C109.899 139.505 109.899 139.551 109.899 139.597C109.899 139.644 109.899 139.69 109.899 139.735C109.899 139.781 109.899 139.827 109.899 139.872C109.899 139.917 109.899 139.962 109.899 140.007C109.899 140.052 109.899 140.096 109.899 140.141C109.899 140.185 109.899 140.229 109.899 140.273C109.899 140.317 109.899 140.36 109.899 140.404C109.899 140.447 109.899 140.49 109.899 140.533C109.899 140.576 109.899 140.619 109.899 140.661C109.899 140.704 109.899 140.746 109.899 140.788C109.899 140.83 109.899 140.872 109.899 140.914C109.899 140.955 109.899 140.997 109.899 141.038C109.899 141.079 109.899 141.12 109.899 141.161C109.899 141.202 109.899 141.242 109.899 141.282C109.899 141.323 109.899 141.363 109.899 141.403C109.899 141.443 109.899 141.482 109.899 141.522C109.899 141.561 109.899 141.6 109.899 141.639C109.899 141.678 109.899 141.717 109.899 141.756C109.899 141.794 109.899 141.833 109.899 141.871C109.899 141.909 109.899 141.947 109.899 141.985C109.899 142.023 109.899 142.06 109.899 142.098C109.899 142.135 109.899 142.172 109.899 142.209C109.899 142.246 109.899 142.283 109.899 142.319C109.899 142.356 109.899 142.392 109.899 142.429C109.899 142.465 109.899 142.501 109.899 142.536C109.899 142.572 109.899 142.608 109.899 142.643C109.899 142.679 109.899 142.714 109.899 142.749C109.899 142.784 109.899 142.818 109.899 142.853C109.899 142.888 109.899 142.922 109.899 142.956C109.899 142.991 109.899 143.025 109.899 143.058C109.899 143.092 109.899 143.126 109.899 143.159C109.899 143.193 109.899 143.226 109.899 143.259C109.899 143.292 109.899 143.325 109.899 143.358C109.899 143.391 109.899 143.423 109.899 143.456C109.899 143.488 109.899 143.52 109.899 143.552C109.899 143.584 109.899 143.616 109.899 143.648C109.899 143.68 109.899 143.711 109.899 143.742C109.899 143.774 109.899 143.805 109.899 143.836C109.899 143.867 109.899 143.897 109.899 143.928C109.899 143.959 109.899 143.989 109.899 144.019C109.899 144.05 109.899 144.08 109.899 144.11C109.899 144.14 109.899 144.169 109.899 144.199C109.899 144.229 109.899 144.258 109.899 144.287C109.899 144.317 109.899 144.346 109.899 144.375C109.899 144.404 109.899 144.432 109.899 144.461C109.899 144.49 109.899 144.518 109.899 144.546C109.899 144.575 109.899 144.603 109.899 144.631C109.899 144.659 109.899 144.687 109.899 144.714C109.899 144.742 109.899 144.77 109.899 144.797C109.899 144.824 109.899 144.851 109.899 144.879C109.899 144.906 109.899 144.933 109.899 144.959C109.899 144.986 109.899 145.013 109.899 145.039C109.899 145.066 109.899 145.092 109.899 145.118C109.899 145.144 109.899 145.17 109.899 145.196C109.899 145.222 109.899 145.248 109.899 145.273C109.899 145.299 109.899 145.324 109.899 145.35C109.899 145.375 109.899 145.4 109.899 145.425C109.899 145.45 109.899 145.475 109.899 145.5C109.899 145.524 109.899 145.549 109.899 145.573C109.899 145.598 109.899 145.622 109.899 145.646C109.899 145.671 109.899 145.695 109.899 145.719C109.899 145.743 109.899 145.766 109.899 145.79C109.899 145.814 109.899 145.837 109.899 145.861C109.899 145.884 109.899 145.907 109.899 145.93C109.899 145.954 109.899 145.977 109.899 145.999C109.899 146.022 109.899 146.045 109.899 146.068C109.899 146.09 109.899 146.113 109.899 146.135C109.899 146.158 109.899 146.18 109.899 146.202C109.899 146.224 109.899 146.246 109.899 146.268C109.899 146.29 109.899 146.312 109.899 146.334C109.899 146.355 109.899 146.377 109.899 146.398C109.899 146.42 109.899 146.441 109.899 146.462C109.899 146.484 109.899 146.505 109.899 146.526C109.899 146.547 109.899 146.568 109.899 146.588C109.899 146.609 109.899 146.63 109.899 146.65C109.899 146.671 109.899 146.691 109.899 146.712C109.899 146.732 109.899 146.752 109.899 146.772C109.899 146.792 109.899 146.813 109.899 146.832C109.899 146.852 109.899 146.872 109.899 146.892C109.899 146.912 109.899 146.931 109.899 146.951C109.899 146.97 109.899 146.99 109.899 147.009C109.899 147.028 109.899 147.048 109.899 147.067C109.899 147.086 109.899 147.105 109.899 147.124C109.899 147.143 109.899 147.162 109.899 147.18C109.899 147.199 109.899 147.218 109.899 147.236C109.899 147.255 109.899 147.274 109.899 147.292C109.899 147.31 109.899 147.329 109.899 147.347C109.899 147.365 109.899 147.383 109.899 147.401C109.899 147.419 109.899 147.437 109.899 147.455C109.899 147.473 109.899 147.491 109.899 147.509C109.899 147.526 109.899 147.544 109.899 147.562C109.899 147.579 109.899 147.597 109.899 147.614C109.899 147.631 109.899 147.649 109.899 147.666C109.899 147.683 109.899 147.7 109.899 147.717C109.899 147.735 109.899 147.752 109.899 147.769C109.899 147.785 109.899 147.802 109.899 147.819C109.899 147.836 109.899 147.853 109.899 147.869C109.899 147.886 109.899 147.903 109.899 147.919C109.899 147.936 109.899 147.952 109.899 147.969C109.899 147.985 109.899 148.001 109.899 148.018C109.899 148.034 109.899 148.05 109.899 148.066C109.899 148.082 109.899 148.098 109.899 148.114C109.899 148.13 109.899 148.146 109.899 148.162C109.899 148.178 109.899 148.194 109.899 148.21C109.899 148.226 109.899 148.241 109.899 148.257C109.899 148.273 109.899 148.288 109.899 148.304C109.899 148.32 109.899 148.335 109.899 148.351C109.899 148.366 109.899 148.381 109.899 148.397C109.899 148.412 109.899 148.427 109.899 148.443C109.899 148.458 109.899 148.473 109.899 148.488C109.899 148.504 109.899 148.519 109.899 148.534C109.899 148.549 109.899 148.564 109.899 148.579C109.899 148.594 109.899 148.609 109.899 148.624C109.899 148.639 109.899 148.654 109.899 148.668C109.899 148.683 109.899 148.698 109.899 148.713C109.899 148.728 109.899 148.742 109.899 148.757C109.899 148.772 109.899 148.786 109.899 148.801C109.899 148.816 109.899 148.83 109.899 148.845C109.899 148.859 109.899 148.874 109.899 148.888C109.899 148.903 109.899 148.917 109.899 148.932C109.899 148.946 109.899 148.961 109.899 148.975C109.899 148.989 109.899 149.004 109.899 149.018C109.899 149.032 109.899 149.047 109.899 149.061C109.899 149.075 109.899 149.089 109.899 149.104C109.899 149.118 109.899 149.132 109.899 149.146C109.899 149.161 109.899 149.175 109.899 149.189C109.899 149.203 109.899 149.217 109.899 149.231C109.899 149.245 109.899 149.26 109.899 149.274C109.899 149.288 109.899 149.302 109.899 149.316C109.899 149.33 109.899 149.344 109.899 149.358C109.899 149.372 109.899 149.386 109.899 149.4C109.899 149.414 109.899 149.428 109.899 149.442C109.899 149.456 109.899 149.47 109.899 149.484C109.899 149.498 109.899 149.512 109.899 149.526C109.899 149.54 109.899 149.554 109.899 149.568C109.899 149.582 109.899 149.596 109.899 149.61C109.899 149.624 109.899 149.638 109.899 149.652C109.899 149.666 109.899 149.68 109.899 149.694C109.899 149.708 109.899 149.722 109.899 149.736C109.899 149.75 109.899 149.764 109.899 149.778C109.899 149.792 109.899 149.806 109.899 149.82C109.899 149.834 109.899 149.848 109.899 149.862C109.899 149.876 109.899 149.89 109.899 149.904C109.899 149.919 109.899 149.933 109.899 149.947C109.899 149.961 109.899 149.975 109.899 149.989C109.899 150.003 109.899 150.017 109.899 150.031C109.899 150.046 109.899 150.06 109.899 150.074C109.899 150.088 109.899 150.102 109.899 150.117C109.899 150.131 109.899 150.145 109.899 150.159C109.899 150.174 109.899 150.188 109.899 150.202C109.899 150.217 109.899 150.231 109.899 150.245C109.899 150.26 109.899 150.274 109.899 150.289C109.899 150.303 109.899 150.318 109.899 150.332C109.899 150.347 109.899 150.361 109.899 150.376C109.899 150.39 109.899 150.405 109.899 150.42C109.899 150.434 109.899 150.449 109.899 150.464C109.899 150.478 109.899 150.493 109.899 150.508C109.899 150.522 109.899 150.537 109.899 150.552C109.899 150.567 109.899 150.582 109.899 150.597C109.899 150.612 109.899 150.627 109.899 150.642C109.899 150.657 109.899 150.672 109.899 150.687C109.899 150.702 109.899 150.717 109.899 150.732C109.899 150.747 109.899 150.763 109.899 150.778C109.899 150.793 109.899 150.809 109.899 150.824C109.899 150.839 109.899 150.855 109.899 150.87C109.899 150.886 109.899 150.901 109.899 150.917C109.899 150.932 109.899 150.948 109.899 150.964C109.899 150.979 109.899 150.995 109.899 151.011C109.899 151.027 109.899 151.043 109.899 151.059C109.899 151.074 109.899 151.09 109.899 151.106C109.899 151.123 109.899 151.139 109.899 151.155C109.899 151.171 109.899 151.187 109.899 151.203C109.899 151.22 109.899 151.236 109.899 151.253C109.899 151.269 109.899 151.285 109.899 151.302C109.899 151.318 109.899 151.335 109.899 151.352C109.899 151.368 109.899 151.385 109.899 151.402C109.899 151.419 109.899 151.436 109.899 151.453C109.899 151.47 109.899 151.487 109.899 151.504C109.899 151.521 109.899 151.538 109.899 151.555C109.899 151.573 109.899 151.59 109.899 151.607C109.899 151.625 109.899 151.642 109.899 151.66C109.899 151.678 109.899 151.695 109.899 151.713C109.899 151.731 109.899 151.748 109.899 151.766C109.899 151.784 109.899 151.802 109.899 151.82C109.899 151.838 109.899 151.857 109.899 151.875C109.899 151.893 109.899 151.911 109.899 151.93C109.899 151.948 109.899 151.967 109.899 151.985C109.899 152.004 109.899 152.023 109.899 152.041C109.899 152.06 109.899 152.079 109.899 152.098C109.899 152.117 109.899 152.136 109.899 152.155C109.899 152.174 109.899 152.194 109.899 152.213C109.899 152.232 109.899 152.252 109.899 152.271C109.899 152.291 109.899 152.311 109.899 152.33C109.899 152.35 109.899 152.37 109.899 152.39C109.899 152.41 109.899 152.43 109.899 152.45C109.899 152.47 109.899 152.49 109.899 152.511C109.899 152.531 109.899 152.552 109.899 152.572C109.899 152.593 109.899 152.613 109.899 152.634C109.899 152.655 109.899 152.676 109.899 152.697C109.899 152.718 109.899 152.739 109.899 152.76C109.899 152.782 109.899 152.803 109.899 152.824C109.899 152.846 109.899 152.868 109.899 152.889C109.899 152.911 109.899 152.933 109.899 152.955C109.899 152.977 109.899 152.999 109.899 153.021C109.899 153.043 109.899 153.065 109.899 153.088C109.899 153.11 109.899 153.133 109.899 153.155C109.899 153.178 109.899 153.201 109.899 153.224C109.899 153.247 109.899 153.27 109.899 153.293C109.899 153.316 109.899 153.339 109.899 153.363C109.899 153.386 109.899 153.41 109.899 153.434C109.899 153.457 109.899 153.481 109.899 153.505C109.899 153.529 109.899 153.553 109.899 153.577C109.899 153.601 109.899 153.626 109.899 153.65C109.899 153.675 109.899 153.699 109.899 153.724C109.899 153.749 109.899 153.774 109.899 153.799C109.899 153.824 109.899 153.849 109.899 153.874C109.899 153.9 109.899 153.925 109.899 153.951C109.899 153.977 109.899 154.002 109.899 154.028C109.899 154.054 109.899 154.08 109.899 154.106C109.899 154.133 109.899 154.159 109.899 154.185C109.899 154.212 109.899 154.238 109.899 154.265C109.899 154.292 109.899 154.319 109.899 154.346C109.899 154.373 109.899 154.4 109.899 154.428C109.899 154.455 109.899 154.483 109.899 154.51C109.899 154.538 109.899 154.566 109.899 154.594C109.899 154.622 109.899 154.65 109.899 154.679C109.899 154.707 109.899 154.735 109.899 154.764C109.899 154.793 109.899 154.822 109.899 154.851C109.899 154.88 109.899 154.909 109.899 154.938C109.899 154.967 109.899 154.997 109.899 155.026C109.899 155.056 109.899 155.086 109.899 155.116C109.899 155.146 109.899 155.176 109.899 155.206C109.899 155.237 109.899 155.267 109.899 155.298C109.899 155.328 109.899 155.359 109.899 155.39C109.899 155.421 109.899 155.452 109.899 155.484C109.899 155.515 109.899 155.547 109.899 155.578C109.899 155.61 109.899 155.642 109.899 155.674C109.899 155.706 109.899 155.738 109.899 155.771C109.899 155.803 109.899 155.836 109.899 155.868C109.899 155.901 109.899 155.934 109.899 155.967C109.899 156 109.899 156.034 109.899 156.067C109.899 156.101 109.899 156.135 109.899 156.168C109.899 156.202 109.899 156.236 109.899 156.271C109.899 156.305 109.899 156.339 109.899 156.374C109.899 156.409 109.899 156.444 109.899 156.479C109.899 156.514 109.899 156.549 109.899 156.584C109.899 156.62 109.899 156.655 109.899 156.691C109.899 156.727 109.899 156.763 109.899 156.799C109.899 156.835 109.899 156.872 109.899 156.908C109.899 156.945 109.899 156.982 109.899 157.019C109.899 157.056 109.899 157.093 109.899 157.13C109.899 157.168 109.899 157.205 109.899 157.243C109.899 157.281 109.899 157.319 109.899 157.357C109.899 157.396 109.899 157.434 109.899 157.473C109.899 157.511 109.899 157.55 109.899 157.589C109.899 157.628 109.899 157.668 109.899 157.707C109.899 157.747 109.899 157.786 109.899 157.826C109.899 157.866 109.899 157.906 109.899 157.947C109.899 157.987 109.899 158.027 109.899 158.068C109.899 158.109 109.899 158.15 109.899 158.191C109.899 158.232 109.899 158.274 109.899 158.316C109.899 158.357 109.899 158.399 109.899 158.441C109.899 158.483 109.899 158.526 109.899 158.568C109.899 158.611 109.899 158.654 109.899 158.697C109.899 158.74 109.899 158.783 109.899 158.826C109.899 158.87 109.899 158.913 109.899 158.957C109.899 159.001 109.899 159.045 109.899 159.09C109.899 159.134 109.899 159.179 109.899 159.224C109.899 159.268 109.899 159.314 109.899 159.359C109.899 159.404 109.899 159.45 109.899 159.496C109.899 159.541 109.899 159.587 109.899 159.634C109.899 159.68 109.899 159.726 109.899 159.773C109.899 159.82 109.899 159.867 109.899 159.914C109.899 159.961 109.899 160.009 109.899 160.057C109.899 160.104 109.899 160.152 109.899 160.2C109.899 160.249 109.899 160.297 109.899 160.346C109.899 160.394 109.899 160.443 109.899 160.493C109.899 160.542 109.899 160.591 109.899 160.641C109.899 160.691 109.899 160.741 109.899 160.791C109.899 160.841 109.899 160.891 109.899 160.942C109.899 160.993 109.899 161.044 109.899 161.095C109.899 161.146 109.899 161.198 109.899 161.249C109.899 161.301 109.899 161.353 109.899 161.405C109.899 161.458 109.899 161.51 109.899 161.563C109.899 161.616 109.899 161.669 109.899 161.722C109.899 161.775 109.899 161.829 109.899 161.883C109.899 161.937 109.899 161.991 109.899 162.045C109.899 162.1 109.899 162.154 109.899 162.209C109.899 162.264 109.899 162.319 109.899 162.375C109.899 162.43 109.899 162.486 109.899 162.542C109.899 162.598 109.899 162.654 109.899 162.71C109.899 162.767 109.899 162.824 109.899 162.881C109.899 162.938 109.899 162.995 109.899 163.053C109.899 163.111 109.899 163.169 109.899 163.227C109.899 163.285 109.899 163.343 109.899 163.402C109.899 163.461 109.899 163.52 109.899 163.579C109.899 163.639 109.899 163.698 109.899 163.758C109.899 163.818 109.899 163.878 109.899 163.939C109.899 163.999 109.899 164.06 109.899 164.121C109.899 164.182 109.899 164.243 109.899 164.305C109.899 164.366 109.899 164.428 109.899 164.491C109.899 164.553 109.899 164.615 109.899 164.678C109.899 164.741 109.899 164.804 109.899 164.867C109.899 164.931 109.899 164.994 109.899 165.058C109.899 165.122 109.899 165.187 109.899 165.251C109.899 165.316 109.899 165.381 109.899 165.446C109.899 165.511 109.899 165.576 109.899 165.642C109.899 165.708 109.899 165.774 109.899 165.84C109.899 165.907 109.899 165.973 109.899 166.04C109.899 166.107 109.899 166.175 109.899 166.242C109.899 166.31 109.899 166.378 109.899 166.446C109.899 166.514 109.899 166.583 109.899 166.652C109.899 166.72 109.899 166.79 109.899 166.859C109.899 166.928 109.899 166.998 109.899 167.068C109.899 167.138 109.899 167.209 109.899 167.28C109.899 167.35 109.899 167.421 109.899 167.493C109.899 167.564 109.899 167.636 109.899 167.708C109.899 167.78 109.899 167.852 109.899 167.925C109.899 167.997 109.899 168.07 109.899 168.144C109.899 168.217 109.899 168.29 109.899 168.364C109.899 168.438 109.899 168.513 109.899 168.587C109.899 168.662 109.899 168.737 109.899 168.812C109.899 168.887 109.899 168.963 109.899 169.039C109.899 169.115 109.899 169.191 109.899 169.267C109.899 169.344 109.899 169.421 109.899 169.498C109.899 169.575 109.899 169.653 109.899 169.731C109.899 169.809 109.899 169.887 109.899 169.966C109.899 170.044 109.899 170.123 109.899 170.202C109.899 170.282 109.899 170.361 109.899 170.441C109.899 170.521 109.899 170.601 109.899 170.682C109.899 170.763 109.899 170.844 109.899 170.925C109.899 171.006 109.899 171.088 109.899 171.17C109.899 171.252 109.899 171.334 109.899 171.417C109.899 171.5 109.899 171.583 109.899 171.666C109.899 171.75 109.899 171.833 109.899 171.917C109.899 172.002 109.899 172.086 109.899 172.171C109.899 172.256 109.899 172.341 109.899 172.426C109.899 172.512 109.899 172.598 109.899 172.684C109.899 172.77 109.899 172.857 109.899 172.944C109.899 173.031 109.899 173.118 109.899 173.206C109.899 173.293 109.899 173.381 109.899 173.47C109.899 173.558 109.899 173.647 109.899 173.736C109.899 173.825 109.899 173.915 109.899 174.005C109.899 174.094 109.899 174.185 109.899 174.275C109.899 174.366 109.899 174.457 109.899 174.548C109.899 174.639 109.899 174.731 109.899 174.823C109.899 174.915 109.899 175.008 109.899 175.101C109.899 175.193 109.899 175.287 109.899 175.38C109.899 175.474 109.899 175.568 109.899 175.662C109.899 175.756 109.899 175.851 109.899 175.946C109.899 176.041 109.899 176.137 109.899 176.232C109.899 176.328 109.899 176.424 109.899 176.521C109.899 176.618 109.899 176.715 109.899 176.812C109.899 176.909 109.899 177.007 109.899 177.105C109.899 177.203 109.899 177.302 109.899 177.401C109.899 177.5 109.899 177.599 109.899 177.699C109.899 177.798 109.899 177.898 109.899 177.999C109.899 178.099 109.899 178.2 109.899 178.301C109.899 178.403 109.899 178.504 109.899 178.606C109.899 178.708 109.899 178.811 109.899 178.914C109.899 179.017 109.899 179.12 109.899 179.223H105.899ZM105.899 95.7565C105.899 79.7609 100.113 68.0406 91.5745 60.3306C83.0019 52.5897 71.5191 48.7711 59.9687 48.8792C48.4178 48.9873 36.9189 53.0221 28.3304 60.8308C19.7754 68.6091 14.0006 80.2262 14.0002 95.7565L10.0002 95.7565C10.0006 79.1507 16.2134 66.4415 25.6395 57.8712C35.0321 49.3315 47.5078 44.9957 59.9313 44.8794C72.3554 44.7631 84.847 48.8664 94.2552 57.3618C103.698 65.8881 109.899 78.7185 109.899 95.7565L105.899 95.7565ZM14.0002 95.7565C13.9995 130.498 14.0007 113.706 14.0004 277.004H10.0004C10.0007 113.707 9.99952 130.498 10.0002 95.7565L14.0002 95.7565ZM230 20.8474C230 20.9672 230 21.0871 230 21.2072C230 21.3274 230 21.4476 230 21.568C230 21.6884 230 21.809 230 21.9297C230 22.0504 230 22.1713 230 22.2923C230 22.4134 230 22.5345 230 22.6559C230 22.7772 230 22.8986 230 23.0203C230 23.1419 230 23.2637 230 23.3856C230 23.5075 230 23.6296 230 23.7518C230 23.874 230 23.9963 230 24.1188C230 24.2414 230 24.364 230 24.4868C230 24.6096 230 24.7325 230 24.8556C230 24.9787 230 25.1019 230 25.2253C230 25.3487 230 25.4722 230 25.5958C230 25.7195 230 25.8433 230 25.9672C230 26.0911 230 26.2152 230 26.3394C230 26.4636 230 26.588 230 26.7125C230 26.837 230 26.9616 230 27.0863C230 27.2111 230 27.336 230 27.4611C230 27.5861 230 27.7113 230 27.8366C230 27.9619 230 28.0873 230 28.2129C230 28.3385 230 28.4642 230 28.59C230 28.7159 230 28.8419 230 28.968C230 29.0941 230 29.2203 230 29.3467C230 29.4731 230 29.5996 230 29.7262C230 29.8528 230 29.9796 230 30.1065C230 30.2334 230 30.3604 230 30.4875C230 30.6147 230 30.742 230 30.8694C230 30.9968 230 31.1243 230 31.2519C230 31.3796 230 31.5074 230 31.6353C230 31.7632 230 31.8912 230 32.0194C230 32.1475 230 32.2758 230 32.4042C230 32.5326 230 32.6611 230 32.7897C230 32.9184 230 33.0471 230 33.176C230 33.3049 230 33.4339 230 33.563C230 33.6921 230 33.8214 230 33.9507C230 34.0801 230 34.2095 230 34.3391C230 34.4687 230 34.5984 230 34.7283C230 34.8581 230 34.988 230 35.1181C230 35.2481 230 35.3783 230 35.5086C230 35.6389 230 35.7692 230 35.8998C230 36.0303 230 36.1609 230 36.2916C230 36.4224 230 36.5532 230 36.6842C230 36.8151 230 36.9462 230 37.0773C230 37.2085 230 37.3398 230 37.4712C230 37.6026 230 37.7341 230 37.8657C230 37.9973 230 38.129 230 38.2608C230 38.3927 230 38.5246 230 38.6566C230 38.7887 230 38.9208 230 39.053C230 39.1853 230 39.3176 230 39.4501C230 39.5825 230 39.7151 230 39.8477C230 39.9804 230 40.1131 230 40.246C230 40.3789 230 40.5118 230 40.6449C230 40.7779 230 40.9111 230 41.0443C230 41.1776 230 41.311 230 41.4444C230 41.5779 230 41.7114 230 41.8451C230 41.9787 230 42.1125 230 42.2463C230 42.3801 230 42.5141 230 42.6481C230 42.7821 230 42.9163 230 43.0505C230 43.1847 230 43.319 230 43.4534C230 43.5878 230 43.7223 230 43.8569C230 43.9915 230 44.1262 230 44.2609C230 44.3957 230 44.5306 230 44.6655C230 44.8005 230 44.9355 230 45.0706C230 45.2058 230 45.341 230 45.4763C230 45.6116 230 45.747 230 45.8825C230 46.0179 230 46.1535 230 46.2891C230 46.4248 230 46.5605 230 46.6963C230 46.8321 230 46.968 230 47.104C230 47.24 230 47.3761 230 47.5122C230 47.6484 230 47.7846 230 47.9209C230 48.0572 230 48.1936 230 48.3301C230 48.4665 230 48.6031 230 48.7397C230 48.8763 230 49.0131 230 49.1498C230 49.2866 230 49.4235 230 49.5604C230 49.6974 230 49.8344 230 49.9715C230 50.1086 230 50.2457 230 50.383C230 50.5202 230 50.6575 230 50.7949C230 50.9323 230 51.0698 230 51.2073C230 51.3448 230 51.4824 230 51.6201C230 51.7578 230 51.8955 230 52.0333C230 52.1712 230 52.309 230 52.447C230 52.585 230 52.723 230 52.8611C230 52.9992 230 53.1373 230 53.2756C230 53.4138 230 53.5521 230 53.6904C230 53.8288 230 53.9672 230 54.1057C230 54.2442 230 54.3828 230 54.5214C230 54.66 230 54.7987 230 54.9375C230 55.0762 230 55.215 230 55.3539C230 55.4928 230 55.6317 230 55.7707C230 55.9097 230 56.0487 230 56.1878C230 56.327 230 56.4661 230 56.6054C230 56.7446 230 56.8839 230 57.0232C230 57.1626 230 57.302 230 57.4414C230 57.5809 230 57.7204 230 57.86C230 57.9996 230 58.1392 230 58.2789C230 58.4185 230 58.5583 230 58.6981C230 58.8379 230 58.9777 230 59.1176C230 59.2575 230 59.3974 230 59.5374C230 59.6774 230 59.8175 230 59.9576C230 60.0977 230 60.2378 230 60.378C230 60.5182 230 60.6585 230 60.7988C230 60.9391 230 61.0794 230 61.2198C230 61.3602 230 61.5006 230 61.6411C230 61.7816 230 61.9221 230 62.0627C230 62.2032 230 62.3438 230 62.4845C230 62.6252 230 62.7659 230 62.9066C230 63.0474 230 63.1881 230 63.329C230 63.4698 230 63.6107 230 63.7516C230 63.8925 230 64.0334 230 64.1744C230 64.3154 230 64.4564 230 64.5975C230 64.7386 230 64.8797 230 65.0208C230 65.162 230 65.3032 230 65.4444C230 65.5856 230 65.7268 230 65.8681C230 66.0094 230 66.1507 230 66.2921C230 66.4334 230 66.5748 230 66.7163C230 66.8577 230 66.9991 230 67.1406C230 67.2821 230 67.4236 230 67.5652C230 67.7067 230 67.8483 230 67.9899C230 68.1315 230 68.2732 230 68.4148C230 68.5565 230 68.6982 230 68.8399C230 68.9817 230 69.1234 230 69.2652C230 69.407 230 69.5488 230 69.6906C230 69.8324 230 69.9743 230 70.1162C230 70.2581 230 70.4 230 70.5419C230 70.6838 230 70.8258 230 70.9677C230 71.1097 230 71.2517 230 71.3937C230 71.5358 230 71.6778 230 71.8199C230 71.9619 230 72.104 230 72.2461C230 72.3882 230 72.5303 230 72.6724C230 72.8146 230 72.9567 230 73.0989C230 73.2411 230 73.3833 230 73.5255C230 73.6677 230 73.8099 230 73.9521C230 74.0944 230 74.2366 230 74.3789C230 74.5211 230 74.6634 230 74.8057C230 74.948 230 75.0903 230 75.2326C230 75.3749 230 75.5172 230 75.6596C230 75.8019 230 75.9443 230 76.0866C230 76.229 230 76.3713 230 76.5137C230 76.6561 230 76.7985 230 76.9408C230 77.0832 230 77.2256 230 77.368C230 77.5104 230 77.6529 230 77.7953C230 77.9377 230 78.0801 230 78.2225C230 78.365 230 78.5074 230 78.6498C230 78.7922 230 78.9347 230 79.0771C230 79.2196 230 79.362 230 79.5044C230 79.6469 230 79.7893 230 79.9318C230 80.0742 230 80.2166 230 80.3591C230 80.5015 230 80.644 230 80.7864C230 80.9288 230 81.0713 230 81.2137C230 81.3561 230 81.4986 230 81.641C230 81.7834 230 81.9258 230 82.0682C230 82.2106 230 82.3531 230 82.4955C230 82.6379 230 82.7803 230 82.9226C230 83.065 230 83.2074 230 83.3498C230 83.4922 230 83.6345 230 83.7769C230 83.9192 230 84.0616 230 84.2039C230 84.3462 230 84.4886 230 84.6309C230 84.7732 230 84.9155 230 85.0578C230 85.2001 230 85.3423 230 85.4846C230 85.6269 230 85.7691 230 85.9113C230 86.0536 230 86.1958 230 86.338C230 86.4802 230 86.6224 230 86.7645C230 86.9067 230 87.0488 230 87.191C230 87.3331 230 87.4752 230 87.6173C230 87.7594 230 87.9015 230 88.0435C230 88.1856 230 88.3276 230 88.4696C230 88.6117 230 88.7536 230 88.8956C230 89.0376 230 89.1795 230 89.3215C230 89.4634 230 89.6053 230 89.7472C230 89.889 230 90.0309 230 90.1727C230 90.3145 230 90.4563 230 90.5981C230 90.7399 230 90.8816 230 91.0234C230 91.1651 230 91.3068 230 91.4484C230 91.5901 230 91.7317 230 91.8733C230 92.0149 230 92.1565 230 92.2981C230 92.4396 230 92.5811 230 92.7226C230 92.8641 230 93.0055 230 93.1469C230 93.2884 230 93.4297 230 93.5711C230 93.7124 230 93.8538 230 93.995C230 94.1363 230 94.2775 230 94.4188C230 94.56 230 94.7011 230 94.8423C230 94.9834 230 95.1245 230 95.2656C230 95.4066 230 95.5476 230 95.6886C230 95.8296 230 95.9706 230 96.1115C230 96.2524 230 96.3932 230 96.534C230 96.6749 230 96.8156 230 96.9564C230 97.0971 230 97.2378 230 97.3784C230 97.5191 230 97.6597 230 97.8003C230 97.9408 230 98.0813 230 98.2218C230 98.3623 230 98.5027 230 98.6431C230 98.7835 230 98.9238 230 99.0641C230 99.2044 230 99.3446 230 99.4848C230 99.625 230 99.7651 230 99.9052C230 100.045 230 100.185 230 100.325C230 100.465 230 100.605 230 100.745C230 100.885 230 101.025 230 101.165C230 101.304 230 101.444 230 101.584C230 101.723 230 101.863 230 102.003C230 102.142 230 102.282 230 102.421C230 102.561 230 102.7 230 102.839C230 102.979 230 103.118 230 103.257C230 103.396 230 103.536 230 103.675C230 103.814 230 103.953 230 104.092C230 104.231 230 104.37 230 104.509C230 104.647 230 104.786 230 104.925C230 105.064 230 105.202 230 105.341C230 105.48 230 105.618 230 105.757C230 105.895 230 106.033 230 106.172C230 106.31 230 106.448 230 106.587C230 106.725 230 106.863 230 107.001C230 107.139 230 107.277 230 107.415C230 107.553 230 107.691 230 107.829C230 107.967 230 108.104 230 108.242C230 108.38 230 108.517 230 108.655C230 108.792 230 108.93 230 109.067C230 109.204 230 109.342 230 109.479C230 109.616 230 109.753 230 109.89C230 110.027 230 110.164 230 110.301C230 110.438 230 110.575 230 110.712C230 110.849 230 110.985 230 111.122C230 111.259 230 111.395 230 111.532C230 111.668 230 111.804 230 111.941C230 112.077 230 112.213 230 112.349C230 112.485 230 112.621 230 112.757C230 112.893 230 113.029 230 113.165C230 113.301 230 113.437 230 113.572C230 113.708 230 113.843 230 113.979C230 114.114 230 114.25 230 114.385C230 114.52 230 114.655 230 114.791C230 114.926 230 115.061 230 115.196C230 115.331 230 115.465 230 115.6C230 115.735 230 115.87 230 116.004C230 116.139 230 116.273 230 116.408C230 116.542 230 116.676 230 116.81C230 116.945 230 117.079 230 117.213C230 117.347 230 117.481 230 117.615C230 117.748 230 117.882 230 118.016C230 118.149 230 118.283 230 118.416C230 118.55 230 118.683 230 118.816C230 118.95 230 119.083 230 119.216C230 119.349 230 119.482 230 119.615C230 119.747 230 119.88 230 120.013C230 120.145 230 120.278 230 120.41C230 120.543 230 120.675 230 120.807C230 120.94 230 121.072 230 121.204C230 121.336 230 121.468 230 121.599C230 121.731 230 121.863 230 121.994C230 122.126 230 122.257 230 122.389C230 122.52 230 122.651 230 122.783C230 122.914 230 123.045 230 123.176C230 123.307 230 123.438 230 123.568C230 123.699 230 123.83 230 123.96C230 124.091 230 124.221 230 124.351C230 124.481 230 124.612 230 124.742C230 124.872 230 125.002 230 125.131C230 125.261 230 125.391 230 125.52C230 125.65 230 125.779 230 125.909C230 126.038 230 126.167 230 126.296C230 126.425 230 126.554 230 126.683C230 126.812 230 126.941 230 127.069C230 127.198 230 127.327 230 127.455C230 127.583 230 127.712 230 127.84C230 127.968 230 128.096 230 128.224C230 128.352 230 128.479 230 128.607C230 128.735 230 128.862 230 128.989C230 129.117 230 129.244 230 129.371C230 129.498 230 129.625 230 129.752C230 129.879 230 130.006 230 130.132C230 130.259 230 130.385 230 130.512C230 130.638 230 130.764 230 130.89C230 131.017 230 131.142 230 131.268C230 131.394 230 131.52 230 131.645C230 131.771 230 131.896 230 132.022C230 132.147 230 132.272 230 132.397C230 132.522 230 132.647 230 132.772C230 132.896 230 133.021 230 133.145C230 133.27 230 133.394 230 133.518C230 133.643 230 133.767 230 133.891C230 134.014 230 134.138 230 134.262C230 134.385 230 134.509 230 134.632C230 134.756 230 134.879 230 135.002C230 135.125 230 135.248 230 135.371C230 135.493 230 135.616 230 135.738C230 135.861 230 135.983 230 136.105C230 136.228 230 136.35 230 136.472C230 136.593 230 136.715 230 136.837C230 136.958 230 137.08 230 137.201C230 137.322 230 137.443 230 137.564C230 137.685 230 137.806 230 137.927C230 138.048 230 138.168 230 138.289C230 138.409 230 138.529 230 138.649C230 138.769 230 138.889 230 139.009C230 139.129 230 139.248 230 139.368C230 139.487 230 139.607 230 139.726C230 139.845 230 139.964 230 140.083C230 140.202 230 140.32 230 140.439C230 140.557 230 140.676 230 140.794C230 140.912 230 141.03 230 141.148C230 141.266 230 141.383 230 141.501C230 141.618 230 141.736 230 141.853C230 141.97 230 142.087 230 142.204C230 142.321 230 142.438 230 142.554C230 142.671 230 142.787 230 142.904C230 143.02 230 143.136 230 143.252C230 143.368 230 143.483 230 143.599C230 143.714 230 143.83 230 143.945C230 144.06 230 144.175 230 144.29C230 144.405 230 144.52 230 144.634C230 144.749 230 144.863 230 144.977C230 145.091 230 145.205 230 145.319C230 145.433 230 145.547 230 145.66C230 145.774 230 145.887 230 146C230 146.113 230 146.226 230 146.339C230 146.452 230 146.564 230 146.677C230 146.789 230 146.901 230 147.014C230 147.126 230 147.237 230 147.349C230 147.461 230 147.572 230 147.684C230 147.795 230 147.906 230 148.017C230 148.128 230 148.239 230 148.35C230 148.46 230 148.571 230 148.681C230 148.791 230 148.901 230 149.011C230 149.121 230 149.23 230 149.34C230 149.449 230 149.559 230 149.668C230 149.777 230 149.886 230 149.995C230 150.103 230 150.212 230 150.32C230 150.429 230 150.537 230 150.645C230 150.753 230 150.861 230 150.968C230 151.076 230 151.183 230 151.29C230 151.398 230 151.505 230 151.611C230 151.718 230 151.825 230 151.931C230 152.038 230 152.144 230 152.25C230 152.356 230 152.462 230 152.568C230 152.673 230 152.779 230 152.884C230 152.989 230 153.094 230 153.199C230 153.304 230 153.409 230 153.513C230 153.617 230 153.722 230 153.826C230 153.93 230 154.034 230 154.137C230 154.241 230 154.344 230 154.448C230 154.551 230 154.654 230 154.757C230 154.859 230 154.962 230 155.064C230 155.167 230 155.269 230 155.371C230 155.473 230 155.575 230 155.676C230 155.778 230 155.879 230 155.981C230 156.082 230 156.183 230 156.283C230 156.384 230 156.485 230 156.585C230 156.685 230 156.785 230 156.885C230 156.985 230 157.085 230 157.184C230 157.284 230 157.383 230 157.482C230 157.581 230 157.68 230 157.779C230 157.877 230 157.976 230 158.074C230 158.172 230 158.27 230 158.368C230 158.465 230 158.563 230 158.66C230 158.758 230 158.855 230 158.952C230 159.048 230 159.145 230 159.242C230 159.338 230 159.434 230 159.53C230 159.626 230 159.722 230 159.817C230 159.913 230 160.008 230 160.103C230 160.198 230 160.293 230 160.388C230 160.483 230 160.577 230 160.671C230 160.765 230 160.859 230 160.953C230 161.047 230 161.14 230 161.234C230 161.327 230 161.42 230 161.513C230 161.606 230 161.698 230 161.791C230 161.883 230 161.975 230 162.067C230 162.159 230 162.25 230 162.342C230 162.433 230 162.525 230 162.616C230 162.706 230 162.797 230 162.888C230 162.978 230 163.068 230 163.158C230 163.249 230 163.338 230 163.428C230 163.517 230 163.607 230 163.696C230 163.785 230 163.874 230 163.962C230 164.051 230 164.139 230 164.227C230 164.316 230 164.403 230 164.491C230 164.579 230 164.666 230 164.753C230 164.84 230 164.927 230 165.014C230 165.101 230 165.187 230 165.273C230 165.359 230 165.445 230 165.531C230 165.617 230 165.702 230 165.787C230 165.873 230 165.958 230 166.042C230 166.127 230 166.211 230 166.296C230 166.38 230 166.464 230 166.547C230 166.631 230 166.715 230 166.798C230 166.881 230 166.964 230 167.047C230 167.129 230 167.212 230 167.294C230 167.376 230 167.458 230 167.54C230 167.622 230 167.703 230 167.784C230 167.865 230 167.946 230 168.027C230 168.108 230 168.188 230 168.268C230 168.348 230 168.428 230 168.508C230 168.588 230 168.667 230 168.746C230 168.825 230 168.904 230 168.983C230 169.061 230 169.14 230 169.218C230 169.296 230 169.374 230 169.451C230 169.529 230 169.606 230 169.683C230 169.76 230 169.837 230 169.913C230 169.99 230 170.066 230 170.142C230 170.218 230 170.294 230 170.369C230 170.445 230 170.52 230 170.595C230 170.67 230 170.744 230 170.819C230 170.893 230 170.967 230 171.041C230 171.115 230 171.188 230 171.262C230 171.335 230 171.408 230 171.481C230 171.553 230 171.626 230 171.698C230 171.77 230 171.842 230 171.914C230 171.986 230 172.057 230 172.128C230 172.199 230 172.27 230 172.341C230 172.411 230 172.481 230 172.551C230 172.621 230 172.691 230 172.76C230 172.83 230 172.899 230 172.968C230 173.037 230 173.105 230 173.174C230 173.242 230 173.31 230 173.378C230 173.446 230 173.513 230 173.58C230 173.648 230 173.714 230 173.781C230 173.848 230 173.914 230 173.98C230 174.046 230 174.112 230 174.177C230 174.243 230 174.308 230 174.373C230 174.438 230 174.503 230 174.567C230 174.631 230 174.695 230 174.759C230 174.823 230 174.886 230 174.949C230 175.013 230 175.076 230 175.138C230 175.201 230 175.263 230 175.325C230 175.387 230 175.449 230 175.51C230 175.572 230 175.633 230 175.694C230 175.755 230 175.815 230 175.875C230 175.936 230 175.996 230 176.055C230 176.115 230 176.174 230 176.233C230 176.292 230 176.351 230 176.41C230 176.468 230 176.526 230 176.584C230 176.642 230 176.7 230 176.757C230 176.814 230 176.871 230 176.928C230 176.984 230 177.041 230 177.097C230 177.153 230 177.209 230 177.264C230 177.32 230 177.375 230 177.43C230 177.484 230 177.539 230 177.593C230 177.647 230 177.701 230 177.755C230 177.809 230 177.862 230 177.915C230 177.968 230 178.021 230 178.073C230 178.125 230 178.178 230 178.229C230 178.281 230 178.333 230 178.384C230 178.435 230 178.486 230 178.536C230 178.587 230 178.637 230 178.687C230 178.737 230 178.786 230 178.836C230 178.885 230 178.934 230 178.982C230 179.031 230 179.079 230 179.127C230 179.175 230 179.223 230 179.27C230 179.318 230 179.365 230 179.412C230 179.458 230 179.505 230 179.551C230 179.597 230 179.643 230 179.688C230 179.734 230 179.779 230 179.824C230 179.868 230 179.913 230 179.957C230 180.001 230 180.045 230 180.089C230 180.132 230 180.175 230 180.218C230 180.261 230 180.304 230 180.346C230 180.388 230 180.43 230 180.471C230 180.513 230 180.554 230 180.595C230 180.636 230 180.677 230 180.717C230 180.757 230 180.797 230 180.837C230 180.876 230 180.916 230 180.954C230 180.993 230 181.032 230 181.07C230 181.108 230 181.146 230 181.184C230 181.222 230 181.259 230 181.296C230 181.333 230 181.369 230 181.406C230 181.442 230 181.478 230 181.513C230 181.549 230 181.584 230 181.619C230 181.654 230 181.689 230 181.723C230 181.757 230 181.791 230 181.824C230 181.858 230 181.891 230 181.924C230 181.957 230 181.989 230 182.022C230 182.054 230 182.086 230 182.117C230 182.149 230 182.18 230 182.211C230 182.241 230 182.272 230 182.302C230 182.332 230 182.362 230 182.391C230 182.421 230 182.45 230 182.479C230 182.507 230 182.536 230 182.564C230 182.592 230 182.619 230 182.647C230 182.674 230 182.701 230 182.728C230 182.754 230 182.781 230 182.807C230 182.833 230 182.858 230 182.883C230 182.909 230 182.934 230 182.958C230 182.983 230 183.007 230 183.031C230 183.054 230 183.078 230 183.101C230 183.124 230 183.147 230 183.169C230 183.192 230 183.214 230 183.235C230 183.257 230 183.278 230 183.299C230 183.32 230 183.341 230 183.361C230 183.381 230 183.401 230 183.421C230 183.44 230 183.459 230 183.478C230 183.497 230 183.515 230 183.533C230 183.551 230 183.569 230 183.587C230 183.604 230 183.621 230 183.637C230 183.654 230 183.67 230 183.686C230 183.702 230 183.718 230 183.733C230 183.748 230 183.763 230 183.777C230 183.791 230 183.805 230 183.819C230 183.833 230 183.846 230 183.859C230 183.872 230 183.884 230 183.897C230 183.909 230 183.921 230 183.932C230 183.943 230 183.955 230 183.965C230 183.976 230 183.986 230 183.996C230 184.006 230 184.016 230 184.025C230 184.034 230 184.043 230 184.051C230 184.06 230 184.068 230 184.075C230 184.083 230 184.09 230 184.097C230 184.104 230 184.111 230 184.117C230 184.123 230 184.129 230 184.134C230 184.14 230 184.145 230 184.149C230 184.154 230 184.158 230 184.162C230 184.166 230 184.169 230 184.173C230 184.176 230 184.178 230 184.181C230 184.183 230 184.185 230 184.186C230 184.188 230 184.189 230 184.19C230 184.191 230 184.191 228 184.191C226 184.191 226 184.191 226 184.19C226 184.189 226 184.188 226 184.186C226 184.185 226 184.183 226 184.181C226 184.178 226 184.176 226 184.173C226 184.169 226 184.166 226 184.162C226 184.158 226 184.154 226 184.149C226 184.145 226 184.14 226 184.134C226 184.129 226 184.123 226 184.117C226 184.111 226 184.104 226 184.097C226 184.09 226 184.083 226 184.075C226 184.068 226 184.06 226 184.051C226 184.043 226 184.034 226 184.025C226 184.016 226 184.006 226 183.996C226 183.986 226 183.976 226 183.965C226 183.955 226 183.943 226 183.932C226 183.921 226 183.909 226 183.897C226 183.884 226 183.872 226 183.859C226 183.846 226 183.833 226 183.819C226 183.805 226 183.791 226 183.777C226 183.763 226 183.748 226 183.733C226 183.718 226 183.702 226 183.686C226 183.67 226 183.654 226 183.637C226 183.621 226 183.604 226 183.587C226 183.569 226 183.551 226 183.533C226 183.515 226 183.497 226 183.478C226 183.459 226 183.44 226 183.421C226 183.401 226 183.381 226 183.361C226 183.341 226 183.32 226 183.299C226 183.278 226 183.257 226 183.235C226 183.214 226 183.192 226 183.169C226 183.147 226 183.124 226 183.101C226 183.078 226 183.054 226 183.031C226 183.007 226 182.983 226 182.958C226 182.934 226 182.909 226 182.883C226 182.858 226 182.833 226 182.807C226 182.781 226 182.754 226 182.728C226 182.701 226 182.674 226 182.647C226 182.619 226 182.592 226 182.564C226 182.536 226 182.507 226 182.479C226 182.45 226 182.421 226 182.391C226 182.362 226 182.332 226 182.302C226 182.272 226 182.241 226 182.211C226 182.18 226 182.149 226 182.117C226 182.086 226 182.054 226 182.022C226 181.989 226 181.957 226 181.924C226 181.891 226 181.858 226 181.824C226 181.791 226 181.757 226 181.723C226 181.689 226 181.654 226 181.619C226 181.584 226 181.549 226 181.513C226 181.478 226 181.442 226 181.406C226 181.369 226 181.333 226 181.296C226 181.259 226 181.222 226 181.184C226 181.146 226 181.108 226 181.07C226 181.032 226 180.993 226 180.954C226 180.916 226 180.876 226 180.837C226 180.797 226 180.757 226 180.717C226 180.677 226 180.636 226 180.595C226 180.554 226 180.513 226 180.471C226 180.43 226 180.388 226 180.346C226 180.304 226 180.261 226 180.218C226 180.175 226 180.132 226 180.089C226 180.045 226 180.001 226 179.957C226 179.913 226 179.868 226 179.824C226 179.779 226 179.734 226 179.688C226 179.643 226 179.597 226 179.551C226 179.505 226 179.458 226 179.412C226 179.365 226 179.318 226 179.27C226 179.223 226 179.175 226 179.127C226 179.079 226 179.031 226 178.982C226 178.934 226 178.885 226 178.836C226 178.786 226 178.737 226 178.687C226 178.637 226 178.587 226 178.536C226 178.486 226 178.435 226 178.384C226 178.333 226 178.281 226 178.229C226 178.178 226 178.125 226 178.073C226 178.021 226 177.968 226 177.915C226 177.862 226 177.809 226 177.755C226 177.701 226 177.647 226 177.593C226 177.539 226 177.484 226 177.43C226 177.375 226 177.32 226 177.264C226 177.209 226 177.153 226 177.097C226 177.041 226 176.984 226 176.928C226 176.871 226 176.814 226 176.757C226 176.7 226 176.642 226 176.584C226 176.526 226 176.468 226 176.41C226 176.351 226 176.292 226 176.233C226 176.174 226 176.115 226 176.055C226 175.996 226 175.936 226 175.875C226 175.815 226 175.755 226 175.694C226 175.633 226 175.572 226 175.51C226 175.449 226 175.387 226 175.325C226 175.263 226 175.201 226 175.138C226 175.076 226 175.013 226 174.949C226 174.886 226 174.823 226 174.759C226 174.695 226 174.631 226 174.567C226 174.503 226 174.438 226 174.373C226 174.308 226 174.243 226 174.177C226 174.112 226 174.046 226 173.98C226 173.914 226 173.848 226 173.781C226 173.714 226 173.648 226 173.58C226 173.513 226 173.446 226 173.378C226 173.31 226 173.242 226 173.174C226 173.105 226 173.037 226 172.968C226 172.899 226 172.83 226 172.76C226 172.691 226 172.621 226 172.551C226 172.481 226 172.411 226 172.341C226 172.27 226 172.199 226 172.128C226 172.057 226 171.986 226 171.914C226 171.842 226 171.77 226 171.698C226 171.626 226 171.553 226 171.481C226 171.408 226 171.335 226 171.262C226 171.188 226 171.115 226 171.041C226 170.967 226 170.893 226 170.819C226 170.744 226 170.67 226 170.595C226 170.52 226 170.445 226 170.369C226 170.294 226 170.218 226 170.142C226 170.066 226 169.99 226 169.913C226 169.837 226 169.76 226 169.683C226 169.606 226 169.529 226 169.451C226 169.374 226 169.296 226 169.218C226 169.14 226 169.061 226 168.983C226 168.904 226 168.825 226 168.746C226 168.667 226 168.588 226 168.508C226 168.428 226 168.348 226 168.268C226 168.188 226 168.108 226 168.027C226 167.946 226 167.865 226 167.784C226 167.703 226 167.622 226 167.54C226 167.458 226 167.376 226 167.294C226 167.212 226 167.129 226 167.047C226 166.964 226 166.881 226 166.798C226 166.715 226 166.631 226 166.547C226 166.464 226 166.38 226 166.296C226 166.211 226 166.127 226 166.042C226 165.958 226 165.873 226 165.787C226 165.702 226 165.617 226 165.531C226 165.445 226 165.359 226 165.273C226 165.187 226 165.101 226 165.014C226 164.927 226 164.84 226 164.753C226 164.666 226 164.579 226 164.491C226 164.403 226 164.316 226 164.227C226 164.139 226 164.051 226 163.962C226 163.874 226 163.785 226 163.696C226 163.607 226 163.517 226 163.428C226 163.338 226 163.249 226 163.158C226 163.068 226 162.978 226 162.888C226 162.797 226 162.706 226 162.616C226 162.525 226 162.433 226 162.342C226 162.25 226 162.159 226 162.067C226 161.975 226 161.883 226 161.791C226 161.698 226 161.606 226 161.513C226 161.42 226 161.327 226 161.234C226 161.14 226 161.047 226 160.953C226 160.859 226 160.765 226 160.671C226 160.577 226 160.483 226 160.388C226 160.293 226 160.198 226 160.103C226 160.008 226 159.913 226 159.817C226 159.722 226 159.626 226 159.53C226 159.434 226 159.338 226 159.242C226 159.145 226 159.048 226 158.952C226 158.855 226 158.758 226 158.66C226 158.563 226 158.465 226 158.368C226 158.27 226 158.172 226 158.074C226 157.976 226 157.877 226 157.779C226 157.68 226 157.581 226 157.482C226 157.383 226 157.284 226 157.184C226 157.085 226 156.985 226 156.885C226 156.785 226 156.685 226 156.585C226 156.485 226 156.384 226 156.283C226 156.183 226 156.082 226 155.981C226 155.879 226 155.778 226 155.676C226 155.575 226 155.473 226 155.371C226 155.269 226 155.167 226 155.064C226 154.962 226 154.859 226 154.757C226 154.654 226 154.551 226 154.448C226 154.344 226 154.241 226 154.137C226 154.034 226 153.93 226 153.826C226 153.722 226 153.617 226 153.513C226 153.409 226 153.304 226 153.199C226 153.094 226 152.989 226 152.884C226 152.779 226 152.673 226 152.568C226 152.462 226 152.356 226 152.25C226 152.144 226 152.038 226 151.931C226 151.825 226 151.718 226 151.611C226 151.505 226 151.398 226 151.29C226 151.183 226 151.076 226 150.968C226 150.861 226 150.753 226 150.645C226 150.537 226 150.429 226 150.32C226 150.212 226 150.103 226 149.995C226 149.886 226 149.777 226 149.668C226 149.559 226 149.449 226 149.34C226 149.23 226 149.121 226 149.011C226 148.901 226 148.791 226 148.681C226 148.571 226 148.46 226 148.35C226 148.239 226 148.128 226 148.017C226 147.906 226 147.795 226 147.684C226 147.572 226 147.461 226 147.349C226 147.237 226 147.126 226 147.014C226 146.901 226 146.789 226 146.677C226 146.564 226 146.452 226 146.339C226 146.226 226 146.113 226 146C226 145.887 226 145.774 226 145.66C226 145.547 226 145.433 226 145.319C226 145.205 226 145.091 226 144.977C226 144.863 226 144.749 226 144.634C226 144.52 226 144.405 226 144.29C226 144.175 226 144.06 226 143.945C226 143.83 226 143.714 226 143.599C226 143.483 226 143.368 226 143.252C226 143.136 226 143.02 226 142.904C226 142.787 226 142.671 226 142.554C226 142.438 226 142.321 226 142.204C226 142.087 226 141.97 226 141.853C226 141.736 226 141.618 226 141.501C226 141.383 226 141.266 226 141.148C226 141.03 226 140.912 226 140.794C226 140.676 226 140.557 226 140.439C226 140.32 226 140.202 226 140.083C226 139.964 226 139.845 226 139.726C226 139.607 226 139.487 226 139.368C226 139.248 226 139.129 226 139.009C226 138.889 226 138.769 226 138.649C226 138.529 226 138.409 226 138.289C226 138.168 226 138.048 226 137.927C226 137.806 226 137.685 226 137.564C226 137.443 226 137.322 226 137.201C226 137.08 226 136.958 226 136.837C226 136.715 226 136.593 226 136.472C226 136.35 226 136.228 226 136.105C226 135.983 226 135.861 226 135.738C226 135.616 226 135.493 226 135.371C226 135.248 226 135.125 226 135.002C226 134.879 226 134.756 226 134.632C226 134.509 226 134.385 226 134.262C226 134.138 226 134.014 226 133.891C226 133.767 226 133.643 226 133.518C226 133.394 226 133.27 226 133.145C226 133.021 226 132.896 226 132.772C226 132.647 226 132.522 226 132.397C226 132.272 226 132.147 226 132.022C226 131.896 226 131.771 226 131.645C226 131.52 226 131.394 226 131.268C226 131.142 226 131.017 226 130.89C226 130.764 226 130.638 226 130.512C226 130.385 226 130.259 226 130.132C226 130.006 226 129.879 226 129.752C226 129.625 226 129.498 226 129.371C226 129.244 226 129.117 226 128.989C226 128.862 226 128.735 226 128.607C226 128.479 226 128.352 226 128.224C226 128.096 226 127.968 226 127.84C226 127.712 226 127.583 226 127.455C226 127.327 226 127.198 226 127.069C226 126.941 226 126.812 226 126.683C226 126.554 226 126.425 226 126.296C226 126.167 226 126.038 226 125.909C226 125.779 226 125.65 226 125.52C226 125.391 226 125.261 226 125.131C226 125.002 226 124.872 226 124.742C226 124.612 226 124.481 226 124.351C226 124.221 226 124.091 226 123.96C226 123.83 226 123.699 226 123.568C226 123.438 226 123.307 226 123.176C226 123.045 226 122.914 226 122.783C226 122.651 226 122.52 226 122.389C226 122.257 226 122.126 226 121.994C226 121.863 226 121.731 226 121.599C226 121.468 226 121.336 226 121.204C226 121.072 226 120.94 226 120.807C226 120.675 226 120.543 226 120.41C226 120.278 226 120.145 226 120.013C226 119.88 226 119.747 226 119.615C226 119.482 226 119.349 226 119.216C226 119.083 226 118.95 226 118.816C226 118.683 226 118.55 226 118.416C226 118.283 226 118.149 226 118.016C226 117.882 226 117.748 226 117.615C226 117.481 226 117.347 226 117.213C226 117.079 226 116.945 226 116.81C226 116.676 226 116.542 226 116.408C226 116.273 226 116.139 226 116.004C226 115.87 226 115.735 226 115.6C226 115.465 226 115.331 226 115.196C226 115.061 226 114.926 226 114.791C226 114.655 226 114.52 226 114.385C226 114.25 226 114.114 226 113.979C226 113.843 226 113.708 226 113.572C226 113.437 226 113.301 226 113.165C226 113.029 226 112.893 226 112.757C226 112.621 226 112.485 226 112.349C226 112.213 226 112.077 226 111.941C226 111.804 226 111.668 226 111.532C226 111.395 226 111.259 226 111.122C226 110.985 226 110.849 226 110.712C226 110.575 226 110.438 226 110.301C226 110.164 226 110.027 226 109.89C226 109.753 226 109.616 226 109.479C226 109.342 226 109.204 226 109.067C226 108.93 226 108.792 226 108.655C226 108.517 226 108.38 226 108.242C226 108.104 226 107.967 226 107.829C226 107.691 226 107.553 226 107.415C226 107.277 226 107.139 226 107.001C226 106.863 226 106.725 226 106.587C226 106.448 226 106.31 226 106.172C226 106.033 226 105.895 226 105.757C226 105.618 226 105.48 226 105.341C226 105.202 226 105.064 226 104.925C226 104.786 226 104.647 226 104.509C226 104.37 226 104.231 226 104.092C226 103.953 226 103.814 226 103.675C226 103.536 226 103.396 226 103.257C226 103.118 226 102.979 226 102.839C226 102.7 226 102.561 226 102.421C226 102.282 226 102.142 226 102.003C226 101.863 226 101.723 226 101.584C226 101.444 226 101.304 226 101.165C226 101.025 226 100.885 226 100.745C226 100.605 226 100.465 226 100.325C226 100.185 226 100.045 226 99.9052C226 99.7651 226 99.625 226 99.4848C226 99.3446 226 99.2044 226 99.0641C226 98.9238 226 98.7835 226 98.6431C226 98.5027 226 98.3623 226 98.2218C226 98.0813 226 97.9408 226 97.8003C226 97.6597 226 97.5191 226 97.3784C226 97.2378 226 97.0971 226 96.9564C226 96.8156 226 96.6749 226 96.534C226 96.3932 226 96.2524 226 96.1115C226 95.9706 226 95.8296 226 95.6886C226 95.5476 226 95.4066 226 95.2656C226 95.1245 226 94.9834 226 94.8423C226 94.7011 226 94.56 226 94.4188C226 94.2775 226 94.1363 226 93.995C226 93.8538 226 93.7124 226 93.5711C226 93.4297 226 93.2884 226 93.1469C226 93.0055 226 92.8641 226 92.7226C226 92.5811 226 92.4396 226 92.2981C226 92.1565 226 92.0149 226 91.8733C226 91.7317 226 91.5901 226 91.4484C226 91.3068 226 91.1651 226 91.0234C226 90.8816 226 90.7399 226 90.5981C226 90.4563 226 90.3145 226 90.1727C226 90.0309 226 89.889 226 89.7472C226 89.6053 226 89.4634 226 89.3215C226 89.1795 226 89.0376 226 88.8956C226 88.7536 226 88.6117 226 88.4696C226 88.3276 226 88.1856 226 88.0435C226 87.9015 226 87.7594 226 87.6173C226 87.4752 226 87.3331 226 87.191C226 87.0488 226 86.9067 226 86.7645C226 86.6224 226 86.4802 226 86.338C226 86.1958 226 86.0536 226 85.9113C226 85.7691 226 85.6269 226 85.4846C226 85.3423 226 85.2001 226 85.0578C226 84.9155 226 84.7732 226 84.6309C226 84.4886 226 84.3462 226 84.2039C226 84.0616 226 83.9192 226 83.7769C226 83.6345 226 83.4922 226 83.3498C226 83.2074 226 83.065 226 82.9226C226 82.7803 226 82.6379 226 82.4955C226 82.3531 226 82.2106 226 82.0682C226 81.9258 226 81.7834 226 81.641C226 81.4986 226 81.3561 226 81.2137C226 81.0713 226 80.9288 226 80.7864C226 80.644 226 80.5015 226 80.3591C226 80.2166 226 80.0742 226 79.9318C226 79.7893 226 79.6469 226 79.5044C226 79.362 226 79.2196 226 79.0771C226 78.9347 226 78.7922 226 78.6498C226 78.5074 226 78.365 226 78.2225C226 78.0801 226 77.9377 226 77.7953C226 77.6529 226 77.5104 226 77.368C226 77.2256 226 77.0832 226 76.9408C226 76.7985 226 76.6561 226 76.5137C226 76.3713 226 76.229 226 76.0866C226 75.9443 226 75.8019 226 75.6596C226 75.5172 226 75.3749 226 75.2326C226 75.0903 226 74.948 226 74.8057C226 74.6634 226 74.5211 226 74.3789C226 74.2366 226 74.0944 226 73.9521C226 73.8099 226 73.6677 226 73.5255C226 73.3833 226 73.2411 226 73.0989C226 72.9567 226 72.8146 226 72.6724C226 72.5303 226 72.3882 226 72.2461C226 72.104 226 71.9619 226 71.8199C226 71.6778 226 71.5358 226 71.3937C226 71.2517 226 71.1097 226 70.9677C226 70.8258 226 70.6838 226 70.5419C226 70.4 226 70.2581 226 70.1162C226 69.9743 226 69.8324 226 69.6906C226 69.5488 226 69.407 226 69.2652C226 69.1234 226 68.9817 226 68.8399C226 68.6982 226 68.5565 226 68.4148C226 68.2732 226 68.1315 226 67.9899C226 67.8483 226 67.7067 226 67.5652C226 67.4236 226 67.2821 226 67.1406C226 66.9991 226 66.8577 226 66.7163C226 66.5748 226 66.4334 226 66.2921C226 66.1507 226 66.0094 226 65.8681C226 65.7268 226 65.5856 226 65.4444C226 65.3032 226 65.162 226 65.0208C226 64.8797 226 64.7386 226 64.5975C226 64.4564 226 64.3154 226 64.1744C226 64.0334 226 63.8925 226 63.7516C226 63.6107 226 63.4698 226 63.329C226 63.1881 226 63.0474 226 62.9066C226 62.7659 226 62.6252 226 62.4845C226 62.3438 226 62.2032 226 62.0627C226 61.9221 226 61.7816 226 61.6411C226 61.5006 226 61.3602 226 61.2198C226 61.0794 226 60.9391 226 60.7988C226 60.6585 226 60.5182 226 60.378C226 60.2378 226 60.0977 226 59.9576C226 59.8175 226 59.6774 226 59.5374C226 59.3974 226 59.2575 226 59.1176C226 58.9777 226 58.8379 226 58.6981C226 58.5583 226 58.4185 226 58.2789C226 58.1392 226 57.9996 226 57.86C226 57.7204 226 57.5809 226 57.4414C226 57.302 226 57.1626 226 57.0232C226 56.8839 226 56.7446 226 56.6054C226 56.4661 226 56.327 226 56.1878C226 56.0487 226 55.9097 226 55.7707C226 55.6317 226 55.4928 226 55.3539C226 55.215 226 55.0762 226 54.9375C226 54.7987 226 54.66 226 54.5214C226 54.3828 226 54.2442 226 54.1057C226 53.9672 226 53.8288 226 53.6904C226 53.5521 226 53.4138 226 53.2756C226 53.1373 226 52.9992 226 52.8611C226 52.723 226 52.585 226 52.447C226 52.309 226 52.1712 226 52.0333C226 51.8955 226 51.7578 226 51.6201C226 51.4824 226 51.3448 226 51.2073C226 51.0698 226 50.9323 226 50.7949C226 50.6575 226 50.5202 226 50.383C226 50.2457 226 50.1086 226 49.9715C226 49.8344 226 49.6974 226 49.5604C226 49.4235 226 49.2866 226 49.1498C226 49.0131 226 48.8763 226 48.7397C226 48.6031 226 48.4665 226 48.3301C226 48.1936 226 48.0572 226 47.9209C226 47.7846 226 47.6484 226 47.5122C226 47.3761 226 47.24 226 47.104C226 46.968 226 46.8321 226 46.6963C226 46.5605 226 46.4248 226 46.2891C226 46.1535 226 46.0179 226 45.8825C226 45.747 226 45.6116 226 45.4763C226 45.341 226 45.2058 226 45.0706C226 44.9355 226 44.8005 226 44.6655C226 44.5306 226 44.3957 226 44.2609C226 44.1262 226 43.9915 226 43.8569C226 43.7223 226 43.5878 226 43.4534C226 43.319 226 43.1847 226 43.0505C226 42.9163 226 42.7821 226 42.6481C226 42.5141 226 42.3801 226 42.2463C226 42.1125 226 41.9787 226 41.8451C226 41.7114 226 41.5779 226 41.4444C226 41.311 226 41.1776 226 41.0443C226 40.9111 226 40.7779 226 40.6449C226 40.5118 226 40.3789 226 40.246C226 40.1131 226 39.9804 226 39.8477C226 39.7151 226 39.5825 226 39.4501C226 39.3176 226 39.1853 226 39.053C226 38.9208 226 38.7887 226 38.6566C226 38.5246 226 38.3927 226 38.2608C226 38.129 226 37.9973 226 37.8657C226 37.7341 226 37.6026 226 37.4712C226 37.3398 226 37.2085 226 37.0773C226 36.9462 226 36.8151 226 36.6842C226 36.5532 226 36.4224 226 36.2916C226 36.1609 226 36.0303 226 35.8998C226 35.7692 226 35.6389 226 35.5086C226 35.3783 226 35.2481 226 35.1181C226 34.988 226 34.8581 226 34.7283C226 34.5984 226 34.4687 226 34.3391C226 34.2095 226 34.0801 226 33.9507C226 33.8214 226 33.6921 226 33.563C226 33.4339 226 33.3049 226 33.176C226 33.0471 226 32.9184 226 32.7897C226 32.6611 226 32.5326 226 32.4042C226 32.2758 226 32.1475 226 32.0194C226 31.8912 226 31.7632 226 31.6353C226 31.5074 226 31.3796 226 31.2519C226 31.1243 226 30.9968 226 30.8694C226 30.742 226 30.6147 226 30.4875C226 30.3604 226 30.2334 226 30.1065C226 29.9796 226 29.8528 226 29.7262C226 29.5996 226 29.4731 226 29.3467C226 29.2203 226 29.0941 226 28.968C226 28.8419 226 28.7159 226 28.59C226 28.4642 226 28.3385 226 28.2129C226 28.0873 226 27.9619 226 27.8366C226 27.7113 226 27.5861 226 27.4611C226 27.336 226 27.2111 226 27.0863C226 26.9616 226 26.837 226 26.7125C226 26.588 226 26.4636 226 26.3394C226 26.2152 226 26.0911 226 25.9672C226 25.8433 226 25.7195 226 25.5958C226 25.4722 226 25.3487 226 25.2253C226 25.1019 226 24.9787 226 24.8556C226 24.7325 226 24.6096 226 24.4868C226 24.364 226 24.2414 226 24.1188C226 23.9963 226 23.874 226 23.7518C226 23.6296 226 23.5075 226 23.3856C226 23.2637 226 23.1419 226 23.0203C226 22.8986 226 22.7772 226 22.6559C226 22.5345 226 22.4134 226 22.2923C226 22.1713 226 22.0504 226 21.9297C226 21.809 226 21.6884 226 21.568C226 21.4476 226 21.3274 226 21.2072C226 21.0871 226 20.9672 226 20.8474L230 20.8474ZM230 184.191C230 200.923 222.108 213.161 210.339 220.965C198.645 228.719 183.186 232.072 167.859 231.381C152.527 230.689 137.106 225.942 125.466 217.231C113.779 208.486 105.899 195.724 105.899 179.223H109.899C109.899 194.282 117.031 205.923 127.863 214.029C138.742 222.17 153.347 226.722 168.04 227.385C182.738 228.048 197.304 224.809 208.129 217.631C218.879 210.502 226 199.467 226 184.191H230ZM73.3935 4L12.0002 4V0L73.3935 0V4ZM226 20.8474C226 16.1925 225.555 13.0414 224.486 10.8174C223.485 8.73419 221.845 7.28044 218.898 6.24229C215.847 5.16746 211.518 4.58539 205.335 4.29225C199.182 4.00052 191.394 4 181.5 4V0C191.356 0 199.255 -0.000519037 205.524 0.296735C211.764 0.592572 216.591 1.18846 220.227 2.46956C223.968 3.78734 226.546 5.86747 228.092 9.0851C229.57 12.162 230 16.0786 230 20.8474L226 20.8474ZM181.5 4L73.3935 4V0L181.5 0V4Z" fill="#BCBBF9"/>
</svg>
