<svg width="128" height="165" viewBox="0 0 128 165" fill="none" xmlns="http://www.w3.org/2000/svg">
<path d="M6.00021 164.233L0.226725 154.233L11.7737 154.233L6.00021 164.233ZM6.00013 53.2334L5.00013 53.2334L6.00013 53.2334ZM102 1.00098V0.000976563V1.00098ZM58.4991 99.7334C58.4991 99.6757 58.4991 99.6182 58.4991 99.5609C58.4991 99.5036 58.4991 99.4465 58.4991 99.3897C58.4991 99.3328 58.4991 99.2762 58.4991 99.2198C58.4991 99.1634 58.4991 99.1072 58.4991 99.0512C58.4991 98.9953 58.4991 98.9395 58.4991 98.884C58.4991 98.8284 58.4991 98.7731 58.4991 98.718C58.4991 98.6629 58.4991 98.608 58.4991 98.5534C58.4991 98.4987 58.4991 98.4442 58.4991 98.39C58.4991 98.3358 58.4991 98.2817 58.4991 98.2279C58.4991 98.1741 58.4991 98.1205 58.4991 98.0671C58.4991 98.0137 58.4991 97.9605 58.4991 97.9076C58.4991 97.8546 58.4991 97.8019 58.4991 97.7493C58.4991 97.6968 58.4991 97.6444 58.4991 97.5923C58.4991 97.5402 58.4991 97.4883 58.4991 97.4365C58.4991 97.3848 58.4991 97.3333 58.4991 97.282C58.4991 97.2308 58.4991 97.1797 58.4991 97.1288C58.4991 97.0779 58.4991 97.0272 58.4991 96.9768C58.4991 96.9263 58.4991 96.876 58.4991 96.826C58.4991 96.7759 58.4991 96.726 58.4991 96.6764C58.4991 96.6267 58.4991 96.5773 58.4991 96.528C58.4991 96.4788 58.4991 96.4297 58.4991 96.3809C58.4991 96.3321 58.4991 96.2834 58.4991 96.235C58.4991 96.1865 58.4991 96.1383 58.4991 96.0902C58.4991 96.0422 58.4991 95.9944 58.4991 95.9467C58.4991 95.8991 58.4991 95.8516 58.4991 95.8044C58.4991 95.7571 58.4991 95.7101 58.4991 95.6632C58.4991 95.6163 58.4991 95.5697 58.4991 95.5232C58.4991 95.4768 58.4991 95.4305 58.4991 95.3844C58.4991 95.3383 58.4991 95.2925 58.4991 95.2468C58.4991 95.2011 58.4991 95.1556 58.4991 95.1103C58.4991 95.065 58.4991 95.0199 58.4991 94.9749C58.4991 94.93 58.4991 94.8853 58.4991 94.8408C58.4991 94.7962 58.4991 94.7519 58.4991 94.7077C58.4991 94.6636 58.4991 94.6196 58.4991 94.5758C58.4991 94.532 58.4991 94.4884 58.4991 94.445C58.4991 94.4016 58.4991 94.3584 58.4991 94.3154C58.4991 94.2724 58.4991 94.2295 58.4991 94.1869C58.4991 94.1442 58.4991 94.1017 58.4991 94.0594C58.4991 94.0171 58.4991 93.975 58.4991 93.9331C58.4991 93.8912 58.4991 93.8495 58.4991 93.8079C58.4991 93.7663 58.4991 93.725 58.4991 93.6838C58.4991 93.6426 58.4991 93.6016 58.4991 93.5608C58.4991 93.5199 58.4991 93.4793 58.4991 93.4388C58.4991 93.3983 58.4991 93.358 58.4991 93.3179C58.4991 93.2778 58.4991 93.2379 58.4991 93.1981C58.4991 93.1584 58.4991 93.1188 58.4991 93.0794C58.4991 93.04 58.4991 93.0008 58.4991 92.9617C58.4991 92.9227 58.4991 92.8838 58.4991 92.8451C58.4991 92.8064 58.4991 92.7679 58.4991 92.7295C58.4991 92.6912 58.4991 92.653 58.4991 92.615C58.4991 92.577 58.4991 92.5392 58.4991 92.5015C58.4991 92.4638 58.4991 92.4264 58.4991 92.389C58.4991 92.3517 58.4991 92.3146 58.4991 92.2776C58.4991 92.2406 58.4991 92.2038 58.4991 92.1672C58.4991 92.1305 58.4991 92.0941 58.4991 92.0578C58.4991 92.0214 58.4991 91.9853 58.4991 91.9493C58.4991 91.9134 58.4991 91.8776 58.4991 91.8419C58.4991 91.8063 58.4991 91.7708 58.4991 91.7355C58.4991 91.7002 58.4991 91.6651 58.4991 91.6301C58.4991 91.5951 58.4991 91.5603 58.4991 91.5257C58.4991 91.491 58.4991 91.4565 58.4991 91.4222C58.4991 91.3879 58.4991 91.3537 58.4991 91.3197C58.4991 91.2857 58.4991 91.2518 58.4991 91.2182C58.4991 91.1845 58.4991 91.1509 58.4991 91.1176C58.4991 91.0842 58.4991 91.051 58.4991 91.018C58.4991 90.9849 58.4991 90.952 58.4991 90.9193C58.4991 90.8866 58.4991 90.854 58.4991 90.8216C58.4991 90.7891 58.4991 90.7569 58.4991 90.7248C58.4991 90.6926 58.4991 90.6607 58.4991 90.6289C58.4991 90.5971 58.4991 90.5654 58.4991 90.5339C58.4991 90.5024 58.4991 90.4711 58.4991 90.4399C58.4991 90.4087 58.4991 90.3777 58.4991 90.3468C58.4991 90.3159 58.4991 90.2852 58.4991 90.2546C58.4991 90.224 58.4991 90.1936 58.4991 90.1633C58.4991 90.133 58.4991 90.1029 58.4991 90.0729C58.4991 90.0429 58.4991 90.013 58.4991 89.9833C58.4991 89.9536 58.4991 89.9241 58.4991 89.8947C58.4991 89.8653 58.4991 89.836 58.4991 89.8069C58.4991 89.7778 58.4991 89.7488 58.4991 89.72C58.4991 89.6912 58.4991 89.6625 58.4991 89.634C58.4991 89.6054 58.4991 89.577 58.4991 89.5488C58.4991 89.5205 58.4991 89.4924 58.4991 89.4645C58.4991 89.4365 58.4991 89.4087 58.4991 89.381C58.4991 89.3533 58.4991 89.3257 58.4991 89.2983C58.4991 89.2709 58.4991 89.2437 58.4991 89.2165C58.4991 89.1894 58.4991 89.1624 58.4991 89.1355C58.4991 89.1087 58.4991 89.082 58.4991 89.0554C58.4991 89.0288 58.4991 89.0024 58.4991 88.9761C58.4991 88.9497 58.4991 88.9236 58.4991 88.8975C58.4991 88.8715 58.4991 88.8456 58.4991 88.8198C58.4991 88.794 58.4991 88.7684 58.4991 88.7429C58.4991 88.7174 58.4991 88.692 58.4991 88.6667C58.4991 88.6415 58.4991 88.6164 58.4991 88.5914C58.4991 88.5664 58.4991 88.5416 58.4991 88.5168C58.4991 88.4921 58.4991 88.4675 58.4991 88.443C58.4991 88.4186 58.4991 88.3942 58.4991 88.37C58.4991 88.3458 58.4991 88.3217 58.4991 88.2978C58.4991 88.2738 58.4991 88.25 58.4991 88.2263C58.4991 88.2026 58.4991 88.179 58.4991 88.1555C58.4991 88.1321 58.4991 88.1087 58.4991 88.0855C58.4991 88.0623 58.4991 88.0392 58.4991 88.0163C58.4991 87.9933 58.4991 87.9705 58.4991 87.9477C58.4991 87.925 58.4991 87.9024 58.4991 87.8799C58.4991 87.8575 58.4991 87.8351 58.4991 87.8129C58.4991 87.7906 58.4991 87.7685 58.4991 87.7465C58.4991 87.7245 58.4991 87.7026 58.4991 87.6808C58.4991 87.6591 58.4991 87.6374 58.4991 87.6159C58.4991 87.5944 58.4991 87.5729 58.4991 87.5516C58.4991 87.5303 58.4991 87.5092 58.4991 87.4881C58.4991 87.467 58.4991 87.4461 58.4991 87.4252C58.4991 87.4044 58.4991 87.3837 58.4991 87.363C58.4991 87.3424 58.4991 87.3219 58.4991 87.3015C58.4991 87.2811 58.4991 87.2608 58.4991 87.2407C58.4991 87.2205 58.4991 87.2004 58.4991 87.1805C58.4991 87.1605 58.4991 87.1407 58.4991 87.121C58.4991 87.1012 58.4991 87.0816 58.4991 87.0621C58.4991 87.0426 58.4991 87.0232 58.4991 87.0039C58.4991 86.9846 58.4991 86.9654 58.4991 86.9463C58.4991 86.9272 58.4991 86.9082 58.4991 86.8893C58.4991 86.8704 58.4991 86.8517 58.4991 86.833C58.4991 86.8143 58.4991 86.7957 58.4991 86.7773C58.4991 86.7588 58.4991 86.7404 58.4991 86.7222C58.4991 86.7039 58.4991 86.6858 58.4991 86.6677C58.4991 86.6496 58.4991 86.6317 58.4991 86.6138C58.4991 86.596 58.4991 86.5782 58.4991 86.5605C58.4991 86.5429 58.4991 86.5253 58.4991 86.5079C58.4991 86.4904 58.4991 86.473 58.4991 86.4557C58.4991 86.4385 58.4991 86.4213 58.4991 86.4042C58.4991 86.3871 58.4991 86.3702 58.4991 86.3533C58.4991 86.3364 58.4991 86.3196 58.4991 86.3029C58.4991 86.2862 58.4991 86.2696 58.4991 86.2531C58.4991 86.2366 58.4991 86.2201 58.4991 86.2038C58.4991 86.1875 58.4991 86.1712 58.4991 86.1551C58.4991 86.139 58.4991 86.1229 58.4991 86.1069C58.4991 86.091 58.4991 86.0751 58.4991 86.0593C58.4991 86.0435 58.4991 86.0278 58.4991 86.0122C58.4991 85.9966 58.4991 85.9811 58.4991 85.9656C58.4991 85.9502 58.4991 85.9349 58.4991 85.9196C58.4991 85.9043 58.4991 85.8892 58.4991 85.8741C58.4991 85.859 58.4991 85.844 58.4991 85.829C58.4991 85.8141 58.4991 85.7993 58.4991 85.7845C58.4991 85.7698 58.4991 85.7551 58.4991 85.7405C58.4991 85.7259 58.4991 85.7114 58.4991 85.697C58.4991 85.6825 58.4991 85.6682 58.4991 85.6539C58.4991 85.6396 58.4991 85.6255 58.4991 85.6114C58.4991 85.5972 58.4991 85.5832 58.4991 85.5693C58.4991 85.5553 58.4991 85.5414 58.4991 85.5276C58.4991 85.5138 58.4991 85.5001 58.4991 85.4865C58.4991 85.4728 58.4991 85.4593 58.4991 85.4458C58.4991 85.4323 58.4991 85.4188 58.4991 85.4055C58.4991 85.3922 58.4991 85.3789 58.4991 85.3657C58.4991 85.3525 58.4991 85.3394 58.4991 85.3263C58.4991 85.3133 58.4991 85.3003 58.4991 85.2874C58.4991 85.2745 58.4991 85.2616 58.4991 85.2488C58.4991 85.2361 58.4991 85.2234 58.4991 85.2107C58.4991 85.1981 58.4991 85.1856 58.4991 85.1731C58.4991 85.1606 58.4991 85.1481 58.4991 85.1358C58.4991 85.1234 58.4991 85.1111 58.4991 85.0989C58.4991 85.0867 58.4991 85.0745 58.4991 85.0624C58.4991 85.0503 58.4991 85.0383 58.4991 85.0264C58.4991 85.0144 58.4991 85.0025 58.4991 84.9907C58.4991 84.9788 58.4991 84.967 58.4991 84.9553C58.4991 84.9436 58.4991 84.932 58.4991 84.9204C58.4991 84.9088 58.4991 84.8973 58.4991 84.8858C58.4991 84.8743 58.4991 84.8629 58.4991 84.8516C58.4991 84.8402 58.4991 84.829 58.4991 84.8177C58.4991 84.8065 58.4991 84.7953 58.4991 84.7842C58.4991 84.7731 58.4991 84.762 58.4991 84.751C58.4991 84.74 58.4991 84.7291 58.4991 84.7182C58.4991 84.7073 58.4991 84.6965 58.4991 84.6857C58.4991 84.6749 58.4991 84.6642 58.4991 84.6535C58.4991 84.6429 58.4991 84.6322 58.4991 84.6217C58.4991 84.6111 58.4991 84.6006 58.4991 84.5901C58.4991 84.5797 58.4991 84.5693 58.4991 84.5589C58.4991 84.5485 58.4991 84.5382 58.4991 84.528C58.4991 84.5177 58.4991 84.5075 58.4991 84.4973C58.4991 84.4872 58.4991 84.477 58.4991 84.467C58.4991 84.4569 58.4991 84.4469 58.4991 84.4369C58.4991 84.4269 58.4991 84.417 58.4991 84.4071C58.4991 84.3972 58.4991 84.3874 58.4991 84.3776C58.4991 84.3678 58.4991 84.3581 58.4991 84.3484C58.4991 84.3387 58.4991 84.329 58.4991 84.3194C58.4991 84.3098 58.4991 84.3002 58.4991 84.2907C58.4991 84.2811 58.4991 84.2716 58.4991 84.2622C58.4991 84.2527 58.4991 84.2433 58.4991 84.2339C58.4991 84.2246 58.4991 84.2152 58.4991 84.2059C58.4991 84.1966 58.4991 84.1874 58.4991 84.1782C58.4991 84.1689 58.4991 84.1598 58.4991 84.1506C58.4991 84.1415 58.4991 84.1324 58.4991 84.1233C58.4991 84.1142 58.4991 84.1052 58.4991 84.0962C58.4991 84.0872 58.4991 84.0782 58.4991 84.0693C58.4991 84.0603 58.4991 84.0514 58.4991 84.0426C58.4991 84.0337 58.4991 84.0249 58.4991 84.0161C58.4991 84.0073 58.4991 83.9985 58.4991 83.9897C58.4991 83.981 58.4991 83.9723 58.4991 83.9636C58.4991 83.9549 58.4991 83.9463 58.4991 83.9377C58.4991 83.929 58.4991 83.9204 58.4991 83.9119C58.4991 83.9033 58.4991 83.8948 58.4991 83.8862C58.4991 83.8777 58.4991 83.8692 58.4991 83.8608C58.4991 83.8523 58.4991 83.8439 58.4991 83.8355C58.4991 83.8271 58.4991 83.8187 58.4991 83.8103C58.4991 83.802 58.4991 83.7936 58.4991 83.7853C58.4991 83.777 58.4991 83.7687 58.4991 83.7604C58.4991 83.7522 58.4991 83.7439 58.4991 83.7357C58.4991 83.7275 58.4991 83.7192 58.4991 83.7111C58.4991 83.7029 58.4991 83.6947 58.4991 83.6866C58.4991 83.6784 58.4991 83.6703 58.4991 83.6622C58.4991 83.6541 58.4991 83.646 58.4991 83.6379C58.4991 83.6298 58.4991 83.6217 58.4991 83.6137C58.4991 83.6057 58.4991 83.5976 58.4991 83.5896C58.4991 83.5816 58.4991 83.5736 58.4991 83.5656C58.4991 83.5576 58.4991 83.5497 58.4991 83.5417C58.4991 83.5337 58.4991 83.5258 58.4991 83.5179C58.4991 83.5099 58.4991 83.502 58.4991 83.4941C58.4991 83.4862 58.4991 83.4783 58.4991 83.4704C58.4991 83.4625 58.4991 83.4546 58.4991 83.4467C58.4991 83.4389 58.4991 83.431 58.4991 83.4231C58.4991 83.4153 58.4991 83.4074 58.4991 83.3996C58.4991 83.3918 58.4991 83.3839 58.4991 83.3761C58.4991 83.3683 58.4991 83.3605 58.4991 83.3526C58.4991 83.3448 58.4991 83.337 58.4991 83.3292C58.4991 83.3214 58.4991 83.3136 58.4991 83.3058C58.4991 83.298 58.4991 83.2902 58.4991 83.2824C58.4991 83.2746 58.4991 83.2668 58.4991 83.259C58.4991 83.2512 58.4991 83.2434 58.4991 83.2356C58.4991 83.2279 58.4991 83.2201 58.4991 83.2123C58.4991 83.2045 58.4991 83.1967 58.4991 83.1889C58.4991 83.1811 58.4991 83.1733 58.4991 83.1655C58.4991 83.1577 58.4991 83.1499 58.4991 83.1421C58.4991 83.1343 58.4991 83.1265 58.4991 83.1187C58.4991 83.1108 58.4991 83.103 58.4991 83.0952C58.4991 83.0874 58.4991 83.0795 58.4991 83.0717C58.4991 83.0639 58.4991 83.056 58.4991 83.0482C58.4991 83.0403 58.4991 83.0324 58.4991 83.0246C58.4991 83.0167 58.4991 83.0088 58.4991 83.0009C58.4991 82.9931 58.4991 82.9852 58.4991 82.9772C58.4991 82.9693 58.4991 82.9614 58.4991 82.9535C58.4991 82.9456 58.4991 82.9376 58.4991 82.9297C58.4991 82.9217 58.4991 82.9137 58.4991 82.9057C58.4991 82.8978 58.4991 82.8898 58.4991 82.8818C58.4991 82.8737 58.4991 82.8657 58.4991 82.8577C58.4991 82.8496 58.4991 82.8416 58.4991 82.8335C58.4991 82.8254 58.4991 82.8173 58.4991 82.8092C58.4991 82.8011 58.4991 82.793 58.4991 82.7849C58.4991 82.7767 58.4991 82.7685 58.4991 82.7604C58.4991 82.7522 58.4991 82.744 58.4991 82.7357C58.4991 82.7275 58.4991 82.7193 58.4991 82.711C58.4991 82.7028 58.4991 82.6945 58.4991 82.6861C58.4991 82.6778 58.4991 82.6695 58.4991 82.6612C58.4991 82.6528 58.4991 82.6444 58.4991 82.636C58.4991 82.6276 58.4991 82.6192 58.4991 82.6107C58.4991 82.6023 58.4991 82.5938 58.4991 82.5853C58.4991 82.5768 58.4991 82.5682 58.4991 82.5597C58.4991 82.5511 58.4991 82.5425 58.4991 82.5339C58.4991 82.5253 58.4991 82.5166 58.4991 82.508C58.4991 82.4993 58.4991 82.4906 58.4991 82.4819C58.4991 82.4731 58.4991 82.4644 58.4991 82.4556C58.4991 82.4468 58.4991 82.4379 58.4991 82.4291C58.4991 82.4202 58.4991 82.4113 58.4991 82.4024C58.4991 82.3935 58.4991 82.3845 58.4991 82.3755C58.4991 82.3665 58.4991 82.3575 58.4991 82.3484C58.4991 82.3394 58.4991 82.3303 58.4991 82.3211C58.4991 82.312 58.4991 82.3028 58.4991 82.2936C58.4991 82.2844 58.4991 82.2751 58.4991 82.2659C58.4991 82.2566 58.4991 82.2472 58.4991 82.2379C58.4991 82.2285 58.4991 82.2191 58.4991 82.2097C58.4991 82.2002 58.4991 82.1907 58.4991 82.1812C58.4991 82.1717 58.4991 82.1621 58.4991 82.1525C58.4991 82.1429 58.4991 82.1332 58.4991 82.1236C58.4991 82.1139 58.4991 82.1041 58.4991 82.0943C58.4991 82.0846 58.4991 82.0747 58.4991 82.0649C58.4991 82.055 58.4991 82.0451 58.4991 82.0351C58.4991 82.0251 58.4991 82.0151 58.4991 82.0051C58.4991 81.995 58.4991 81.9849 58.4991 81.9748C58.4991 81.9646 58.4991 81.9544 58.4991 81.9442C58.4991 81.9339 58.4991 81.9236 58.4991 81.9133C58.4991 81.9029 58.4991 81.8925 58.4991 81.882C58.4991 81.8716 58.4991 81.8611 58.4991 81.8505C58.4991 81.84 58.4991 81.8294 58.4991 81.8187C58.4991 81.8081 58.4991 81.7973 58.4991 81.7866C58.4991 81.7758 58.4991 81.765 58.4991 81.7541C58.4991 81.7432 58.4991 81.7323 58.4991 81.7213C58.4991 81.7103 58.4991 81.6993 58.4991 81.6882C58.4991 81.6771 58.4991 81.6659 58.4991 81.6547C58.4991 81.6435 58.4991 81.6322 58.4991 81.6209C58.4991 81.6095 58.4991 81.5982 58.4991 81.5867C58.4991 81.5752 58.4991 81.5637 58.4991 81.5522C58.4991 81.5406 58.4991 81.5289 58.4991 81.5173C58.4991 81.5056 58.4991 81.4938 58.4991 81.482C58.4991 81.4701 58.4991 81.4583 58.4991 81.4463C58.4991 81.4344 58.4991 81.4223 58.4991 81.4103C58.4991 81.3982 58.4991 81.386 58.4991 81.3738C58.4991 81.3616 58.4991 81.3494 58.4991 81.337C58.4991 81.3247 58.4991 81.3123 58.4991 81.2998C58.4991 81.2873 58.4991 81.2748 58.4991 81.2621C58.4991 81.2495 58.4991 81.2368 58.4991 81.2241C58.4991 81.2113 58.4991 81.1985 58.4991 81.1856C58.4991 81.1727 58.4991 81.1598 58.4991 81.1467C58.4991 81.1337 58.4991 81.1206 58.4991 81.1074C58.4991 81.0942 58.4991 81.081 58.4991 81.0676C58.4991 81.0543 58.4991 81.0409 58.4991 81.0274C58.4991 81.0139 58.4991 81.0004 58.4991 80.9868C58.4991 80.9731 58.4991 80.9594 58.4991 80.9456C58.4991 80.9319 58.4991 80.918 58.4991 80.9041C58.4991 80.8901 58.4991 80.8761 58.4991 80.862C58.4991 80.8479 58.4991 80.8338 58.4991 80.8195C58.4991 80.8053 58.4991 80.7909 58.4991 80.7765C58.4991 80.7621 58.4991 80.7476 58.4991 80.733C58.4991 80.7185 58.4991 80.7038 58.4991 80.6891C58.4991 80.6743 58.4991 80.6595 58.4991 80.6446C58.4991 80.6297 58.4991 80.6147 58.4991 80.5996C58.4991 80.5846 58.4991 80.5694 58.4991 80.5542C58.4991 80.5389 58.4991 80.5236 58.4991 80.5082C58.4991 80.4928 58.4991 80.4773 58.4991 80.4617C58.4991 80.4461 58.4991 80.4304 58.4991 80.4146C58.4991 80.3989 58.4991 80.383 58.4991 80.3671C58.4991 80.3511 58.4991 80.3351 58.4991 80.319C58.4991 80.3028 58.4991 80.2866 58.4991 80.2703C58.4991 80.254 58.4991 80.2376 58.4991 80.2211C58.4991 80.2046 58.4991 80.188 58.4991 80.1713C58.4991 80.1547 58.4991 80.1379 58.4991 80.121C58.4991 80.1042 58.4991 80.0872 58.4991 80.0701C58.4991 80.0531 58.4991 80.0359 58.4991 80.0187C58.4991 80.0014 58.4991 79.9841 58.4991 79.9666C58.4991 79.9492 58.4991 79.9317 58.4991 79.914C58.4991 79.8964 58.4991 79.8786 58.4991 79.8608C58.4991 79.843 58.4991 79.825 58.4991 79.807C58.4991 79.7889 58.4991 79.7708 58.4991 79.7526C58.4991 79.7343 58.4991 79.716 58.4991 79.6975C58.4991 79.6791 58.4991 79.6606 58.4991 79.6419C58.4991 79.6233 58.4991 79.6045 58.4991 79.5856C58.4991 79.5668 58.4991 79.5478 58.4991 79.5288C58.4991 79.5097 58.4991 79.4905 58.4991 79.4712C58.4991 79.452 58.4991 79.4326 58.4991 79.4131C58.4991 79.3936 58.4991 79.374 58.4991 79.3543C58.4991 79.3346 58.4991 79.3148 58.4991 79.2948C58.4991 79.2749 58.4991 79.2549 58.4991 79.2347C58.4991 79.2146 58.4991 79.1943 58.4991 79.174C58.4991 79.1536 58.4991 79.1331 58.4991 79.1125C58.4991 79.0919 58.4991 79.0712 58.4991 79.0504C58.4991 79.0296 58.4991 79.0086 58.4991 78.9876C58.4991 78.9666 58.4991 78.9454 58.4991 78.9241C58.4991 78.9028 58.4991 78.8815 58.4991 78.8599C58.4991 78.8384 58.4991 78.8168 58.4991 78.7951C58.4991 78.7733 58.4991 78.7515 58.4991 78.7295C58.4991 78.7075 58.4991 78.6854 58.4991 78.6632C58.4991 78.641 58.4991 78.6187 58.4991 78.5962C58.4991 78.5738 58.4991 78.5512 58.4991 78.5285C58.4991 78.5058 58.4991 78.483 58.4991 78.4601C58.4991 78.4371 58.4991 78.4141 58.4991 78.3909C58.4991 78.3677 58.4991 78.3444 58.4991 78.321C58.4991 78.2975 58.4991 78.274 58.4991 78.2503C58.4991 78.2266 58.4991 78.2028 58.4991 78.1789C58.4991 78.155 58.4991 78.1309 58.4991 78.1067C58.4991 78.0825 58.4991 78.0582 58.4991 78.0338C58.4991 78.0093 58.4991 77.9848 58.4991 77.9601C58.4991 77.9354 58.4991 77.9105 58.4991 77.8856C58.4991 77.8606 58.4991 77.8355 58.4991 77.8103C58.4991 77.7851 58.4991 77.7598 58.4991 77.7343C58.4991 77.7088 58.4991 77.6832 58.4991 77.6575C58.4991 77.6317 58.4991 77.6058 58.4991 77.5798C58.4991 77.5538 58.4991 77.5277 58.4991 77.5014C58.4991 77.4751 58.4991 77.4487 58.4991 77.4221C58.4991 77.3956 58.4991 77.3689 58.4991 77.3421C58.4991 77.3152 58.4991 77.2883 58.4991 77.2612C58.4991 77.2341 58.4991 77.2068 58.4991 77.1795C58.4991 77.1521 58.4991 77.1246 58.4991 77.0969C58.4991 77.0693 58.4991 77.0415 58.4991 77.0135C58.4991 76.9856 58.4991 76.9575 58.4991 76.9293C58.4991 76.9011 58.4991 76.8727 58.4991 76.8442C58.4991 76.8157 58.4991 76.787 58.4991 76.7583C58.4991 76.7295 58.4991 76.7005 58.4991 76.6714C58.4991 76.6424 58.4991 76.6131 58.4991 76.5838C58.4991 76.5544 58.4991 76.5249 58.4991 76.4952C58.4991 76.4656 58.4991 76.4357 58.4991 76.4058C58.4991 76.3758 58.4991 76.3457 58.4991 76.3155C58.4991 76.2852 58.4991 76.2548 58.4991 76.2243C58.4991 76.1937 58.4991 76.163 58.4991 76.1321C58.4991 76.1013 58.4991 76.0703 58.4991 76.0391C58.4991 76.008 58.4991 75.9767 58.4991 75.9452C58.4991 75.9137 58.4991 75.8821 58.4991 75.8504C58.4991 75.8186 58.4991 75.7867 58.4991 75.7546C58.4991 75.7225 58.4991 75.6903 58.4991 75.6579C58.4991 75.6255 58.4991 75.593 58.4991 75.5603C58.4991 75.5276 58.4991 75.4947 58.4991 75.4617C58.4991 75.4287 58.4991 75.3955 58.4991 75.3622C58.4991 75.3288 58.4991 75.2954 58.4991 75.2617C58.4991 75.2281 58.4991 75.1943 58.4991 75.1603C58.4991 75.1263 58.4991 75.0922 58.4991 75.0579C58.4991 75.0236 58.4991 74.9892 58.4991 74.9545C58.4991 74.9199 58.4991 74.8851 58.4991 74.8502C58.4991 74.8153 58.4991 74.7802 58.4991 74.7449C58.4991 74.7096 58.4991 74.6742 58.4991 74.6386C58.4991 74.603 58.4991 74.5672 58.4991 74.5313C58.4991 74.4954 58.4991 74.4593 58.4991 74.423C58.4991 74.3867 58.4991 74.3503 58.4991 74.3137C58.4991 74.2771 58.4991 74.2403 58.4991 74.2034C58.4991 74.1664 58.4991 74.1293 58.4991 74.092C58.4991 74.0548 58.4991 74.0173 58.4991 73.9797C58.4991 73.9421 58.4991 73.9043 58.4991 73.8663C58.4991 73.8283 58.4991 73.7902 58.4991 73.7519C58.4991 73.7136 58.4991 73.6751 58.4991 73.6364C58.4991 73.5978 58.4991 73.5589 58.4991 73.5199C58.4991 73.4809 58.4991 73.4417 58.4991 73.4024C58.4991 73.363 58.4991 73.3235 58.4991 73.2837C58.4991 73.244 58.4991 73.2041 58.4991 73.1641C58.4991 73.124 58.4991 73.0837 58.4991 73.0433C58.4991 73.0029 58.4991 72.9623 58.4991 72.9215C58.4991 72.8807 58.4991 72.8397 58.4991 72.7986C58.4991 72.7574 58.4991 72.7161 58.4991 72.6746C58.4991 72.6331 58.4991 72.5914 58.4991 72.5495C58.4991 72.5076 58.4991 72.4655 58.4991 72.4233C58.4991 72.381 58.4991 72.3386 58.4991 72.296C58.4991 72.2534 58.4991 72.2106 58.4991 72.1676C58.4991 72.1246 58.4991 72.0814 58.4991 72.0381C58.4991 71.9947 58.4991 71.9511 58.4991 71.9074C58.4991 71.8637 58.4991 71.8197 58.4991 71.7756C58.4991 71.7315 58.4991 71.6872 58.4991 71.6427C58.4991 71.5982 58.4991 71.5535 58.4991 71.5086C58.4991 71.4638 58.4991 71.4187 58.4991 71.3734C58.4991 71.3282 58.4991 71.2827 58.4991 71.2371C58.4991 71.1914 58.4991 71.1456 58.4991 71.0996C58.4991 71.0535 58.4991 71.0073 58.4991 70.9609C58.4991 70.9145 58.4991 70.8678 58.4991 70.821C58.4991 70.7742 58.4991 70.7272 58.4991 70.68C58.4991 70.6328 58.4991 70.5854 58.4991 70.5378C58.4991 70.4902 58.4991 70.4424 58.4991 70.3944C58.4991 70.3464 58.4991 70.2982 58.4991 70.2498C58.4991 70.2014 58.4991 70.1528 58.4991 70.104C58.4991 70.0552 58.4991 70.0062 58.4991 69.957C58.4991 69.9078 58.4991 69.8584 58.4991 69.8088C58.4991 69.7592 58.4991 69.7094 58.4991 69.6593C58.4991 69.6093 58.4991 69.5591 58.4991 69.5087C58.4991 69.4583 58.4991 69.4076 58.4991 69.3568C58.4991 69.306 58.4991 69.2549 58.4991 69.2037C58.4991 69.1524 58.4991 69.101 58.4991 69.0493C58.4991 68.9976 58.4991 68.9458 58.4991 68.8937C58.4991 68.8416 58.4991 68.7893 58.4991 68.7368C58.4991 68.6843 58.4991 68.6316 58.4991 68.5787C58.4991 68.5258 58.4991 68.4726 58.4991 68.4193C58.4991 68.3659 58.4991 68.3124 58.4991 68.2586C58.4991 68.2049 58.4991 68.1509 58.4991 68.0967C58.4991 68.0425 58.4991 67.9881 58.4991 67.9335C58.4991 67.8788 58.4991 67.824 58.4991 67.7689C58.4991 67.7139 58.4991 67.6586 58.4991 67.6031C58.4991 67.5476 58.4991 67.4919 58.4991 67.436C58.4991 67.3801 58.4991 67.324 58.4991 67.2676C58.4991 67.2112 58.4991 67.1547 58.4991 67.0979C58.4991 67.0411 58.4991 66.9841 58.4991 66.9268C58.4991 66.8696 58.4991 66.8121 58.4991 66.7544C58.4991 66.6968 58.4991 66.6389 58.4991 66.5807C58.4991 66.5226 58.4991 66.4643 58.4991 66.4057C58.4991 66.3471 58.4991 66.2883 58.4991 66.2293C58.4991 66.1703 58.4991 66.111 58.4991 66.0516C58.4991 65.9921 58.4991 65.9324 58.4991 65.8725C58.4991 65.8126 58.4991 65.7524 58.4991 65.692C58.4991 65.6317 58.4991 65.5711 58.4991 65.5102C58.4991 65.4494 58.4991 65.3883 58.4991 65.327C58.4991 65.2657 58.4991 65.2042 58.4991 65.1425C58.4991 65.0807 58.4991 65.0187 58.4991 64.9565C58.4991 64.8943 58.4991 64.8319 58.4991 64.7692C58.4991 64.7065 58.4991 64.6436 58.4991 64.5804C58.4991 64.5173 58.4991 64.4539 58.4991 64.3903C58.4991 64.3267 58.4991 64.2629 58.4991 64.1988C58.4991 64.1347 58.4991 64.0704 58.4991 64.0058C58.4991 63.9413 58.4991 63.8765 58.4991 63.8114C58.4991 63.7464 58.4991 63.6811 58.4991 63.6156C58.4991 63.5501 58.4991 63.4844 58.4991 63.4184C58.4991 63.3524 58.4991 63.2862 58.4991 63.2197C58.4991 63.1533 58.4991 63.0866 58.4991 63.0196C58.4991 62.9527 58.4991 62.8855 58.4991 62.8181C58.4991 62.7506 58.4991 62.683 58.4991 62.615C58.4991 62.5471 58.4991 62.479 58.4991 62.4106C58.4991 62.3422 58.4991 62.2735 58.4991 62.2046C58.4991 62.1357 58.4991 62.0666 58.4991 61.9972C58.4991 61.9278 58.4991 61.8582 58.4991 61.7883C58.4991 61.7184 58.4991 61.6483 58.4991 61.5779C58.4991 61.5075 58.4991 61.4369 58.4991 61.3661C58.4991 61.2952 58.4991 61.2241 58.4991 61.1527C58.4991 61.0813 58.4991 61.0097 58.4991 60.9378C58.4991 60.8659 58.4991 60.7938 58.4991 60.7214C58.4991 60.6491 58.4991 60.5764 58.4991 60.5035C58.4991 60.4307 58.4991 60.3575 58.4991 60.2841C58.4991 60.2107 58.4991 60.1371 58.4991 60.0632C58.4991 59.9893 58.4991 59.9151 58.4991 59.8407C58.4991 59.7663 58.4991 59.6916 58.4991 59.6167C58.4991 59.5418 58.4991 59.4666 58.4991 59.3912C58.4991 59.3157 58.4991 59.24 58.4991 59.1641C58.4991 59.0881 58.4991 59.0119 58.4991 58.9354C58.4991 58.8589 58.4991 58.7822 58.4991 58.7052C58.4991 58.6282 58.4991 58.5509 58.4991 58.4734C58.4991 58.3959 58.4991 58.3181 58.4991 58.2401C58.4991 58.162 58.4991 58.0837 58.4991 58.0051C58.4991 57.9265 58.4991 57.8477 58.4991 57.7686C58.4991 57.6895 58.4991 57.6101 58.4991 57.5305C58.4991 57.4508 58.4991 57.3709 58.4991 57.2908C58.4991 57.2106 58.4991 57.1302 58.4991 57.0495C58.4991 56.9688 58.4991 56.8878 58.4991 56.8065C58.4991 56.7253 58.4991 56.6438 58.4991 56.562C58.4991 56.4802 58.4991 56.3982 58.4991 56.3158C58.4991 56.2335 58.4991 56.1509 58.4991 56.0681C58.4991 55.9852 58.4991 55.9021 58.4991 55.8186C58.4991 55.7352 58.4991 55.6515 58.4991 55.5676C58.4991 55.4836 58.4991 55.3994 58.4991 55.3149C58.4991 55.2304 58.4991 55.1456 58.4991 55.0605C58.4991 54.9755 58.4991 54.8901 58.4991 54.8045C58.4991 54.7189 58.4991 54.633 58.4991 54.5469C58.4991 54.4607 58.4991 54.3743 58.4991 54.2875C58.4991 54.2008 58.4991 54.1138 58.4991 54.0265C58.4991 53.9392 58.4991 53.8517 58.4991 53.7638C58.4991 53.676 58.4991 53.5879 58.4991 53.4995C58.4991 53.4111 58.4991 53.3224 58.4991 53.2334H60.4991C60.4991 53.3224 60.4991 53.4111 60.4991 53.4995C60.4991 53.5879 60.4991 53.676 60.4991 53.7638C60.4991 53.8517 60.4991 53.9392 60.4991 54.0265C60.4991 54.1138 60.4991 54.2008 60.4991 54.2875C60.4991 54.3743 60.4991 54.4607 60.4991 54.5469C60.4991 54.633 60.4991 54.7189 60.4991 54.8045C60.4991 54.8901 60.4991 54.9755 60.4991 55.0605C60.4991 55.1456 60.4991 55.2304 60.4991 55.3149C60.4991 55.3994 60.4991 55.4836 60.4991 55.5676C60.4991 55.6515 60.4991 55.7352 60.4991 55.8186C60.4991 55.9021 60.4991 55.9852 60.4991 56.0681C60.4991 56.1509 60.4991 56.2335 60.4991 56.3158C60.4991 56.3982 60.4991 56.4802 60.4991 56.562C60.4991 56.6438 60.4991 56.7253 60.4991 56.8065C60.4991 56.8878 60.4991 56.9688 60.4991 57.0495C60.4991 57.1302 60.4991 57.2106 60.4991 57.2908C60.4991 57.3709 60.4991 57.4508 60.4991 57.5305C60.4991 57.6101 60.4991 57.6895 60.4991 57.7686C60.4991 57.8477 60.4991 57.9265 60.4991 58.0051C60.4991 58.0837 60.4991 58.162 60.4991 58.2401C60.4991 58.3181 60.4991 58.3959 60.4991 58.4734C60.4991 58.5509 60.4991 58.6282 60.4991 58.7052C60.4991 58.7822 60.4991 58.8589 60.4991 58.9354C60.4991 59.0119 60.4991 59.0881 60.4991 59.1641C60.4991 59.24 60.4991 59.3157 60.4991 59.3912C60.4991 59.4666 60.4991 59.5418 60.4991 59.6167C60.4991 59.6916 60.4991 59.7663 60.4991 59.8407C60.4991 59.9151 60.4991 59.9893 60.4991 60.0632C60.4991 60.1371 60.4991 60.2107 60.4991 60.2841C60.4991 60.3575 60.4991 60.4307 60.4991 60.5035C60.4991 60.5764 60.4991 60.6491 60.4991 60.7214C60.4991 60.7938 60.4991 60.8659 60.4991 60.9378C60.4991 61.0097 60.4991 61.0813 60.4991 61.1527C60.4991 61.2241 60.4991 61.2952 60.4991 61.3661C60.4991 61.4369 60.4991 61.5075 60.4991 61.5779C60.4991 61.6483 60.4991 61.7184 60.4991 61.7883C60.4991 61.8582 60.4991 61.9278 60.4991 61.9972C60.4991 62.0666 60.4991 62.1357 60.4991 62.2046C60.4991 62.2735 60.4991 62.3422 60.4991 62.4106C60.4991 62.479 60.4991 62.5471 60.4991 62.615C60.4991 62.683 60.4991 62.7506 60.4991 62.8181C60.4991 62.8855 60.4991 62.9527 60.4991 63.0196C60.4991 63.0866 60.4991 63.1533 60.4991 63.2197C60.4991 63.2862 60.4991 63.3524 60.4991 63.4184C60.4991 63.4844 60.4991 63.5501 60.4991 63.6156C60.4991 63.6811 60.4991 63.7464 60.4991 63.8114C60.4991 63.8765 60.4991 63.9413 60.4991 64.0058C60.4991 64.0704 60.4991 64.1347 60.4991 64.1988C60.4991 64.2629 60.4991 64.3267 60.4991 64.3903C60.4991 64.4539 60.4991 64.5173 60.4991 64.5804C60.4991 64.6436 60.4991 64.7065 60.4991 64.7692C60.4991 64.8319 60.4991 64.8943 60.4991 64.9565C60.4991 65.0187 60.4991 65.0807 60.4991 65.1425C60.4991 65.2042 60.4991 65.2657 60.4991 65.327C60.4991 65.3883 60.4991 65.4494 60.4991 65.5102C60.4991 65.5711 60.4991 65.6317 60.4991 65.692C60.4991 65.7524 60.4991 65.8126 60.4991 65.8725C60.4991 65.9324 60.4991 65.9921 60.4991 66.0516C60.4991 66.111 60.4991 66.1703 60.4991 66.2293C60.4991 66.2883 60.4991 66.3471 60.4991 66.4057C60.4991 66.4643 60.4991 66.5226 60.4991 66.5807C60.4991 66.6389 60.4991 66.6968 60.4991 66.7544C60.4991 66.8121 60.4991 66.8696 60.4991 66.9268C60.4991 66.9841 60.4991 67.0411 60.4991 67.0979C60.4991 67.1547 60.4991 67.2112 60.4991 67.2676C60.4991 67.324 60.4991 67.3801 60.4991 67.436C60.4991 67.4919 60.4991 67.5476 60.4991 67.6031C60.4991 67.6586 60.4991 67.7139 60.4991 67.7689C60.4991 67.824 60.4991 67.8788 60.4991 67.9335C60.4991 67.9881 60.4991 68.0425 60.4991 68.0967C60.4991 68.1509 60.4991 68.2049 60.4991 68.2586C60.4991 68.3124 60.4991 68.3659 60.4991 68.4193C60.4991 68.4726 60.4991 68.5258 60.4991 68.5787C60.4991 68.6316 60.4991 68.6843 60.4991 68.7368C60.4991 68.7893 60.4991 68.8416 60.4991 68.8937C60.4991 68.9458 60.4991 68.9976 60.4991 69.0493C60.4991 69.101 60.4991 69.1524 60.4991 69.2037C60.4991 69.2549 60.4991 69.306 60.4991 69.3568C60.4991 69.4076 60.4991 69.4583 60.4991 69.5087C60.4991 69.5591 60.4991 69.6093 60.4991 69.6593C60.4991 69.7094 60.4991 69.7592 60.4991 69.8088C60.4991 69.8584 60.4991 69.9078 60.4991 69.957C60.4991 70.0062 60.4991 70.0552 60.4991 70.104C60.4991 70.1528 60.4991 70.2014 60.4991 70.2498C60.4991 70.2982 60.4991 70.3464 60.4991 70.3944C60.4991 70.4424 60.4991 70.4902 60.4991 70.5378C60.4991 70.5854 60.4991 70.6328 60.4991 70.68C60.4991 70.7272 60.4991 70.7742 60.4991 70.821C60.4991 70.8678 60.4991 70.9145 60.4991 70.9609C60.4991 71.0073 60.4991 71.0535 60.4991 71.0996C60.4991 71.1456 60.4991 71.1914 60.4991 71.2371C60.4991 71.2827 60.4991 71.3282 60.4991 71.3734C60.4991 71.4187 60.4991 71.4638 60.4991 71.5086C60.4991 71.5535 60.4991 71.5982 60.4991 71.6427C60.4991 71.6872 60.4991 71.7315 60.4991 71.7756C60.4991 71.8197 60.4991 71.8637 60.4991 71.9074C60.4991 71.9511 60.4991 71.9947 60.4991 72.0381C60.4991 72.0814 60.4991 72.1246 60.4991 72.1676C60.4991 72.2106 60.4991 72.2534 60.4991 72.296C60.4991 72.3386 60.4991 72.381 60.4991 72.4233C60.4991 72.4655 60.4991 72.5076 60.4991 72.5495C60.4991 72.5914 60.4991 72.6331 60.4991 72.6746C60.4991 72.7161 60.4991 72.7574 60.4991 72.7986C60.4991 72.8397 60.4991 72.8807 60.4991 72.9215C60.4991 72.9623 60.4991 73.0029 60.4991 73.0433C60.4991 73.0837 60.4991 73.124 60.4991 73.1641C60.4991 73.2041 60.4991 73.244 60.4991 73.2837C60.4991 73.3235 60.4991 73.363 60.4991 73.4024C60.4991 73.4417 60.4991 73.4809 60.4991 73.5199C60.4991 73.5589 60.4991 73.5978 60.4991 73.6364C60.4991 73.6751 60.4991 73.7136 60.4991 73.7519C60.4991 73.7902 60.4991 73.8283 60.4991 73.8663C60.4991 73.9043 60.4991 73.9421 60.4991 73.9797C60.4991 74.0173 60.4991 74.0548 60.4991 74.092C60.4991 74.1293 60.4991 74.1664 60.4991 74.2034C60.4991 74.2403 60.4991 74.2771 60.4991 74.3137C60.4991 74.3503 60.4991 74.3867 60.4991 74.423C60.4991 74.4593 60.4991 74.4954 60.4991 74.5313C60.4991 74.5672 60.4991 74.603 60.4991 74.6386C60.4991 74.6742 60.4991 74.7096 60.4991 74.7449C60.4991 74.7802 60.4991 74.8153 60.4991 74.8502C60.4991 74.8851 60.4991 74.9199 60.4991 74.9545C60.4991 74.9892 60.4991 75.0236 60.4991 75.0579C60.4991 75.0922 60.4991 75.1263 60.4991 75.1603C60.4991 75.1943 60.4991 75.2281 60.4991 75.2617C60.4991 75.2954 60.4991 75.3288 60.4991 75.3622C60.4991 75.3955 60.4991 75.4287 60.4991 75.4617C60.4991 75.4947 60.4991 75.5276 60.4991 75.5603C60.4991 75.593 60.4991 75.6255 60.4991 75.6579C60.4991 75.6903 60.4991 75.7225 60.4991 75.7546C60.4991 75.7867 60.4991 75.8186 60.4991 75.8504C60.4991 75.8821 60.4991 75.9137 60.4991 75.9452C60.4991 75.9767 60.4991 76.008 60.4991 76.0391C60.4991 76.0703 60.4991 76.1013 60.4991 76.1321C60.4991 76.163 60.4991 76.1937 60.4991 76.2243C60.4991 76.2548 60.4991 76.2852 60.4991 76.3155C60.4991 76.3457 60.4991 76.3758 60.4991 76.4058C60.4991 76.4357 60.4991 76.4656 60.4991 76.4952C60.4991 76.5249 60.4991 76.5544 60.4991 76.5838C60.4991 76.6131 60.4991 76.6424 60.4991 76.6714C60.4991 76.7005 60.4991 76.7295 60.4991 76.7583C60.4991 76.787 60.4991 76.8157 60.4991 76.8442C60.4991 76.8727 60.4991 76.9011 60.4991 76.9293C60.4991 76.9575 60.4991 76.9856 60.4991 77.0135C60.4991 77.0415 60.4991 77.0693 60.4991 77.0969C60.4991 77.1246 60.4991 77.1521 60.4991 77.1795C60.4991 77.2068 60.4991 77.2341 60.4991 77.2612C60.4991 77.2883 60.4991 77.3152 60.4991 77.3421C60.4991 77.3689 60.4991 77.3956 60.4991 77.4221C60.4991 77.4487 60.4991 77.4751 60.4991 77.5014C60.4991 77.5277 60.4991 77.5538 60.4991 77.5798C60.4991 77.6058 60.4991 77.6317 60.4991 77.6575C60.4991 77.6832 60.4991 77.7088 60.4991 77.7343C60.4991 77.7598 60.4991 77.7851 60.4991 77.8103C60.4991 77.8355 60.4991 77.8606 60.4991 77.8856C60.4991 77.9105 60.4991 77.9354 60.4991 77.9601C60.4991 77.9848 60.4991 78.0093 60.4991 78.0338C60.4991 78.0582 60.4991 78.0825 60.4991 78.1067C60.4991 78.1309 60.4991 78.155 60.4991 78.1789C60.4991 78.2028 60.4991 78.2266 60.4991 78.2503C60.4991 78.274 60.4991 78.2975 60.4991 78.321C60.4991 78.3444 60.4991 78.3677 60.4991 78.3909C60.4991 78.4141 60.4991 78.4371 60.4991 78.4601C60.4991 78.483 60.4991 78.5058 60.4991 78.5285C60.4991 78.5512 60.4991 78.5738 60.4991 78.5962C60.4991 78.6187 60.4991 78.641 60.4991 78.6632C60.4991 78.6854 60.4991 78.7075 60.4991 78.7295C60.4991 78.7515 60.4991 78.7733 60.4991 78.7951C60.4991 78.8168 60.4991 78.8384 60.4991 78.8599C60.4991 78.8815 60.4991 78.9028 60.4991 78.9241C60.4991 78.9454 60.4991 78.9666 60.4991 78.9876C60.4991 79.0086 60.4991 79.0296 60.4991 79.0504C60.4991 79.0712 60.4991 79.0919 60.4991 79.1125C60.4991 79.1331 60.4991 79.1536 60.4991 79.174C60.4991 79.1943 60.4991 79.2146 60.4991 79.2347C60.4991 79.2549 60.4991 79.2749 60.4991 79.2948C60.4991 79.3148 60.4991 79.3346 60.4991 79.3543C60.4991 79.374 60.4991 79.3936 60.4991 79.4131C60.4991 79.4326 60.4991 79.452 60.4991 79.4712C60.4991 79.4905 60.4991 79.5097 60.4991 79.5288C60.4991 79.5478 60.4991 79.5668 60.4991 79.5856C60.4991 79.6045 60.4991 79.6233 60.4991 79.6419C60.4991 79.6606 60.4991 79.6791 60.4991 79.6975C60.4991 79.716 60.4991 79.7343 60.4991 79.7526C60.4991 79.7708 60.4991 79.7889 60.4991 79.807C60.4991 79.825 60.4991 79.843 60.4991 79.8608C60.4991 79.8786 60.4991 79.8964 60.4991 79.914C60.4991 79.9317 60.4991 79.9492 60.4991 79.9666C60.4991 79.9841 60.4991 80.0014 60.4991 80.0187C60.4991 80.0359 60.4991 80.0531 60.4991 80.0701C60.4991 80.0872 60.4991 80.1042 60.4991 80.121C60.4991 80.1379 60.4991 80.1547 60.4991 80.1713C60.4991 80.188 60.4991 80.2046 60.4991 80.2211C60.4991 80.2376 60.4991 80.254 60.4991 80.2703C60.4991 80.2866 60.4991 80.3028 60.4991 80.319C60.4991 80.3351 60.4991 80.3511 60.4991 80.3671C60.4991 80.383 60.4991 80.3989 60.4991 80.4146C60.4991 80.4304 60.4991 80.4461 60.4991 80.4617C60.4991 80.4773 60.4991 80.4928 60.4991 80.5082C60.4991 80.5236 60.4991 80.5389 60.4991 80.5542C60.4991 80.5694 60.4991 80.5846 60.4991 80.5996C60.4991 80.6147 60.4991 80.6297 60.4991 80.6446C60.4991 80.6595 60.4991 80.6743 60.4991 80.6891C60.4991 80.7038 60.4991 80.7185 60.4991 80.733C60.4991 80.7476 60.4991 80.7621 60.4991 80.7765C60.4991 80.7909 60.4991 80.8053 60.4991 80.8195C60.4991 80.8338 60.4991 80.8479 60.4991 80.862C60.4991 80.8761 60.4991 80.8901 60.4991 80.9041C60.4991 80.918 60.4991 80.9319 60.4991 80.9456C60.4991 80.9594 60.4991 80.9731 60.4991 80.9868C60.4991 81.0004 60.4991 81.0139 60.4991 81.0274C60.4991 81.0409 60.4991 81.0543 60.4991 81.0676C60.4991 81.081 60.4991 81.0942 60.4991 81.1074C60.4991 81.1206 60.4991 81.1337 60.4991 81.1467C60.4991 81.1598 60.4991 81.1727 60.4991 81.1856C60.4991 81.1985 60.4991 81.2113 60.4991 81.2241C60.4991 81.2368 60.4991 81.2495 60.4991 81.2621C60.4991 81.2748 60.4991 81.2873 60.4991 81.2998C60.4991 81.3123 60.4991 81.3247 60.4991 81.337C60.4991 81.3494 60.4991 81.3616 60.4991 81.3738C60.4991 81.386 60.4991 81.3982 60.4991 81.4103C60.4991 81.4223 60.4991 81.4344 60.4991 81.4463C60.4991 81.4583 60.4991 81.4701 60.4991 81.482C60.4991 81.4938 60.4991 81.5056 60.4991 81.5173C60.4991 81.5289 60.4991 81.5406 60.4991 81.5522C60.4991 81.5637 60.4991 81.5752 60.4991 81.5867C60.4991 81.5982 60.4991 81.6095 60.4991 81.6209C60.4991 81.6322 60.4991 81.6435 60.4991 81.6547C60.4991 81.6659 60.4991 81.6771 60.4991 81.6882C60.4991 81.6993 60.4991 81.7103 60.4991 81.7213C60.4991 81.7323 60.4991 81.7432 60.4991 81.7541C60.4991 81.765 60.4991 81.7758 60.4991 81.7866C60.4991 81.7973 60.4991 81.8081 60.4991 81.8187C60.4991 81.8294 60.4991 81.84 60.4991 81.8505C60.4991 81.8611 60.4991 81.8716 60.4991 81.882C60.4991 81.8925 60.4991 81.9029 60.4991 81.9133C60.4991 81.9236 60.4991 81.9339 60.4991 81.9442C60.4991 81.9544 60.4991 81.9646 60.4991 81.9748C60.4991 81.9849 60.4991 81.995 60.4991 82.0051C60.4991 82.0151 60.4991 82.0251 60.4991 82.0351C60.4991 82.0451 60.4991 82.055 60.4991 82.0649C60.4991 82.0747 60.4991 82.0846 60.4991 82.0943C60.4991 82.1041 60.4991 82.1139 60.4991 82.1236C60.4991 82.1332 60.4991 82.1429 60.4991 82.1525C60.4991 82.1621 60.4991 82.1717 60.4991 82.1812C60.4991 82.1907 60.4991 82.2002 60.4991 82.2097C60.4991 82.2191 60.4991 82.2285 60.4991 82.2379C60.4991 82.2472 60.4991 82.2566 60.4991 82.2659C60.4991 82.2751 60.4991 82.2844 60.4991 82.2936C60.4991 82.3028 60.4991 82.312 60.4991 82.3211C60.4991 82.3303 60.4991 82.3394 60.4991 82.3484C60.4991 82.3575 60.4991 82.3665 60.4991 82.3755C60.4991 82.3845 60.4991 82.3935 60.4991 82.4024C60.4991 82.4113 60.4991 82.4202 60.4991 82.4291C60.4991 82.4379 60.4991 82.4468 60.4991 82.4556C60.4991 82.4644 60.4991 82.4731 60.4991 82.4819C60.4991 82.4906 60.4991 82.4993 60.4991 82.508C60.4991 82.5166 60.4991 82.5253 60.4991 82.5339C60.4991 82.5425 60.4991 82.5511 60.4991 82.5597C60.4991 82.5682 60.4991 82.5768 60.4991 82.5853C60.4991 82.5938 60.4991 82.6023 60.4991 82.6107C60.4991 82.6192 60.4991 82.6276 60.4991 82.636C60.4991 82.6444 60.4991 82.6528 60.4991 82.6612C60.4991 82.6695 60.4991 82.6778 60.4991 82.6861C60.4991 82.6945 60.4991 82.7028 60.4991 82.711C60.4991 82.7193 60.4991 82.7275 60.4991 82.7357C60.4991 82.744 60.4991 82.7522 60.4991 82.7604C60.4991 82.7685 60.4991 82.7767 60.4991 82.7849C60.4991 82.793 60.4991 82.8011 60.4991 82.8092C60.4991 82.8173 60.4991 82.8254 60.4991 82.8335C60.4991 82.8416 60.4991 82.8496 60.4991 82.8577C60.4991 82.8657 60.4991 82.8737 60.4991 82.8818C60.4991 82.8898 60.4991 82.8978 60.4991 82.9057C60.4991 82.9137 60.4991 82.9217 60.4991 82.9297C60.4991 82.9376 60.4991 82.9456 60.4991 82.9535C60.4991 82.9614 60.4991 82.9693 60.4991 82.9772C60.4991 82.9852 60.4991 82.9931 60.4991 83.0009C60.4991 83.0088 60.4991 83.0167 60.4991 83.0246C60.4991 83.0324 60.4991 83.0403 60.4991 83.0482C60.4991 83.056 60.4991 83.0639 60.4991 83.0717C60.4991 83.0795 60.4991 83.0874 60.4991 83.0952C60.4991 83.103 60.4991 83.1108 60.4991 83.1187C60.4991 83.1265 60.4991 83.1343 60.4991 83.1421C60.4991 83.1499 60.4991 83.1577 60.4991 83.1655C60.4991 83.1733 60.4991 83.1811 60.4991 83.1889C60.4991 83.1967 60.4991 83.2045 60.4991 83.2123C60.4991 83.2201 60.4991 83.2279 60.4991 83.2356C60.4991 83.2434 60.4991 83.2512 60.4991 83.259C60.4991 83.2668 60.4991 83.2746 60.4991 83.2824C60.4991 83.2902 60.4991 83.298 60.4991 83.3058C60.4991 83.3136 60.4991 83.3214 60.4991 83.3292C60.4991 83.337 60.4991 83.3448 60.4991 83.3526C60.4991 83.3605 60.4991 83.3683 60.4991 83.3761C60.4991 83.3839 60.4991 83.3918 60.4991 83.3996C60.4991 83.4074 60.4991 83.4153 60.4991 83.4231C60.4991 83.431 60.4991 83.4389 60.4991 83.4467C60.4991 83.4546 60.4991 83.4625 60.4991 83.4704C60.4991 83.4783 60.4991 83.4862 60.4991 83.4941C60.4991 83.502 60.4991 83.5099 60.4991 83.5179C60.4991 83.5258 60.4991 83.5337 60.4991 83.5417C60.4991 83.5497 60.4991 83.5576 60.4991 83.5656C60.4991 83.5736 60.4991 83.5816 60.4991 83.5896C60.4991 83.5976 60.4991 83.6057 60.4991 83.6137C60.4991 83.6217 60.4991 83.6298 60.4991 83.6379C60.4991 83.646 60.4991 83.6541 60.4991 83.6622C60.4991 83.6703 60.4991 83.6784 60.4991 83.6866C60.4991 83.6947 60.4991 83.7029 60.4991 83.7111C60.4991 83.7192 60.4991 83.7275 60.4991 83.7357C60.4991 83.7439 60.4991 83.7522 60.4991 83.7604C60.4991 83.7687 60.4991 83.777 60.4991 83.7853C60.4991 83.7936 60.4991 83.802 60.4991 83.8103C60.4991 83.8187 60.4991 83.8271 60.4991 83.8355C60.4991 83.8439 60.4991 83.8523 60.4991 83.8608C60.4991 83.8692 60.4991 83.8777 60.4991 83.8862C60.4991 83.8948 60.4991 83.9033 60.4991 83.9119C60.4991 83.9204 60.4991 83.929 60.4991 83.9377C60.4991 83.9463 60.4991 83.9549 60.4991 83.9636C60.4991 83.9723 60.4991 83.981 60.4991 83.9897C60.4991 83.9985 60.4991 84.0073 60.4991 84.0161C60.4991 84.0249 60.4991 84.0337 60.4991 84.0426C60.4991 84.0514 60.4991 84.0603 60.4991 84.0693C60.4991 84.0782 60.4991 84.0872 60.4991 84.0962C60.4991 84.1052 60.4991 84.1142 60.4991 84.1233C60.4991 84.1324 60.4991 84.1415 60.4991 84.1506C60.4991 84.1598 60.4991 84.1689 60.4991 84.1782C60.4991 84.1874 60.4991 84.1966 60.4991 84.2059C60.4991 84.2152 60.4991 84.2246 60.4991 84.2339C60.4991 84.2433 60.4991 84.2527 60.4991 84.2622C60.4991 84.2716 60.4991 84.2811 60.4991 84.2907C60.4991 84.3002 60.4991 84.3098 60.4991 84.3194C60.4991 84.329 60.4991 84.3387 60.4991 84.3484C60.4991 84.3581 60.4991 84.3678 60.4991 84.3776C60.4991 84.3874 60.4991 84.3972 60.4991 84.4071C60.4991 84.417 60.4991 84.4269 60.4991 84.4369C60.4991 84.4469 60.4991 84.4569 60.4991 84.467C60.4991 84.477 60.4991 84.4872 60.4991 84.4973C60.4991 84.5075 60.4991 84.5177 60.4991 84.528C60.4991 84.5382 60.4991 84.5485 60.4991 84.5589C60.4991 84.5693 60.4991 84.5797 60.4991 84.5901C60.4991 84.6006 60.4991 84.6111 60.4991 84.6217C60.4991 84.6322 60.4991 84.6429 60.4991 84.6535C60.4991 84.6642 60.4991 84.6749 60.4991 84.6857C60.4991 84.6965 60.4991 84.7073 60.4991 84.7182C60.4991 84.7291 60.4991 84.74 60.4991 84.751C60.4991 84.762 60.4991 84.7731 60.4991 84.7842C60.4991 84.7953 60.4991 84.8065 60.4991 84.8177C60.4991 84.829 60.4991 84.8402 60.4991 84.8516C60.4991 84.8629 60.4991 84.8743 60.4991 84.8858C60.4991 84.8973 60.4991 84.9088 60.4991 84.9204C60.4991 84.932 60.4991 84.9436 60.4991 84.9553C60.4991 84.967 60.4991 84.9788 60.4991 84.9907C60.4991 85.0025 60.4991 85.0144 60.4991 85.0264C60.4991 85.0383 60.4991 85.0503 60.4991 85.0624C60.4991 85.0745 60.4991 85.0867 60.4991 85.0989C60.4991 85.1111 60.4991 85.1234 60.4991 85.1358C60.4991 85.1481 60.4991 85.1606 60.4991 85.1731C60.4991 85.1856 60.4991 85.1981 60.4991 85.2107C60.4991 85.2234 60.4991 85.2361 60.4991 85.2488C60.4991 85.2616 60.4991 85.2745 60.4991 85.2874C60.4991 85.3003 60.4991 85.3133 60.4991 85.3263C60.4991 85.3394 60.4991 85.3525 60.4991 85.3657C60.4991 85.3789 60.4991 85.3922 60.4991 85.4055C60.4991 85.4188 60.4991 85.4323 60.4991 85.4458C60.4991 85.4593 60.4991 85.4728 60.4991 85.4865C60.4991 85.5001 60.4991 85.5138 60.4991 85.5276C60.4991 85.5414 60.4991 85.5553 60.4991 85.5693C60.4991 85.5832 60.4991 85.5972 60.4991 85.6114C60.4991 85.6255 60.4991 85.6396 60.4991 85.6539C60.4991 85.6682 60.4991 85.6825 60.4991 85.697C60.4991 85.7114 60.4991 85.7259 60.4991 85.7405C60.4991 85.7551 60.4991 85.7698 60.4991 85.7845C60.4991 85.7993 60.4991 85.8141 60.4991 85.829C60.4991 85.844 60.4991 85.859 60.4991 85.8741C60.4991 85.8892 60.4991 85.9043 60.4991 85.9196C60.4991 85.9349 60.4991 85.9502 60.4991 85.9656C60.4991 85.9811 60.4991 85.9966 60.4991 86.0122C60.4991 86.0278 60.4991 86.0435 60.4991 86.0593C60.4991 86.0751 60.4991 86.091 60.4991 86.1069C60.4991 86.1229 60.4991 86.139 60.4991 86.1551C60.4991 86.1712 60.4991 86.1875 60.4991 86.2038C60.4991 86.2201 60.4991 86.2366 60.4991 86.2531C60.4991 86.2696 60.4991 86.2862 60.4991 86.3029C60.4991 86.3196 60.4991 86.3364 60.4991 86.3533C60.4991 86.3702 60.4991 86.3871 60.4991 86.4042C60.4991 86.4213 60.4991 86.4385 60.4991 86.4557C60.4991 86.473 60.4991 86.4904 60.4991 86.5079C60.4991 86.5253 60.4991 86.5429 60.4991 86.5605C60.4991 86.5782 60.4991 86.596 60.4991 86.6138C60.4991 86.6317 60.4991 86.6496 60.4991 86.6677C60.4991 86.6858 60.4991 86.7039 60.4991 86.7222C60.4991 86.7404 60.4991 86.7588 60.4991 86.7773C60.4991 86.7957 60.4991 86.8143 60.4991 86.833C60.4991 86.8517 60.4991 86.8704 60.4991 86.8893C60.4991 86.9082 60.4991 86.9272 60.4991 86.9463C60.4991 86.9654 60.4991 86.9846 60.4991 87.0039C60.4991 87.0232 60.4991 87.0426 60.4991 87.0621C60.4991 87.0816 60.4991 87.1012 60.4991 87.121C60.4991 87.1407 60.4991 87.1605 60.4991 87.1805C60.4991 87.2004 60.4991 87.2205 60.4991 87.2407C60.4991 87.2608 60.4991 87.2811 60.4991 87.3015C60.4991 87.3219 60.4991 87.3424 60.4991 87.363C60.4991 87.3837 60.4991 87.4044 60.4991 87.4252C60.4991 87.4461 60.4991 87.467 60.4991 87.4881C60.4991 87.5092 60.4991 87.5303 60.4991 87.5516C60.4991 87.5729 60.4991 87.5944 60.4991 87.6159C60.4991 87.6374 60.4991 87.6591 60.4991 87.6808C60.4991 87.7026 60.4991 87.7245 60.4991 87.7465C60.4991 87.7685 60.4991 87.7906 60.4991 87.8129C60.4991 87.8351 60.4991 87.8575 60.4991 87.8799C60.4991 87.9024 60.4991 87.925 60.4991 87.9477C60.4991 87.9705 60.4991 87.9933 60.4991 88.0163C60.4991 88.0392 60.4991 88.0623 60.4991 88.0855C60.4991 88.1087 60.4991 88.1321 60.4991 88.1555C60.4991 88.179 60.4991 88.2026 60.4991 88.2263C60.4991 88.25 60.4991 88.2738 60.4991 88.2978C60.4991 88.3217 60.4991 88.3458 60.4991 88.37C60.4991 88.3942 60.4991 88.4186 60.4991 88.443C60.4991 88.4675 60.4991 88.4921 60.4991 88.5168C60.4991 88.5416 60.4991 88.5664 60.4991 88.5914C60.4991 88.6164 60.4991 88.6415 60.4991 88.6667C60.4991 88.692 60.4991 88.7174 60.4991 88.7429C60.4991 88.7684 60.4991 88.794 60.4991 88.8198C60.4991 88.8456 60.4991 88.8715 60.4991 88.8975C60.4991 88.9236 60.4991 88.9497 60.4991 88.9761C60.4991 89.0024 60.4991 89.0288 60.4991 89.0554C60.4991 89.082 60.4991 89.1087 60.4991 89.1355C60.4991 89.1624 60.4991 89.1894 60.4991 89.2165C60.4991 89.2437 60.4991 89.2709 60.4991 89.2983C60.4991 89.3257 60.4991 89.3533 60.4991 89.381C60.4991 89.4087 60.4991 89.4365 60.4991 89.4645C60.4991 89.4924 60.4991 89.5205 60.4991 89.5488C60.4991 89.577 60.4991 89.6054 60.4991 89.634C60.4991 89.6625 60.4991 89.6912 60.4991 89.72C60.4991 89.7488 60.4991 89.7778 60.4991 89.8069C60.4991 89.836 60.4991 89.8653 60.4991 89.8947C60.4991 89.9241 60.4991 89.9536 60.4991 89.9833C60.4991 90.013 60.4991 90.0429 60.4991 90.0729C60.4991 90.1029 60.4991 90.133 60.4991 90.1633C60.4991 90.1936 60.4991 90.224 60.4991 90.2546C60.4991 90.2852 60.4991 90.3159 60.4991 90.3468C60.4991 90.3777 60.4991 90.4087 60.4991 90.4399C60.4991 90.4711 60.4991 90.5024 60.4991 90.5339C60.4991 90.5654 60.4991 90.5971 60.4991 90.6289C60.4991 90.6607 60.4991 90.6926 60.4991 90.7248C60.4991 90.7569 60.4991 90.7891 60.4991 90.8216C60.4991 90.854 60.4991 90.8866 60.4991 90.9193C60.4991 90.952 60.4991 90.9849 60.4991 91.018C60.4991 91.051 60.4991 91.0842 60.4991 91.1176C60.4991 91.1509 60.4991 91.1845 60.4991 91.2182C60.4991 91.2518 60.4991 91.2857 60.4991 91.3197C60.4991 91.3537 60.4991 91.3879 60.4991 91.4222C60.4991 91.4565 60.4991 91.491 60.4991 91.5257C60.4991 91.5603 60.4991 91.5951 60.4991 91.6301C60.4991 91.6651 60.4991 91.7002 60.4991 91.7355C60.4991 91.7708 60.4991 91.8063 60.4991 91.8419C60.4991 91.8776 60.4991 91.9134 60.4991 91.9493C60.4991 91.9853 60.4991 92.0214 60.4991 92.0578C60.4991 92.0941 60.4991 92.1305 60.4991 92.1672C60.4991 92.2038 60.4991 92.2406 60.4991 92.2776C60.4991 92.3146 60.4991 92.3517 60.4991 92.389C60.4991 92.4264 60.4991 92.4638 60.4991 92.5015C60.4991 92.5392 60.4991 92.577 60.4991 92.615C60.4991 92.653 60.4991 92.6912 60.4991 92.7295C60.4991 92.7679 60.4991 92.8064 60.4991 92.8451C60.4991 92.8838 60.4991 92.9227 60.4991 92.9617C60.4991 93.0008 60.4991 93.04 60.4991 93.0794C60.4991 93.1188 60.4991 93.1584 60.4991 93.1981C60.4991 93.2379 60.4991 93.2778 60.4991 93.3179C60.4991 93.358 60.4991 93.3983 60.4991 93.4388C60.4991 93.4793 60.4991 93.5199 60.4991 93.5608C60.4991 93.6016 60.4991 93.6426 60.4991 93.6838C60.4991 93.725 60.4991 93.7663 60.4991 93.8079C60.4991 93.8495 60.4991 93.8912 60.4991 93.9331C60.4991 93.975 60.4991 94.0171 60.4991 94.0594C60.4991 94.1017 60.4991 94.1442 60.4991 94.1869C60.4991 94.2295 60.4991 94.2724 60.4991 94.3154C60.4991 94.3584 60.4991 94.4016 60.4991 94.445C60.4991 94.4884 60.4991 94.532 60.4991 94.5758C60.4991 94.6196 60.4991 94.6636 60.4991 94.7077C60.4991 94.7519 60.4991 94.7962 60.4991 94.8408C60.4991 94.8853 60.4991 94.93 60.4991 94.9749C60.4991 95.0199 60.4991 95.065 60.4991 95.1103C60.4991 95.1556 60.4991 95.2011 60.4991 95.2468C60.4991 95.2925 60.4991 95.3383 60.4991 95.3844C60.4991 95.4305 60.4991 95.4768 60.4991 95.5232C60.4991 95.5697 60.4991 95.6163 60.4991 95.6632C60.4991 95.7101 60.4991 95.7571 60.4991 95.8044C60.4991 95.8516 60.4991 95.8991 60.4991 95.9467C60.4991 95.9944 60.4991 96.0422 60.4991 96.0902C60.4991 96.1383 60.4991 96.1865 60.4991 96.235C60.4991 96.2834 60.4991 96.3321 60.4991 96.3809C60.4991 96.4297 60.4991 96.4788 60.4991 96.528C60.4991 96.5773 60.4991 96.6267 60.4991 96.6764C60.4991 96.726 60.4991 96.7759 60.4991 96.826C60.4991 96.876 60.4991 96.9263 60.4991 96.9768C60.4991 97.0272 60.4991 97.0779 60.4991 97.1288C60.4991 97.1797 60.4991 97.2308 60.4991 97.282C60.4991 97.3333 60.4991 97.3848 60.4991 97.4365C60.4991 97.4883 60.4991 97.5402 60.4991 97.5923C60.4991 97.6444 60.4991 97.6968 60.4991 97.7493C60.4991 97.8019 60.4991 97.8546 60.4991 97.9076C60.4991 97.9605 60.4991 98.0137 60.4991 98.0671C60.4991 98.1205 60.4991 98.1741 60.4991 98.2279C60.4991 98.2817 60.4991 98.3358 60.4991 98.39C60.4991 98.4442 60.4991 98.4987 60.4991 98.5534C60.4991 98.608 60.4991 98.6629 60.4991 98.718C60.4991 98.7731 60.4991 98.8284 60.4991 98.884C60.4991 98.9395 60.4991 98.9953 60.4991 99.0512C60.4991 99.1072 60.4991 99.1634 60.4991 99.2198C60.4991 99.2762 60.4991 99.3328 60.4991 99.3897C60.4991 99.4465 60.4991 99.5036 60.4991 99.5609C60.4991 99.6182 60.4991 99.6757 60.4991 99.7334H58.4991ZM58.4991 53.2334C58.4991 44.2929 55.2597 37.7318 50.4703 33.413C45.6638 29.0788 39.2285 26.943 32.7592 27.0035C26.2897 27.064 19.8464 29.3206 15.0319 33.692C10.2342 38.0481 7.00031 44.5511 7.00013 53.2334L5.00013 53.2334C5.00032 44.0124 8.45396 36.9631 13.6874 32.2113C18.9041 27.4748 25.8355 25.0681 32.7406 25.0036C39.6459 24.9391 46.5853 27.2166 51.8097 31.9277C57.0513 36.6543 60.4991 43.7707 60.4991 53.2334H58.4991ZM7.00013 53.2334C6.99973 72.6607 7.0004 63.163 7.00023 155.233H5.00023C5.0004 63.1631 4.99973 72.6606 5.00013 53.2334L7.00013 53.2334ZM127.5 11.501C127.5 11.5677 127.5 11.6346 127.5 11.7015C127.5 11.7684 127.5 11.8354 127.5 11.9025C127.5 11.9695 127.5 12.0367 127.5 12.104C127.5 12.1712 127.5 12.2386 127.5 12.306C127.5 12.3734 127.5 12.4409 127.5 12.5085C127.5 12.5761 127.5 12.6438 127.5 12.7115C127.5 12.7793 127.5 12.8471 127.5 12.915C127.5 12.983 127.5 13.051 127.5 13.119C127.5 13.1871 127.5 13.2553 127.5 13.3235C127.5 13.3918 127.5 13.4601 127.5 13.5285C127.5 13.5969 127.5 13.6654 127.5 13.734C127.5 13.8026 127.5 13.8712 127.5 13.9399C127.5 14.0087 127.5 14.0775 127.5 14.1464C127.5 14.2153 127.5 14.2842 127.5 14.3533C127.5 14.4223 127.5 14.4914 127.5 14.5606C127.5 14.6298 127.5 14.6991 127.5 14.7685C127.5 14.8378 127.5 14.9073 127.5 14.9768C127.5 15.0463 127.5 15.1159 127.5 15.1855C127.5 15.2552 127.5 15.3249 127.5 15.3947C127.5 15.4645 127.5 15.5344 127.5 15.6044C127.5 15.6743 127.5 15.7444 127.5 15.8145C127.5 15.8846 127.5 15.9548 127.5 16.025C127.5 16.0953 127.5 16.1656 127.5 16.236C127.5 16.3064 127.5 16.3769 127.5 16.4474C127.5 16.518 127.5 16.5886 127.5 16.6593C127.5 16.73 127.5 16.8008 127.5 16.8716C127.5 16.9424 127.5 17.0133 127.5 17.0843C127.5 17.1553 127.5 17.2263 127.5 17.2974C127.5 17.3686 127.5 17.4397 127.5 17.511C127.5 17.5823 127.5 17.6536 127.5 17.725C127.5 17.7964 127.5 17.8678 127.5 17.9394C127.5 18.0109 127.5 18.0825 127.5 18.1542C127.5 18.2258 127.5 18.2976 127.5 18.3694C127.5 18.4412 127.5 18.513 127.5 18.5849C127.5 18.6569 127.5 18.7289 127.5 18.8009C127.5 18.873 127.5 18.9451 127.5 19.0173C127.5 19.0895 127.5 19.1618 127.5 19.2341C127.5 19.3064 127.5 19.3788 127.5 19.4513C127.5 19.5237 127.5 19.5963 127.5 19.6688C127.5 19.7414 127.5 19.8141 127.5 19.8868C127.5 19.9595 127.5 20.0323 127.5 20.1051C127.5 20.1779 127.5 20.2508 127.5 20.3238C127.5 20.3967 127.5 20.4697 127.5 20.5428C127.5 20.6159 127.5 20.689 127.5 20.7622C127.5 20.8354 127.5 20.9087 127.5 20.982C127.5 21.0553 127.5 21.1287 127.5 21.2022C127.5 21.2756 127.5 21.3491 127.5 21.4226C127.5 21.4962 127.5 21.5698 127.5 21.6435C127.5 21.7172 127.5 21.7909 127.5 21.8647C127.5 21.9385 127.5 22.0123 127.5 22.0862C127.5 22.1601 127.5 22.2341 127.5 22.3081C127.5 22.3821 127.5 22.4562 127.5 22.5303C127.5 22.6044 127.5 22.6786 127.5 22.7529C127.5 22.8271 127.5 22.9014 127.5 22.9757C127.5 23.0501 127.5 23.1245 127.5 23.199C127.5 23.2734 127.5 23.3479 127.5 23.4225C127.5 23.497 127.5 23.5717 127.5 23.6463C127.5 23.721 127.5 23.7957 127.5 23.8705C127.5 23.9453 127.5 24.0201 127.5 24.095C127.5 24.1699 127.5 24.2448 127.5 24.3198C127.5 24.3947 127.5 24.4698 127.5 24.5449C127.5 24.6199 127.5 24.6951 127.5 24.7702C127.5 24.8454 127.5 24.9207 127.5 24.9959C127.5 25.0712 127.5 25.1465 127.5 25.2219C127.5 25.2973 127.5 25.3727 127.5 25.4482C127.5 25.5237 127.5 25.5992 127.5 25.6748C127.5 25.7503 127.5 25.826 127.5 25.9016C127.5 25.9773 127.5 26.053 127.5 26.1288C127.5 26.2045 127.5 26.2803 127.5 26.3562C127.5 26.432 127.5 26.5079 127.5 26.5838C127.5 26.6598 127.5 26.7358 127.5 26.8118C127.5 26.8878 127.5 26.9639 127.5 27.04C127.5 27.1161 127.5 27.1923 127.5 27.2685C127.5 27.3447 127.5 27.4209 127.5 27.4972C127.5 27.5735 127.5 27.6499 127.5 27.7262C127.5 27.8026 127.5 27.879 127.5 27.9555C127.5 28.0319 127.5 28.1084 127.5 28.185C127.5 28.2615 127.5 28.3381 127.5 28.4147C127.5 28.4913 127.5 28.568 127.5 28.6447C127.5 28.7214 127.5 28.7981 127.5 28.8749C127.5 28.9517 127.5 29.0285 127.5 29.1054C127.5 29.1822 127.5 29.2591 127.5 29.336C127.5 29.413 127.5 29.49 127.5 29.567C127.5 29.644 127.5 29.721 127.5 29.7981C127.5 29.8752 127.5 29.9523 127.5 30.0295C127.5 30.1066 127.5 30.1838 127.5 30.261C127.5 30.3383 127.5 30.4155 127.5 30.4928C127.5 30.5701 127.5 30.6474 127.5 30.7248C127.5 30.8022 127.5 30.8796 127.5 30.957C127.5 31.0344 127.5 31.1119 127.5 31.1894C127.5 31.2669 127.5 31.3444 127.5 31.422C127.5 31.4996 127.5 31.5772 127.5 31.6548C127.5 31.7324 127.5 31.8101 127.5 31.8878C127.5 31.9655 127.5 32.0432 127.5 32.121C127.5 32.1987 127.5 32.2765 127.5 32.3543C127.5 32.4322 127.5 32.51 127.5 32.5879C127.5 32.6658 127.5 32.7437 127.5 32.8216C127.5 32.8995 127.5 32.9775 127.5 33.0555C127.5 33.1335 127.5 33.2115 127.5 33.2896C127.5 33.3676 127.5 33.4457 127.5 33.5238C127.5 33.6019 127.5 33.68 127.5 33.7582C127.5 33.8363 127.5 33.9145 127.5 33.9927C127.5 34.071 127.5 34.1492 127.5 34.2275C127.5 34.3057 127.5 34.384 127.5 34.4623C127.5 34.5406 127.5 34.619 127.5 34.6973C127.5 34.7757 127.5 34.8541 127.5 34.9325C127.5 35.0109 127.5 35.0893 127.5 35.1678C127.5 35.2462 127.5 35.3247 127.5 35.4032C127.5 35.4817 127.5 35.5602 127.5 35.6388C127.5 35.7173 127.5 35.7959 127.5 35.8745C127.5 35.9531 127.5 36.0317 127.5 36.1103C127.5 36.189 127.5 36.2676 127.5 36.3463C127.5 36.425 127.5 36.5037 127.5 36.5824C127.5 36.6611 127.5 36.7398 127.5 36.8186C127.5 36.8973 127.5 36.9761 127.5 37.0549C127.5 37.1337 127.5 37.2125 127.5 37.2913C127.5 37.3701 127.5 37.449 127.5 37.5278C127.5 37.6067 127.5 37.6855 127.5 37.7644C127.5 37.8433 127.5 37.9222 127.5 38.0012C127.5 38.0801 127.5 38.159 127.5 38.238C127.5 38.3169 127.5 38.3959 127.5 38.4749C127.5 38.5539 127.5 38.6329 127.5 38.7119C127.5 38.7909 127.5 38.8699 127.5 38.949C127.5 39.028 127.5 39.1071 127.5 39.1862C127.5 39.2652 127.5 39.3443 127.5 39.4234C127.5 39.5025 127.5 39.5816 127.5 39.6607C127.5 39.7398 127.5 39.819 127.5 39.8981C127.5 39.9773 127.5 40.0564 127.5 40.1356C127.5 40.2147 127.5 40.2939 127.5 40.3731C127.5 40.4523 127.5 40.5315 127.5 40.6107C127.5 40.6899 127.5 40.7691 127.5 40.8483C127.5 40.9275 127.5 41.0068 127.5 41.086C127.5 41.1653 127.5 41.2445 127.5 41.3238C127.5 41.403 127.5 41.4823 127.5 41.5616C127.5 41.6408 127.5 41.7201 127.5 41.7994C127.5 41.8787 127.5 41.958 127.5 42.0373C127.5 42.1166 127.5 42.1959 127.5 42.2752C127.5 42.3545 127.5 42.4338 127.5 42.5131C127.5 42.5924 127.5 42.6717 127.5 42.7511C127.5 42.8304 127.5 42.9097 127.5 42.9891C127.5 43.0684 127.5 43.1477 127.5 43.2271C127.5 43.3064 127.5 43.3857 127.5 43.4651C127.5 43.5444 127.5 43.6238 127.5 43.7031C127.5 43.7825 127.5 43.8618 127.5 43.9412C127.5 44.0205 127.5 44.0999 127.5 44.1793C127.5 44.2586 127.5 44.338 127.5 44.4173C127.5 44.4967 127.5 44.576 127.5 44.6554C127.5 44.7347 127.5 44.8141 127.5 44.8934C127.5 44.9728 127.5 45.0521 127.5 45.1315C127.5 45.2108 127.5 45.2902 127.5 45.3695C127.5 45.4489 127.5 45.5282 127.5 45.6076C127.5 45.6869 127.5 45.7662 127.5 45.8456C127.5 45.9249 127.5 46.0042 127.5 46.0836C127.5 46.1629 127.5 46.2422 127.5 46.3215C127.5 46.4008 127.5 46.4802 127.5 46.5595C127.5 46.6388 127.5 46.7181 127.5 46.7974C127.5 46.8767 127.5 46.9559 127.5 47.0352C127.5 47.1145 127.5 47.1938 127.5 47.2731C127.5 47.3523 127.5 47.4316 127.5 47.5108C127.5 47.5901 127.5 47.6693 127.5 47.7486C127.5 47.8278 127.5 47.907 127.5 47.9863C127.5 48.0655 127.5 48.1447 127.5 48.2239C127.5 48.3031 127.5 48.3823 127.5 48.4615C127.5 48.5407 127.5 48.6198 127.5 48.699C127.5 48.7782 127.5 48.8573 127.5 48.9365C127.5 49.0156 127.5 49.0947 127.5 49.1738C127.5 49.253 127.5 49.3321 127.5 49.4112C127.5 49.4902 127.5 49.5693 127.5 49.6484C127.5 49.7275 127.5 49.8065 127.5 49.8856C127.5 49.9646 127.5 50.0436 127.5 50.1226C127.5 50.2016 127.5 50.2806 127.5 50.3596C127.5 50.4386 127.5 50.5176 127.5 50.5965C127.5 50.6755 127.5 50.7544 127.5 50.8333C127.5 50.9123 127.5 50.9912 127.5 51.0701C127.5 51.1489 127.5 51.2278 127.5 51.3067C127.5 51.3855 127.5 51.4644 127.5 51.5432C127.5 51.622 127.5 51.7008 127.5 51.7796C127.5 51.8584 127.5 51.9371 127.5 52.0159C127.5 52.0946 127.5 52.1734 127.5 52.2521C127.5 52.3308 127.5 52.4095 127.5 52.4881C127.5 52.5668 127.5 52.6455 127.5 52.7241C127.5 52.8027 127.5 52.8813 127.5 52.9599C127.5 53.0385 127.5 53.117 127.5 53.1956C127.5 53.2741 127.5 53.3526 127.5 53.4311C127.5 53.5096 127.5 53.5881 127.5 53.6666C127.5 53.745 127.5 53.8234 127.5 53.9019C127.5 53.9803 127.5 54.0586 127.5 54.137C127.5 54.2154 127.5 54.2937 127.5 54.372C127.5 54.4503 127.5 54.5286 127.5 54.6068C127.5 54.6851 127.5 54.7633 127.5 54.8415C127.5 54.9197 127.5 54.9979 127.5 55.0761C127.5 55.1542 127.5 55.2324 127.5 55.3105C127.5 55.3885 127.5 55.4666 127.5 55.5447C127.5 55.6227 127.5 55.7007 127.5 55.7787C127.5 55.8567 127.5 55.9347 127.5 56.0126C127.5 56.0905 127.5 56.1684 127.5 56.2463C127.5 56.3242 127.5 56.402 127.5 56.4798C127.5 56.5576 127.5 56.6354 127.5 56.7132C127.5 56.7909 127.5 56.8686 127.5 56.9463C127.5 57.024 127.5 57.1017 127.5 57.1793C127.5 57.2569 127.5 57.3345 127.5 57.4121C127.5 57.4896 127.5 57.5672 127.5 57.6446C127.5 57.7221 127.5 57.7996 127.5 57.877C127.5 57.9545 127.5 58.0318 127.5 58.1092C127.5 58.1866 127.5 58.2639 127.5 58.3412C127.5 58.4185 127.5 58.4957 127.5 58.5729C127.5 58.6502 127.5 58.7273 127.5 58.8045C127.5 58.8816 127.5 58.9588 127.5 59.0358C127.5 59.1129 127.5 59.1899 127.5 59.2669C127.5 59.3439 127.5 59.4209 127.5 59.4978C127.5 59.5748 127.5 59.6516 127.5 59.7285C127.5 59.8053 127.5 59.8821 127.5 59.9589C127.5 60.0357 127.5 60.1124 127.5 60.1891C127.5 60.2658 127.5 60.3425 127.5 60.4191C127.5 60.4957 127.5 60.5723 127.5 60.6488C127.5 60.7253 127.5 60.8018 127.5 60.8783C127.5 60.9547 127.5 61.0311 127.5 61.1075C127.5 61.1838 127.5 61.2602 127.5 61.3364C127.5 61.4127 127.5 61.489 127.5 61.5652C127.5 61.6414 127.5 61.7175 127.5 61.7936C127.5 61.8697 127.5 61.9458 127.5 62.0218C127.5 62.0978 127.5 62.1738 127.5 62.2497C127.5 62.3257 127.5 62.4015 127.5 62.4774C127.5 62.5532 127.5 62.629 127.5 62.7048C127.5 62.7805 127.5 62.8562 127.5 62.9319C127.5 63.0075 127.5 63.0831 127.5 63.1587C127.5 63.2342 127.5 63.3098 127.5 63.3852C127.5 63.4607 127.5 63.5361 127.5 63.6115C127.5 63.6868 127.5 63.7622 127.5 63.8374C127.5 63.9127 127.5 63.9879 127.5 64.0631C127.5 64.1383 127.5 64.2134 127.5 64.2884C127.5 64.3635 127.5 64.4385 127.5 64.5135C127.5 64.5885 127.5 64.6634 127.5 64.7383C127.5 64.8131 127.5 64.8879 127.5 64.9627C127.5 65.0375 127.5 65.1122 127.5 65.1868C127.5 65.2615 127.5 65.3361 127.5 65.4107C127.5 65.4852 127.5 65.5597 127.5 65.6342C127.5 65.7086 127.5 65.783 127.5 65.8573C127.5 65.9317 127.5 66.0059 127.5 66.0802C127.5 66.1544 127.5 66.2286 127.5 66.3027C127.5 66.3768 127.5 66.4509 127.5 66.5249C127.5 66.5989 127.5 66.6728 127.5 66.7467C127.5 66.8206 127.5 66.8944 127.5 66.9682C127.5 67.042 127.5 67.1157 127.5 67.1894C127.5 67.263 127.5 67.3366 127.5 67.4102C127.5 67.4837 127.5 67.5572 127.5 67.6306C127.5 67.7041 127.5 67.7774 127.5 67.8507C127.5 67.924 127.5 67.9973 127.5 68.0705C127.5 68.1437 127.5 68.2168 127.5 68.2899C127.5 68.3629 127.5 68.4359 127.5 68.5089C127.5 68.5818 127.5 68.6547 127.5 68.7275C127.5 68.8003 127.5 68.8731 127.5 68.9458C127.5 69.0185 127.5 69.0911 127.5 69.1637C127.5 69.2362 127.5 69.3087 127.5 69.3812C127.5 69.4536 127.5 69.526 127.5 69.5983C127.5 69.6706 127.5 69.7429 127.5 69.8151C127.5 69.8872 127.5 69.9594 127.5 70.0314C127.5 70.1035 127.5 70.1754 127.5 70.2474C127.5 70.3193 127.5 70.3911 127.5 70.4629C127.5 70.5347 127.5 70.6064 127.5 70.6781C127.5 70.7497 127.5 70.8213 127.5 70.8928C127.5 70.9643 127.5 71.0358 127.5 71.1072C127.5 71.1786 127.5 71.2499 127.5 71.3211C127.5 71.3923 127.5 71.4635 127.5 71.5346C127.5 71.6057 127.5 71.6768 127.5 71.7477C127.5 71.8187 127.5 71.8896 127.5 71.9604C127.5 72.0312 127.5 72.1019 127.5 72.1726C127.5 72.2433 127.5 72.3139 127.5 72.3844C127.5 72.455 127.5 72.5254 127.5 72.5958C127.5 72.6662 127.5 72.7365 127.5 72.8068C127.5 72.877 127.5 72.9472 127.5 73.0173C127.5 73.0874 127.5 73.1574 127.5 73.2273C127.5 73.2973 127.5 73.3671 127.5 73.4369C127.5 73.5067 127.5 73.5764 127.5 73.6461C127.5 73.7157 127.5 73.7853 127.5 73.8548C127.5 73.9243 127.5 73.9937 127.5 74.063C127.5 74.1324 127.5 74.2016 127.5 74.2708C127.5 74.34 127.5 74.4091 127.5 74.4781C127.5 74.5472 127.5 74.6161 127.5 74.685C127.5 74.7539 127.5 74.8227 127.5 74.8914C127.5 74.9601 127.5 75.0287 127.5 75.0973C127.5 75.1658 127.5 75.2343 127.5 75.3027C127.5 75.3711 127.5 75.4394 127.5 75.5076C127.5 75.5759 127.5 75.644 127.5 75.7121C127.5 75.7801 127.5 75.8481 127.5 75.916C127.5 75.9839 127.5 76.0518 127.5 76.1195C127.5 76.1872 127.5 76.2549 127.5 76.3225C127.5 76.39 127.5 76.4575 127.5 76.5249C127.5 76.5923 127.5 76.6596 127.5 76.7269C127.5 76.7941 127.5 76.8613 127.5 76.9283C127.5 76.9954 127.5 77.0624 127.5 77.1293C127.5 77.1962 127.5 77.263 127.5 77.3297C127.5 77.3964 127.5 77.4631 127.5 77.5296C127.5 77.5962 127.5 77.6626 127.5 77.729C127.5 77.7954 127.5 77.8616 127.5 77.9278C127.5 77.994 127.5 78.0602 127.5 78.1262C127.5 78.1922 127.5 78.2581 127.5 78.324C127.5 78.3898 127.5 78.4556 127.5 78.5212C127.5 78.5869 127.5 78.6525 127.5 78.7179C127.5 78.7834 127.5 78.8488 127.5 78.9141C127.5 78.9794 127.5 79.0446 127.5 79.1097C127.5 79.1749 127.5 79.2399 127.5 79.3048C127.5 79.3698 127.5 79.4346 127.5 79.4993C127.5 79.5641 127.5 79.6287 127.5 79.6933C127.5 79.7579 127.5 79.8223 127.5 79.8867C127.5 79.9511 127.5 80.0154 127.5 80.0795C127.5 80.1437 127.5 80.2078 127.5 80.2718C127.5 80.3358 127.5 80.3997 127.5 80.4635C127.5 80.5273 127.5 80.591 127.5 80.6546C127.5 80.7182 127.5 80.7817 127.5 80.8452C127.5 80.9086 127.5 80.9719 127.5 81.0351C127.5 81.0983 127.5 81.1615 127.5 81.2245C127.5 81.2875 127.5 81.3504 127.5 81.4133C127.5 81.4761 127.5 81.5388 127.5 81.6015C127.5 81.6641 127.5 81.7266 127.5 81.789C127.5 81.8515 127.5 81.9138 127.5 81.976C127.5 82.0383 127.5 82.1004 127.5 82.1624C127.5 82.2244 127.5 82.2864 127.5 82.3482C127.5 82.41 127.5 82.4717 127.5 82.5334C127.5 82.595 127.5 82.6565 127.5 82.7179C127.5 82.7793 127.5 82.8406 127.5 82.9018C127.5 82.963 127.5 83.0241 127.5 83.0852C127.5 83.1461 127.5 83.207 127.5 83.2678C127.5 83.3286 127.5 83.3893 127.5 83.4499C127.5 83.5105 127.5 83.5709 127.5 83.6313C127.5 83.6917 127.5 83.7519 127.5 83.8121C127.5 83.8723 127.5 83.9323 127.5 83.9922C127.5 84.0522 127.5 84.112 127.5 84.1717C127.5 84.2315 127.5 84.2911 127.5 84.3506C127.5 84.4101 127.5 84.4695 127.5 84.5288C127.5 84.5881 127.5 84.6473 127.5 84.7064C127.5 84.7654 127.5 84.8244 127.5 84.8833C127.5 84.9421 127.5 85.0009 127.5 85.0595C127.5 85.1181 127.5 85.1766 127.5 85.2351C127.5 85.2935 127.5 85.3518 127.5 85.41C127.5 85.4681 127.5 85.5262 127.5 85.5842C127.5 85.6422 127.5 85.7 127.5 85.7577C127.5 85.8155 127.5 85.8731 127.5 85.9306C127.5 85.9881 127.5 86.0455 127.5 86.1028C127.5 86.1601 127.5 86.2173 127.5 86.2743C127.5 86.3314 127.5 86.3883 127.5 86.4451C127.5 86.5019 127.5 86.5587 127.5 86.6152C127.5 86.6718 127.5 86.7283 127.5 86.7847C127.5 86.841 127.5 86.8973 127.5 86.9534C127.5 87.0095 127.5 87.0655 127.5 87.1214C127.5 87.1773 127.5 87.2331 127.5 87.2887C127.5 87.3444 127.5 87.3999 127.5 87.4553C127.5 87.5108 127.5 87.5661 127.5 87.6212C127.5 87.6764 127.5 87.7315 127.5 87.7864C127.5 87.8413 127.5 87.8962 127.5 87.9509C127.5 88.0056 127.5 88.0601 127.5 88.1146C127.5 88.169 127.5 88.2234 127.5 88.2776C127.5 88.3318 127.5 88.3859 127.5 88.4398C127.5 88.4938 127.5 88.5477 127.5 88.6014C127.5 88.6551 127.5 88.7087 127.5 88.7622C127.5 88.8156 127.5 88.869 127.5 88.9222C127.5 88.9754 127.5 89.0285 127.5 89.0815C127.5 89.1345 127.5 89.1873 127.5 89.2401C127.5 89.2928 127.5 89.3454 127.5 89.3979C127.5 89.4503 127.5 89.5027 127.5 89.5549C127.5 89.6071 127.5 89.6592 127.5 89.7112C127.5 89.7631 127.5 89.815 127.5 89.8667C127.5 89.9184 127.5 89.97 127.5 90.0214C127.5 90.0729 127.5 90.1242 127.5 90.1754C127.5 90.2266 127.5 90.2777 127.5 90.3286C127.5 90.3796 127.5 90.4304 127.5 90.481C127.5 90.5317 127.5 90.5823 127.5 90.6327C127.5 90.6831 127.5 90.7334 127.5 90.7835C127.5 90.8337 127.5 90.8837 127.5 90.9336C127.5 90.9835 127.5 91.0332 127.5 91.0829C127.5 91.1325 127.5 91.182 127.5 91.2314C127.5 91.2807 127.5 91.3299 127.5 91.379C127.5 91.4281 127.5 91.4771 127.5 91.5259C127.5 91.5747 127.5 91.6234 127.5 91.672C127.5 91.7205 127.5 91.769 127.5 91.8172C127.5 91.8655 127.5 91.9137 127.5 91.9617C127.5 92.0097 127.5 92.0576 127.5 92.1053C127.5 92.153 127.5 92.2006 127.5 92.2481C127.5 92.2956 127.5 92.3429 127.5 92.3901C127.5 92.4373 127.5 92.4843 127.5 92.5312C127.5 92.5782 127.5 92.6249 127.5 92.6716C127.5 92.7182 127.5 92.7647 127.5 92.8111C127.5 92.8574 127.5 92.9036 127.5 92.9497C127.5 92.9958 127.5 93.0417 127.5 93.0875C127.5 93.1333 127.5 93.1789 127.5 93.2245C127.5 93.27 127.5 93.3153 127.5 93.3606C127.5 93.4058 127.5 93.4509 127.5 93.4958C127.5 93.5408 127.5 93.5856 127.5 93.6302C127.5 93.6749 127.5 93.7194 127.5 93.7638C127.5 93.8081 127.5 93.8524 127.5 93.8964C127.5 93.9405 127.5 93.9845 127.5 94.0283C127.5 94.072 127.5 94.1157 127.5 94.1592C127.5 94.2027 127.5 94.246 127.5 94.2893C127.5 94.3325 127.5 94.3755 127.5 94.4184C127.5 94.4614 127.5 94.5041 127.5 94.5467C127.5 94.5894 127.5 94.6318 127.5 94.6742C127.5 94.7165 127.5 94.7587 127.5 94.8007C127.5 94.8427 127.5 94.8846 127.5 94.9263C127.5 94.9681 127.5 95.0096 127.5 95.0511C127.5 95.0925 127.5 95.1338 127.5 95.1749C127.5 95.216 127.5 95.257 127.5 95.2979C127.5 95.3387 127.5 95.3794 127.5 95.4199C127.5 95.4604 127.5 95.5008 127.5 95.541C127.5 95.5812 127.5 95.6213 127.5 95.6612C127.5 95.7012 127.5 95.7409 127.5 95.7805C127.5 95.8201 127.5 95.8596 127.5 95.8989C127.5 95.9382 127.5 95.9774 127.5 96.0164C127.5 96.0554 127.5 96.0942 127.5 96.1329C127.5 96.1716 127.5 96.2101 127.5 96.2485C127.5 96.2868 127.5 96.3251 127.5 96.3631C127.5 96.4012 127.5 96.4391 127.5 96.4768C127.5 96.5146 127.5 96.5522 127.5 96.5896C127.5 96.6271 127.5 96.6643 127.5 96.7015C127.5 96.7386 127.5 96.7755 127.5 96.8123C127.5 96.8491 127.5 96.8858 127.5 96.9223C127.5 96.9587 127.5 96.9951 127.5 97.0312C127.5 97.0674 127.5 97.1034 127.5 97.1393C127.5 97.1751 127.5 97.2108 127.5 97.2463C127.5 97.2818 127.5 97.3172 127.5 97.3524C127.5 97.3876 127.5 97.4226 127.5 97.4575C127.5 97.4924 127.5 97.5271 127.5 97.5616C127.5 97.5962 127.5 97.6306 127.5 97.6648C127.5 97.699 127.5 97.7331 127.5 97.767C127.5 97.8009 127.5 97.8346 127.5 97.8682C127.5 97.9018 127.5 97.9352 127.5 97.9684C127.5 98.0016 127.5 98.0347 127.5 98.0676C127.5 98.1005 127.5 98.1333 127.5 98.1658C127.5 98.1984 127.5 98.2308 127.5 98.2631C127.5 98.2953 127.5 98.3274 127.5 98.3593C127.5 98.3912 127.5 98.4229 127.5 98.4545C127.5 98.4861 127.5 98.5175 127.5 98.5487C127.5 98.5799 127.5 98.611 127.5 98.6419C127.5 98.6728 127.5 98.7035 127.5 98.7341C127.5 98.7646 127.5 98.795 127.5 98.8252C127.5 98.8555 127.5 98.8855 127.5 98.9154C127.5 98.9452 127.5 98.9749 127.5 99.0045C127.5 99.034 127.5 99.0634 127.5 99.0926C127.5 99.1217 127.5 99.1508 127.5 99.1796C127.5 99.2084 127.5 99.2371 127.5 99.2656C127.5 99.2941 127.5 99.3224 127.5 99.3506C127.5 99.3787 127.5 99.4067 127.5 99.4345C127.5 99.4623 127.5 99.4899 127.5 99.5173C127.5 99.5448 127.5 99.5721 127.5 99.5992C127.5 99.6263 127.5 99.6532 127.5 99.6799C127.5 99.7067 127.5 99.7332 127.5 99.7596C127.5 99.786 127.5 99.8122 127.5 99.8383C127.5 99.8643 127.5 99.8902 127.5 99.9158C127.5 99.9415 127.5 99.967 127.5 99.9924C127.5 100.018 127.5 100.043 127.5 100.068C127.5 100.093 127.5 100.118 127.5 100.142C127.5 100.167 127.5 100.191 127.5 100.215C127.5 100.24 127.5 100.264 127.5 100.288C127.5 100.311 127.5 100.335 127.5 100.359C127.5 100.382 127.5 100.406 127.5 100.429C127.5 100.452 127.5 100.475 127.5 100.498C127.5 100.52 127.5 100.543 127.5 100.565C127.5 100.588 127.5 100.61 127.5 100.632C127.5 100.654 127.5 100.676 127.5 100.698C127.5 100.719 127.5 100.741 127.5 100.762C127.5 100.784 127.5 100.805 127.5 100.826C127.5 100.847 127.5 100.867 127.5 100.888C127.5 100.909 127.5 100.929 127.5 100.949C127.5 100.969 127.5 100.989 127.5 101.009C127.5 101.029 127.5 101.049 127.5 101.068C127.5 101.087 127.5 101.107 127.5 101.126C127.5 101.145 127.5 101.164 127.5 101.182C127.5 101.201 127.5 101.22 127.5 101.238C127.5 101.256 127.5 101.274 127.5 101.292C127.5 101.31 127.5 101.328 127.5 101.346C127.5 101.363 127.5 101.38 127.5 101.398C127.5 101.415 127.5 101.432 127.5 101.449C127.5 101.465 127.5 101.482 127.5 101.498C127.5 101.515 127.5 101.531 127.5 101.547C127.5 101.563 127.5 101.579 127.5 101.594C127.5 101.61 127.5 101.625 127.5 101.641C127.5 101.656 127.5 101.671 127.5 101.686C127.5 101.701 127.5 101.715 127.5 101.73C127.5 101.744 127.5 101.758 127.5 101.772C127.5 101.786 127.5 101.8 127.5 101.814C127.5 101.828 127.5 101.841 127.5 101.854C127.5 101.868 127.5 101.881 127.5 101.894C127.5 101.906 127.5 101.919 127.5 101.932C127.5 101.944 127.5 101.956 127.5 101.968C127.5 101.981 127.5 101.992 127.5 102.004C127.5 102.016 127.5 102.027 127.5 102.039C127.5 102.05 127.5 102.061 127.5 102.072C127.5 102.083 127.5 102.093 127.5 102.104C127.5 102.114 127.5 102.124 127.5 102.135C127.5 102.145 127.5 102.154 127.5 102.164C127.5 102.174 127.5 102.183 127.5 102.193C127.5 102.202 127.5 102.211 127.5 102.22C127.5 102.228 127.5 102.237 127.5 102.246C127.5 102.254 127.5 102.262 127.5 102.27C127.5 102.278 127.5 102.286 127.5 102.294C127.5 102.301 127.5 102.309 127.5 102.316C127.5 102.323 127.5 102.33 127.5 102.337C127.5 102.344 127.5 102.35 127.5 102.357C127.5 102.363 127.5 102.369 127.5 102.375C127.5 102.381 127.5 102.387 127.5 102.392C127.5 102.398 127.5 102.403 127.5 102.408C127.5 102.413 127.5 102.418 127.5 102.423C127.5 102.428 127.5 102.432 127.5 102.437C127.5 102.441 127.5 102.445 127.5 102.449C127.5 102.453 127.5 102.456 127.5 102.46C127.5 102.463 127.5 102.466 127.5 102.469C127.5 102.472 127.5 102.475 127.5 102.478C127.5 102.48 127.5 102.483 127.5 102.485C127.5 102.487 127.5 102.489 127.5 102.491C127.5 102.492 127.5 102.494 127.5 102.495C127.5 102.496 127.5 102.498 127.5 102.498C127.5 102.499 127.5 102.5 127.5 102.5C127.5 102.501 127.5 102.501 126.5 102.501C125.5 102.501 125.5 102.501 125.5 102.5C125.5 102.5 125.5 102.499 125.5 102.498C125.5 102.498 125.5 102.496 125.5 102.495C125.5 102.494 125.5 102.492 125.5 102.491C125.5 102.489 125.5 102.487 125.5 102.485C125.5 102.483 125.5 102.48 125.5 102.478C125.5 102.475 125.5 102.472 125.5 102.469C125.5 102.466 125.5 102.463 125.5 102.46C125.5 102.456 125.5 102.453 125.5 102.449C125.5 102.445 125.5 102.441 125.5 102.437C125.5 102.432 125.5 102.428 125.5 102.423C125.5 102.418 125.5 102.413 125.5 102.408C125.5 102.403 125.5 102.398 125.5 102.392C125.5 102.387 125.5 102.381 125.5 102.375C125.5 102.369 125.5 102.363 125.5 102.357C125.5 102.35 125.5 102.344 125.5 102.337C125.5 102.33 125.5 102.323 125.5 102.316C125.5 102.309 125.5 102.301 125.5 102.294C125.5 102.286 125.5 102.278 125.5 102.27C125.5 102.262 125.5 102.254 125.5 102.246C125.5 102.237 125.5 102.228 125.5 102.22C125.5 102.211 125.5 102.202 125.5 102.193C125.5 102.183 125.5 102.174 125.5 102.164C125.5 102.154 125.5 102.145 125.5 102.135C125.5 102.124 125.5 102.114 125.5 102.104C125.5 102.093 125.5 102.083 125.5 102.072C125.5 102.061 125.5 102.05 125.5 102.039C125.5 102.027 125.5 102.016 125.5 102.004C125.5 101.992 125.5 101.981 125.5 101.968C125.5 101.956 125.5 101.944 125.5 101.932C125.5 101.919 125.5 101.906 125.5 101.894C125.5 101.881 125.5 101.868 125.5 101.854C125.5 101.841 125.5 101.828 125.5 101.814C125.5 101.8 125.5 101.786 125.5 101.772C125.5 101.758 125.5 101.744 125.5 101.73C125.5 101.715 125.5 101.701 125.5 101.686C125.5 101.671 125.5 101.656 125.5 101.641C125.5 101.625 125.5 101.61 125.5 101.594C125.5 101.579 125.5 101.563 125.5 101.547C125.5 101.531 125.5 101.515 125.5 101.498C125.5 101.482 125.5 101.465 125.5 101.449C125.5 101.432 125.5 101.415 125.5 101.398C125.5 101.38 125.5 101.363 125.5 101.346C125.5 101.328 125.5 101.31 125.5 101.292C125.5 101.274 125.5 101.256 125.5 101.238C125.5 101.22 125.5 101.201 125.5 101.182C125.5 101.164 125.5 101.145 125.5 101.126C125.5 101.107 125.5 101.087 125.5 101.068C125.5 101.049 125.5 101.029 125.5 101.009C125.5 100.989 125.5 100.969 125.5 100.949C125.5 100.929 125.5 100.909 125.5 100.888C125.5 100.867 125.5 100.847 125.5 100.826C125.5 100.805 125.5 100.784 125.5 100.762C125.5 100.741 125.5 100.719 125.5 100.698C125.5 100.676 125.5 100.654 125.5 100.632C125.5 100.61 125.5 100.588 125.5 100.565C125.5 100.543 125.5 100.52 125.5 100.498C125.5 100.475 125.5 100.452 125.5 100.429C125.5 100.406 125.5 100.382 125.5 100.359C125.5 100.335 125.5 100.311 125.5 100.288C125.5 100.264 125.5 100.24 125.5 100.215C125.5 100.191 125.5 100.167 125.5 100.142C125.5 100.118 125.5 100.093 125.5 100.068C125.5 100.043 125.5 100.018 125.5 99.9924C125.5 99.967 125.5 99.9415 125.5 99.9158C125.5 99.8902 125.5 99.8643 125.5 99.8383C125.5 99.8122 125.5 99.786 125.5 99.7596C125.5 99.7332 125.5 99.7067 125.5 99.6799C125.5 99.6532 125.5 99.6263 125.5 99.5992C125.5 99.5721 125.5 99.5448 125.5 99.5173C125.5 99.4899 125.5 99.4623 125.5 99.4345C125.5 99.4067 125.5 99.3787 125.5 99.3506C125.5 99.3224 125.5 99.2941 125.5 99.2656C125.5 99.2371 125.5 99.2084 125.5 99.1796C125.5 99.1508 125.5 99.1217 125.5 99.0926C125.5 99.0634 125.5 99.034 125.5 99.0045C125.5 98.9749 125.5 98.9452 125.5 98.9154C125.5 98.8855 125.5 98.8555 125.5 98.8252C125.5 98.795 125.5 98.7646 125.5 98.7341C125.5 98.7035 125.5 98.6728 125.5 98.6419C125.5 98.611 125.5 98.5799 125.5 98.5487C125.5 98.5175 125.5 98.4861 125.5 98.4545C125.5 98.4229 125.5 98.3912 125.5 98.3593C125.5 98.3274 125.5 98.2953 125.5 98.2631C125.5 98.2308 125.5 98.1984 125.5 98.1658C125.5 98.1333 125.5 98.1005 125.5 98.0676C125.5 98.0347 125.5 98.0016 125.5 97.9684C125.5 97.9352 125.5 97.9018 125.5 97.8682C125.5 97.8346 125.5 97.8009 125.5 97.767C125.5 97.7331 125.5 97.699 125.5 97.6648C125.5 97.6306 125.5 97.5962 125.5 97.5616C125.5 97.5271 125.5 97.4924 125.5 97.4575C125.5 97.4226 125.5 97.3876 125.5 97.3524C125.5 97.3172 125.5 97.2818 125.5 97.2463C125.5 97.2108 125.5 97.1751 125.5 97.1393C125.5 97.1034 125.5 97.0674 125.5 97.0312C125.5 96.9951 125.5 96.9587 125.5 96.9223C125.5 96.8858 125.5 96.8491 125.5 96.8123C125.5 96.7755 125.5 96.7386 125.5 96.7015C125.5 96.6643 125.5 96.6271 125.5 96.5896C125.5 96.5522 125.5 96.5146 125.5 96.4768C125.5 96.4391 125.5 96.4012 125.5 96.3631C125.5 96.3251 125.5 96.2868 125.5 96.2485C125.5 96.2101 125.5 96.1716 125.5 96.1329C125.5 96.0942 125.5 96.0554 125.5 96.0164C125.5 95.9774 125.5 95.9382 125.5 95.8989C125.5 95.8596 125.5 95.8201 125.5 95.7805C125.5 95.7409 125.5 95.7012 125.5 95.6612C125.5 95.6213 125.5 95.5812 125.5 95.541C125.5 95.5008 125.5 95.4604 125.5 95.4199C125.5 95.3794 125.5 95.3387 125.5 95.2979C125.5 95.257 125.5 95.216 125.5 95.1749C125.5 95.1338 125.5 95.0925 125.5 95.0511C125.5 95.0096 125.5 94.9681 125.5 94.9263C125.5 94.8846 125.5 94.8427 125.5 94.8007C125.5 94.7587 125.5 94.7165 125.5 94.6742C125.5 94.6318 125.5 94.5894 125.5 94.5467C125.5 94.5041 125.5 94.4614 125.5 94.4184C125.5 94.3755 125.5 94.3325 125.5 94.2893C125.5 94.246 125.5 94.2027 125.5 94.1592C125.5 94.1157 125.5 94.072 125.5 94.0283C125.5 93.9845 125.5 93.9405 125.5 93.8964C125.5 93.8524 125.5 93.8081 125.5 93.7638C125.5 93.7194 125.5 93.6749 125.5 93.6302C125.5 93.5856 125.5 93.5408 125.5 93.4958C125.5 93.4509 125.5 93.4058 125.5 93.3606C125.5 93.3153 125.5 93.27 125.5 93.2245C125.5 93.1789 125.5 93.1333 125.5 93.0875C125.5 93.0417 125.5 92.9958 125.5 92.9497C125.5 92.9036 125.5 92.8574 125.5 92.8111C125.5 92.7647 125.5 92.7182 125.5 92.6716C125.5 92.6249 125.5 92.5782 125.5 92.5312C125.5 92.4843 125.5 92.4373 125.5 92.3901C125.5 92.3429 125.5 92.2956 125.5 92.2481C125.5 92.2006 125.5 92.153 125.5 92.1053C125.5 92.0576 125.5 92.0097 125.5 91.9617C125.5 91.9137 125.5 91.8655 125.5 91.8172C125.5 91.769 125.5 91.7205 125.5 91.672C125.5 91.6234 125.5 91.5747 125.5 91.5259C125.5 91.4771 125.5 91.4281 125.5 91.379C125.5 91.3299 125.5 91.2807 125.5 91.2314C125.5 91.182 125.5 91.1325 125.5 91.0829C125.5 91.0332 125.5 90.9835 125.5 90.9336C125.5 90.8837 125.5 90.8337 125.5 90.7835C125.5 90.7334 125.5 90.6831 125.5 90.6327C125.5 90.5823 125.5 90.5317 125.5 90.481C125.5 90.4304 125.5 90.3796 125.5 90.3286C125.5 90.2777 125.5 90.2266 125.5 90.1754C125.5 90.1242 125.5 90.0729 125.5 90.0214C125.5 89.97 125.5 89.9184 125.5 89.8667C125.5 89.815 125.5 89.7631 125.5 89.7112C125.5 89.6592 125.5 89.6071 125.5 89.5549C125.5 89.5027 125.5 89.4503 125.5 89.3979C125.5 89.3454 125.5 89.2928 125.5 89.2401C125.5 89.1873 125.5 89.1345 125.5 89.0815C125.5 89.0285 125.5 88.9754 125.5 88.9222C125.5 88.869 125.5 88.8156 125.5 88.7622C125.5 88.7087 125.5 88.6551 125.5 88.6014C125.5 88.5477 125.5 88.4938 125.5 88.4398C125.5 88.3859 125.5 88.3318 125.5 88.2776C125.5 88.2234 125.5 88.169 125.5 88.1146C125.5 88.0601 125.5 88.0056 125.5 87.9509C125.5 87.8962 125.5 87.8413 125.5 87.7864C125.5 87.7315 125.5 87.6764 125.5 87.6212C125.5 87.5661 125.5 87.5108 125.5 87.4553C125.5 87.3999 125.5 87.3444 125.5 87.2887C125.5 87.2331 125.5 87.1773 125.5 87.1214C125.5 87.0655 125.5 87.0095 125.5 86.9534C125.5 86.8973 125.5 86.841 125.5 86.7847C125.5 86.7283 125.5 86.6718 125.5 86.6152C125.5 86.5587 125.5 86.5019 125.5 86.4451C125.5 86.3883 125.5 86.3314 125.5 86.2743C125.5 86.2173 125.5 86.1601 125.5 86.1028C125.5 86.0455 125.5 85.9881 125.5 85.9306C125.5 85.8731 125.5 85.8155 125.5 85.7577C125.5 85.7 125.5 85.6422 125.5 85.5842C125.5 85.5262 125.5 85.4681 125.5 85.41C125.5 85.3518 125.5 85.2935 125.5 85.2351C125.5 85.1766 125.5 85.1181 125.5 85.0595C125.5 85.0009 125.5 84.9421 125.5 84.8833C125.5 84.8244 125.5 84.7654 125.5 84.7064C125.5 84.6473 125.5 84.5881 125.5 84.5288C125.5 84.4695 125.5 84.4101 125.5 84.3506C125.5 84.2911 125.5 84.2315 125.5 84.1717C125.5 84.112 125.5 84.0522 125.5 83.9922C125.5 83.9323 125.5 83.8723 125.5 83.8121C125.5 83.7519 125.5 83.6917 125.5 83.6313C125.5 83.5709 125.5 83.5105 125.5 83.4499C125.5 83.3893 125.5 83.3286 125.5 83.2678C125.5 83.207 125.5 83.1461 125.5 83.0852C125.5 83.0241 125.5 82.963 125.5 82.9018C125.5 82.8406 125.5 82.7793 125.5 82.7179C125.5 82.6565 125.5 82.595 125.5 82.5334C125.5 82.4717 125.5 82.41 125.5 82.3482C125.5 82.2864 125.5 82.2244 125.5 82.1624C125.5 82.1004 125.5 82.0383 125.5 81.976C125.5 81.9138 125.5 81.8515 125.5 81.789C125.5 81.7266 125.5 81.6641 125.5 81.6015C125.5 81.5388 125.5 81.4761 125.5 81.4133C125.5 81.3504 125.5 81.2875 125.5 81.2245C125.5 81.1615 125.5 81.0983 125.5 81.0351C125.5 80.9719 125.5 80.9086 125.5 80.8452C125.5 80.7817 125.5 80.7182 125.5 80.6546C125.5 80.591 125.5 80.5273 125.5 80.4635C125.5 80.3997 125.5 80.3358 125.5 80.2718C125.5 80.2078 125.5 80.1437 125.5 80.0795C125.5 80.0154 125.5 79.9511 125.5 79.8867C125.5 79.8223 125.5 79.7579 125.5 79.6933C125.5 79.6287 125.5 79.5641 125.5 79.4993C125.5 79.4346 125.5 79.3698 125.5 79.3048C125.5 79.2399 125.5 79.1749 125.5 79.1097C125.5 79.0446 125.5 78.9794 125.5 78.9141C125.5 78.8488 125.5 78.7834 125.5 78.7179C125.5 78.6525 125.5 78.5869 125.5 78.5212C125.5 78.4556 125.5 78.3898 125.5 78.324C125.5 78.2581 125.5 78.1922 125.5 78.1262C125.5 78.0602 125.5 77.994 125.5 77.9278C125.5 77.8616 125.5 77.7954 125.5 77.729C125.5 77.6626 125.5 77.5962 125.5 77.5296C125.5 77.4631 125.5 77.3964 125.5 77.3297C125.5 77.263 125.5 77.1962 125.5 77.1293C125.5 77.0624 125.5 76.9954 125.5 76.9283C125.5 76.8613 125.5 76.7941 125.5 76.7269C125.5 76.6596 125.5 76.5923 125.5 76.5249C125.5 76.4575 125.5 76.39 125.5 76.3225C125.5 76.2549 125.5 76.1872 125.5 76.1195C125.5 76.0518 125.5 75.9839 125.5 75.916C125.5 75.8481 125.5 75.7801 125.5 75.7121C125.5 75.644 125.5 75.5759 125.5 75.5076C125.5 75.4394 125.5 75.3711 125.5 75.3027C125.5 75.2343 125.5 75.1658 125.5 75.0973C125.5 75.0287 125.5 74.9601 125.5 74.8914C125.5 74.8227 125.5 74.7539 125.5 74.685C125.5 74.6161 125.5 74.5472 125.5 74.4781C125.5 74.4091 125.5 74.34 125.5 74.2708C125.5 74.2016 125.5 74.1324 125.5 74.063C125.5 73.9937 125.5 73.9243 125.5 73.8548C125.5 73.7853 125.5 73.7157 125.5 73.6461C125.5 73.5764 125.5 73.5067 125.5 73.4369C125.5 73.3671 125.5 73.2973 125.5 73.2273C125.5 73.1574 125.5 73.0874 125.5 73.0173C125.5 72.9472 125.5 72.877 125.5 72.8068C125.5 72.7365 125.5 72.6662 125.5 72.5958C125.5 72.5254 125.5 72.455 125.5 72.3844C125.5 72.3139 125.5 72.2433 125.5 72.1726C125.5 72.1019 125.5 72.0312 125.5 71.9604C125.5 71.8896 125.5 71.8187 125.5 71.7477C125.5 71.6768 125.5 71.6057 125.5 71.5346C125.5 71.4635 125.5 71.3923 125.5 71.3211C125.5 71.2499 125.5 71.1786 125.5 71.1072C125.5 71.0358 125.5 70.9643 125.5 70.8928C125.5 70.8213 125.5 70.7497 125.5 70.6781C125.5 70.6064 125.5 70.5347 125.5 70.4629C125.5 70.3911 125.5 70.3193 125.5 70.2474C125.5 70.1754 125.5 70.1035 125.5 70.0314C125.5 69.9594 125.5 69.8872 125.5 69.8151C125.5 69.7429 125.5 69.6706 125.5 69.5983C125.5 69.526 125.5 69.4536 125.5 69.3812C125.5 69.3087 125.5 69.2362 125.5 69.1637C125.5 69.0911 125.5 69.0185 125.5 68.9458C125.5 68.8731 125.5 68.8003 125.5 68.7275C125.5 68.6547 125.5 68.5818 125.5 68.5089C125.5 68.4359 125.5 68.3629 125.5 68.2899C125.5 68.2168 125.5 68.1437 125.5 68.0705C125.5 67.9973 125.5 67.924 125.5 67.8507C125.5 67.7774 125.5 67.7041 125.5 67.6306C125.5 67.5572 125.5 67.4837 125.5 67.4102C125.5 67.3366 125.5 67.263 125.5 67.1894C125.5 67.1157 125.5 67.042 125.5 66.9682C125.5 66.8944 125.5 66.8206 125.5 66.7467C125.5 66.6728 125.5 66.5989 125.5 66.5249C125.5 66.4509 125.5 66.3768 125.5 66.3027C125.5 66.2286 125.5 66.1544 125.5 66.0802C125.5 66.0059 125.5 65.9317 125.5 65.8573C125.5 65.783 125.5 65.7086 125.5 65.6342C125.5 65.5597 125.5 65.4852 125.5 65.4107C125.5 65.3361 125.5 65.2615 125.5 65.1868C125.5 65.1122 125.5 65.0375 125.5 64.9627C125.5 64.8879 125.5 64.8131 125.5 64.7383C125.5 64.6634 125.5 64.5885 125.5 64.5135C125.5 64.4385 125.5 64.3635 125.5 64.2884C125.5 64.2134 125.5 64.1383 125.5 64.0631C125.5 63.9879 125.5 63.9127 125.5 63.8374C125.5 63.7622 125.5 63.6868 125.5 63.6115C125.5 63.5361 125.5 63.4607 125.5 63.3852C125.5 63.3098 125.5 63.2342 125.5 63.1587C125.5 63.0831 125.5 63.0075 125.5 62.9319C125.5 62.8562 125.5 62.7805 125.5 62.7048C125.5 62.629 125.5 62.5532 125.5 62.4774C125.5 62.4015 125.5 62.3257 125.5 62.2497C125.5 62.1738 125.5 62.0978 125.5 62.0218C125.5 61.9458 125.5 61.8697 125.5 61.7936C125.5 61.7175 125.5 61.6414 125.5 61.5652C125.5 61.489 125.5 61.4127 125.5 61.3364C125.5 61.2602 125.5 61.1838 125.5 61.1075C125.5 61.0311 125.5 60.9547 125.5 60.8783C125.5 60.8018 125.5 60.7253 125.5 60.6488C125.5 60.5723 125.5 60.4957 125.5 60.4191C125.5 60.3425 125.5 60.2658 125.5 60.1891C125.5 60.1124 125.5 60.0357 125.5 59.9589C125.5 59.8821 125.5 59.8053 125.5 59.7285C125.5 59.6516 125.5 59.5748 125.5 59.4978C125.5 59.4209 125.5 59.3439 125.5 59.2669C125.5 59.1899 125.5 59.1129 125.5 59.0358C125.5 58.9588 125.5 58.8816 125.5 58.8045C125.5 58.7273 125.5 58.6502 125.5 58.5729C125.5 58.4957 125.5 58.4185 125.5 58.3412C125.5 58.2639 125.5 58.1866 125.5 58.1092C125.5 58.0318 125.5 57.9545 125.5 57.877C125.5 57.7996 125.5 57.7221 125.5 57.6446C125.5 57.5672 125.5 57.4896 125.5 57.4121C125.5 57.3345 125.5 57.2569 125.5 57.1793C125.5 57.1017 125.5 57.024 125.5 56.9463C125.5 56.8686 125.5 56.7909 125.5 56.7132C125.5 56.6354 125.5 56.5576 125.5 56.4798C125.5 56.402 125.5 56.3242 125.5 56.2463C125.5 56.1684 125.5 56.0905 125.5 56.0126C125.5 55.9347 125.5 55.8567 125.5 55.7787C125.5 55.7007 125.5 55.6227 125.5 55.5447C125.5 55.4666 125.5 55.3885 125.5 55.3105C125.5 55.2324 125.5 55.1542 125.5 55.0761C125.5 54.9979 125.5 54.9197 125.5 54.8415C125.5 54.7633 125.5 54.6851 125.5 54.6068C125.5 54.5286 125.5 54.4503 125.5 54.372C125.5 54.2937 125.5 54.2154 125.5 54.137C125.5 54.0586 125.5 53.9803 125.5 53.9019C125.5 53.8234 125.5 53.745 125.5 53.6666C125.5 53.5881 125.5 53.5096 125.5 53.4311C125.5 53.3526 125.5 53.2741 125.5 53.1956C125.5 53.117 125.5 53.0385 125.5 52.9599C125.5 52.8813 125.5 52.8027 125.5 52.7241C125.5 52.6455 125.5 52.5668 125.5 52.4881C125.5 52.4095 125.5 52.3308 125.5 52.2521C125.5 52.1734 125.5 52.0946 125.5 52.0159C125.5 51.9371 125.5 51.8584 125.5 51.7796C125.5 51.7008 125.5 51.622 125.5 51.5432C125.5 51.4644 125.5 51.3855 125.5 51.3067C125.5 51.2278 125.5 51.1489 125.5 51.0701C125.5 50.9912 125.5 50.9123 125.5 50.8333C125.5 50.7544 125.5 50.6755 125.5 50.5965C125.5 50.5176 125.5 50.4386 125.5 50.3596C125.5 50.2806 125.5 50.2016 125.5 50.1226C125.5 50.0436 125.5 49.9646 125.5 49.8856C125.5 49.8065 125.5 49.7275 125.5 49.6484C125.5 49.5693 125.5 49.4902 125.5 49.4112C125.5 49.3321 125.5 49.253 125.5 49.1738C125.5 49.0947 125.5 49.0156 125.5 48.9365C125.5 48.8573 125.5 48.7782 125.5 48.699C125.5 48.6198 125.5 48.5407 125.5 48.4615C125.5 48.3823 125.5 48.3031 125.5 48.2239C125.5 48.1447 125.5 48.0655 125.5 47.9863C125.5 47.907 125.5 47.8278 125.5 47.7486C125.5 47.6693 125.5 47.5901 125.5 47.5108C125.5 47.4316 125.5 47.3523 125.5 47.2731C125.5 47.1938 125.5 47.1145 125.5 47.0352C125.5 46.9559 125.5 46.8767 125.5 46.7974C125.5 46.7181 125.5 46.6388 125.5 46.5595C125.5 46.4802 125.5 46.4008 125.5 46.3215C125.5 46.2422 125.5 46.1629 125.5 46.0836C125.5 46.0042 125.5 45.9249 125.5 45.8456C125.5 45.7662 125.5 45.6869 125.5 45.6076C125.5 45.5282 125.5 45.4489 125.5 45.3695C125.5 45.2902 125.5 45.2108 125.5 45.1315C125.5 45.0521 125.5 44.9728 125.5 44.8934C125.5 44.8141 125.5 44.7347 125.5 44.6554C125.5 44.576 125.5 44.4967 125.5 44.4173C125.5 44.338 125.5 44.2586 125.5 44.1793C125.5 44.0999 125.5 44.0205 125.5 43.9412C125.5 43.8618 125.5 43.7825 125.5 43.7031C125.5 43.6238 125.5 43.5444 125.5 43.4651C125.5 43.3857 125.5 43.3064 125.5 43.2271C125.5 43.1477 125.5 43.0684 125.5 42.9891C125.5 42.9097 125.5 42.8304 125.5 42.7511C125.5 42.6717 125.5 42.5924 125.5 42.5131C125.5 42.4338 125.5 42.3545 125.5 42.2752C125.5 42.1959 125.5 42.1166 125.5 42.0373C125.5 41.958 125.5 41.8787 125.5 41.7994C125.5 41.7201 125.5 41.6408 125.5 41.5616C125.5 41.4823 125.5 41.403 125.5 41.3238C125.5 41.2445 125.5 41.1653 125.5 41.086C125.5 41.0068 125.5 40.9275 125.5 40.8483C125.5 40.7691 125.5 40.6899 125.5 40.6107C125.5 40.5315 125.5 40.4523 125.5 40.3731C125.5 40.2939 125.5 40.2147 125.5 40.1356C125.5 40.0564 125.5 39.9773 125.5 39.8981C125.5 39.819 125.5 39.7398 125.5 39.6607C125.5 39.5816 125.5 39.5025 125.5 39.4234C125.5 39.3443 125.5 39.2652 125.5 39.1862C125.5 39.1071 125.5 39.028 125.5 38.949C125.5 38.8699 125.5 38.7909 125.5 38.7119C125.5 38.6329 125.5 38.5539 125.5 38.4749C125.5 38.3959 125.5 38.3169 125.5 38.238C125.5 38.159 125.5 38.0801 125.5 38.0012C125.5 37.9222 125.5 37.8433 125.5 37.7644C125.5 37.6855 125.5 37.6067 125.5 37.5278C125.5 37.449 125.5 37.3701 125.5 37.2913C125.5 37.2125 125.5 37.1337 125.5 37.0549C125.5 36.9761 125.5 36.8973 125.5 36.8186C125.5 36.7398 125.5 36.6611 125.5 36.5824C125.5 36.5037 125.5 36.425 125.5 36.3463C125.5 36.2676 125.5 36.189 125.5 36.1103C125.5 36.0317 125.5 35.9531 125.5 35.8745C125.5 35.7959 125.5 35.7173 125.5 35.6388C125.5 35.5602 125.5 35.4817 125.5 35.4032C125.5 35.3247 125.5 35.2462 125.5 35.1678C125.5 35.0893 125.5 35.0109 125.5 34.9325C125.5 34.8541 125.5 34.7757 125.5 34.6973C125.5 34.619 125.5 34.5406 125.5 34.4623C125.5 34.384 125.5 34.3057 125.5 34.2275C125.5 34.1492 125.5 34.071 125.5 33.9927C125.5 33.9145 125.5 33.8363 125.5 33.7582C125.5 33.68 125.5 33.6019 125.5 33.5238C125.5 33.4457 125.5 33.3676 125.5 33.2896C125.5 33.2115 125.5 33.1335 125.5 33.0555C125.5 32.9775 125.5 32.8995 125.5 32.8216C125.5 32.7437 125.5 32.6658 125.5 32.5879C125.5 32.51 125.5 32.4322 125.5 32.3543C125.5 32.2765 125.5 32.1987 125.5 32.121C125.5 32.0432 125.5 31.9655 125.5 31.8878C125.5 31.8101 125.5 31.7324 125.5 31.6548C125.5 31.5772 125.5 31.4996 125.5 31.422C125.5 31.3444 125.5 31.2669 125.5 31.1894C125.5 31.1119 125.5 31.0344 125.5 30.957C125.5 30.8796 125.5 30.8022 125.5 30.7248C125.5 30.6474 125.5 30.5701 125.5 30.4928C125.5 30.4155 125.5 30.3383 125.5 30.261C125.5 30.1838 125.5 30.1066 125.5 30.0295C125.5 29.9523 125.5 29.8752 125.5 29.7981C125.5 29.721 125.5 29.644 125.5 29.567C125.5 29.49 125.5 29.413 125.5 29.336C125.5 29.2591 125.5 29.1822 125.5 29.1054C125.5 29.0285 125.5 28.9517 125.5 28.8749C125.5 28.7981 125.5 28.7214 125.5 28.6447C125.5 28.568 125.5 28.4913 125.5 28.4147C125.5 28.3381 125.5 28.2615 125.5 28.185C125.5 28.1084 125.5 28.0319 125.5 27.9555C125.5 27.879 125.5 27.8026 125.5 27.7262C125.5 27.6499 125.5 27.5735 125.5 27.4972C125.5 27.4209 125.5 27.3447 125.5 27.2685C125.5 27.1923 125.5 27.1161 125.5 27.04C125.5 26.9639 125.5 26.8878 125.5 26.8118C125.5 26.7358 125.5 26.6598 125.5 26.5838C125.5 26.5079 125.5 26.432 125.5 26.3562C125.5 26.2803 125.5 26.2045 125.5 26.1288C125.5 26.053 125.5 25.9773 125.5 25.9016C125.5 25.826 125.5 25.7503 125.5 25.6748C125.5 25.5992 125.5 25.5237 125.5 25.4482C125.5 25.3727 125.5 25.2973 125.5 25.2219C125.5 25.1465 125.5 25.0712 125.5 24.9959C125.5 24.9207 125.5 24.8454 125.5 24.7702C125.5 24.6951 125.5 24.6199 125.5 24.5449C125.5 24.4698 125.5 24.3947 125.5 24.3198C125.5 24.2448 125.5 24.1699 125.5 24.095C125.5 24.0201 125.5 23.9453 125.5 23.8705C125.5 23.7957 125.5 23.721 125.5 23.6463C125.5 23.5717 125.5 23.497 125.5 23.4225C125.5 23.3479 125.5 23.2734 125.5 23.199C125.5 23.1245 125.5 23.0501 125.5 22.9757C125.5 22.9014 125.5 22.8271 125.5 22.7529C125.5 22.6786 125.5 22.6044 125.5 22.5303C125.5 22.4562 125.5 22.3821 125.5 22.3081C125.5 22.2341 125.5 22.1601 125.5 22.0862C125.5 22.0123 125.5 21.9385 125.5 21.8647C125.5 21.7909 125.5 21.7172 125.5 21.6435C125.5 21.5698 125.5 21.4962 125.5 21.4226C125.5 21.3491 125.5 21.2756 125.5 21.2022C125.5 21.1287 125.5 21.0553 125.5 20.982C125.5 20.9087 125.5 20.8354 125.5 20.7622C125.5 20.689 125.5 20.6159 125.5 20.5428C125.5 20.4697 125.5 20.3967 125.5 20.3238C125.5 20.2508 125.5 20.1779 125.5 20.1051C125.5 20.0323 125.5 19.9595 125.5 19.8868C125.5 19.8141 125.5 19.7414 125.5 19.6688C125.5 19.5963 125.5 19.5237 125.5 19.4513C125.5 19.3788 125.5 19.3064 125.5 19.2341C125.5 19.1618 125.5 19.0895 125.5 19.0173C125.5 18.9451 125.5 18.873 125.5 18.8009C125.5 18.7289 125.5 18.6569 125.5 18.5849C125.5 18.513 125.5 18.4412 125.5 18.3694C125.5 18.2976 125.5 18.2258 125.5 18.1542C125.5 18.0825 125.5 18.0109 125.5 17.9394C125.5 17.8678 125.5 17.7964 125.5 17.725C125.5 17.6536 125.5 17.5823 125.5 17.511C125.5 17.4397 125.5 17.3686 125.5 17.2974C125.5 17.2263 125.5 17.1553 125.5 17.0843C125.5 17.0133 125.5 16.9424 125.5 16.8716C125.5 16.8008 125.5 16.73 125.5 16.6593C125.5 16.5886 125.5 16.518 125.5 16.4474C125.5 16.3769 125.5 16.3064 125.5 16.236C125.5 16.1656 125.5 16.0953 125.5 16.025C125.5 15.9548 125.5 15.8846 125.5 15.8145C125.5 15.7444 125.5 15.6743 125.5 15.6044C125.5 15.5344 125.5 15.4645 125.5 15.3947C125.5 15.3249 125.5 15.2552 125.5 15.1855C125.5 15.1159 125.5 15.0463 125.5 14.9768C125.5 14.9073 125.5 14.8378 125.5 14.7685C125.5 14.6991 125.5 14.6298 125.5 14.5606C125.5 14.4914 125.5 14.4223 125.5 14.3533C125.5 14.2842 125.5 14.2153 125.5 14.1464C125.5 14.0775 125.5 14.0087 125.5 13.9399C125.5 13.8712 125.5 13.8026 125.5 13.734C125.5 13.6654 125.5 13.5969 125.5 13.5285C125.5 13.4601 125.5 13.3918 125.5 13.3235C125.5 13.2553 125.5 13.1871 125.5 13.119C125.5 13.051 125.5 12.983 125.5 12.915C125.5 12.8471 125.5 12.7793 125.5 12.7115C125.5 12.6438 125.5 12.5761 125.5 12.5085C125.5 12.4409 125.5 12.3734 125.5 12.306C125.5 12.2386 125.5 12.1712 125.5 12.104C125.5 12.0367 125.5 11.9695 125.5 11.9025C125.5 11.8354 125.5 11.7684 125.5 11.7015C125.5 11.6346 125.5 11.5677 125.5 11.501H127.5ZM127.5 102.501C127.5 111.782 123.119 118.565 116.583 122.893C110.085 127.196 101.487 129.061 92.9546 128.677C84.4198 128.292 75.841 125.653 69.3694 120.817C62.8743 115.963 58.4991 108.885 58.4991 99.7334H60.4991C60.4991 108.163 64.499 114.68 70.5666 119.215C76.6577 123.767 84.8291 126.309 93.0445 126.679C101.263 127.049 109.415 125.241 115.479 121.225C121.506 117.234 125.5 111.052 125.5 102.501H127.5ZM40.2496 2.00098L33 2.00098V0.000976563L40.2496 0.000976563V2.00098ZM125.5 11.501C125.5 8.95084 125.132 7.18656 124.407 5.93006C123.704 4.71059 122.599 3.85671 120.862 3.25886C119.093 2.6498 116.723 2.32655 113.581 2.16366C110.449 2.00127 106.634 2.00099 102 2.00098V0.000976563C106.616 0.000993252 110.489 0.000673532 113.685 0.166339C116.871 0.331505 119.47 0.664401 121.513 1.36778C123.589 2.08235 125.14 3.19719 126.14 4.93089C127.118 6.62755 127.5 8.8009 127.5 11.501H125.5ZM102 2.00098L40.2496 2.00098V0.000976563L102 0.000976563V2.00098Z" fill="#BCBBF9"/>
</svg>
