<svg width="327" height="121" viewBox="0 0 327 121" fill="none" xmlns="http://www.w3.org/2000/svg">
<path d="M2 116.499C0.89543 116.499 0 117.395 0 118.499C0 119.604 0.89543 120.499 2 120.499V116.499ZM326.5 12.0002L306.5 0.453233L306.5 23.5472L326.5 12.0002ZM215.5 12.0001L215.5 10.0001L215.5 12.0001ZM262 63.4991C261.942 63.4991 261.885 63.4991 261.827 63.4991C261.77 63.4991 261.713 63.4991 261.656 63.4991C261.599 63.4991 261.543 63.4991 261.486 63.4991C261.43 63.4991 261.374 63.4991 261.318 63.4991C261.262 63.4991 261.206 63.4991 261.151 63.4991C261.095 63.4991 261.04 63.4991 260.985 63.4991C260.93 63.4991 260.875 63.4991 260.82 63.4991C260.765 63.4991 260.711 63.4991 260.657 63.4991C260.602 63.4991 260.548 63.4991 260.495 63.4991C260.441 63.4991 260.387 63.4991 260.334 63.4991C260.28 63.4991 260.227 63.4991 260.174 63.4991C260.121 63.4991 260.068 63.4991 260.016 63.4991C259.963 63.4991 259.911 63.4991 259.859 63.4991C259.807 63.4991 259.755 63.4991 259.703 63.4991C259.651 63.4991 259.6 63.4991 259.549 63.4991C259.497 63.4991 259.446 63.4991 259.395 63.4991C259.345 63.4991 259.294 63.4991 259.243 63.4991C259.193 63.4991 259.143 63.4991 259.093 63.4991C259.043 63.4991 258.993 63.4991 258.943 63.4991C258.893 63.4991 258.844 63.4991 258.795 63.4991C258.745 63.4991 258.696 63.4991 258.648 63.4991C258.599 63.4991 258.55 63.4991 258.502 63.4991C258.453 63.4991 258.405 63.4991 258.357 63.4991C258.309 63.4991 258.261 63.4991 258.213 63.4991C258.166 63.4991 258.118 63.4991 258.071 63.4991C258.024 63.4991 257.977 63.4991 257.93 63.4991C257.883 63.4991 257.836 63.4991 257.79 63.4991C257.743 63.4991 257.697 63.4991 257.651 63.4991C257.605 63.4991 257.559 63.4991 257.513 63.4991C257.468 63.4991 257.422 63.4991 257.377 63.4991C257.332 63.4991 257.286 63.4991 257.242 63.4991C257.197 63.4991 257.152 63.4991 257.107 63.4991C257.063 63.4991 257.018 63.4991 256.974 63.4991C256.93 63.4991 256.886 63.4991 256.842 63.4991C256.799 63.4991 256.755 63.4991 256.712 63.4991C256.668 63.4991 256.625 63.4991 256.582 63.4991C256.539 63.4991 256.496 63.4991 256.453 63.4991C256.411 63.4991 256.368 63.4991 256.326 63.4991C256.284 63.4991 256.242 63.4991 256.2 63.4991C256.158 63.4991 256.116 63.4991 256.075 63.4991C256.033 63.4991 255.992 63.4991 255.95 63.4991C255.909 63.4991 255.868 63.4991 255.827 63.4991C255.787 63.4991 255.746 63.4991 255.705 63.4991C255.665 63.4991 255.625 63.4991 255.585 63.4991C255.544 63.4991 255.504 63.4991 255.465 63.4991C255.425 63.4991 255.385 63.4991 255.346 63.4991C255.307 63.4991 255.267 63.4991 255.228 63.4991C255.189 63.4991 255.15 63.4991 255.112 63.4991C255.073 63.4991 255.034 63.4991 254.996 63.4991C254.958 63.4991 254.92 63.4991 254.882 63.4991C254.844 63.4991 254.806 63.4991 254.768 63.4991C254.73 63.4991 254.693 63.4991 254.656 63.4991C254.618 63.4991 254.581 63.4991 254.544 63.4991C254.507 63.4991 254.47 63.4991 254.434 63.4991C254.397 63.4991 254.361 63.4991 254.324 63.4991C254.288 63.4991 254.252 63.4991 254.216 63.4991C254.18 63.4991 254.144 63.4991 254.109 63.4991C254.073 63.4991 254.037 63.4991 254.002 63.4991C253.967 63.4991 253.932 63.4991 253.897 63.4991C253.862 63.4991 253.827 63.4991 253.792 63.4991C253.758 63.4991 253.723 63.4991 253.689 63.4991C253.654 63.4991 253.62 63.4991 253.586 63.4991C253.552 63.4991 253.518 63.4991 253.485 63.4991C253.451 63.4991 253.418 63.4991 253.384 63.4991C253.351 63.4991 253.318 63.4991 253.285 63.4991C253.252 63.4991 253.219 63.4991 253.186 63.4991C253.153 63.4991 253.121 63.4991 253.088 63.4991C253.056 63.4991 253.023 63.4991 252.991 63.4991C252.959 63.4991 252.927 63.4991 252.895 63.4991C252.864 63.4991 252.832 63.4991 252.801 63.4991C252.769 63.4991 252.738 63.4991 252.707 63.4991C252.675 63.4991 252.644 63.4991 252.613 63.4991C252.583 63.4991 252.552 63.4991 252.521 63.4991C252.491 63.4991 252.46 63.4991 252.43 63.4991C252.4 63.4991 252.369 63.4991 252.339 63.4991C252.309 63.4991 252.28 63.4991 252.25 63.4991C252.22 63.4991 252.191 63.4991 252.161 63.4991C252.132 63.4991 252.103 63.4991 252.074 63.4991C252.044 63.4991 252.015 63.4991 251.987 63.4991C251.958 63.4991 251.929 63.4991 251.901 63.4991C251.872 63.4991 251.844 63.4991 251.815 63.4991C251.787 63.4991 251.759 63.4991 251.731 63.4991C251.703 63.4991 251.675 63.4991 251.648 63.4991C251.62 63.4991 251.592 63.4991 251.565 63.4991C251.538 63.4991 251.51 63.4991 251.483 63.4991C251.456 63.4991 251.429 63.4991 251.402 63.4991C251.375 63.4991 251.349 63.4991 251.322 63.4991C251.295 63.4991 251.269 63.4991 251.243 63.4991C251.216 63.4991 251.19 63.4991 251.164 63.4991C251.138 63.4991 251.112 63.4991 251.086 63.4991C251.061 63.4991 251.035 63.4991 251.009 63.4991C250.984 63.4991 250.959 63.4991 250.933 63.4991C250.908 63.4991 250.883 63.4991 250.858 63.4991C250.833 63.4991 250.808 63.4991 250.783 63.4991C250.759 63.4991 250.734 63.4991 250.71 63.4991C250.685 63.4991 250.661 63.4991 250.637 63.4991C250.612 63.4991 250.588 63.4991 250.564 63.4991C250.54 63.4991 250.517 63.4991 250.493 63.4991C250.469 63.4991 250.446 63.4991 250.422 63.4991C250.399 63.4991 250.375 63.4991 250.352 63.4991C250.329 63.4991 250.306 63.4991 250.283 63.4991C250.26 63.4991 250.237 63.4991 250.214 63.4991C250.192 63.4991 250.169 63.4991 250.147 63.4991C250.124 63.4991 250.102 63.4991 250.079 63.4991C250.057 63.4991 250.035 63.4991 250.013 63.4991C249.991 63.4991 249.969 63.4991 249.947 63.4991C249.926 63.4991 249.904 63.4991 249.882 63.4991C249.861 63.4991 249.84 63.4991 249.818 63.4991C249.797 63.4991 249.776 63.4991 249.755 63.4991C249.734 63.4991 249.713 63.4991 249.692 63.4991C249.671 63.4991 249.65 63.4991 249.63 63.4991C249.609 63.4991 249.589 63.4991 249.568 63.4991C249.548 63.4991 249.527 63.4991 249.507 63.4991C249.487 63.4991 249.467 63.4991 249.447 63.4991C249.427 63.4991 249.407 63.4991 249.388 63.4991C249.368 63.4991 249.348 63.4991 249.329 63.4991C249.309 63.4991 249.29 63.4991 249.27 63.4991C249.251 63.4991 249.232 63.4991 249.213 63.4991C249.194 63.4991 249.175 63.4991 249.156 63.4991C249.137 63.4991 249.118 63.4991 249.1 63.4991C249.081 63.4991 249.062 63.4991 249.044 63.4991C249.025 63.4991 249.007 63.4991 248.989 63.4991C248.971 63.4991 248.952 63.4991 248.934 63.4991C248.916 63.4991 248.898 63.4991 248.88 63.4991C248.863 63.4991 248.845 63.4991 248.827 63.4991C248.809 63.4991 248.792 63.4991 248.774 63.4991C248.757 63.4991 248.74 63.4991 248.722 63.4991C248.705 63.4991 248.688 63.4991 248.671 63.4991C248.654 63.4991 248.637 63.4991 248.62 63.4991C248.603 63.4991 248.586 63.4991 248.57 63.4991C248.553 63.4991 248.536 63.4991 248.52 63.4991C248.503 63.4991 248.487 63.4991 248.47 63.4991C248.454 63.4991 248.438 63.4991 248.422 63.4991C248.406 63.4991 248.39 63.4991 248.374 63.4991C248.358 63.4991 248.342 63.4991 248.326 63.4991C248.31 63.4991 248.294 63.4991 248.279 63.4991C248.263 63.4991 248.248 63.4991 248.232 63.4991C248.217 63.4991 248.201 63.4991 248.186 63.4991C248.171 63.4991 248.156 63.4991 248.141 63.4991C248.126 63.4991 248.111 63.4991 248.096 63.4991C248.081 63.4991 248.066 63.4991 248.051 63.4991C248.036 63.4991 248.022 63.4991 248.007 63.4991C247.993 63.4991 247.978 63.4991 247.964 63.4991C247.949 63.4991 247.935 63.4991 247.921 63.4991C247.906 63.4991 247.892 63.4991 247.878 63.4991C247.864 63.4991 247.85 63.4991 247.836 63.4991C247.822 63.4991 247.808 63.4991 247.794 63.4991C247.78 63.4991 247.767 63.4991 247.753 63.4991C247.739 63.4991 247.726 63.4991 247.712 63.4991C247.699 63.4991 247.685 63.4991 247.672 63.4991C247.659 63.4991 247.645 63.4991 247.632 63.4991C247.619 63.4991 247.606 63.4991 247.593 63.4991C247.58 63.4991 247.567 63.4991 247.554 63.4991C247.541 63.4991 247.528 63.4991 247.515 63.4991C247.503 63.4991 247.49 63.4991 247.477 63.4991C247.465 63.4991 247.452 63.4991 247.44 63.4991C247.427 63.4991 247.415 63.4991 247.402 63.4991C247.39 63.4991 247.378 63.4991 247.366 63.4991C247.353 63.4991 247.341 63.4991 247.329 63.4991C247.317 63.4991 247.305 63.4991 247.293 63.4991C247.281 63.4991 247.269 63.4991 247.257 63.4991C247.245 63.4991 247.234 63.4991 247.222 63.4991C247.21 63.4991 247.199 63.4991 247.187 63.4991C247.175 63.4991 247.164 63.4991 247.152 63.4991C247.141 63.4991 247.13 63.4991 247.118 63.4991C247.107 63.4991 247.096 63.4991 247.084 63.4991C247.073 63.4991 247.062 63.4991 247.051 63.4991C247.04 63.4991 247.029 63.4991 247.018 63.4991C247.007 63.4991 246.996 63.4991 246.985 63.4991C246.974 63.4991 246.963 63.4991 246.952 63.4991C246.942 63.4991 246.931 63.4991 246.92 63.4991C246.909 63.4991 246.899 63.4991 246.888 63.4991C246.878 63.4991 246.867 63.4991 246.857 63.4991C246.846 63.4991 246.836 63.4991 246.825 63.4991C246.815 63.4991 246.805 63.4991 246.795 63.4991C246.784 63.4991 246.774 63.4991 246.764 63.4991C246.754 63.4991 246.744 63.4991 246.734 63.4991C246.724 63.4991 246.713 63.4991 246.704 63.4991C246.694 63.4991 246.684 63.4991 246.674 63.4991C246.664 63.4991 246.654 63.4991 246.644 63.4991C246.634 63.4991 246.625 63.4991 246.615 63.4991C246.605 63.4991 246.596 63.4991 246.586 63.4991C246.576 63.4991 246.567 63.4991 246.557 63.4991C246.548 63.4991 246.538 63.4991 246.529 63.4991C246.519 63.4991 246.51 63.4991 246.501 63.4991C246.491 63.4991 246.482 63.4991 246.473 63.4991C246.463 63.4991 246.454 63.4991 246.445 63.4991C246.436 63.4991 246.426 63.4991 246.417 63.4991C246.408 63.4991 246.399 63.4991 246.39 63.4991C246.381 63.4991 246.372 63.4991 246.363 63.4991C246.354 63.4991 246.345 63.4991 246.336 63.4991C246.327 63.4991 246.318 63.4991 246.309 63.4991C246.3 63.4991 246.291 63.4991 246.283 63.4991C246.274 63.4991 246.265 63.4991 246.256 63.4991C246.248 63.4991 246.239 63.4991 246.23 63.4991C246.222 63.4991 246.213 63.4991 246.204 63.4991C246.196 63.4991 246.187 63.4991 246.178 63.4991C246.17 63.4991 246.161 63.4991 246.153 63.4991C246.144 63.4991 246.136 63.4991 246.127 63.4991C246.119 63.4991 246.11 63.4991 246.102 63.4991C246.094 63.4991 246.085 63.4991 246.077 63.4991C246.069 63.4991 246.06 63.4991 246.052 63.4991C246.044 63.4991 246.035 63.4991 246.027 63.4991C246.019 63.4991 246.011 63.4991 246.002 63.4991C245.994 63.4991 245.986 63.4991 245.978 63.4991C245.969 63.4991 245.961 63.4991 245.953 63.4991C245.945 63.4991 245.937 63.4991 245.929 63.4991C245.921 63.4991 245.913 63.4991 245.904 63.4991C245.896 63.4991 245.888 63.4991 245.88 63.4991C245.872 63.4991 245.864 63.4991 245.856 63.4991C245.848 63.4991 245.84 63.4991 245.832 63.4991C245.824 63.4991 245.816 63.4991 245.808 63.4991C245.8 63.4991 245.792 63.4991 245.784 63.4991C245.777 63.4991 245.769 63.4991 245.761 63.4991C245.753 63.4991 245.745 63.4991 245.737 63.4991C245.729 63.4991 245.721 63.4991 245.713 63.4991C245.705 63.4991 245.698 63.4991 245.69 63.4991C245.682 63.4991 245.674 63.4991 245.666 63.4991C245.658 63.4991 245.651 63.4991 245.643 63.4991C245.635 63.4991 245.627 63.4991 245.619 63.4991C245.611 63.4991 245.604 63.4991 245.596 63.4991C245.588 63.4991 245.58 63.4991 245.572 63.4991C245.565 63.4991 245.557 63.4991 245.549 63.4991C245.541 63.4991 245.533 63.4991 245.526 63.4991C245.518 63.4991 245.51 63.4991 245.502 63.4991C245.494 63.4991 245.487 63.4991 245.479 63.4991C245.471 63.4991 245.463 63.4991 245.455 63.4991C245.448 63.4991 245.44 63.4991 245.432 63.4991C245.424 63.4991 245.417 63.4991 245.409 63.4991C245.401 63.4991 245.393 63.4991 245.385 63.4991C245.377 63.4991 245.37 63.4991 245.362 63.4991C245.354 63.4991 245.346 63.4991 245.338 63.4991C245.33 63.4991 245.323 63.4991 245.315 63.4991C245.307 63.4991 245.299 63.4991 245.291 63.4991C245.283 63.4991 245.275 63.4991 245.268 63.4991C245.26 63.4991 245.252 63.4991 245.244 63.4991C245.236 63.4991 245.228 63.4991 245.22 63.4991C245.212 63.4991 245.204 63.4991 245.196 63.4991C245.188 63.4991 245.18 63.4991 245.172 63.4991C245.164 63.4991 245.156 63.4991 245.148 63.4991C245.14 63.4991 245.132 63.4991 245.124 63.4991C245.116 63.4991 245.108 63.4991 245.1 63.4991C245.092 63.4991 245.084 63.4991 245.076 63.4991C245.068 63.4991 245.06 63.4991 245.051 63.4991C245.043 63.4991 245.035 63.4991 245.027 63.4991C245.019 63.4991 245.011 63.4991 245.002 63.4991C244.994 63.4991 244.986 63.4991 244.978 63.4991C244.969 63.4991 244.961 63.4991 244.953 63.4991C244.944 63.4991 244.936 63.4991 244.928 63.4991C244.919 63.4991 244.911 63.4991 244.903 63.4991C244.894 63.4991 244.886 63.4991 244.877 63.4991C244.869 63.4991 244.86 63.4991 244.852 63.4991C244.843 63.4991 244.835 63.4991 244.826 63.4991C244.818 63.4991 244.809 63.4991 244.801 63.4991C244.792 63.4991 244.783 63.4991 244.775 63.4991C244.766 63.4991 244.757 63.4991 244.748 63.4991C244.74 63.4991 244.731 63.4991 244.722 63.4991C244.713 63.4991 244.705 63.4991 244.696 63.4991C244.687 63.4991 244.678 63.4991 244.669 63.4991C244.66 63.4991 244.651 63.4991 244.642 63.4991C244.633 63.4991 244.624 63.4991 244.615 63.4991C244.606 63.4991 244.597 63.4991 244.588 63.4991C244.579 63.4991 244.569 63.4991 244.56 63.4991C244.551 63.4991 244.542 63.4991 244.532 63.4991C244.523 63.4991 244.514 63.4991 244.504 63.4991C244.495 63.4991 244.486 63.4991 244.476 63.4991C244.467 63.4991 244.457 63.4991 244.448 63.4991C244.438 63.4991 244.429 63.4991 244.419 63.4991C244.41 63.4991 244.4 63.4991 244.39 63.4991C244.38 63.4991 244.371 63.4991 244.361 63.4991C244.351 63.4991 244.341 63.4991 244.331 63.4991C244.322 63.4991 244.312 63.4991 244.302 63.4991C244.292 63.4991 244.282 63.4991 244.272 63.4991C244.262 63.4991 244.252 63.4991 244.241 63.4991C244.231 63.4991 244.221 63.4991 244.211 63.4991C244.201 63.4991 244.19 63.4991 244.18 63.4991C244.17 63.4991 244.159 63.4991 244.149 63.4991C244.138 63.4991 244.128 63.4991 244.117 63.4991C244.107 63.4991 244.096 63.4991 244.085 63.4991C244.075 63.4991 244.064 63.4991 244.053 63.4991C244.042 63.4991 244.032 63.4991 244.021 63.4991C244.01 63.4991 243.999 63.4991 243.988 63.4991C243.977 63.4991 243.966 63.4991 243.955 63.4991C243.944 63.4991 243.933 63.4991 243.921 63.4991C243.91 63.4991 243.899 63.4991 243.887 63.4991C243.876 63.4991 243.865 63.4991 243.853 63.4991C243.842 63.4991 243.83 63.4991 243.819 63.4991C243.807 63.4991 243.796 63.4991 243.784 63.4991C243.772 63.4991 243.76 63.4991 243.749 63.4991C243.737 63.4991 243.725 63.4991 243.713 63.4991C243.701 63.4991 243.689 63.4991 243.677 63.4991C243.665 63.4991 243.653 63.4991 243.64 63.4991C243.628 63.4991 243.616 63.4991 243.604 63.4991C243.591 63.4991 243.579 63.4991 243.566 63.4991C243.554 63.4991 243.541 63.4991 243.529 63.4991C243.516 63.4991 243.503 63.4991 243.491 63.4991C243.478 63.4991 243.465 63.4991 243.452 63.4991C243.439 63.4991 243.426 63.4991 243.413 63.4991C243.4 63.4991 243.387 63.4991 243.374 63.4991C243.361 63.4991 243.348 63.4991 243.334 63.4991C243.321 63.4991 243.307 63.4991 243.294 63.4991C243.281 63.4991 243.267 63.4991 243.253 63.4991C243.24 63.4991 243.226 63.4991 243.212 63.4991C243.198 63.4991 243.185 63.4991 243.171 63.4991C243.157 63.4991 243.143 63.4991 243.129 63.4991C243.115 63.4991 243.1 63.4991 243.086 63.4991C243.072 63.4991 243.058 63.4991 243.043 63.4991C243.029 63.4991 243.014 63.4991 243 63.4991C242.985 63.4991 242.97 63.4991 242.956 63.4991C242.941 63.4991 242.926 63.4991 242.911 63.4991C242.896 63.4991 242.881 63.4991 242.866 63.4991C242.851 63.4991 242.836 63.4991 242.821 63.4991C242.806 63.4991 242.79 63.4991 242.775 63.4991C242.759 63.4991 242.744 63.4991 242.728 63.4991C242.713 63.4991 242.697 63.4991 242.681 63.4991C242.665 63.4991 242.65 63.4991 242.634 63.4991C242.618 63.4991 242.602 63.4991 242.586 63.4991C242.569 63.4991 242.553 63.4991 242.537 63.4991C242.521 63.4991 242.504 63.4991 242.488 63.4991C242.471 63.4991 242.455 63.4991 242.438 63.4991C242.421 63.4991 242.404 63.4991 242.388 63.4991C242.371 63.4991 242.354 63.4991 242.337 63.4991C242.32 63.4991 242.303 63.4991 242.285 63.4991C242.268 63.4991 242.251 63.4991 242.233 63.4991C242.216 63.4991 242.198 63.4991 242.181 63.4991C242.163 63.4991 242.145 63.4991 242.127 63.4991C242.11 63.4991 242.092 63.4991 242.074 63.4991C242.056 63.4991 242.037 63.4991 242.019 63.4991C242.001 63.4991 241.983 63.4991 241.964 63.4991C241.946 63.4991 241.927 63.4991 241.909 63.4991C241.89 63.4991 241.871 63.4991 241.852 63.4991C241.833 63.4991 241.814 63.4991 241.795 63.4991C241.776 63.4991 241.757 63.4991 241.738 63.4991C241.719 63.4991 241.699 63.4991 241.68 63.4991C241.66 63.4991 241.641 63.4991 241.621 63.4991C241.601 63.4991 241.581 63.4991 241.561 63.4991C241.542 63.4991 241.521 63.4991 241.501 63.4991C241.481 63.4991 241.461 63.4991 241.441 63.4991C241.42 63.4991 241.4 63.4991 241.379 63.4991C241.359 63.4991 241.338 63.4991 241.317 63.4991C241.296 63.4991 241.275 63.4991 241.254 63.4991C241.233 63.4991 241.212 63.4991 241.191 63.4991C241.169 63.4991 241.148 63.4991 241.127 63.4991C241.105 63.4991 241.083 63.4991 241.062 63.4991C241.04 63.4991 241.018 63.4991 240.996 63.4991C240.974 63.4991 240.952 63.4991 240.93 63.4991C240.908 63.4991 240.885 63.4991 240.863 63.4991C240.84 63.4991 240.818 63.4991 240.795 63.4991C240.772 63.4991 240.75 63.4991 240.727 63.4991C240.704 63.4991 240.681 63.4991 240.657 63.4991C240.634 63.4991 240.611 63.4991 240.588 63.4991C240.564 63.4991 240.541 63.4991 240.517 63.4991C240.493 63.4991 240.469 63.4991 240.445 63.4991C240.422 63.4991 240.397 63.4991 240.373 63.4991C240.349 63.4991 240.325 63.4991 240.3 63.4991C240.276 63.4991 240.251 63.4991 240.227 63.4991C240.202 63.4991 240.177 63.4991 240.152 63.4991C240.127 63.4991 240.102 63.4991 240.077 63.4991C240.052 63.4991 240.026 63.4991 240.001 63.4991C239.975 63.4991 239.95 63.4991 239.924 63.4991C239.898 63.4991 239.872 63.4991 239.846 63.4991C239.82 63.4991 239.794 63.4991 239.768 63.4991C239.742 63.4991 239.715 63.4991 239.689 63.4991C239.662 63.4991 239.635 63.4991 239.609 63.4991C239.582 63.4991 239.555 63.4991 239.528 63.4991C239.501 63.4991 239.473 63.4991 239.446 63.4991C239.419 63.4991 239.391 63.4991 239.364 63.4991C239.336 63.4991 239.308 63.4991 239.28 63.4991C239.252 63.4991 239.224 63.4991 239.196 63.4991C239.168 63.4991 239.139 63.4991 239.111 63.4991C239.082 63.4991 239.054 63.4991 239.025 63.4991C238.996 63.4991 238.967 63.4991 238.938 63.4991C238.909 63.4991 238.88 63.4991 238.85 63.4991C238.821 63.4991 238.791 63.4991 238.762 63.4991C238.732 63.4991 238.702 63.4991 238.672 63.4991C238.642 63.4991 238.612 63.4991 238.582 63.4991C238.552 63.4991 238.521 63.4991 238.491 63.4991C238.46 63.4991 238.43 63.4991 238.399 63.4991C238.368 63.4991 238.337 63.4991 238.306 63.4991C238.275 63.4991 238.243 63.4991 238.212 63.4991C238.18 63.4991 238.149 63.4991 238.117 63.4991C238.085 63.4991 238.053 63.4991 238.021 63.4991C237.989 63.4991 237.957 63.4991 237.924 63.4991C237.892 63.4991 237.86 63.4991 237.827 63.4991C237.794 63.4991 237.761 63.4991 237.728 63.4991C237.695 63.4991 237.662 63.4991 237.629 63.4991C237.595 63.4991 237.562 63.4991 237.528 63.4991C237.495 63.4991 237.461 63.4991 237.427 63.4991C237.393 63.4991 237.359 63.4991 237.324 63.4991C237.29 63.4991 237.256 63.4991 237.221 63.4991C237.187 63.4991 237.152 63.4991 237.117 63.4991C237.082 63.4991 237.047 63.4991 237.011 63.4991C236.976 63.4991 236.941 63.4991 236.905 63.4991C236.87 63.4991 236.834 63.4991 236.798 63.4991C236.762 63.4991 236.726 63.4991 236.69 63.4991C236.653 63.4991 236.617 63.4991 236.58 63.4991C236.544 63.4991 236.507 63.4991 236.47 63.4991C236.433 63.4991 236.396 63.4991 236.359 63.4991C236.321 63.4991 236.284 63.4991 236.246 63.4991C236.209 63.4991 236.171 63.4991 236.133 63.4991C236.095 63.4991 236.057 63.4991 236.018 63.4991C235.98 63.4991 235.942 63.4991 235.903 63.4991C235.864 63.4991 235.826 63.4991 235.787 63.4991C235.748 63.4991 235.708 63.4991 235.669 63.4991C235.63 63.4991 235.59 63.4991 235.55 63.4991C235.511 63.4991 235.471 63.4991 235.431 63.4991C235.391 63.4991 235.35 63.4991 235.31 63.4991C235.269 63.4991 235.229 63.4991 235.188 63.4991C235.147 63.4991 235.106 63.4991 235.065 63.4991C235.024 63.4991 234.983 63.4991 234.941 63.4991C234.9 63.4991 234.858 63.4991 234.816 63.4991C234.774 63.4991 234.732 63.4991 234.69 63.4991C234.648 63.4991 234.605 63.4991 234.563 63.4991C234.52 63.4991 234.477 63.4991 234.434 63.4991C234.391 63.4991 234.348 63.4991 234.305 63.4991C234.261 63.4991 234.218 63.4991 234.174 63.4991C234.13 63.4991 234.086 63.4991 234.042 63.4991C233.998 63.4991 233.954 63.4991 233.909 63.4991C233.865 63.4991 233.82 63.4991 233.775 63.4991C233.73 63.4991 233.685 63.4991 233.64 63.4991C233.595 63.4991 233.549 63.4991 233.504 63.4991C233.458 63.4991 233.412 63.4991 233.366 63.4991C233.32 63.4991 233.274 63.4991 233.227 63.4991C233.181 63.4991 233.134 63.4991 233.088 63.4991C233.041 63.4991 232.994 63.4991 232.947 63.4991C232.899 63.4991 232.852 63.4991 232.804 63.4991C232.757 63.4991 232.709 63.4991 232.661 63.4991C232.613 63.4991 232.565 63.4991 232.516 63.4991C232.468 63.4991 232.419 63.4991 232.371 63.4991C232.322 63.4991 232.273 63.4991 232.224 63.4991C232.174 63.4991 232.125 63.4991 232.075 63.4991C232.026 63.4991 231.976 63.4991 231.926 63.4991C231.876 63.4991 231.826 63.4991 231.775 63.4991C231.725 63.4991 231.674 63.4991 231.623 63.4991C231.573 63.4991 231.522 63.4991 231.47 63.4991C231.419 63.4991 231.368 63.4991 231.316 63.4991C231.264 63.4991 231.212 63.4991 231.16 63.4991C231.108 63.4991 231.056 63.4991 231.003 63.4991C230.951 63.4991 230.898 63.4991 230.845 63.4991C230.792 63.4991 230.739 63.4991 230.686 63.4991C230.633 63.4991 230.579 63.4991 230.525 63.4991C230.471 63.4991 230.417 63.4991 230.363 63.4991C230.309 63.4991 230.255 63.4991 230.2 63.4991C230.145 63.4991 230.091 63.4991 230.036 63.4991C229.98 63.4991 229.925 63.4991 229.87 63.4991C229.814 63.4991 229.759 63.4991 229.703 63.4991C229.647 63.4991 229.591 63.4991 229.534 63.4991C229.478 63.4991 229.421 63.4991 229.364 63.4991C229.308 63.4991 229.251 63.4991 229.193 63.4991C229.136 63.4991 229.079 63.4991 229.021 63.4991C228.963 63.4991 228.905 63.4991 228.847 63.4991C228.789 63.4991 228.731 63.4991 228.672 63.4991C228.614 63.4991 228.555 63.4991 228.496 63.4991C228.437 63.4991 228.378 63.4991 228.318 63.4991C228.259 63.4991 228.199 63.4991 228.139 63.4991C228.079 63.4991 228.019 63.4991 227.959 63.4991C227.898 63.4991 227.838 63.4991 227.777 63.4991C227.716 63.4991 227.655 63.4991 227.594 63.4991C227.532 63.4991 227.471 63.4991 227.409 63.4991C227.347 63.4991 227.285 63.4991 227.223 63.4991C227.161 63.4991 227.098 63.4991 227.036 63.4991C226.973 63.4991 226.91 63.4991 226.847 63.4991C226.784 63.4991 226.721 63.4991 226.657 63.4991C226.593 63.4991 226.529 63.4991 226.465 63.4991C226.401 63.4991 226.337 63.4991 226.272 63.4991C226.208 63.4991 226.143 63.4991 226.078 63.4991C226.013 63.4991 225.948 63.4991 225.882 63.4991C225.817 63.4991 225.751 63.4991 225.685 63.4991C225.619 63.4991 225.553 63.4991 225.486 63.4991C225.42 63.4991 225.353 63.4991 225.286 63.4991C225.219 63.4991 225.152 63.4991 225.085 63.4991C225.017 63.4991 224.95 63.4991 224.882 63.4991C224.814 63.4991 224.746 63.4991 224.677 63.4991C224.609 63.4991 224.54 63.4991 224.471 63.4991C224.402 63.4991 224.333 63.4991 224.264 63.4991C224.194 63.4991 224.125 63.4991 224.055 63.4991C223.985 63.4991 223.915 63.4991 223.845 63.4991C223.774 63.4991 223.704 63.4991 223.633 63.4991C223.562 63.4991 223.491 63.4991 223.419 63.4991C223.348 63.4991 223.276 63.4991 223.204 63.4991C223.133 63.4991 223.06 63.4991 222.988 63.4991C222.916 63.4991 222.843 63.4991 222.77 63.4991C222.697 63.4991 222.624 63.4991 222.551 63.4991C222.477 63.4991 222.404 63.4991 222.33 63.4991C222.256 63.4991 222.182 63.4991 222.107 63.4991C222.033 63.4991 221.958 63.4991 221.883 63.4991C221.808 63.4991 221.733 63.4991 221.658 63.4991C221.582 63.4991 221.507 63.4991 221.431 63.4991C221.355 63.4991 221.278 63.4991 221.202 63.4991C221.126 63.4991 221.049 63.4991 220.972 63.4991C220.895 63.4991 220.818 63.4991 220.74 63.4991C220.662 63.4991 220.585 63.4991 220.507 63.4991C220.429 63.4991 220.35 63.4991 220.272 63.4991C220.193 63.4991 220.114 63.4991 220.035 63.4991C219.956 63.4991 219.877 63.4991 219.797 63.4991C219.717 63.4991 219.638 63.4991 219.557 63.4991C219.477 63.4991 219.397 63.4991 219.316 63.4991C219.235 63.4991 219.154 63.4991 219.073 63.4991C218.992 63.4991 218.91 63.4991 218.829 63.4991C218.747 63.4991 218.665 63.4991 218.582 63.4991C218.5 63.4991 218.418 63.4991 218.335 63.4991C218.252 63.4991 218.169 63.4991 218.085 63.4991C218.002 63.4991 217.918 63.4991 217.834 63.4991C217.75 63.4991 217.666 63.4991 217.581 63.4991C217.497 63.4991 217.412 63.4991 217.327 63.4991C217.242 63.4991 217.157 63.4991 217.071 63.4991C216.986 63.4991 216.9 63.4991 216.813 63.4991C216.727 63.4991 216.641 63.4991 216.554 63.4991C216.467 63.4991 216.38 63.4991 216.293 63.4991C216.206 63.4991 216.118 63.4991 216.03 63.4991C215.943 63.4991 215.854 63.4991 215.766 63.4991C215.678 63.4991 215.589 63.4991 215.5 63.4991V67.4991C215.589 67.4991 215.678 67.4991 215.766 67.4991C215.854 67.4991 215.943 67.4991 216.03 67.4991C216.118 67.4991 216.206 67.4991 216.293 67.4991C216.38 67.4991 216.467 67.4991 216.554 67.4991C216.641 67.4991 216.727 67.4991 216.813 67.4991C216.9 67.4991 216.986 67.4991 217.071 67.4991C217.157 67.4991 217.242 67.4991 217.327 67.4991C217.412 67.4991 217.497 67.4991 217.581 67.4991C217.666 67.4991 217.75 67.4991 217.834 67.4991C217.918 67.4991 218.002 67.4991 218.085 67.4991C218.169 67.4991 218.252 67.4991 218.335 67.4991C218.418 67.4991 218.5 67.4991 218.582 67.4991C218.665 67.4991 218.747 67.4991 218.829 67.4991C218.91 67.4991 218.992 67.4991 219.073 67.4991C219.154 67.4991 219.235 67.4991 219.316 67.4991C219.397 67.4991 219.477 67.4991 219.557 67.4991C219.638 67.4991 219.717 67.4991 219.797 67.4991C219.877 67.4991 219.956 67.4991 220.035 67.4991C220.114 67.4991 220.193 67.4991 220.272 67.4991C220.35 67.4991 220.429 67.4991 220.507 67.4991C220.585 67.4991 220.662 67.4991 220.74 67.4991C220.818 67.4991 220.895 67.4991 220.972 67.4991C221.049 67.4991 221.126 67.4991 221.202 67.4991C221.278 67.4991 221.355 67.4991 221.431 67.4991C221.507 67.4991 221.582 67.4991 221.658 67.4991C221.733 67.4991 221.808 67.4991 221.883 67.4991C221.958 67.4991 222.033 67.4991 222.107 67.4991C222.182 67.4991 222.256 67.4991 222.33 67.4991C222.404 67.4991 222.477 67.4991 222.551 67.4991C222.624 67.4991 222.697 67.4991 222.77 67.4991C222.843 67.4991 222.916 67.4991 222.988 67.4991C223.06 67.4991 223.133 67.4991 223.204 67.4991C223.276 67.4991 223.348 67.4991 223.419 67.4991C223.491 67.4991 223.562 67.4991 223.633 67.4991C223.704 67.4991 223.774 67.4991 223.845 67.4991C223.915 67.4991 223.985 67.4991 224.055 67.4991C224.125 67.4991 224.194 67.4991 224.264 67.4991C224.333 67.4991 224.402 67.4991 224.471 67.4991C224.54 67.4991 224.609 67.4991 224.677 67.4991C224.746 67.4991 224.814 67.4991 224.882 67.4991C224.95 67.4991 225.017 67.4991 225.085 67.4991C225.152 67.4991 225.219 67.4991 225.286 67.4991C225.353 67.4991 225.42 67.4991 225.486 67.4991C225.553 67.4991 225.619 67.4991 225.685 67.4991C225.751 67.4991 225.817 67.4991 225.882 67.4991C225.948 67.4991 226.013 67.4991 226.078 67.4991C226.143 67.4991 226.208 67.4991 226.272 67.4991C226.337 67.4991 226.401 67.4991 226.465 67.4991C226.529 67.4991 226.593 67.4991 226.657 67.4991C226.721 67.4991 226.784 67.4991 226.847 67.4991C226.91 67.4991 226.973 67.4991 227.036 67.4991C227.098 67.4991 227.161 67.4991 227.223 67.4991C227.285 67.4991 227.347 67.4991 227.409 67.4991C227.471 67.4991 227.532 67.4991 227.594 67.4991C227.655 67.4991 227.716 67.4991 227.777 67.4991C227.838 67.4991 227.898 67.4991 227.959 67.4991C228.019 67.4991 228.079 67.4991 228.139 67.4991C228.199 67.4991 228.259 67.4991 228.318 67.4991C228.378 67.4991 228.437 67.4991 228.496 67.4991C228.555 67.4991 228.614 67.4991 228.672 67.4991C228.731 67.4991 228.789 67.4991 228.847 67.4991C228.905 67.4991 228.963 67.4991 229.021 67.4991C229.079 67.4991 229.136 67.4991 229.193 67.4991C229.251 67.4991 229.308 67.4991 229.364 67.4991C229.421 67.4991 229.478 67.4991 229.534 67.4991C229.591 67.4991 229.647 67.4991 229.703 67.4991C229.759 67.4991 229.814 67.4991 229.87 67.4991C229.925 67.4991 229.98 67.4991 230.036 67.4991C230.091 67.4991 230.145 67.4991 230.2 67.4991C230.255 67.4991 230.309 67.4991 230.363 67.4991C230.417 67.4991 230.471 67.4991 230.525 67.4991C230.579 67.4991 230.633 67.4991 230.686 67.4991C230.739 67.4991 230.792 67.4991 230.845 67.4991C230.898 67.4991 230.951 67.4991 231.003 67.4991C231.056 67.4991 231.108 67.4991 231.16 67.4991C231.212 67.4991 231.264 67.4991 231.316 67.4991C231.368 67.4991 231.419 67.4991 231.47 67.4991C231.522 67.4991 231.573 67.4991 231.623 67.4991C231.674 67.4991 231.725 67.4991 231.775 67.4991C231.826 67.4991 231.876 67.4991 231.926 67.4991C231.976 67.4991 232.026 67.4991 232.075 67.4991C232.125 67.4991 232.174 67.4991 232.224 67.4991C232.273 67.4991 232.322 67.4991 232.371 67.4991C232.419 67.4991 232.468 67.4991 232.516 67.4991C232.565 67.4991 232.613 67.4991 232.661 67.4991C232.709 67.4991 232.757 67.4991 232.804 67.4991C232.852 67.4991 232.899 67.4991 232.947 67.4991C232.994 67.4991 233.041 67.4991 233.088 67.4991C233.134 67.4991 233.181 67.4991 233.227 67.4991C233.274 67.4991 233.32 67.4991 233.366 67.4991C233.412 67.4991 233.458 67.4991 233.504 67.4991C233.549 67.4991 233.595 67.4991 233.64 67.4991C233.685 67.4991 233.73 67.4991 233.775 67.4991C233.82 67.4991 233.865 67.4991 233.909 67.4991C233.954 67.4991 233.998 67.4991 234.042 67.4991C234.086 67.4991 234.13 67.4991 234.174 67.4991C234.218 67.4991 234.261 67.4991 234.305 67.4991C234.348 67.4991 234.391 67.4991 234.434 67.4991C234.477 67.4991 234.52 67.4991 234.563 67.4991C234.605 67.4991 234.648 67.4991 234.69 67.4991C234.732 67.4991 234.774 67.4991 234.816 67.4991C234.858 67.4991 234.9 67.4991 234.941 67.4991C234.983 67.4991 235.024 67.4991 235.065 67.4991C235.106 67.4991 235.147 67.4991 235.188 67.4991C235.229 67.4991 235.269 67.4991 235.31 67.4991C235.35 67.4991 235.391 67.4991 235.431 67.4991C235.471 67.4991 235.511 67.4991 235.55 67.4991C235.59 67.4991 235.63 67.4991 235.669 67.4991C235.708 67.4991 235.748 67.4991 235.787 67.4991C235.826 67.4991 235.864 67.4991 235.903 67.4991C235.942 67.4991 235.98 67.4991 236.018 67.4991C236.057 67.4991 236.095 67.4991 236.133 67.4991C236.171 67.4991 236.209 67.4991 236.246 67.4991C236.284 67.4991 236.321 67.4991 236.359 67.4991C236.396 67.4991 236.433 67.4991 236.47 67.4991C236.507 67.4991 236.544 67.4991 236.58 67.4991C236.617 67.4991 236.653 67.4991 236.69 67.4991C236.726 67.4991 236.762 67.4991 236.798 67.4991C236.834 67.4991 236.87 67.4991 236.905 67.4991C236.941 67.4991 236.976 67.4991 237.011 67.4991C237.047 67.4991 237.082 67.4991 237.117 67.4991C237.152 67.4991 237.187 67.4991 237.221 67.4991C237.256 67.4991 237.29 67.4991 237.324 67.4991C237.359 67.4991 237.393 67.4991 237.427 67.4991C237.461 67.4991 237.495 67.4991 237.528 67.4991C237.562 67.4991 237.595 67.4991 237.629 67.4991C237.662 67.4991 237.695 67.4991 237.728 67.4991C237.761 67.4991 237.794 67.4991 237.827 67.4991C237.86 67.4991 237.892 67.4991 237.924 67.4991C237.957 67.4991 237.989 67.4991 238.021 67.4991C238.053 67.4991 238.085 67.4991 238.117 67.4991C238.149 67.4991 238.18 67.4991 238.212 67.4991C238.243 67.4991 238.275 67.4991 238.306 67.4991C238.337 67.4991 238.368 67.4991 238.399 67.4991C238.43 67.4991 238.46 67.4991 238.491 67.4991C238.521 67.4991 238.552 67.4991 238.582 67.4991C238.612 67.4991 238.642 67.4991 238.672 67.4991C238.702 67.4991 238.732 67.4991 238.762 67.4991C238.791 67.4991 238.821 67.4991 238.85 67.4991C238.88 67.4991 238.909 67.4991 238.938 67.4991C238.967 67.4991 238.996 67.4991 239.025 67.4991C239.054 67.4991 239.082 67.4991 239.111 67.4991C239.139 67.4991 239.168 67.4991 239.196 67.4991C239.224 67.4991 239.252 67.4991 239.28 67.4991C239.308 67.4991 239.336 67.4991 239.364 67.4991C239.391 67.4991 239.419 67.4991 239.446 67.4991C239.473 67.4991 239.501 67.4991 239.528 67.4991C239.555 67.4991 239.582 67.4991 239.609 67.4991C239.635 67.4991 239.662 67.4991 239.689 67.4991C239.715 67.4991 239.742 67.4991 239.768 67.4991C239.794 67.4991 239.82 67.4991 239.846 67.4991C239.872 67.4991 239.898 67.4991 239.924 67.4991C239.95 67.4991 239.975 67.4991 240.001 67.4991C240.026 67.4991 240.052 67.4991 240.077 67.4991C240.102 67.4991 240.127 67.4991 240.152 67.4991C240.177 67.4991 240.202 67.4991 240.227 67.4991C240.251 67.4991 240.276 67.4991 240.3 67.4991C240.325 67.4991 240.349 67.4991 240.373 67.4991C240.397 67.4991 240.422 67.4991 240.445 67.4991C240.469 67.4991 240.493 67.4991 240.517 67.4991C240.541 67.4991 240.564 67.4991 240.588 67.4991C240.611 67.4991 240.634 67.4991 240.657 67.4991C240.681 67.4991 240.704 67.4991 240.727 67.4991C240.75 67.4991 240.772 67.4991 240.795 67.4991C240.818 67.4991 240.84 67.4991 240.863 67.4991C240.885 67.4991 240.908 67.4991 240.93 67.4991C240.952 67.4991 240.974 67.4991 240.996 67.4991C241.018 67.4991 241.04 67.4991 241.062 67.4991C241.083 67.4991 241.105 67.4991 241.127 67.4991C241.148 67.4991 241.169 67.4991 241.191 67.4991C241.212 67.4991 241.233 67.4991 241.254 67.4991C241.275 67.4991 241.296 67.4991 241.317 67.4991C241.338 67.4991 241.359 67.4991 241.379 67.4991C241.4 67.4991 241.42 67.4991 241.441 67.4991C241.461 67.4991 241.481 67.4991 241.501 67.4991C241.521 67.4991 241.542 67.4991 241.561 67.4991C241.581 67.4991 241.601 67.4991 241.621 67.4991C241.641 67.4991 241.66 67.4991 241.68 67.4991C241.699 67.4991 241.719 67.4991 241.738 67.4991C241.757 67.4991 241.776 67.4991 241.795 67.4991C241.814 67.4991 241.833 67.4991 241.852 67.4991C241.871 67.4991 241.89 67.4991 241.909 67.4991C241.927 67.4991 241.946 67.4991 241.964 67.4991C241.983 67.4991 242.001 67.4991 242.019 67.4991C242.037 67.4991 242.056 67.4991 242.074 67.4991C242.092 67.4991 242.11 67.4991 242.127 67.4991C242.145 67.4991 242.163 67.4991 242.181 67.4991C242.198 67.4991 242.216 67.4991 242.233 67.4991C242.251 67.4991 242.268 67.4991 242.285 67.4991C242.303 67.4991 242.32 67.4991 242.337 67.4991C242.354 67.4991 242.371 67.4991 242.388 67.4991C242.404 67.4991 242.421 67.4991 242.438 67.4991C242.455 67.4991 242.471 67.4991 242.488 67.4991C242.504 67.4991 242.521 67.4991 242.537 67.4991C242.553 67.4991 242.569 67.4991 242.586 67.4991C242.602 67.4991 242.618 67.4991 242.634 67.4991C242.65 67.4991 242.665 67.4991 242.681 67.4991C242.697 67.4991 242.713 67.4991 242.728 67.4991C242.744 67.4991 242.759 67.4991 242.775 67.4991C242.79 67.4991 242.806 67.4991 242.821 67.4991C242.836 67.4991 242.851 67.4991 242.866 67.4991C242.881 67.4991 242.896 67.4991 242.911 67.4991C242.926 67.4991 242.941 67.4991 242.956 67.4991C242.97 67.4991 242.985 67.4991 243 67.4991C243.014 67.4991 243.029 67.4991 243.043 67.4991C243.058 67.4991 243.072 67.4991 243.086 67.4991C243.1 67.4991 243.115 67.4991 243.129 67.4991C243.143 67.4991 243.157 67.4991 243.171 67.4991C243.185 67.4991 243.198 67.4991 243.212 67.4991C243.226 67.4991 243.24 67.4991 243.253 67.4991C243.267 67.4991 243.281 67.4991 243.294 67.4991C243.307 67.4991 243.321 67.4991 243.334 67.4991C243.348 67.4991 243.361 67.4991 243.374 67.4991C243.387 67.4991 243.4 67.4991 243.413 67.4991C243.426 67.4991 243.439 67.4991 243.452 67.4991C243.465 67.4991 243.478 67.4991 243.491 67.4991C243.503 67.4991 243.516 67.4991 243.529 67.4991C243.541 67.4991 243.554 67.4991 243.566 67.4991C243.579 67.4991 243.591 67.4991 243.604 67.4991C243.616 67.4991 243.628 67.4991 243.64 67.4991C243.653 67.4991 243.665 67.4991 243.677 67.4991C243.689 67.4991 243.701 67.4991 243.713 67.4991C243.725 67.4991 243.737 67.4991 243.749 67.4991C243.76 67.4991 243.772 67.4991 243.784 67.4991C243.796 67.4991 243.807 67.4991 243.819 67.4991C243.83 67.4991 243.842 67.4991 243.853 67.4991C243.865 67.4991 243.876 67.4991 243.887 67.4991C243.899 67.4991 243.91 67.4991 243.921 67.4991C243.933 67.4991 243.944 67.4991 243.955 67.4991C243.966 67.4991 243.977 67.4991 243.988 67.4991C243.999 67.4991 244.01 67.4991 244.021 67.4991C244.032 67.4991 244.042 67.4991 244.053 67.4991C244.064 67.4991 244.075 67.4991 244.085 67.4991C244.096 67.4991 244.107 67.4991 244.117 67.4991C244.128 67.4991 244.138 67.4991 244.149 67.4991C244.159 67.4991 244.17 67.4991 244.18 67.4991C244.19 67.4991 244.201 67.4991 244.211 67.4991C244.221 67.4991 244.231 67.4991 244.241 67.4991C244.252 67.4991 244.262 67.4991 244.272 67.4991C244.282 67.4991 244.292 67.4991 244.302 67.4991C244.312 67.4991 244.322 67.4991 244.331 67.4991C244.341 67.4991 244.351 67.4991 244.361 67.4991C244.371 67.4991 244.38 67.4991 244.39 67.4991C244.4 67.4991 244.41 67.4991 244.419 67.4991C244.429 67.4991 244.438 67.4991 244.448 67.4991C244.457 67.4991 244.467 67.4991 244.476 67.4991C244.486 67.4991 244.495 67.4991 244.504 67.4991C244.514 67.4991 244.523 67.4991 244.532 67.4991C244.542 67.4991 244.551 67.4991 244.56 67.4991C244.569 67.4991 244.579 67.4991 244.588 67.4991C244.597 67.4991 244.606 67.4991 244.615 67.4991C244.624 67.4991 244.633 67.4991 244.642 67.4991C244.651 67.4991 244.66 67.4991 244.669 67.4991C244.678 67.4991 244.687 67.4991 244.696 67.4991C244.705 67.4991 244.713 67.4991 244.722 67.4991C244.731 67.4991 244.74 67.4991 244.748 67.4991C244.757 67.4991 244.766 67.4991 244.775 67.4991C244.783 67.4991 244.792 67.4991 244.801 67.4991C244.809 67.4991 244.818 67.4991 244.826 67.4991C244.835 67.4991 244.843 67.4991 244.852 67.4991C244.86 67.4991 244.869 67.4991 244.877 67.4991C244.886 67.4991 244.894 67.4991 244.903 67.4991C244.911 67.4991 244.919 67.4991 244.928 67.4991C244.936 67.4991 244.944 67.4991 244.953 67.4991C244.961 67.4991 244.969 67.4991 244.978 67.4991C244.986 67.4991 244.994 67.4991 245.002 67.4991C245.011 67.4991 245.019 67.4991 245.027 67.4991C245.035 67.4991 245.043 67.4991 245.051 67.4991C245.06 67.4991 245.068 67.4991 245.076 67.4991C245.084 67.4991 245.092 67.4991 245.1 67.4991C245.108 67.4991 245.116 67.4991 245.124 67.4991C245.132 67.4991 245.14 67.4991 245.148 67.4991C245.156 67.4991 245.164 67.4991 245.172 67.4991C245.18 67.4991 245.188 67.4991 245.196 67.4991C245.204 67.4991 245.212 67.4991 245.22 67.4991C245.228 67.4991 245.236 67.4991 245.244 67.4991C245.252 67.4991 245.26 67.4991 245.268 67.4991C245.275 67.4991 245.283 67.4991 245.291 67.4991C245.299 67.4991 245.307 67.4991 245.315 67.4991C245.323 67.4991 245.33 67.4991 245.338 67.4991C245.346 67.4991 245.354 67.4991 245.362 67.4991C245.37 67.4991 245.377 67.4991 245.385 67.4991C245.393 67.4991 245.401 67.4991 245.409 67.4991C245.417 67.4991 245.424 67.4991 245.432 67.4991C245.44 67.4991 245.448 67.4991 245.455 67.4991C245.463 67.4991 245.471 67.4991 245.479 67.4991C245.487 67.4991 245.494 67.4991 245.502 67.4991C245.51 67.4991 245.518 67.4991 245.526 67.4991C245.533 67.4991 245.541 67.4991 245.549 67.4991C245.557 67.4991 245.565 67.4991 245.572 67.4991C245.58 67.4991 245.588 67.4991 245.596 67.4991C245.604 67.4991 245.611 67.4991 245.619 67.4991C245.627 67.4991 245.635 67.4991 245.643 67.4991C245.651 67.4991 245.658 67.4991 245.666 67.4991C245.674 67.4991 245.682 67.4991 245.69 67.4991C245.698 67.4991 245.705 67.4991 245.713 67.4991C245.721 67.4991 245.729 67.4991 245.737 67.4991C245.745 67.4991 245.753 67.4991 245.761 67.4991C245.769 67.4991 245.777 67.4991 245.784 67.4991C245.792 67.4991 245.8 67.4991 245.808 67.4991C245.816 67.4991 245.824 67.4991 245.832 67.4991C245.84 67.4991 245.848 67.4991 245.856 67.4991C245.864 67.4991 245.872 67.4991 245.88 67.4991C245.888 67.4991 245.896 67.4991 245.904 67.4991C245.913 67.4991 245.921 67.4991 245.929 67.4991C245.937 67.4991 245.945 67.4991 245.953 67.4991C245.961 67.4991 245.969 67.4991 245.978 67.4991C245.986 67.4991 245.994 67.4991 246.002 67.4991C246.011 67.4991 246.019 67.4991 246.027 67.4991C246.035 67.4991 246.044 67.4991 246.052 67.4991C246.06 67.4991 246.069 67.4991 246.077 67.4991C246.085 67.4991 246.094 67.4991 246.102 67.4991C246.11 67.4991 246.119 67.4991 246.127 67.4991C246.136 67.4991 246.144 67.4991 246.153 67.4991C246.161 67.4991 246.17 67.4991 246.178 67.4991C246.187 67.4991 246.196 67.4991 246.204 67.4991C246.213 67.4991 246.222 67.4991 246.23 67.4991C246.239 67.4991 246.248 67.4991 246.256 67.4991C246.265 67.4991 246.274 67.4991 246.283 67.4991C246.291 67.4991 246.3 67.4991 246.309 67.4991C246.318 67.4991 246.327 67.4991 246.336 67.4991C246.345 67.4991 246.354 67.4991 246.363 67.4991C246.372 67.4991 246.381 67.4991 246.39 67.4991C246.399 67.4991 246.408 67.4991 246.417 67.4991C246.426 67.4991 246.436 67.4991 246.445 67.4991C246.454 67.4991 246.463 67.4991 246.473 67.4991C246.482 67.4991 246.491 67.4991 246.501 67.4991C246.51 67.4991 246.519 67.4991 246.529 67.4991C246.538 67.4991 246.548 67.4991 246.557 67.4991C246.567 67.4991 246.576 67.4991 246.586 67.4991C246.596 67.4991 246.605 67.4991 246.615 67.4991C246.625 67.4991 246.634 67.4991 246.644 67.4991C246.654 67.4991 246.664 67.4991 246.674 67.4991C246.684 67.4991 246.694 67.4991 246.704 67.4991C246.713 67.4991 246.724 67.4991 246.734 67.4991C246.744 67.4991 246.754 67.4991 246.764 67.4991C246.774 67.4991 246.784 67.4991 246.795 67.4991C246.805 67.4991 246.815 67.4991 246.825 67.4991C246.836 67.4991 246.846 67.4991 246.857 67.4991C246.867 67.4991 246.878 67.4991 246.888 67.4991C246.899 67.4991 246.909 67.4991 246.92 67.4991C246.931 67.4991 246.942 67.4991 246.952 67.4991C246.963 67.4991 246.974 67.4991 246.985 67.4991C246.996 67.4991 247.007 67.4991 247.018 67.4991C247.029 67.4991 247.04 67.4991 247.051 67.4991C247.062 67.4991 247.073 67.4991 247.084 67.4991C247.096 67.4991 247.107 67.4991 247.118 67.4991C247.13 67.4991 247.141 67.4991 247.152 67.4991C247.164 67.4991 247.175 67.4991 247.187 67.4991C247.199 67.4991 247.21 67.4991 247.222 67.4991C247.234 67.4991 247.245 67.4991 247.257 67.4991C247.269 67.4991 247.281 67.4991 247.293 67.4991C247.305 67.4991 247.317 67.4991 247.329 67.4991C247.341 67.4991 247.353 67.4991 247.366 67.4991C247.378 67.4991 247.39 67.4991 247.402 67.4991C247.415 67.4991 247.427 67.4991 247.44 67.4991C247.452 67.4991 247.465 67.4991 247.477 67.4991C247.49 67.4991 247.503 67.4991 247.515 67.4991C247.528 67.4991 247.541 67.4991 247.554 67.4991C247.567 67.4991 247.58 67.4991 247.593 67.4991C247.606 67.4991 247.619 67.4991 247.632 67.4991C247.645 67.4991 247.659 67.4991 247.672 67.4991C247.685 67.4991 247.699 67.4991 247.712 67.4991C247.726 67.4991 247.739 67.4991 247.753 67.4991C247.767 67.4991 247.78 67.4991 247.794 67.4991C247.808 67.4991 247.822 67.4991 247.836 67.4991C247.85 67.4991 247.864 67.4991 247.878 67.4991C247.892 67.4991 247.906 67.4991 247.921 67.4991C247.935 67.4991 247.949 67.4991 247.964 67.4991C247.978 67.4991 247.993 67.4991 248.007 67.4991C248.022 67.4991 248.036 67.4991 248.051 67.4991C248.066 67.4991 248.081 67.4991 248.096 67.4991C248.111 67.4991 248.126 67.4991 248.141 67.4991C248.156 67.4991 248.171 67.4991 248.186 67.4991C248.201 67.4991 248.217 67.4991 248.232 67.4991C248.248 67.4991 248.263 67.4991 248.279 67.4991C248.294 67.4991 248.31 67.4991 248.326 67.4991C248.342 67.4991 248.358 67.4991 248.374 67.4991C248.39 67.4991 248.406 67.4991 248.422 67.4991C248.438 67.4991 248.454 67.4991 248.47 67.4991C248.487 67.4991 248.503 67.4991 248.52 67.4991C248.536 67.4991 248.553 67.4991 248.57 67.4991C248.586 67.4991 248.603 67.4991 248.62 67.4991C248.637 67.4991 248.654 67.4991 248.671 67.4991C248.688 67.4991 248.705 67.4991 248.722 67.4991C248.74 67.4991 248.757 67.4991 248.774 67.4991C248.792 67.4991 248.809 67.4991 248.827 67.4991C248.845 67.4991 248.863 67.4991 248.88 67.4991C248.898 67.4991 248.916 67.4991 248.934 67.4991C248.952 67.4991 248.971 67.4991 248.989 67.4991C249.007 67.4991 249.025 67.4991 249.044 67.4991C249.062 67.4991 249.081 67.4991 249.1 67.4991C249.118 67.4991 249.137 67.4991 249.156 67.4991C249.175 67.4991 249.194 67.4991 249.213 67.4991C249.232 67.4991 249.251 67.4991 249.27 67.4991C249.29 67.4991 249.309 67.4991 249.329 67.4991C249.348 67.4991 249.368 67.4991 249.388 67.4991C249.407 67.4991 249.427 67.4991 249.447 67.4991C249.467 67.4991 249.487 67.4991 249.507 67.4991C249.527 67.4991 249.548 67.4991 249.568 67.4991C249.589 67.4991 249.609 67.4991 249.63 67.4991C249.65 67.4991 249.671 67.4991 249.692 67.4991C249.713 67.4991 249.734 67.4991 249.755 67.4991C249.776 67.4991 249.797 67.4991 249.818 67.4991C249.84 67.4991 249.861 67.4991 249.882 67.4991C249.904 67.4991 249.926 67.4991 249.947 67.4991C249.969 67.4991 249.991 67.4991 250.013 67.4991C250.035 67.4991 250.057 67.4991 250.079 67.4991C250.102 67.4991 250.124 67.4991 250.147 67.4991C250.169 67.4991 250.192 67.4991 250.214 67.4991C250.237 67.4991 250.26 67.4991 250.283 67.4991C250.306 67.4991 250.329 67.4991 250.352 67.4991C250.375 67.4991 250.399 67.4991 250.422 67.4991C250.446 67.4991 250.469 67.4991 250.493 67.4991C250.517 67.4991 250.54 67.4991 250.564 67.4991C250.588 67.4991 250.612 67.4991 250.637 67.4991C250.661 67.4991 250.685 67.4991 250.71 67.4991C250.734 67.4991 250.759 67.4991 250.783 67.4991C250.808 67.4991 250.833 67.4991 250.858 67.4991C250.883 67.4991 250.908 67.4991 250.933 67.4991C250.959 67.4991 250.984 67.4991 251.009 67.4991C251.035 67.4991 251.061 67.4991 251.086 67.4991C251.112 67.4991 251.138 67.4991 251.164 67.4991C251.19 67.4991 251.216 67.4991 251.243 67.4991C251.269 67.4991 251.295 67.4991 251.322 67.4991C251.349 67.4991 251.375 67.4991 251.402 67.4991C251.429 67.4991 251.456 67.4991 251.483 67.4991C251.51 67.4991 251.538 67.4991 251.565 67.4991C251.592 67.4991 251.62 67.4991 251.648 67.4991C251.675 67.4991 251.703 67.4991 251.731 67.4991C251.759 67.4991 251.787 67.4991 251.815 67.4991C251.844 67.4991 251.872 67.4991 251.901 67.4991C251.929 67.4991 251.958 67.4991 251.987 67.4991C252.015 67.4991 252.044 67.4991 252.074 67.4991C252.103 67.4991 252.132 67.4991 252.161 67.4991C252.191 67.4991 252.22 67.4991 252.25 67.4991C252.28 67.4991 252.309 67.4991 252.339 67.4991C252.369 67.4991 252.4 67.4991 252.43 67.4991C252.46 67.4991 252.491 67.4991 252.521 67.4991C252.552 67.4991 252.583 67.4991 252.613 67.4991C252.644 67.4991 252.675 67.4991 252.707 67.4991C252.738 67.4991 252.769 67.4991 252.801 67.4991C252.832 67.4991 252.864 67.4991 252.895 67.4991C252.927 67.4991 252.959 67.4991 252.991 67.4991C253.023 67.4991 253.056 67.4991 253.088 67.4991C253.121 67.4991 253.153 67.4991 253.186 67.4991C253.219 67.4991 253.252 67.4991 253.285 67.4991C253.318 67.4991 253.351 67.4991 253.384 67.4991C253.418 67.4991 253.451 67.4991 253.485 67.4991C253.518 67.4991 253.552 67.4991 253.586 67.4991C253.62 67.4991 253.654 67.4991 253.689 67.4991C253.723 67.4991 253.758 67.4991 253.792 67.4991C253.827 67.4991 253.862 67.4991 253.897 67.4991C253.932 67.4991 253.967 67.4991 254.002 67.4991C254.037 67.4991 254.073 67.4991 254.109 67.4991C254.144 67.4991 254.18 67.4991 254.216 67.4991C254.252 67.4991 254.288 67.4991 254.324 67.4991C254.361 67.4991 254.397 67.4991 254.434 67.4991C254.47 67.4991 254.507 67.4991 254.544 67.4991C254.581 67.4991 254.618 67.4991 254.656 67.4991C254.693 67.4991 254.73 67.4991 254.768 67.4991C254.806 67.4991 254.844 67.4991 254.882 67.4991C254.92 67.4991 254.958 67.4991 254.996 67.4991C255.034 67.4991 255.073 67.4991 255.112 67.4991C255.15 67.4991 255.189 67.4991 255.228 67.4991C255.267 67.4991 255.307 67.4991 255.346 67.4991C255.385 67.4991 255.425 67.4991 255.465 67.4991C255.504 67.4991 255.544 67.4991 255.585 67.4991C255.625 67.4991 255.665 67.4991 255.705 67.4991C255.746 67.4991 255.787 67.4991 255.827 67.4991C255.868 67.4991 255.909 67.4991 255.95 67.4991C255.992 67.4991 256.033 67.4991 256.075 67.4991C256.116 67.4991 256.158 67.4991 256.2 67.4991C256.242 67.4991 256.284 67.4991 256.326 67.4991C256.368 67.4991 256.411 67.4991 256.453 67.4991C256.496 67.4991 256.539 67.4991 256.582 67.4991C256.625 67.4991 256.668 67.4991 256.712 67.4991C256.755 67.4991 256.799 67.4991 256.842 67.4991C256.886 67.4991 256.93 67.4991 256.974 67.4991C257.018 67.4991 257.063 67.4991 257.107 67.4991C257.152 67.4991 257.197 67.4991 257.242 67.4991C257.286 67.4991 257.332 67.4991 257.377 67.4991C257.422 67.4991 257.468 67.4991 257.513 67.4991C257.559 67.4991 257.605 67.4991 257.651 67.4991C257.697 67.4991 257.743 67.4991 257.79 67.4991C257.836 67.4991 257.883 67.4991 257.93 67.4991C257.977 67.4991 258.024 67.4991 258.071 67.4991C258.118 67.4991 258.166 67.4991 258.213 67.4991C258.261 67.4991 258.309 67.4991 258.357 67.4991C258.405 67.4991 258.453 67.4991 258.502 67.4991C258.55 67.4991 258.599 67.4991 258.648 67.4991C258.696 67.4991 258.745 67.4991 258.795 67.4991C258.844 67.4991 258.893 67.4991 258.943 67.4991C258.993 67.4991 259.043 67.4991 259.093 67.4991C259.143 67.4991 259.193 67.4991 259.243 67.4991C259.294 67.4991 259.345 67.4991 259.395 67.4991C259.446 67.4991 259.497 67.4991 259.549 67.4991C259.6 67.4991 259.651 67.4991 259.703 67.4991C259.755 67.4991 259.807 67.4991 259.859 67.4991C259.911 67.4991 259.963 67.4991 260.016 67.4991C260.068 67.4991 260.121 67.4991 260.174 67.4991C260.227 67.4991 260.28 67.4991 260.334 67.4991C260.387 67.4991 260.441 67.4991 260.495 67.4991C260.548 67.4991 260.602 67.4991 260.657 67.4991C260.711 67.4991 260.765 67.4991 260.82 67.4991C260.875 67.4991 260.93 67.4991 260.985 67.4991C261.04 67.4991 261.095 67.4991 261.151 67.4991C261.206 67.4991 261.262 67.4991 261.318 67.4991C261.374 67.4991 261.43 67.4991 261.486 67.4991C261.543 67.4991 261.599 67.4991 261.656 67.4991C261.713 67.4991 261.77 67.4991 261.827 67.4991C261.885 67.4991 261.942 67.4991 262 67.4991V63.4991ZM215.5 63.4991C206.821 63.4991 200.537 60.3638 196.422 55.8006C192.276 51.2031 190.212 45.0198 190.27 38.7686C190.329 32.5168 192.51 26.3175 196.699 21.7041C200.857 17.1244 207.087 14.0003 215.5 14.0001L215.5 10.0001C206.01 10.0003 198.687 13.5638 193.738 19.0152C188.818 24.4329 186.337 31.6084 186.27 38.7312C186.204 45.8546 188.552 53.046 193.452 58.4794C198.382 63.9471 205.776 67.4991 215.5 67.4991V63.4991ZM215.5 14.0001C234.27 13.9997 226.039 14.0004 308.495 14.0002V10.0002C226.04 10.0004 234.27 9.99974 215.5 10.0001L215.5 14.0001ZM2 120.499H262V116.499H2V120.499ZM262 120.499C271.453 120.499 278.664 116.968 283.485 111.547C288.273 106.163 290.594 99.0422 290.56 91.9897C290.527 84.9375 288.14 77.8244 283.342 72.4487C278.512 67.0368 271.336 63.4991 262 63.4991V67.4991C270.246 67.4991 276.319 70.5865 280.358 75.1121C284.429 79.6739 286.531 85.8108 286.56 92.0086C286.59 98.2062 284.546 104.335 280.496 108.889C276.479 113.406 270.379 116.499 262 116.499V120.499Z" fill="#BCBBF9"/>
</svg>
