<svg width="140" height="140" viewBox="0 0 140 140" fill="none" xmlns="http://www.w3.org/2000/svg">
<circle cx="70" cy="70" r="70" fill="#363535"/>
<path d="M75.3078 49.4108L85.4457 40.5707L83.9294 53.9357L83.885 54.327L84.2681 54.2358L97.3529 51.1196L89.7993 62.2491L89.5782 62.575L89.9598 62.6722L102.994 65.9938L91.1334 72.3382L90.7862 72.5239L91.0789 72.7873L101.076 81.7858L87.6261 81.8915L87.2324 81.8946L87.3691 82.2639L92.0398 94.8777L80.0809 88.7207L79.7308 88.5405L79.6802 88.931L77.954 102.271L70.2262 91.2612L70 90.9389L69.7738 91.2612L62.046 102.271L60.3198 88.931L60.2692 88.5405L59.9191 88.7207L47.9602 94.8777L52.6309 82.2639L52.7676 81.8946L52.3739 81.8915L38.9235 81.7858L48.9211 72.7873L49.2138 72.5239L48.8666 72.3382L37.006 65.9938L50.0402 62.6722L50.4218 62.575L50.2007 62.2491L42.6471 51.1196L55.7319 54.2358L56.115 54.327L56.0706 53.9357L54.5543 40.5707L64.6922 49.4108L64.989 49.6696L65.1315 49.3025L70 36.7637L74.8685 49.3025L75.011 49.6696L75.3078 49.4108Z" fill="white" stroke="#BCBBF9" stroke-width="0.552832"/>
<path d="M70 60L71.5077 63.8831L74.6472 61.1454L74.1777 65.2844L78.2298 64.3194L75.8906 67.766L79.9271 68.7946L76.2541 70.7594L79.3502 73.546L75.1848 73.5788L76.6312 77.4851L72.9278 75.5784L72.3932 79.7094L70 76.3L67.6068 79.7094L67.0722 75.5784L63.3688 77.4851L64.8152 73.5788L60.6498 73.546L63.7459 70.7594L60.0729 68.7946L64.1094 67.766L61.7702 64.3194L65.8223 65.2844L65.3528 61.1454L68.4923 63.8831L70 60Z" fill="#BCBBF9"/>
</svg>
