<svg width="140" height="140" viewBox="0 0 140 140" fill="none" xmlns="http://www.w3.org/2000/svg">
<circle cx="70" cy="70" r="70" fill="#363535"/>
<path d="M70 36L75.1261 49.2024L85.8006 39.8945L84.2041 53.9669L97.9815 50.6858L90.028 62.4044L103.752 65.9018L91.2638 72.5819L101.791 82.0566L87.6283 82.1679L92.5462 95.4494L79.9544 88.9665L78.1367 103.012L70 91.42L61.8633 103.012L60.0456 88.9665L47.4538 95.4494L52.3717 82.1679L38.2094 82.0566L48.7362 72.5819L36.2479 65.9018L49.972 62.4044L42.0185 50.6858L55.7959 53.9669L54.1994 39.8945L64.8739 49.2024L70 36Z" fill="#BCBBF9"/>
<path d="M70 60L71.5077 63.8831L74.6472 61.1454L74.1777 65.2844L78.2298 64.3194L75.8906 67.766L79.9271 68.7946L76.2541 70.7594L79.3502 73.546L75.1848 73.5788L76.6312 77.4851L72.9278 75.5784L72.3932 79.7094L70 76.3L67.6068 79.7094L67.0722 75.5784L63.3688 77.4851L64.8152 73.5788L60.6498 73.546L63.7459 70.7594L60.0729 68.7946L64.1094 67.766L61.7702 64.3194L65.8223 65.2844L65.3528 61.1454L68.4923 63.8831L70 60Z" fill="white"/>
</svg>
