<svg width="49" height="50" viewBox="0 0 49 50" fill="none" xmlns="http://www.w3.org/2000/svg">
<path d="M48.3128 19.385C45.1886 6.47652 32.2028 -1.47079 19.3266 1.64552C6.4503 4.76183 -1.46448 17.7675 1.65964 30.676C4.39891 41.9944 14.7041 49.4765 25.8673 49.077L22.0188 33.1751L17.3535 34.3042L15.6556 27.2887L20.3209 26.1596L18.906 20.3134C17.8137 15.8001 20.5874 11.2423 25.0894 10.1527L30.921 8.74133L32.6189 15.7568L27.9536 16.8859C26.6707 17.1964 25.8757 18.5028 26.1869 19.789L27.3189 24.466L34.3168 22.7723L36.0147 29.7878L29.0168 31.4815L32.9502 47.7341C44.4471 43.7139 51.2501 31.5219 48.3128 19.385Z" fill="#363535"/>
</svg>
