<svg width="88" height="88" viewBox="0 0 88 88" fill="none" xmlns="http://www.w3.org/2000/svg">
<path d="M87.0166 62.1487L82.6058 17.7677C82.1153 12.8324 79.6843 8.29412 75.8477 5.15117C72.0111 2.00823 67.0831 0.5181 62.1478 1.0086L17.7669 5.41941C12.8316 5.90991 8.29328 8.34085 5.15034 12.1775C2.00739 16.0141 0.517267 20.9421 1.00776 25.8774L5.41858 70.2583C5.90908 75.1936 8.34002 79.7319 12.1766 82.8748C16.0132 86.0178 20.9412 87.5079 25.8765 87.0174L70.2575 82.6066C75.1928 82.1161 79.7311 79.6852 82.874 75.8485C86.0169 72.0119 87.5071 67.0839 87.0166 62.1487ZM17.6256 33.2944C17.3992 33.3302 17.1678 33.3193 16.9457 33.2624C16.7236 33.2054 16.5155 33.1037 16.3342 32.9634C16.1528 32.8232 16.002 32.6473 15.8911 32.4466C15.7802 32.246 15.7115 32.0247 15.6892 31.7966L14.949 24.3481C14.9153 23.8979 15.0596 23.4523 15.3508 23.1073C15.6421 22.7623 16.0571 22.5453 16.5066 22.503L47.4846 19.4242C47.7076 19.3958 47.9341 19.4125 48.1506 19.4731C48.3671 19.5338 48.5693 19.6372 48.7451 19.7773C48.9209 19.9174 49.0669 20.0913 49.1744 20.2888C49.2818 20.4863 49.3486 20.7034 49.3708 20.9271L50.111 28.3755C50.1334 28.5993 50.1106 28.8252 50.0441 29.04C49.9776 29.2548 49.8687 29.454 49.7239 29.626C49.5791 29.798 49.4012 29.9392 49.2009 30.0413C49.0006 30.1433 48.7818 30.2042 48.5576 30.2203L17.6256 33.2944ZM56.2425 23.8657C56.1684 23.0587 56.2539 22.245 56.4943 21.471C56.7347 20.6971 57.1252 19.9781 57.6434 19.355C58.1617 18.732 58.7975 18.2171 59.5148 17.8398C60.232 17.4625 61.0165 17.2302 61.8235 17.1561C62.6306 17.082 63.4443 17.1676 64.2182 17.4079C64.9922 17.6483 65.7112 18.0388 66.3342 18.557C66.9573 19.0753 67.4721 19.7112 67.8494 20.4284C68.2267 21.1456 68.4591 21.9301 68.5332 22.7372C68.6402 24.343 68.1154 25.9271 67.0708 27.1514C66.0263 28.3757 64.5446 29.1433 62.9419 29.2905C61.3393 29.4376 59.7426 28.9526 58.4925 27.939C57.2425 26.9254 56.438 25.4633 56.2508 23.8649M21.6242 73.0172C21.2012 73.0573 20.7792 72.9316 20.447 72.6666C20.1148 72.4017 19.8984 72.0182 19.8434 71.5968L19.062 63.7341C19.0329 63.3095 19.1701 62.8902 19.4445 62.5649C19.719 62.2395 20.1091 62.0336 20.5326 61.9906L34.8603 60.5666C36.9986 60.3541 44.2274 60.2949 43.5986 53.9679C43.1082 49.0344 37.9899 48.5585 35.7367 48.5922L19.0363 50.252C18.6121 50.2944 18.188 50.1699 17.854 49.9049C17.52 49.6399 17.3023 49.2552 17.2471 48.8325L16.489 41.2041C16.4471 40.7719 16.5784 40.3407 16.854 40.0052C17.1296 39.6696 17.5271 39.4571 17.9592 39.4141L49.3137 36.2979C49.7391 36.2689 50.159 36.4066 50.4846 36.6819C50.8102 36.9572 51.0157 37.3484 51.0577 37.7727L51.8154 45.3969C51.8578 45.8211 51.7332 46.2452 51.4683 46.5792C51.2033 46.9132 50.8186 47.1309 50.3958 47.1861L47.6968 47.4543C49.4368 48.4056 50.8841 49.8139 51.8825 51.5273C52.8809 53.2406 53.3925 55.1941 53.3623 57.1769C54.6245 69.8769 42.7568 71.0099 36.0114 71.6803L21.6242 73.0172Z" fill="#363535"/>
</svg>
