<svg width="49" height="49" viewBox="0 0 49 49" fill="none" xmlns="http://www.w3.org/2000/svg">
<path d="M18.0557 1.66621C5.32897 5.34574 -2.01371 18.661 1.66583 31.3878C5.34536 44.1145 18.6606 51.4572 31.3874 47.7777C44.1141 44.0981 51.4568 30.7829 47.7773 18.0561C44.0978 5.32935 30.7825 -2.01333 18.0557 1.66621ZM33.2864 14.2512C33.9937 17.994 35.0548 27.2806 35.4738 31.5815C35.6509 33.404 35.172 34.167 34.5926 34.4095C33.2887 34.9114 31.9876 34.2133 30.4498 33.7335C28.0343 32.9829 26.6416 32.4862 24.3085 31.7616C21.5927 30.9229 22.8283 29.6663 23.7559 27.9491C24.0017 27.5033 28.3509 20.4249 28.3262 19.9074C28.321 19.8294 28.2968 19.7539 28.2558 19.6874C28.2148 19.6209 28.1582 19.5654 28.0909 19.5257C27.9192 19.4504 27.7481 19.5498 27.5934 19.6196C27.3992 19.7257 24.7914 22.8031 19.7236 28.8651C18.9814 29.7542 18.2447 30.317 17.5003 30.5072C16.6636 30.7241 14.9691 30.7394 13.68 30.6874C12.0942 30.6462 10.8911 30.7192 10.75 29.8856C10.6761 29.4573 11.1326 28.8756 12.0895 28.1243C17.9752 23.2498 21.8881 20.0199 23.8579 18.4511C29.4942 13.9235 30.675 13.0825 31.5511 12.8292C31.7356 12.7758 32.187 12.6953 32.5303 12.8459C32.8142 12.9636 32.9567 13.1973 33.0331 13.375C33.05 13.52 33.2161 13.9217 33.2864 14.2512Z" fill="#363535"/>
</svg>
