<svg width="36" height="36" viewBox="0 0 36 36" fill="none" xmlns="http://www.w3.org/2000/svg">
<path d="M21.0424 7.36637L25.723 3.28498L25.023 9.45553L24.9427 10.1633L25.6356 9.99829L31.6768 8.55957L28.1894 13.698L27.7893 14.2874L28.4796 14.4633L34.4974 15.9969L29.0215 18.926L28.3934 19.262L28.9228 19.7385L33.5386 23.893L27.3287 23.9419L26.6164 23.9475L26.8638 24.6155L29.0202 30.4392L23.4988 27.5965L22.8655 27.2705L22.7741 27.9769L21.9771 34.1357L18.4092 29.0527L18 28.4697L17.5908 29.0527L14.0229 34.1357L13.2259 27.9769L13.1345 27.2705L12.5012 27.5965L6.97984 30.4392L9.13625 24.6155L9.3836 23.9475L8.6713 23.9419L2.46135 23.893L7.07718 19.7385L7.60663 19.262L6.97852 18.926L1.50258 15.9969L7.52039 14.4633L8.21065 14.2874L7.81063 13.698L4.32317 8.55957L10.3644 9.99829L11.0573 10.1633L10.977 9.45553L10.277 3.28497L14.9576 7.36637L15.4944 7.83452L15.7523 7.17049L18 1.38142L20.2477 7.17049L20.5056 7.83452L21.0424 7.36637Z" fill="#BCBBF9" stroke="white"/>
</svg>
