<svg width="47" height="47" viewBox="0 0 47 47" fill="none" xmlns="http://www.w3.org/2000/svg">
<path d="M27.4147 9.51659L33.8338 3.91926L32.8738 12.3817L32.7935 13.0895L33.4864 12.9245L41.7715 10.9514L36.9887 17.9984L36.5887 18.5878L37.2789 18.7637L45.5319 20.8668L38.0221 24.8839L37.3939 25.2199L37.9234 25.6964L44.2537 31.3941L35.7372 31.461L35.0249 31.4666L35.2722 32.1346L38.2296 40.1214L30.6575 36.2229L30.0242 35.8969L29.9327 36.6033L28.8397 45.0496L23.9467 38.0787L23.5374 37.4957L23.1282 38.0787L18.2351 45.0496L17.1421 36.6033L17.0507 35.8969L16.4174 36.2229L8.84528 40.1214L11.8026 32.1346L12.05 31.4666L11.3377 31.461L2.8212 31.3941L9.15146 25.6964L9.68091 25.2199L9.0528 24.8839L1.54296 20.8668L9.79594 18.7637L10.4862 18.5878L10.0862 17.9984L5.30339 10.9514L13.5884 12.9245L14.2814 13.0895L14.2011 12.3817L13.241 3.91925L19.6601 9.51659L20.197 9.98474L20.4548 9.32071L23.5374 1.38142L26.62 9.32071L26.8779 9.98474L27.4147 9.51659Z" fill="#BCBBF9" stroke="white"/>
</svg>
