<svg  viewBox="0 0 39 39" fill="none" xmlns="http://www.w3.org/2000/svg">
<path d="M22.7686 7.94883L27.9201 3.45679L27.1496 10.2482L27.0694 10.956L27.7623 10.7909L34.4113 9.20747L30.573 14.8629L30.1729 15.4523L30.8632 15.6282L37.4865 17.316L31.4596 20.5399L30.8315 20.8759L31.3609 21.3524L36.4412 25.9249L29.6064 25.9787L28.8941 25.9843L29.1415 26.6523L31.5148 33.062L25.438 29.9333L24.8047 29.6072L24.7133 30.3137L23.8361 37.0921L19.9092 31.4977L19.5 30.9147L19.0908 31.4977L15.1639 37.0921L14.2867 30.3137L14.1953 29.6072L13.562 29.9333L7.48516 33.062L9.85853 26.6523L10.1059 25.9843L9.39358 25.9787L2.55883 25.9249L7.63907 21.3524L8.16852 20.8759L7.54041 20.5399L1.51352 17.316L8.1368 15.6282L8.82706 15.4523L8.42704 14.8629L4.5887 9.20747L11.2377 10.7909L11.9306 10.956L11.8504 10.2482L11.0799 3.45679L16.2314 7.94883L16.7683 8.41698L17.0261 7.75295L19.5 1.38142L21.9739 7.75295L22.2317 8.41698L22.7686 7.94883Z" fill="white" stroke="#8F8DED"/>
</svg>
