<svg width="76" height="75" viewBox="0 0 76 75" fill="none" xmlns="http://www.w3.org/2000/svg">
<path d="M44.0578 15.1325L55.0175 5.57586L53.3783 20.0243L53.298 20.7321L53.991 20.567L68.1365 17.1983L59.9706 29.23L59.5706 29.8194L60.2608 29.9953L74.3516 33.5861L61.5296 40.4448L60.9015 40.7807L61.431 41.2573L72.239 50.9851L57.6983 51.0995L56.986 51.1051L57.2333 51.7731L62.2826 65.4094L49.3543 58.7533L48.721 58.4272L48.6296 59.1336L46.7634 73.5545L38.4092 61.6527L38 61.0697L37.5908 61.6527L29.2366 73.5545L27.3704 59.1336L27.279 58.4272L26.6457 58.7533L13.7174 65.4094L18.7667 51.7731L19.014 51.1051L18.3017 51.0995L3.76103 50.9851L14.569 41.2573L15.0985 40.7807L14.4704 40.4448L1.64841 33.5861L15.7392 29.9953L16.4294 29.8194L16.0294 29.23L7.8635 17.1983L22.009 20.567L22.702 20.7321L22.6217 20.0243L20.9825 5.57586L31.9422 15.1325L32.4791 15.6007L32.7369 14.9366L38 1.38142L43.2631 14.9366L43.5209 15.6007L44.0578 15.1325Z" fill="white" stroke="#8F8DED"/>
</svg>
