<svg width="70" height="71" viewBox="0 0 70 71" fill="none" xmlns="http://www.w3.org/2000/svg">
<path d="M49.6604 20.1403L61.3382 17.0529L54.8035 27.2117L54.0327 28.4098L55.4215 28.7275L67.1965 31.4207L56.6893 37.379L55.45 38.0818L56.5321 39.0085L65.7066 46.8653L53.634 47.2582L52.2101 47.3045L52.7376 48.6279L57.21 59.8484L46.3377 54.5858L45.0554 53.9652L44.9074 55.3821L43.6531 67.3958L36.4718 57.6834L35.6248 56.5379L34.8353 57.7238L28.1416 67.7785L26.2964 55.8413L26.0788 54.4333L24.8286 55.1165L14.229 60.9088L18.1427 49.4814L18.6043 48.1336L17.1798 48.1575L5.10252 48.3605L13.8785 40.0608L14.9136 39.0819L13.6412 38.4411L2.85292 33.0082L14.4807 29.7375L15.8521 29.3518L15.0233 28.1931L7.99556 18.3689L19.8114 20.8767L21.205 21.1724L21.0095 19.7613L19.3523 7.79647L28.6493 15.508L29.7459 16.4176L30.2286 15.0772L34.3215 3.71275L38.9699 14.8615L39.5181 16.1765L40.5685 15.214L49.4739 7.05333L48.4087 19.0853L48.2831 20.5044L49.6604 20.1403Z" fill="white" stroke="#8F8DED" stroke-width="2"/>
</svg>
