<svg width="116" height="115" viewBox="0 0 116 115" fill="none" xmlns="http://www.w3.org/2000/svg">
<path d="M67.4018 23.2755L83.67 9.08993L81.2369 30.5367L81.0763 31.9523L82.4622 31.6222L103.459 26.6217L91.3381 44.4812L90.538 45.66L91.9186 46.0118L112.834 51.3419L93.8019 61.5226L92.5457 62.1946L93.6046 63.1477L109.648 77.5874L88.064 77.7571L86.6394 77.7683L87.1341 79.1043L94.629 99.3456L75.4387 89.4655L74.1721 88.8134L73.9893 90.2262L71.2191 111.632L58.8185 93.9655L58 92.7994L57.1815 93.9655L44.7809 111.632L42.0107 90.2262L41.8279 88.8134L40.5613 89.4655L21.371 99.3456L28.8659 79.1043L29.3606 77.7683L27.936 77.7571L6.35235 77.5874L22.3954 63.1477L23.4543 62.1946L22.1981 61.5226L3.16558 51.3419L24.0815 46.0118L25.462 45.66L24.6619 44.4812L12.5407 26.6217L33.5378 31.6222L34.9237 31.9523L34.7631 30.5367L32.33 9.08992L48.5982 23.2755L49.672 24.2118L50.1876 22.8837L58 2.76283L65.8124 22.8837L66.328 24.2118L67.4018 23.2755Z" fill="white" stroke="#8F8DED" stroke-width="2"/>
</svg>
