<svg width="1440" height="634" viewBox="0 0 1440 634" fill="none" xmlns="http://www.w3.org/2000/svg">
<path opacity="0.6" d="M900 181.571H990M900 181.571H810M900 181.571V271.857M900 181.571V91.2857M990 181.571V271.857M990 181.571V91.2857M990 181.571H1080M990 271.857H900M990 271.857V362.143M990 271.857H1080M900 271.857H810M900 271.857V362.143M0 181.571H90M90 181.571V271.857M90 181.571V91.2857M90 181.571H180M90 271.857H0M90 271.857V362.143M90 271.857H180M900 542.714H990M900 542.714H810M900 542.714V633M900 542.714V452.429M990 542.714V633M990 542.714V452.429M990 542.714H1080M990 633H900M990 633H1080M900 633H810M0 542.714H90M90 542.714V633M90 542.714V452.429M90 542.714H180M90 633H0M90 633H180M900 1H990M900 1H810M900 1V91.2857M990 1V91.2857M990 1H1080M990 91.2857H900M990 91.2857H1080M900 91.2857H810M0 1H90M90 1V91.2857M90 1H180M90 91.2857H0M90 91.2857H180M900 362.143H990M900 362.143H810M900 362.143V452.429M990 362.143V452.429M990 362.143H1080M990 452.429H900M990 452.429H1080M900 452.429H810M0 362.143H90M90 362.143V452.429M90 362.143H180M90 452.429H0M90 452.429H180M1080 181.571V271.857M1080 181.571V91.2857M1080 181.571H1170M1080 271.857V362.143M1080 271.857H1170M180 181.571V271.857M180 181.571V91.2857M180 181.571H270M180 271.857V362.143M180 271.857H270M1080 542.714V633M1080 542.714V452.429M1080 542.714H1170M1080 633H1170M180 542.714V633M180 542.714V452.429M180 542.714H270M180 633H270M1080 1V91.2857M1080 1H1170M1080 91.2857H1170M180 1V91.2857M180 1H270M180 91.2857H270M1080 362.143V452.429M1080 362.143H1170M1080 452.429H1170M180 362.143V452.429M180 362.143H270M180 452.429H270M1260 181.571H1350M1260 181.571H1170M1260 181.571V271.857M1260 181.571V91.2857M1350 181.571V271.857M1350 181.571V91.2857M1350 181.571H1440M1350 271.857H1260M1350 271.857V362.143M1350 271.857H1440M1260 271.857H1170M1260 271.857V362.143M360 181.571H450M360 181.571H270M360 181.571V271.857M360 181.571V91.2857M450 181.571V271.857M450 181.571V91.2857M450 181.571H540M450 271.857H360M450 271.857V362.143M450 271.857H540M360 271.857H270M360 271.857V362.143M1260 542.714H1350M1260 542.714H1170M1260 542.714V633M1260 542.714V452.429M1350 542.714V633M1350 542.714V452.429M1350 542.714H1440M1350 633H1260M1350 633H1440V542.714M1260 633H1170M360 542.714H450M360 542.714H270M360 542.714V633M360 542.714V452.429M450 542.714V633M450 542.714V452.429M450 542.714H540M450 633H360M450 633H540M360 633H270M1260 1H1350M1260 1H1170M1260 1V91.2857M1350 1V91.2857M1350 1H1440V91.2857M1350 91.2857H1260M1350 91.2857H1440M1260 91.2857H1170M360 1H450M360 1H270M360 1V91.2857M450 1V91.2857M450 1H540M450 91.2857H360M450 91.2857H540M360 91.2857H270M1260 362.143H1350M1260 362.143H1170M1260 362.143V452.429M1350 362.143V452.429M1350 362.143H1440M1350 452.429H1260M1350 452.429H1440M1260 452.429H1170M360 362.143H450M360 362.143H270M360 362.143V452.429M450 362.143V452.429M450 362.143H540M450 452.429H360M450 452.429H540M360 452.429H270M630 181.571H720M630 181.571H540M630 181.571V271.857M630 181.571V91.2857M720 181.571V271.857M720 181.571V91.2857M720 181.571H810M720 271.857H630M720 271.857V362.143M720 271.857H810M630 271.857H540M630 271.857V362.143M630 542.714H720M630 542.714H540M630 542.714V633M630 542.714V452.429M720 542.714V633M720 542.714V452.429M720 542.714H810M720 633H630M720 633H810M630 633H540M630 1H720M630 1H540M630 1V91.2857M720 1V91.2857M720 1H810M720 91.2857H630M720 91.2857H810M630 91.2857H540M630 362.143H720M630 362.143H540M630 362.143V452.429M720 362.143V452.429M720 362.143H810M720 452.429H630M720 452.429H810M630 452.429H540M1170 181.571V271.857M1170 181.571V91.2857M1170 271.857V362.143M270 181.571V271.857M270 181.571V91.2857M270 271.857V362.143M1170 542.714V633M1170 542.714V452.429M270 542.714V633M270 542.714V452.429M1170 1V91.2857M270 1V91.2857M1170 362.143V452.429M270 362.143V452.429M1440 181.571V271.857M1440 181.571V91.2857M1440 271.857V362.143M540 181.571V271.857M540 181.571V91.2857M540 271.857V362.143M1440 542.714V452.429M540 542.714V633M540 542.714V452.429M540 1V91.2857M1440 362.143V452.429M540 362.143V452.429M810 181.571V271.857M810 181.571V91.2857M810 271.857V362.143M810 542.714V633M810 542.714V452.429M810 1V91.2857M810 362.143V452.429" stroke="#6B6A6A" stroke-opacity="0.6"/>
</svg>
