<svg width="375" height="700" viewBox="0 0 375 700" fill="none" xmlns="http://www.w3.org/2000/svg">
<path opacity="0.6" d="M0 83.0211H41.6667M41.6667 83.0211V124.032M41.6667 83.0211V42.0106M41.6667 83.0211H83.3333M41.6667 124.032H0M41.6667 124.032V165.042M41.6667 124.032H83.3333M0 247.063H41.6667M41.6667 247.063V288.484M41.6667 247.063V206.053M41.6667 247.063H83.3333M41.6667 288.484L0 288.074M41.6667 288.484H83.3333M41.6667 288.484V329.495M41.6667 1H0V699H41.6667M41.6667 1V42.0106M41.6667 1H83.3333M41.6667 42.0106H0M41.6667 42.0106H83.3333M0 165.042H41.6667M41.6667 165.042V206.053M41.6667 165.042H83.3333M41.6667 206.053H0M41.6667 206.053H83.3333M83.3333 83.0211V124.032M83.3333 83.0211V42.0106M83.3333 83.0211H125M83.3333 124.032V165.042M83.3333 124.032H125M83.3333 247.063V288.484M83.3333 247.063V206.053M83.3333 247.063H125M83.3333 288.484H125M83.3333 288.484V329.495M83.3333 1V42.0106M83.3333 1H125M83.3333 42.0106H125M83.3333 165.042V206.053M83.3333 165.042H125M83.3333 206.053H125M166.667 83.0211H208.333M166.667 83.0211H125M166.667 83.0211V124.032M166.667 83.0211V42.0106M208.333 83.0211V124.032M208.333 83.0211V42.0106M208.333 83.0211H250M208.333 124.032H166.667M208.333 124.032V165.042M208.333 124.032H250M166.667 124.032H125M166.667 124.032V165.042M166.667 247.063H208.333M166.667 247.063H125M166.667 247.063V288.484M166.667 247.063V206.053M208.333 247.063V288.484M208.333 247.063V206.053M208.333 247.063H250M208.333 288.484H166.667M208.333 288.484H250M208.333 288.484V329.495M166.667 288.484H125M166.667 288.484V329.495M166.667 1H208.333M166.667 1H125M166.667 1V42.0106M208.333 1V42.0106M208.333 1H250M208.333 42.0106H166.667M208.333 42.0106H250M166.667 42.0106H125M166.667 165.042H208.333M166.667 165.042H125M166.667 165.042V206.053M208.333 165.042V206.053M208.333 165.042H250M208.333 206.053H166.667M208.333 206.053H250M166.667 206.053H125M291.667 83.0211H333.333M291.667 83.0211H250M291.667 83.0211V124.032M291.667 83.0211V42.0106M333.333 83.0211V124.032M333.333 83.0211V42.0106M333.333 83.0211H375M333.333 124.032H291.667M333.333 124.032V165.042M333.333 124.032H375M291.667 124.032H250M291.667 124.032V165.042M291.667 247.063H333.333M291.667 247.063H250M291.667 247.063V288.484M291.667 247.063V206.053M333.333 247.063V288.484M333.333 247.063V206.053M333.333 247.063H375M333.333 288.484H291.667M333.333 288.484H375M333.333 288.484V329.495M291.667 288.484H250M291.667 288.484V329.495M291.667 1H333.333M291.667 1H250M291.667 1V42.0106M333.333 1V42.0106M333.333 1H375V42.0106M333.333 42.0106H291.667M333.333 42.0106H375M291.667 42.0106H250M291.667 165.042H333.333M291.667 165.042H250M291.667 165.042V206.053M333.333 165.042V206.053M333.333 165.042H375M333.333 206.053H291.667M333.333 206.053H375M291.667 206.053H250M125 83.0211V124.032M125 83.0211V42.0106M125 124.032V165.042M125 247.063V288.484M125 247.063V206.053M125 288.484V329.495M125 1V42.0106M125 165.042V206.053M250 83.0211V124.032M250 83.0211V42.0106M250 124.032V165.042M250 247.063V288.484M250 247.063V206.053M250 288.484V329.495M250 1V42.0106M250 165.042V206.053M375 83.0211V124.032M375 83.0211V42.0106M375 124.032V165.042M375 247.063V288.484M375 247.063V206.053M375 288.484V329.495M375 165.042V206.053M0 329.495H41.6667M41.6667 329.495V370.505M41.6667 329.495H83.3333M41.6667 370.505H0M41.6667 370.505V411.516M41.6667 370.505H83.3333M0 493.537H41.6667M41.6667 493.537V534.548M41.6667 493.537V452.526M41.6667 493.537H83.3333M41.6667 534.548H0M41.6667 534.548H83.3333M41.6667 534.548V575.968M0 411.516H41.6667M41.6667 411.516V452.526M41.6667 411.516H83.3333M41.6667 452.526H0M41.6667 452.526H83.3333M83.3333 329.495V370.505M83.3333 329.495H125M83.3333 370.505V411.516M83.3333 370.505H125M83.3333 493.537V534.548M83.3333 493.537V452.526M83.3333 493.537H125M83.3333 534.548H125M83.3333 534.548V575.968M83.3333 411.516V452.526M83.3333 411.516H125M83.3333 452.526H125M166.667 329.495H208.333M166.667 329.495H125M166.667 329.495V370.505M208.333 329.495V370.505M208.333 329.495H250M208.333 370.505H166.667M208.333 370.505V411.516M208.333 370.505H250M166.667 370.505H125M166.667 370.505V411.516M166.667 493.537H208.333M166.667 493.537H125M166.667 493.537V534.548M166.667 493.537V452.526M208.333 493.537V534.548M208.333 493.537V452.526M208.333 493.537H250M208.333 534.548H166.667M208.333 534.548H250M208.333 534.548V575.968M166.667 534.548H125M166.667 534.548V575.968M166.667 411.516H208.333M166.667 411.516H125M166.667 411.516V452.526M208.333 411.516V452.526M208.333 411.516H250M208.333 452.526H166.667M208.333 452.526H250M166.667 452.526H125M291.667 329.495H333.333M291.667 329.495H250M291.667 329.495V370.505M333.333 329.495V370.505M333.333 329.495H375M333.333 370.505H291.667M333.333 370.505V411.516M333.333 370.505H375M291.667 370.505H250M291.667 370.505V411.516M291.667 493.537H333.333M291.667 493.537H250M291.667 493.537V534.548M291.667 493.537V452.526M333.333 493.537V534.548M333.333 493.537V452.526M333.333 493.537H375M333.333 534.548H291.667M333.333 534.548H375M333.333 534.548V575.968M291.667 534.548H250M291.667 534.548V575.968M291.667 411.516H333.333M291.667 411.516H250M291.667 411.516V452.526M333.333 411.516V452.526M333.333 411.516H375M333.333 452.526H291.667M333.333 452.526H375M291.667 452.526H250M125 329.495V370.505M125 370.505V411.516M125 493.537V534.548M125 493.537V452.526M125 534.548V575.968M125 411.516V452.526M250 329.495V370.505M250 370.505V411.516M250 493.537V534.548M250 493.537V452.526M250 534.548V575.968M250 411.516V452.526M375 329.495V370.505M375 370.505V411.516M375 493.537V534.548M375 493.537V452.526M375 534.548V575.968M375 411.516V452.526M41.6667 575.968L0 575.558M41.6667 575.968H83.3333M41.6667 575.968V616.979M83.3333 575.968H125M83.3333 575.968V616.979M208.333 575.968H166.667M208.333 575.968H250M208.333 575.968V616.979M166.667 575.968H125M166.667 575.968V616.979M333.333 575.968H291.667M333.333 575.968H375M333.333 575.968V616.979M291.667 575.968H250M291.667 575.968V616.979M125 575.968V616.979M250 575.968V616.979M375 575.968V616.979M0 616.979H41.6667M41.6667 616.979V657.989M41.6667 616.979H83.3333M41.6667 657.989H0M41.6667 657.989V699M41.6667 657.989H83.3333M41.6667 699H83.3333M83.3333 616.979V657.989M83.3333 616.979H125M83.3333 657.989V699M83.3333 657.989H125M83.3333 699H125M166.667 616.979H208.333M166.667 616.979H125M166.667 616.979V657.989M208.333 616.979V657.989M208.333 616.979H250M208.333 657.989H166.667M208.333 657.989V699M208.333 657.989H250M166.667 657.989H125M166.667 657.989V699M166.667 699H208.333M166.667 699H125M208.333 699H250M291.667 616.979H333.333M291.667 616.979H250M291.667 616.979V657.989M333.333 616.979V657.989M333.333 616.979H375M333.333 657.989H291.667M333.333 657.989V699M333.333 657.989H375M291.667 657.989H250M291.667 657.989V699M291.667 699H333.333M291.667 699H250M333.333 699H375V657.989M125 616.979V657.989M125 657.989V699M250 616.979V657.989M250 657.989V699M375 616.979V657.989" stroke="#6B6A6A" stroke-opacity="0.6"/>
</svg>
