<svg width="768" height="340" viewBox="0 0 768 340" fill="none" xmlns="http://www.w3.org/2000/svg">
<path opacity="0.6" d="M480 97.5714H528M480 97.5714H432M480 97.5714V145.857M480 97.5714V49.2857M528 97.5714V145.857M528 97.5714V49.2857M528 97.5714H576M528 145.857H480M528 145.857V194.143M528 145.857H576M480 145.857H432M480 145.857V194.143M0 97.5714H48M48 97.5714V145.857M48 97.5714V49.2857M48 97.5714H96M48 145.857H0M48 145.857V194.143M48 145.857H96M480 290.714H528M480 290.714H432M480 290.714V339M480 290.714V242.429M528 290.714V339M528 290.714V242.429M528 290.714H576M528 339H480M528 339H576M480 339H432M0 290.714H48M48 290.714V339M48 290.714V242.429M48 290.714H96M48 339H0V1H48M48 339H96M480 1H528M480 1H432M480 1V49.2857M528 1V49.2857M528 1H576M528 49.2857H480M528 49.2857H576M480 49.2857H432M48 1V49.2857M48 1H96M48 49.2857H0M48 49.2857H96M480 194.143H528M480 194.143H432M480 194.143V242.429M528 194.143V242.429M528 194.143H576M528 242.429H480M528 242.429H576M480 242.429H432M0 194.143H48M48 194.143V242.429M48 194.143H96M48 242.429H0M48 242.429H96M576 97.5714V145.857M576 97.5714V49.2857M576 97.5714H624M576 145.857V194.143M576 145.857H624M96 97.5714V145.857M96 97.5714V49.2857M96 97.5714H144M96 145.857V194.143M96 145.857H144M576 290.714V339M576 290.714V242.429M576 290.714H624M576 339H624M96 290.714V339M96 290.714V242.429M96 290.714H144M96 339H144M576 1V49.2857M576 1H624M576 49.2857H624M96 1V49.2857M96 1H144M96 49.2857H144M576 194.143V242.429M576 194.143H624M576 242.429H624M96 194.143V242.429M96 194.143H144M96 242.429H144M672 97.5714H720M672 97.5714H624M672 97.5714V145.857M672 97.5714V49.2857M720 97.5714V145.857M720 97.5714V49.2857M720 97.5714H768M720 145.857H672M720 145.857V194.143M720 145.857H768M672 145.857H624M672 145.857V194.143M192 97.5714H240M192 97.5714H144M192 97.5714V145.857M192 97.5714V49.2857M240 97.5714V145.857M240 97.5714V49.2857M240 97.5714H288M240 145.857H192M240 145.857V194.143M240 145.857H288M192 145.857H144M192 145.857V194.143M672 290.714H720M672 290.714H624M672 290.714V339M672 290.714V242.429M720 290.714V339M720 290.714V242.429M720 290.714H768M720 339H672M720 339H768V290.714M672 339H624M192 290.714H240M192 290.714H144M192 290.714V339M192 290.714V242.429M240 290.714V339M240 290.714V242.429M240 290.714H288M240 339H192M240 339H288M192 339H144M672 1H720M672 1H624M672 1V49.2857M720 1V49.2857M720 1H768V49.2857M720 49.2857H672M720 49.2857H768M672 49.2857H624M192 1H240M192 1H144M192 1V49.2857M240 1V49.2857M240 1H288M240 49.2857H192M240 49.2857H288M192 49.2857H144M672 194.143H720M672 194.143H624M672 194.143V242.429M720 194.143V242.429M720 194.143H768M720 242.429H672M720 242.429H768M672 242.429H624M192 194.143H240M192 194.143H144M192 194.143V242.429M240 194.143V242.429M240 194.143H288M240 242.429H192M240 242.429H288M192 242.429H144M336 97.5714H384M336 97.5714H288M336 97.5714V145.857M336 97.5714V49.2857M384 97.5714V145.857M384 97.5714V49.2857M384 97.5714H432M384 145.857H336M384 145.857V194.143M384 145.857H432M336 145.857H288M336 145.857V194.143M336 290.714H384M336 290.714H288M336 290.714V339M336 290.714V242.429M384 290.714V339M384 290.714V242.429M384 290.714H432M384 339H336M384 339H432M336 339H288M336 1H384M336 1H288M336 1V49.2857M384 1V49.2857M384 1H432M384 49.2857H336M384 49.2857H432M336 49.2857H288M336 194.143H384M336 194.143H288M336 194.143V242.429M384 194.143V242.429M384 194.143H432M384 242.429H336M384 242.429H432M336 242.429H288M624 97.5714V145.857M624 97.5714V49.2857M624 145.857V194.143M144 97.5714V145.857M144 97.5714V49.2857M144 145.857V194.143M624 290.714V339M624 290.714V242.429M144 290.714V339M144 290.714V242.429M624 1V49.2857M144 1V49.2857M624 194.143V242.429M144 194.143V242.429M768 97.5714V145.857M768 97.5714V49.2857M768 145.857V194.143M288 97.5714V145.857M288 97.5714V49.2857M288 145.857V194.143M768 290.714V242.429M288 290.714V339M288 290.714V242.429M288 1V49.2857M768 194.143V242.429M288 194.143V242.429M432 97.5714V145.857M432 97.5714V49.2857M432 145.857V194.143M432 290.714V339M432 290.714V242.429M432 1V49.2857M432 194.143V242.429" stroke="#6B6A6A" stroke-opacity="0.6"/>
</svg>
