<svg width="182" height="182" viewBox="0 0 182 182" fill="none" xmlns="http://www.w3.org/2000/svg">
<circle cx="92" cy="92" r="32" fill="white"/>
<path d="M111.356 82.1283C108.951 77.7203 105.08 74.2919 100.414 72.4368C95.7475 70.5816 90.5795 70.4164 85.8043 71.9698C81.0292 73.5231 76.9475 76.6973 74.2658 80.9427C71.5841 85.1882 70.4713 90.2376 71.12 95.217C71.7687 100.196 74.1381 104.792 77.818 108.209C81.4978 111.626 86.2565 113.648 91.2703 113.926C96.284 114.204 101.237 112.721 105.272 109.732C109.308 106.743 112.305 101.877 113.5 97L111.516 97.1068C110.426 101.552 107.817 105.477 104.139 108.201C100.461 110.925 95.9458 112.278 91.3758 112.024C86.8058 111.771 82.4683 109.927 79.1142 106.813C75.76 103.699 73.6004 99.5096 73.0091 94.9709C72.4178 90.4323 73.4321 85.8297 75.8764 81.9601C78.3207 78.0904 82.0412 75.1972 86.3937 73.7813C90.7461 72.3655 95.4567 72.516 99.7099 74.207C103.392 75.671 106.256 78.0341 108.455 81.2966C108.796 81.8024 109.389 82.5014 109.683 83.0407L111.356 82.1283Z" fill="black"/>
<path d="M109.683 83.0407C109.389 82.5014 108.796 81.8024 108.455 81.2966L84.7716 93.9659L88.2193 94.6361L109.683 83.0407Z" fill="black"/>
<path d="M138.635 97.6542L138.948 92.887L147.478 93.4475L147.165 98.2148L146.222 98.1527L146.464 94.4608L143.8 94.2857L143.571 97.7626L142.639 97.7014L142.868 94.2245L139.821 94.0243L139.578 97.7162L138.635 97.6542Z" fill="white"/>
<path d="M138.378 99.3737L146.75 101.104L146.532 102.16L139.098 100.623L138.342 104.282L137.404 104.088L138.378 99.3737Z" fill="white"/>
<path d="M135.297 110.245L136.907 105.747L144.955 108.631L143.345 113.129L142.454 112.81L143.701 109.327L141.188 108.426L140.013 111.706L139.134 111.391L140.309 108.111L137.434 107.081L136.187 110.564L135.297 110.245Z" fill="white"/>
<path d="M136.775 117.292L135.337 119.876L131.676 117.838C131.768 117.359 131.898 116.897 132.064 116.45C132.23 116.004 132.458 115.519 132.749 114.996C133.18 114.222 133.696 113.655 134.298 113.295C134.907 112.94 135.575 112.782 136.302 112.821C137.032 112.871 137.791 113.116 138.58 113.555C139.361 113.989 139.952 114.52 140.353 115.145C140.754 115.77 140.953 116.456 140.948 117.203C140.947 117.961 140.72 118.747 140.266 119.564C140.033 119.982 139.775 120.355 139.493 120.682C139.207 121.016 138.904 121.305 138.586 121.548L137.968 120.738C138.234 120.539 138.502 120.295 138.772 120.007C139.038 119.726 139.27 119.407 139.468 119.051C139.798 118.458 139.959 117.881 139.952 117.32C139.944 116.758 139.776 116.24 139.447 115.764C139.125 115.292 138.653 114.884 138.032 114.538C137.44 114.208 136.861 114.009 136.296 113.941C135.734 113.884 135.209 113.99 134.722 114.258C134.242 114.529 133.816 115 133.443 115.67C133.319 115.893 133.217 116.092 133.138 116.268C133.062 116.454 132.999 116.624 132.95 116.779C132.896 116.941 132.848 117.093 132.806 117.234L135.024 118.469L135.938 116.826L136.775 117.292Z" fill="white"/>
<path d="M126.844 123.491L129.545 124.364L131.685 121.737L130.276 119.276L130.964 118.431L135.51 126.445L134.898 127.197L126.141 124.355L126.844 123.491ZM133.102 125.61C133.166 125.632 133.281 125.674 133.447 125.736C133.612 125.799 133.78 125.864 133.952 125.932C134.124 126.01 134.258 126.068 134.352 126.103C134.254 125.972 134.154 125.834 134.055 125.691C133.956 125.559 133.869 125.432 133.794 125.309C133.714 125.193 133.647 125.092 133.593 125.006L132.201 122.62L130.492 124.719L133.102 125.61Z" fill="white"/>
<path d="M119.974 129.79L120.931 128.974L129.016 131.415L129.052 131.384C128.953 131.28 128.843 131.163 128.723 131.035C128.597 130.911 128.464 130.773 128.323 130.62C128.188 130.474 128.047 130.321 127.902 130.162C127.756 130.003 127.613 129.841 127.473 129.677L124.377 126.039L125.133 125.395L130.675 131.905L129.727 132.712L121.667 130.282L121.631 130.313C121.699 130.381 121.79 130.476 121.905 130.599C122.025 130.727 122.155 130.868 122.296 131.021C122.442 131.18 122.59 131.342 122.741 131.507C122.892 131.672 123.03 131.827 123.154 131.973L126.282 135.647L125.516 136.3L119.974 129.79Z" fill="white"/>
<path d="M118.414 139.843C118.809 139.617 119.126 139.344 119.366 139.023C119.609 138.709 119.767 138.357 119.838 137.967C119.914 137.584 119.904 137.171 119.808 136.729C119.716 136.295 119.537 135.845 119.272 135.381C118.924 134.771 118.528 134.294 118.083 133.95C117.632 133.61 117.15 133.426 116.637 133.397C116.117 133.372 115.573 133.522 115.005 133.847C114.679 134.033 114.387 134.237 114.127 134.459C113.868 134.68 113.623 134.912 113.393 135.154L112.93 134.343C113.148 134.08 113.392 133.84 113.663 133.621C113.926 133.406 114.262 133.182 114.671 132.948C115.427 132.517 116.147 132.312 116.831 132.335C117.515 132.358 118.149 132.584 118.734 133.013C119.312 133.446 119.823 134.05 120.266 134.827C120.586 135.388 120.803 135.945 120.916 136.496C121.021 137.052 121.022 137.585 120.918 138.095C120.807 138.609 120.581 139.082 120.24 139.516C119.903 139.957 119.447 140.341 118.872 140.67C118.491 140.888 118.102 141.06 117.705 141.185C117.308 141.311 116.931 141.384 116.575 141.403L116.498 140.399C116.786 140.373 117.096 140.32 117.427 140.24C117.752 140.165 118.081 140.033 118.414 139.843Z" fill="white"/>
<path d="M106.276 136.787L110.736 135.075L113.799 143.057L109.339 144.769L109 143.886L112.454 142.56L111.497 140.067L108.245 141.316L107.91 140.444L111.163 139.195L110.069 136.344L106.615 137.671L106.276 136.787Z" fill="white"/>
<path d="M85.3602 138.536L90.1205 138.941L89.3963 147.46L84.636 147.055L84.7161 146.112L88.4027 146.426L88.6289 143.765L85.157 143.47L85.2362 142.539L88.708 142.835L88.9666 139.792L85.2801 139.479L85.3602 138.536Z" fill="white"/>
<path d="M83.6584 138.242L81.77 146.58L80.719 146.341L82.3959 138.938L78.7525 138.112L78.9641 137.177L83.6584 138.242Z" fill="white"/>
<path d="M72.8928 134.961L77.3592 136.656L74.3269 144.65L69.8604 142.954L70.1959 142.07L73.6549 143.383L74.602 140.886L71.3445 139.65L71.6758 138.776L74.9333 140.013L76.0162 137.158L72.5573 135.845L72.8928 134.961Z" fill="white"/>
<path d="M65.8952 136.347L63.3327 134.87L65.4236 131.238C65.9004 131.338 66.3608 131.474 66.8047 131.647C67.2486 131.82 67.7299 132.056 68.2487 132.355C69.0164 132.797 69.5755 133.322 69.9259 133.929C70.2724 134.543 70.4206 135.214 70.3707 135.94C70.3099 136.67 70.0545 137.426 69.6044 138.207C69.1584 138.982 68.6199 139.565 67.989 139.957C67.3581 140.349 66.6694 140.538 65.923 140.522C65.1658 140.51 64.3825 140.27 63.5733 139.804C63.1583 139.565 62.7894 139.302 62.4666 139.014C62.1369 138.723 61.8528 138.416 61.6143 138.095L62.433 137.489C62.6282 137.758 62.8678 138.029 63.152 138.304C63.4293 138.574 63.7443 138.811 64.0971 139.014C64.685 139.353 65.2596 139.523 65.8209 139.524C66.3822 139.524 66.903 139.364 67.3832 139.042C67.8594 138.727 68.2747 138.261 68.6292 137.645C68.9677 137.057 69.175 136.481 69.2511 135.917C69.3164 135.356 69.2186 134.83 68.9579 134.339C68.6932 133.854 68.2288 133.421 67.5648 133.038C67.3435 132.911 67.1459 132.806 66.9719 132.724C66.787 132.646 66.6175 132.58 66.4632 132.528C66.302 132.472 66.1512 132.422 66.0108 132.378L64.7443 134.578L66.3732 135.516L65.8952 136.347Z" fill="white"/>
<path d="M59.8514 126.286L58.9297 128.973L61.5171 131.161L64.0022 129.797L64.8341 130.5L56.7422 134.901L56.0016 134.274L59.0011 125.567L59.8514 126.286ZM57.6204 132.507C57.5975 132.571 57.5533 132.685 57.4877 132.85C57.4222 133.014 57.3541 133.181 57.2834 133.351C57.2015 133.522 57.1418 133.655 57.1043 133.749C57.2379 133.652 57.377 133.556 57.5218 133.459C57.6553 133.362 57.7841 133.278 57.9083 133.205C58.0264 133.127 58.1285 133.062 58.2147 133.01L60.6245 131.66L58.5583 129.913L57.6204 132.507Z" fill="white"/>
<path d="M53.6971 119.32L54.4945 120.292L51.9078 128.334L51.9381 128.371C52.0441 128.273 52.1625 128.166 52.2931 128.048C52.4187 127.925 52.5592 127.794 52.7145 127.656C52.8637 127.523 53.0191 127.385 53.1806 127.242C53.3421 127.099 53.5061 126.959 53.6727 126.823L57.3651 123.791L57.9955 124.559L51.3879 129.984L50.5981 129.022L53.174 121.004L53.1436 120.967C53.0746 121.034 52.9779 121.124 52.8534 121.236C52.7227 121.354 52.5797 121.482 52.4244 121.62C52.2629 121.763 52.0983 121.908 51.9306 122.056C51.7629 122.204 51.605 122.339 51.457 122.46L47.7275 125.522L47.0896 124.745L53.6971 119.32Z" fill="white"/>
<path d="M43.7199 117.672C43.9396 118.07 44.208 118.391 44.5251 118.636C44.8352 118.884 45.1847 119.047 45.5736 119.124C45.9556 119.205 46.368 119.201 46.8109 119.111C47.2469 119.026 47.699 118.854 48.1672 118.595C48.7822 118.256 49.2649 117.866 49.6151 117.427C49.9614 116.981 50.1528 116.501 50.1893 115.989C50.2219 115.469 50.0802 114.923 49.7641 114.35C49.583 114.021 49.3835 113.726 49.1657 113.463C48.9479 113.2 48.72 112.952 48.4819 112.719L49.2996 112.267C49.5586 112.489 49.7955 112.737 50.0101 113.01C50.221 113.277 50.4401 113.617 50.6675 114.029C51.0876 114.791 51.2811 115.514 51.248 116.198C51.2149 116.881 50.9796 117.513 50.5421 118.092C50.1008 118.663 49.4888 119.165 48.706 119.597C48.1399 119.91 47.5803 120.118 47.0273 120.223C46.4704 120.32 45.9378 120.313 45.4296 120.202C44.9175 120.083 44.4473 119.85 44.0189 119.503C43.5835 119.16 43.2059 118.698 42.886 118.118C42.674 117.734 42.5081 117.342 42.3884 116.943C42.2687 116.544 42.2017 116.166 42.1873 115.81L43.1922 115.747C43.2145 116.036 43.2628 116.347 43.3369 116.679C43.4073 117.005 43.5349 117.336 43.7199 117.672Z" fill="white"/>
<path d="M46.9609 105.543L48.5882 110.035L40.5509 112.949L38.9237 108.457L39.8129 108.134L41.0732 111.613L43.5834 110.703L42.3966 107.427L43.2746 107.108L44.4614 110.384L47.3319 109.344L46.0717 105.865L46.9609 105.543Z" fill="white"/>
<path d="M45.5389 84.6902L45.0609 89.4437L36.5546 88.5878L37.0326 83.8342L37.9737 83.9289L37.6036 87.6103L40.2603 87.8776L40.6089 84.4107L41.5382 84.5042L41.1896 87.9711L44.2276 88.2768L44.5977 84.5955L45.5389 84.6902Z" fill="white"/>
<path d="M45.8778 82.8516L37.5776 80.8033L37.8356 79.757L45.2058 81.5758L46.1002 77.9486L47.0302 78.1781L45.8778 82.8516Z" fill="white"/>
<path d="M49.3508 72.1377L47.5729 76.5721L39.6386 73.3883L41.4165 68.9539L42.2944 69.3062L40.9175 72.7404L43.3956 73.7347L44.6922 70.5006L45.559 70.8484L44.2624 74.0825L47.096 75.2196L48.4729 71.7854L49.3508 72.1377Z" fill="white"/>
<path d="M47.996 65.2586L49.5185 62.7231L53.1105 64.8818C53.0022 65.3568 52.8576 65.8147 52.6767 66.2555C52.4958 66.6963 52.2513 67.1733 51.9431 67.6866C51.487 68.4462 50.9522 68.9956 50.3389 69.3348C49.7187 69.6699 49.0459 69.8057 48.3205 69.7423C47.5923 69.6679 46.8416 69.3984 46.0685 68.9338C45.3022 68.4732 44.7289 67.9238 44.3487 67.2856C43.9684 66.6473 43.7929 65.955 43.8219 65.2088C43.8483 64.4517 44.1018 63.6728 44.5826 62.8721C44.8292 62.4615 45.099 62.0974 45.392 61.7799C45.6892 61.4556 46.0007 61.1772 46.3266 60.9446L46.9175 61.7747C46.6451 61.9649 46.3692 62.1995 46.0898 62.4786C45.8146 62.751 45.5722 63.0616 45.3626 63.4106C45.0133 63.9923 44.833 64.5639 44.8219 65.1252C44.8107 65.6866 44.9617 66.2104 45.2749 66.6967C45.5813 67.1788 46.039 67.6029 46.6479 67.9688C47.2295 68.3183 47.8015 68.5364 48.3641 68.623C48.9239 68.6986 49.4516 68.6106 49.9472 68.359C50.4359 68.1033 50.8775 67.6469 51.272 66.9899C51.4035 66.7709 51.5118 66.5752 51.5967 66.4027C51.6789 66.2193 51.7474 66.0509 51.8022 65.8976C51.8612 65.7375 51.9139 65.5876 51.9605 65.4479L49.7848 64.1404L48.817 65.752L47.996 65.2586Z" fill="white"/>
<path d="M58.2523 59.2364L55.5843 58.2655L53.3505 60.8135L54.6687 63.3241L53.9504 64.1434L49.6993 55.9693L50.3387 55.24L58.9863 58.3991L58.2523 59.2364ZM52.0756 56.8914C52.0118 56.8673 51.8985 56.821 51.7357 56.7524C51.5728 56.6839 51.407 56.6127 51.2381 56.5389C51.0686 56.4538 50.9372 56.3917 50.8442 56.3525C50.9379 56.4878 51.0319 56.6288 51.1264 56.7754C51.2201 56.9107 51.3021 57.0411 51.3726 57.1666C51.4483 57.2861 51.5116 57.3894 51.5625 57.4766L52.8673 59.9117L54.6512 57.8768L52.0756 56.8914Z" fill="white"/>
<path d="M65.2296 53.2726L64.2435 54.0525L56.2534 51.3194L56.2159 51.3491C56.3112 51.4569 56.4165 51.5772 56.5316 51.7101C56.653 51.8379 56.7812 51.9808 56.9162 52.1387C57.0462 52.2903 57.1811 52.4482 57.321 52.6123C57.4609 52.7765 57.5977 52.9431 57.7313 53.1122L60.6937 56.8604L59.9142 57.4769L54.6132 50.7696L55.5898 49.9971L63.5557 52.7188L63.5933 52.6891C63.5276 52.6189 63.4397 52.5205 63.3295 52.3939C63.2143 52.2611 63.0893 52.1157 62.9543 51.9579C62.8144 51.7937 62.672 51.6265 62.5272 51.4561C62.3823 51.2856 62.2505 51.1253 62.1317 50.975L59.1397 47.1892L59.9285 46.5652L65.2296 53.2726Z" fill="white"/>
<path d="M67.0003 43.325C66.5979 43.5374 66.2716 43.8 66.0214 44.1126C65.7675 44.4182 65.5983 44.7648 65.514 45.1524C65.4259 45.5329 65.4224 45.9454 65.5036 46.39C65.581 46.8276 65.7445 47.2829 65.994 47.7559C66.3218 48.3772 66.702 48.867 67.1347 49.2253C67.5745 49.5798 68.0501 49.78 68.5617 49.8259C69.0803 49.868 69.629 49.7363 70.2078 49.4306C70.5396 49.2555 70.8388 49.0614 71.1055 48.8484C71.3722 48.6353 71.6244 48.4119 71.862 48.1781L72.2978 49.0042C72.0713 49.2591 71.8193 49.4915 71.5419 49.7012C71.2715 49.9071 70.928 50.1201 70.5116 50.34C69.7421 50.7462 69.016 50.9265 68.333 50.8809C67.6501 50.8352 67.0235 50.5884 66.4532 50.1403C65.8899 49.6885 65.3997 49.0672 64.9825 48.2764C64.6808 47.7045 64.4828 47.1411 64.3886 46.5861C64.3014 46.0273 64.3183 45.4948 64.4393 44.9886C64.5674 44.4787 64.8089 44.0126 65.1638 43.5905C65.5151 43.1614 65.9836 42.7921 66.5695 42.4828C66.9577 42.2778 67.3524 42.1191 67.7533 42.0067C68.1543 41.8942 68.5332 41.8341 68.8901 41.8262L68.9335 42.8323C68.6447 42.8494 68.3332 42.892 67.9991 42.9601C67.6721 43.0245 67.3391 43.1461 67.0003 43.325Z" fill="white"/>
<path d="M79.1904 46.7136L74.6691 48.2572L71.9088 40.1659L76.43 38.6222L76.7354 39.5175L73.234 40.7129L74.0961 43.2401L77.3936 42.1142L77.6951 42.9982L74.3977 44.124L75.3835 47.0138L78.8849 45.8183L79.1904 46.7136Z" fill="white"/>
<path d="M100.112 45.6552L95.3685 45.0855L96.3871 36.5972L101.131 37.1668L101.018 38.106L97.3443 37.6649L97.0262 40.316L100.486 40.7314L100.374 41.6587L96.9149 41.2433L96.5511 44.2748L100.225 44.716L100.112 45.6552Z" fill="white"/>
<path d="M101.673 45.9636L103.846 37.695L104.888 37.969L102.959 45.3112L106.572 46.2613L106.328 47.1877L101.673 45.9636Z" fill="white"/>
<path d="M112.325 49.5811L107.918 47.7359L111.218 39.8491L115.625 41.6944L115.26 42.567L111.847 41.1379L110.816 43.6012L114.03 44.947L113.67 45.8086L110.456 44.4628L109.277 47.2795L112.69 48.7085L112.325 49.5811Z" fill="white"/>
<path d="M119.476 48.4686L121.983 50.0383L119.76 53.5909C119.287 53.4738 118.832 53.3206 118.395 53.1316C117.957 52.9425 117.485 52.6891 116.978 52.3713C116.227 51.901 115.687 51.356 115.359 50.7363C115.036 50.1098 114.912 49.4343 114.989 48.71C115.076 47.9831 115.359 47.2373 115.838 46.4727C116.312 45.7148 116.872 45.1516 117.517 44.7831C118.162 44.4147 118.857 44.2519 119.602 44.2948C120.358 44.3352 121.132 44.6032 121.924 45.0989C122.33 45.3531 122.689 45.6297 123.001 45.9287C123.319 46.232 123.592 46.5487 123.818 46.8789L122.978 47.4546C122.793 47.1785 122.563 46.8982 122.289 46.6137C122.022 46.3333 121.716 46.0851 121.371 45.869C120.796 45.5089 120.228 45.318 119.667 45.2964C119.106 45.2748 118.58 45.4161 118.088 45.7204C117.601 46.0179 117.169 46.4678 116.792 47.07C116.432 47.6452 116.204 48.2133 116.107 48.7743C116.021 49.3328 116.099 49.8622 116.342 50.3626C116.588 50.8562 117.037 51.3063 117.686 51.7131C117.903 51.8486 118.096 51.9605 118.267 52.0486C118.449 52.1343 118.616 52.2059 118.768 52.2636C118.927 52.3255 119.076 52.381 119.215 52.4302L120.561 50.2784L118.968 49.2806L119.476 48.4686Z" fill="white"/>
<path d="M125.112 58.6473L126.121 55.9927L123.607 53.7211L121.078 55.003L120.27 54.2726L128.502 50.1395L129.221 50.7896L125.938 59.3938L125.112 58.6473ZM127.545 52.503C127.57 52.4396 127.618 52.3269 127.689 52.165C127.76 52.0031 127.834 51.8383 127.91 51.6704C127.997 51.502 128.061 51.3716 128.102 51.2791C127.965 51.3708 127.823 51.4629 127.675 51.5552C127.539 51.6469 127.407 51.7271 127.281 51.7958C127.16 51.8697 127.056 51.9316 126.968 51.9813L124.515 53.2509L126.523 55.065L127.545 52.503Z" fill="white"/>
<path d="M131.165 65.9582L130.404 64.9578L133.282 57.0155L133.253 56.9774C133.144 57.0708 133.021 57.1739 132.886 57.2867C132.756 57.4058 132.611 57.5314 132.451 57.6636C132.297 57.7908 132.137 57.923 131.97 58.0599C131.804 58.1969 131.635 58.3306 131.463 58.4612L127.663 61.3563L127.061 60.5655L133.862 55.3849L134.616 56.3758L131.75 64.294L131.779 64.3321C131.85 64.2677 131.95 64.1816 132.078 64.0736C132.213 63.9609 132.361 63.8384 132.521 63.7063C132.688 63.5693 132.857 63.43 133.03 63.2882C133.203 63.1464 133.366 63.0174 133.519 62.9013L137.357 59.9773L137.966 60.7776L131.165 65.9582Z" fill="white"/>
<path d="M141.091 67.9588C140.886 67.5525 140.63 67.2214 140.322 66.9654C140.021 66.7058 139.678 66.5303 139.292 66.4389C138.913 66.3438 138.501 66.3328 138.055 66.4058C137.616 66.4752 137.158 66.6303 136.681 66.8712C136.054 67.1877 135.557 67.559 135.191 67.9851C134.828 68.4184 134.619 68.8905 134.564 69.4012C134.512 69.9191 134.633 70.4703 134.928 71.0548C135.097 71.3898 135.285 71.6926 135.493 71.9632C135.701 72.2339 135.92 72.4901 136.149 72.7321L135.315 73.1528C135.064 72.9216 134.837 72.6654 134.633 72.384C134.432 72.1098 134.225 71.7625 134.013 71.3419C133.622 70.565 133.455 69.8354 133.513 69.1533C133.572 68.4711 133.83 67.849 134.289 67.2868C134.751 66.7317 135.381 66.2528 136.179 65.8501C136.757 65.5589 137.323 65.3712 137.88 65.2871C138.44 65.2101 138.972 65.2368 139.476 65.3671C139.983 65.5045 140.444 65.7546 140.86 66.1173C141.282 66.4764 141.642 66.9518 141.941 67.5434C142.138 67.9354 142.29 68.333 142.394 68.7361C142.499 69.1391 142.552 69.5192 142.554 69.8762L141.547 69.9012C141.535 69.6121 141.499 69.2998 141.437 68.9644C141.379 68.6361 141.263 68.3009 141.091 67.9588Z" fill="white"/>
<path d="M137.394 79.8478L135.92 75.3034L144.051 72.6633L145.526 77.2077L144.626 77.4998L143.484 73.9805L140.945 74.805L142.02 78.1194L141.131 78.4078L140.056 75.0935L137.152 76.0363L138.294 79.5557L137.394 79.8478Z" fill="white"/>
<path d="M166.597 99.4438L166.944 92.9982L178.143 93.5773L177.795 100.023L175.851 99.9223L176.07 95.8448L173.608 95.7175L173.403 99.5127L171.458 99.4121L171.663 95.6169L168.777 95.4677L168.557 99.5452L166.597 99.4438Z" fill="white"/>
<path d="M166.321 101.711L177.388 103.521L176.99 105.859L167.86 104.366L167.095 108.856L165.158 108.539L166.321 101.711Z" fill="white"/>
<path d="M162.845 116.573L164.669 110.381L175.46 113.431L173.636 119.623L171.762 119.093L172.916 115.176L170.543 114.505L169.469 118.151L167.595 117.622L168.669 113.976L165.888 113.19L164.734 117.107L162.845 116.573Z" fill="white"/>
<path d="M166.14 125.101L164.323 129.157L158.984 126.862C159.041 126.249 159.147 125.628 159.303 124.999C159.454 124.38 159.694 123.703 160.024 122.967C160.478 121.955 161.067 121.177 161.792 120.634C162.513 120.1 163.351 119.817 164.307 119.783C165.258 119.759 166.311 119.995 167.465 120.492C168.543 120.955 169.384 121.561 169.988 122.311C170.589 123.071 170.928 123.94 171.005 124.92C171.083 125.899 170.865 126.962 170.351 128.108C170.107 128.653 169.81 129.163 169.459 129.639C169.108 130.115 168.74 130.527 168.355 130.874L166.93 129.407C167.235 129.162 167.53 128.861 167.816 128.505C168.101 128.149 168.342 127.752 168.539 127.312C168.822 126.682 168.924 126.07 168.845 125.478C168.762 124.895 168.514 124.361 168.1 123.876C167.692 123.404 167.132 123.015 166.42 122.709C165.747 122.42 165.11 122.254 164.509 122.212C163.908 122.17 163.371 122.281 162.897 122.545C162.433 122.812 162.06 123.262 161.778 123.892C161.683 124.103 161.607 124.286 161.548 124.443C161.494 124.614 161.447 124.77 161.407 124.912C161.375 125.058 161.342 125.198 161.305 125.33L163.455 126.255L164.322 124.32L166.14 125.101Z" fill="white"/>
<path d="M153.465 134.881L156.18 135.589L158.38 132.148L156.544 130.064L157.922 127.907L165.39 137.13L163.825 139.578L152.086 137.038L153.465 134.881ZM160.847 136.83C161.027 136.879 161.256 136.94 161.533 137.011C161.81 137.083 162.092 137.158 162.378 137.235C162.664 137.312 162.91 137.384 163.117 137.449C162.967 137.295 162.783 137.097 162.566 136.853C162.352 136.624 162.148 136.4 161.952 136.181C161.759 135.977 161.625 135.828 161.549 135.732L159.758 133.694L158.185 136.155L160.847 136.83Z" fill="white"/>
<path d="M144.805 145.294L146.806 143.038L156.506 144.88L156.547 144.833C156.341 144.672 156.131 144.506 155.916 144.338C155.71 144.176 155.5 144.011 155.286 143.842C155.072 143.688 154.859 143.527 154.644 143.358C154.438 143.197 154.228 143.031 154.013 142.863L149.995 139.443L151.402 137.856L159.941 145.124L157.951 147.368L148.321 145.565L148.29 145.6C148.497 145.762 148.699 145.921 148.897 146.076C149.103 146.237 149.306 146.396 149.504 146.551C149.703 146.721 149.902 146.883 150.101 147.038C150.307 147.2 150.513 147.362 150.719 147.523L154.762 150.964L153.345 152.562L144.805 145.294Z" fill="white"/>
<path d="M144.782 157.683C145.129 157.396 145.381 157.071 145.538 156.709C145.688 156.354 145.746 155.973 145.712 155.565C145.685 155.166 145.566 154.748 145.354 154.311C145.135 153.882 144.833 153.445 144.45 153.001C143.929 152.399 143.412 151.945 142.897 151.637C142.381 151.345 141.866 151.221 141.352 151.267C140.837 151.312 140.331 151.542 139.831 151.957C139.476 152.251 139.16 152.581 138.882 152.948C138.596 153.322 138.309 153.75 138.022 154.233L136.717 152.725C136.966 152.26 137.244 151.838 137.553 151.459C137.862 151.081 138.247 150.701 138.706 150.32C139.592 149.584 140.48 149.154 141.368 149.029C142.255 148.919 143.116 149.075 143.952 149.497C144.794 149.927 145.592 150.577 146.346 151.449C146.9 152.09 147.318 152.75 147.6 153.428C147.888 154.113 148.031 154.791 148.028 155.459C148.017 156.135 147.854 156.787 147.54 157.415C147.217 158.05 146.729 158.639 146.077 159.18C145.649 159.535 145.174 159.833 144.651 160.077C144.127 160.335 143.589 160.537 143.037 160.682L142.366 158.729C142.818 158.612 143.257 158.472 143.684 158.309C144.102 158.153 144.468 157.944 144.782 157.683Z" fill="white"/>
<path d="M129.234 157.049L134.675 153.575L140.887 162.911L135.446 166.385L134.367 164.763L137.809 162.566L136.443 160.513L133.24 162.559L132.161 160.937L135.364 158.892L133.763 156.486L130.322 158.683L129.234 157.049Z" fill="white"/>
<path d="M108.708 165.042L114.93 163.325L118.03 174.102L111.808 175.819L111.269 173.948L115.206 172.861L114.524 170.491L110.86 171.503L110.322 169.631L113.986 168.62L113.187 165.843L109.25 166.929L108.708 165.042Z" fill="white"/>
<path d="M106.351 165.517L108.104 176.593L105.759 176.949L104.313 167.812L99.8102 168.496L99.5033 166.557L106.351 165.517Z" fill="white"/>
<path d="M91.1164 166.882L97.5683 166.682L97.9303 177.89L91.4784 178.09L91.4155 176.144L95.497 176.017L95.4174 173.553L91.6185 173.671L91.5556 171.724L95.3545 171.606L95.2612 168.718L91.1798 168.845L91.1164 166.882Z" fill="white"/>
<path d="M83.5174 172.67L79.0988 172.19L79.7531 166.415C80.3584 166.281 80.985 166.191 81.633 166.146C82.2705 166.099 82.99 166.12 83.7915 166.207C84.8948 166.327 85.8121 166.648 86.5432 167.17C87.264 167.69 87.779 168.399 88.0883 169.297C88.3871 170.193 88.4658 171.265 88.3244 172.513C88.1923 173.679 87.8542 174.663 87.3099 175.468C86.7552 176.271 86.0194 176.86 85.1024 177.234C84.1854 177.608 83.1024 177.728 81.8533 177.592C81.26 177.527 80.6841 177.402 80.1258 177.214C79.5674 177.027 79.0659 176.804 78.621 176.545L79.6157 174.742C79.9391 174.956 80.313 175.144 80.7372 175.306C81.1614 175.468 81.6129 175.575 82.0917 175.627C82.7787 175.702 83.3949 175.611 83.9403 175.354C84.4753 175.097 84.9158 174.697 85.2617 174.155C85.596 173.623 85.8067 172.972 85.894 172.202C85.9765 171.474 85.9507 170.818 85.8166 170.234C85.6825 169.651 85.4203 169.175 85.0301 168.806C84.6387 168.448 84.0995 168.231 83.4125 168.156C83.1835 168.131 82.9851 168.115 82.8174 168.107C82.6381 168.109 82.4744 168.112 82.3263 168.117C82.1771 168.132 82.0336 168.143 81.8959 168.149L81.6324 170.475L83.7403 170.704L83.5174 172.67Z" fill="white"/>
<path d="M70.3695 163.673L70.4515 166.455L74.3999 167.497L75.8973 165.131L78.3726 165.784L71.5609 175.632L68.7515 174.891L67.8942 163.02L70.3695 163.673ZM70.5681 171.245C70.5716 171.43 70.5777 171.664 70.5866 171.948C70.5954 172.232 70.6028 172.521 70.6089 172.815C70.615 173.109 70.6156 173.363 70.6107 173.579C70.7168 173.39 70.857 173.156 71.0314 172.878C71.1929 172.606 71.3516 172.345 71.5075 172.094C71.6505 171.85 71.7576 171.678 71.8286 171.577L73.2941 169.268L70.4695 168.523L70.5681 171.245Z" fill="white"/>
<path d="M57.7065 158.614L60.4598 159.844L61.3404 169.525L61.3978 169.55C61.4987 169.309 61.6018 169.062 61.7072 168.811C61.8081 168.57 61.9112 168.323 62.0165 168.072C62.1078 167.826 62.2062 167.578 62.3115 167.327C62.4124 167.085 62.5155 166.839 62.6209 166.588L64.8479 161.804L66.7838 162.668L62.0514 172.835L59.3124 171.611L58.413 162.008L58.37 161.989C58.2691 162.23 58.1704 162.467 58.0739 162.699C57.973 162.941 57.8743 163.178 57.7778 163.41C57.6673 163.647 57.5638 163.882 57.4674 164.114C57.3665 164.356 57.2655 164.597 57.1646 164.839L54.9244 169.651L52.9741 168.78L57.7065 158.614Z" fill="white"/>
<path d="M45.5187 162.191C45.8973 162.435 46.2858 162.579 46.6843 162.624C47.074 162.663 47.4634 162.609 47.8526 162.461C48.2359 162.322 48.6116 162.091 48.9797 161.767C49.339 161.438 49.682 161.031 50.0086 160.544C50.4519 159.883 50.7518 159.267 50.9083 158.695C51.0501 158.126 51.0266 157.607 50.8378 157.137C50.6489 156.667 50.2816 156.256 49.7357 155.905C49.3483 155.655 48.9362 155.452 48.4992 155.296C48.0535 155.133 47.5537 154.986 46.9997 154.853L48.1108 153.197C48.6354 153.298 49.1265 153.44 49.584 153.622C50.0414 153.805 50.5211 154.057 51.023 154.38C51.9914 155.004 52.6614 155.715 53.0328 156.514C53.3896 157.317 53.4785 158.171 53.2996 159.076C53.1148 159.991 52.7017 160.926 52.0601 161.883C51.5876 162.587 51.0592 163.168 50.4747 163.626C49.8844 164.093 49.2614 164.42 48.6058 164.608C47.9414 164.79 47.2576 164.823 46.5542 164.707C45.8421 164.585 45.1294 164.294 44.4163 163.835C43.9497 163.535 43.5239 163.173 43.1389 162.751C42.7393 162.332 42.3909 161.884 42.0936 161.406L43.8169 160.218C44.0582 160.61 44.3185 160.983 44.5979 161.337C44.8684 161.686 45.1753 161.97 45.5187 162.191Z" fill="white"/>
<path d="M41.7135 147.423L46.6662 151.563L39.3008 160.019L34.348 155.879L35.6272 154.411L38.7603 157.029L40.3799 155.17L37.4636 152.733L38.7428 151.264L41.659 153.702L43.5571 151.523L40.424 148.904L41.7135 147.423Z" fill="white"/>
<path d="M27.7743 130.399L31.3104 135.799L21.8154 141.765L18.2793 136.365L19.9283 135.329L22.1652 138.745L24.2531 137.433L22.171 134.253L23.82 133.217L25.9021 136.397L28.349 134.859L26.112 131.443L27.7743 130.399Z" fill="white"/>
<path d="M26.6542 128.486L16.5537 133.357L15.4887 131.238L23.8209 127.22L21.7756 123.15L23.5439 122.297L26.6542 128.486Z" fill="white"/>
<path d="M20.6087 114.449L22.8015 120.52L12.206 124.192L10.0132 118.121L11.8533 117.484L13.2405 121.324L15.5703 120.517L14.2792 116.942L16.1193 116.304L17.4104 119.879L20.1409 118.933L18.7538 115.092L20.6087 114.449Z" fill="white"/>
<path d="M12.8645 109.575L11.9185 105.232L17.6066 104.044C17.9262 104.576 18.2103 105.142 18.4589 105.743C18.7054 106.333 18.9144 107.022 19.086 107.81C19.3222 108.894 19.3087 109.865 19.0453 110.722C18.7798 111.569 18.2703 112.28 17.5168 112.855C16.7611 113.419 15.7683 113.83 14.5384 114.087C13.3905 114.327 12.3485 114.315 11.4122 114.05C10.4738 113.776 9.68145 113.262 9.03529 112.51C8.38913 111.757 7.93234 110.767 7.66492 109.539C7.5379 108.956 7.4746 108.37 7.47502 107.782C7.47544 107.193 7.528 106.648 7.6327 106.144L9.66 106.523C9.55931 106.897 9.49939 107.31 9.48025 107.764C9.46111 108.217 9.50279 108.679 9.6053 109.149C9.75238 109.825 10.0343 110.381 10.4509 110.818C10.8653 111.245 11.3845 111.537 12.0084 111.696C12.6197 111.846 13.3046 111.842 14.063 111.683C14.7805 111.533 15.3947 111.303 15.9058 110.993C16.4169 110.683 16.7857 110.285 17.012 109.799C17.2281 109.316 17.2626 108.736 17.1155 108.061C17.0665 107.836 17.019 107.643 16.9731 107.481C16.9148 107.311 16.8597 107.157 16.808 107.018C16.7461 106.881 16.6904 106.749 16.6409 106.62L14.3503 107.099L14.8015 109.17L12.8645 109.575Z" fill="white"/>
<path d="M17.2359 94.4311L14.6283 95.4231L14.9107 99.4967L17.6312 100.134L17.8082 102.688L6.29851 99.4871L6.09761 96.5886L17.0589 91.8773L17.2359 94.4311ZM10.1323 97.1072C9.95834 97.1713 9.73843 97.2541 9.47259 97.3557C9.20675 97.4573 8.93569 97.5593 8.65941 97.6616C8.38312 97.764 8.14232 97.8482 7.93699 97.9143C8.14956 97.9526 8.41581 98.0084 8.73574 98.0816C9.04451 98.145 9.34282 98.2091 9.63069 98.2739C9.90739 98.3289 10.1046 98.3735 10.2225 98.4077L12.8792 99.0337L12.6772 96.1195L10.1323 97.1072Z" fill="white"/>
<path d="M17.9485 80.7103L17.6823 83.714L8.80058 87.8607L8.79503 87.9232C9.05678 87.935 9.32373 87.9472 9.59591 87.9598C9.85765 87.9716 10.1246 87.9838 10.3968 87.9964C10.6595 87.9977 10.9269 88.0047 11.199 88.0173C11.4608 88.0291 11.7277 88.0413 11.9999 88.0539L17.258 88.5011L17.0708 90.6131L5.8974 89.6628L6.16222 86.6748L14.9643 82.5371L14.9684 82.4901C14.7067 82.4784 14.4502 82.4671 14.1989 82.4562C13.9371 82.4445 13.6806 82.4332 13.4293 82.4223C13.1685 82.4001 12.9124 82.3836 12.6611 82.3727C12.3994 82.361 12.1376 82.3492 11.8759 82.3375L6.58648 81.8877L6.77505 79.76L17.9485 80.7103Z" fill="white"/>
<path d="M10.5758 70.6287C10.4683 71.0659 10.4587 71.4778 10.5469 71.8643C10.6377 72.2407 10.8174 72.5843 11.086 72.8951C11.3444 73.2035 11.6879 73.4727 12.1165 73.7029C12.5476 73.9229 13.0485 74.1003 13.6192 74.2349C14.3937 74.4176 15.0785 74.4823 15.6738 74.4291C16.2614 74.3633 16.7479 74.1607 17.1332 73.8213C17.5185 73.4819 17.7887 72.997 17.9436 72.3666C18.0536 71.9193 18.1114 71.4649 18.117 71.0037C18.125 70.5323 18.1011 70.0157 18.0451 69.4538L19.9865 69.9118C20.0626 70.4353 20.089 70.9418 20.0658 71.4311C20.0425 71.9205 19.9597 72.4549 19.8172 73.0345C19.5422 74.1529 19.0855 75.0241 18.447 75.648C17.8007 76.2593 17.0173 76.6393 16.0967 76.7879C15.1659 76.934 14.14 76.8749 13.019 76.6105C12.1936 76.4158 11.4669 76.1261 10.8391 75.7413C10.2012 75.3542 9.68499 74.8882 9.29063 74.3433C8.89876 73.7883 8.64274 73.1632 8.52256 72.4679C8.40488 71.7624 8.44727 70.9979 8.64973 70.1743C8.7822 69.6354 8.98601 69.1134 9.26115 68.6082C9.5286 68.0904 9.84076 67.61 10.1976 67.1671L11.8941 68.3579C11.6005 68.7189 11.3311 69.0911 11.086 69.4743C10.8433 69.8473 10.6732 70.2321 10.5758 70.6287Z" fill="white"/>
<path d="M23.4189 61.9487L21.1129 67.9778L10.5857 64.1142L12.8917 58.0851L14.72 58.7561L13.2612 62.5701L15.576 63.4197L16.9338 59.8697L18.762 60.5407L17.4042 64.0907L20.1171 65.0863L21.5759 61.2723L23.4189 61.9487Z" fill="white"/>
<path d="M34.9217 43.529L30.9824 48.6425L21.9649 41.9766L25.9043 36.8631L27.4703 38.0207L24.9783 41.2556L26.9611 42.7213L29.2806 39.7104L30.8467 40.8681L28.5272 43.879L30.851 45.5968L33.343 42.362L34.9217 43.529Z" fill="white"/>
<path d="M36.4425 41.827L28.254 34.1656L29.9096 32.4676L36.6646 38.7877L39.8443 35.5267L41.2778 36.868L36.4425 41.827Z" fill="white"/>
<path d="M47.6377 31.6478L42.6252 35.7148L35.3846 27.152L40.3972 23.0849L41.6547 24.572L38.4837 27.1448L40.0758 29.0277L43.0272 26.633L44.2847 28.1201L41.3333 30.5148L43.1992 32.7215L46.3701 30.1487L47.6377 31.6478Z" fill="white"/>
<path d="M49.7249 22.7473L53.523 20.4387L56.6327 25.3477C56.2381 25.8203 55.7987 26.2712 55.3145 26.7002C54.8393 27.1238 54.2573 27.545 53.5683 27.9637C52.6199 28.5402 51.6925 28.8466 50.7862 28.883C49.8888 28.9139 49.0359 28.6728 48.2275 28.1596C47.4281 27.641 46.6922 26.8509 46.0198 25.7895C45.3923 24.7989 45.0412 23.8239 44.9665 22.8648C44.9007 21.9002 45.1131 20.9932 45.6036 20.1438C46.0941 19.2944 46.8761 18.5434 47.9498 17.8908C48.4598 17.5808 48.9945 17.3293 49.5538 17.1363C50.1131 16.9434 50.6501 16.813 51.1648 16.7451L51.5107 18.7584C51.1202 18.7875 50.7062 18.8676 50.2688 18.9987C49.8314 19.1298 49.4069 19.3205 48.9953 19.5707C48.4048 19.9296 47.9744 20.375 47.7041 20.9068C47.4427 21.4332 47.3453 22.0131 47.4119 22.6464C47.4818 23.2654 47.7241 23.9022 48.1387 24.5567C48.5309 25.1759 48.9633 25.6726 49.4358 26.0469C49.9084 26.4212 50.4149 26.634 50.9554 26.6852C51.4904 26.7276 52.0531 26.5693 52.6436 26.2104C52.8404 26.0908 53.0076 25.983 53.1452 25.8872C53.2861 25.777 53.4136 25.675 53.5276 25.5812C53.6361 25.4785 53.7428 25.383 53.848 25.2946L52.5957 23.3177L50.7839 24.419L49.7249 22.7473Z" fill="white"/>
<path d="M65.6646 21.8652L63.8411 19.7356L60.0762 21.3169L60.3939 24.079L58.0336 25.0704L57.1671 13.2218L59.846 12.0966L68.0249 20.8738L65.6646 21.8652ZM60.7216 16.0552C60.6019 15.9124 60.4489 15.7325 60.2625 15.5156C60.0761 15.2986 59.8877 15.0769 59.6971 14.8504C59.5065 14.6238 59.3451 14.4248 59.2128 14.2532C59.2485 14.4653 59.2859 14.7335 59.325 15.0577C59.3695 15.3683 59.4099 15.6693 59.446 15.9608C59.4876 16.2385 59.5122 16.4383 59.5197 16.56L59.8267 19.2585L62.52 18.1273L60.7216 16.0552Z" fill="white"/>
<path d="M78.8527 18.1605L75.9201 18.8627L69.1166 11.7714L69.0555 11.786C69.129 12.0376 69.2039 12.2942 69.28 12.5559C69.3535 12.8074 69.4283 13.064 69.5044 13.3257C69.5882 13.5748 69.6681 13.8302 69.7442 14.0919C69.8177 14.3434 69.8926 14.6 69.9687 14.8617L71.2463 19.9818L69.1844 20.4755L66.4693 9.5954L69.3866 8.89686L76.1559 15.9156L76.2017 15.9046C76.1281 15.6531 76.0558 15.4066 75.9848 15.1652C75.9113 14.9137 75.839 14.6673 75.7679 14.4259C75.7046 14.1719 75.6374 13.9242 75.5663 13.6829C75.4928 13.4313 75.4192 13.1798 75.3457 12.9283L74.0604 7.77772L76.1376 7.28033L78.8527 18.1605Z" fill="white"/>
<path d="M86.5654 7.90743C86.1165 7.94225 85.7218 8.06213 85.3812 8.26708C85.051 8.47122 84.7794 8.74958 84.5663 9.10217C84.3524 9.44432 84.2017 9.85507 84.1144 10.3344C84.0376 10.813 84.0228 11.3444 84.07 11.9289C84.1341 12.722 84.2829 13.3931 84.5164 13.9421C84.7594 14.4798 85.1015 14.8786 85.5427 15.1385C85.9839 15.3983 86.5281 15.5031 87.1753 15.4529C87.6346 15.4173 88.0845 15.3299 88.525 15.1907C88.9758 15.0507 89.4599 14.8661 89.9771 14.637L90.1378 16.6251C89.6632 16.8614 89.1896 17.0452 88.717 17.1764C88.2444 17.3075 87.7106 17.3962 87.1156 17.4424C85.9673 17.5314 84.9983 17.3703 84.2088 16.959C83.4288 16.5364 82.8267 15.911 82.4026 15.0827C81.9777 14.244 81.7188 13.2507 81.626 12.1027C81.5577 11.2574 81.6101 10.4762 81.7832 9.75912C81.9555 9.03163 82.2402 8.3952 82.6373 7.84981C83.0448 7.30361 83.5608 6.86452 84.1853 6.53254C84.8202 6.19974 85.5604 6.00055 86.4059 5.93496C86.9592 5.89205 87.5184 5.92219 88.0835 6.02538C88.6581 6.11733 89.2109 6.26348 89.7418 6.46384L89.1302 8.44886C88.6966 8.28296 88.2599 8.14355 87.8201 8.03064C87.3907 7.91692 86.9725 7.87585 86.5654 7.90743Z" fill="white"/>
<path d="M98.526 17.3479L92.078 17.0481L92.6208 5.84745L99.0688 6.14729L98.9745 8.0925L94.8955 7.90282L94.7762 10.3657L98.5728 10.5423L98.4785 12.4875L94.6819 12.3109L94.542 15.1973L98.621 15.387L98.526 17.3479Z" fill="white"/>
<path d="M120.478 22.6453L114.412 20.4392L118.386 9.95326L124.452 12.1594L123.762 13.9805L119.925 12.5849L119.051 14.8906L122.623 16.1896L121.932 18.0107L118.361 16.7117L117.336 19.4139L121.174 20.8096L120.478 22.6453Z" fill="white"/>
<path d="M122.709 23.5818L127.94 13.663L130.056 14.7339L125.741 22.9162L129.805 24.9728L128.889 26.7093L122.709 23.5818Z" fill="white"/>
<path d="M135.863 31.2088L130.487 27.6359L136.872 18.4174L142.248 21.9904L141.139 23.5913L137.739 21.3311L136.335 23.3581L139.5 25.4619L138.391 27.0629L135.226 24.9591L133.58 27.3347L136.981 29.595L135.863 31.2088Z" fill="white"/>
<path d="M145.235 30.6843L148.572 33.6207L144.644 37.9033C144.069 37.6626 143.503 37.3736 142.946 37.0366C142.397 36.7064 141.819 36.275 141.214 35.7424C140.381 35.0091 139.818 34.2211 139.526 33.3782C139.242 32.5422 139.236 31.673 139.51 30.7704C139.792 29.8748 140.357 28.9641 141.207 28.0381C141.999 27.1739 142.855 26.5741 143.773 26.2388C144.699 25.9104 145.648 25.8597 146.618 26.0866C147.589 26.3135 148.546 26.842 149.49 27.672C149.938 28.0663 150.335 28.5 150.683 28.9731C151.03 29.4461 151.31 29.9154 151.522 30.381L149.648 31.2628C149.509 30.9033 149.313 30.5359 149.061 30.1605C148.809 29.7851 148.502 29.4383 148.14 29.1201C147.621 28.6635 147.063 28.3815 146.466 28.2741C145.876 28.1735 145.281 28.2421 144.679 28.4797C144.093 28.7165 143.538 29.1205 143.014 29.6915C142.518 30.2316 142.154 30.7758 141.922 31.3239C141.689 31.872 141.624 32.4074 141.727 32.9303C141.837 33.4454 142.151 33.9312 142.67 34.3877C142.843 34.5399 142.995 34.6675 143.128 34.7704C143.276 34.8726 143.412 34.9644 143.536 35.0458C143.668 35.1195 143.791 35.1936 143.908 35.2681L145.489 33.5435L143.898 32.1427L145.235 30.6843Z" fill="white"/>
<path d="M150.689 45.3928L152.231 43.0842L149.589 39.9708L146.99 41.0341L145.334 39.0822L156.626 34.989L158.506 37.2043L152.346 47.3446L150.689 45.3928ZM154.905 39.1246C155.009 38.9723 155.14 38.7783 155.297 38.5425C155.454 38.3067 155.614 38.0676 155.779 37.8253C155.945 37.5829 156.091 37.3756 156.22 37.2035C156.024 37.2958 155.773 37.4052 155.469 37.5317C155.179 37.6596 154.897 37.7808 154.624 37.8955C154.365 38.0115 154.178 38.0899 154.062 38.1307L151.522 39.1663L153.412 41.3936L154.905 39.1246Z" fill="white"/>
<path d="M158.186 56.6562L156.618 54.0804L161.402 45.6308L161.369 45.5771C161.149 45.7181 160.924 45.8617 160.694 46.0079C160.474 46.1489 160.248 46.2925 160.019 46.4387C159.804 46.5886 159.581 46.7367 159.352 46.8829C159.131 47.0239 158.906 47.1675 158.676 47.3137L154.119 49.9751L153.017 48.164L162.7 42.5085L164.26 45.071L159.536 53.4675L159.56 53.5077C159.781 53.3668 159.997 53.2285 160.208 53.0928C160.429 52.9518 160.645 52.8135 160.857 52.6779C161.083 52.5458 161.301 52.412 161.513 52.2763C161.734 52.1354 161.954 51.9944 162.175 51.8534L166.759 49.1762L167.869 51.0008L158.186 56.6562Z" fill="white"/>
<path d="M170.208 60.4905C170.034 60.0749 169.796 59.736 169.494 59.4736C169.196 59.2208 168.845 59.0456 168.441 58.9478C168.047 58.8462 167.607 58.8249 167.121 58.884C166.639 58.9528 166.126 59.0961 165.582 59.314C164.843 59.6097 164.248 59.9496 163.795 60.3336C163.357 60.7234 163.082 61.1661 162.971 61.6615C162.86 62.157 162.93 62.7043 163.179 63.3035C163.357 63.7286 163.581 64.1296 163.851 64.5062C164.126 64.8925 164.453 65.297 164.834 65.7198L162.982 66.461C162.608 66.0807 162.285 65.6858 162.012 65.2763C161.739 64.8668 161.487 64.3867 161.258 63.8359C160.814 62.7729 160.666 61.806 160.813 60.9351C160.974 60.0701 161.385 59.3137 162.045 58.6661C162.715 58.0147 163.584 57.4749 164.653 57.0469C165.441 56.7318 166.204 56.5502 166.944 56.5021C167.694 56.4501 168.392 56.5317 169.037 56.747C169.687 56.9718 170.268 57.3313 170.78 57.8254C171.297 58.3291 171.718 58.9724 172.045 59.7551C172.258 60.2673 172.404 60.8067 172.481 61.3733C172.573 61.9457 172.605 62.5134 172.579 63.0764L170.49 63.084C170.513 62.6235 170.51 62.1679 170.481 61.7173C170.456 61.2763 170.365 60.8673 170.208 60.4905Z" fill="white"/>
<path d="M164.998 74.8818L163.268 68.663L174.103 65.7709L175.833 71.9897L173.951 72.492L172.857 68.558L170.474 69.1939L171.493 72.8556L169.611 73.3579L168.593 69.6962L165.801 70.4415L166.895 74.3755L164.998 74.8818Z" fill="white"/>
</svg>
