<svg width="164" height="64" viewBox="0 0 164 64" fill="none" xmlns="http://www.w3.org/2000/svg">
<path fill-rule="evenodd" clip-rule="evenodd" d="M156.764 26.3334H154.986L154.215 24.7031C153.278 23.9575 152.092 23.5483 150.865 23.5479C150.066 23.515 149.272 23.6974 148.578 24.0739C148.307 24.2173 148.082 24.4272 147.926 24.6812C147.771 24.9353 147.691 25.2242 147.696 25.5175C147.699 25.7914 147.768 26.0611 147.9 26.3055C148.031 26.55 148.22 26.7627 148.452 26.9272C149.012 27.3517 149.654 27.6693 150.342 27.8623C151.099 28.0885 151.921 28.3546 152.81 28.6607C153.699 28.9667 154.521 29.2894 155.277 29.6288C156.032 29.9673 156.682 30.4818 157.167 31.1235C157.671 31.7802 157.998 33.1092 157.998 33.992C158.023 34.7655 157.86 35.5341 157.519 36.2382C157.179 36.9423 156.671 37.5628 156.035 38.0516C153.46 40.0785 142.732 39.5046 139.03 39.686L138.41 37.3482C137.065 38.6163 135.06 39.2503 132.395 39.2503C130.353 39.2503 128.763 38.7068 127.623 37.6197C126.483 36.5326 125.912 35.0267 125.912 33.1019V24.5423L116.943 24.5762V33.2045C116.943 34.2686 117.117 35.0441 117.465 35.5312C117.648 35.7928 117.906 36.0003 118.209 36.1296C118.511 36.2588 118.847 36.3047 119.176 36.2617L121.805 36.0239V38.4356C120.845 38.8206 119.56 39.013 117.951 39.013C116.246 39.013 114.997 38.6337 114.205 37.8751C113.413 37.1165 113.016 35.8427 113.016 34.0537V24.5762H110.855V21.8936L113.016 21.7577L113.521 16.6283H116.943V21.7235H129.838V32.3897C129.838 33.5446 130.174 34.4618 130.847 35.1413C131.519 35.8209 132.492 36.1605 133.764 36.1603C134.597 36.1688 135.425 36.0425 136.212 35.7869C136.781 35.6233 137.317 35.3707 137.797 35.0396L138.265 34.6659V24.5432L136.251 24.4067L136.431 21.7232H142.195V35.7398C145.439 36.3757 151.894 36.8532 153.061 36.1951C153.348 35.9821 153.58 35.7092 153.737 35.3978C153.894 35.0864 153.973 34.7448 153.967 34.4C153.967 33.7433 153.55 32.6516 152.866 32.2445C152.087 31.7986 151.244 31.4611 150.363 31.2425C149.378 30.9822 148.388 30.6821 147.391 30.3421C146.418 30.0175 145.549 29.4618 144.87 28.7287C144.168 27.9483 143.802 26.9486 143.843 25.9263C143.822 25.2314 143.977 24.5417 144.297 23.9152C144.616 23.2887 145.091 22.7436 145.68 22.3255C146.904 21.4198 148.441 20.9669 150.29 20.9667C151.855 20.9968 153.373 21.4703 154.649 22.3255L155.117 21.3065H157.098L156.766 26.3328L156.764 26.3334ZM79.6378 24.6385H77.8753L76.2878 20.2288C75.2304 19.3565 73.8744 18.8739 72.4696 18.8699C71.0768 18.8699 70.0026 19.1643 69.2469 19.7531C68.8679 20.0559 68.5683 20.4373 68.3715 20.8674C68.1746 21.2976 68.0859 21.7648 68.1122 22.2326C68.1155 22.6735 68.2359 23.1066 68.4625 23.4923C68.689 23.8781 69.0144 24.2041 69.409 24.4406C70.3724 25.0754 71.4361 25.5626 72.5607 25.8842C73.7964 26.2571 75.0391 26.6648 76.2887 27.1072C77.4938 27.5215 78.5793 28.1962 79.4584 29.0771C80.3295 29.9672 80.7945 31.1446 80.7533 32.3553C80.7533 34.484 79.9849 36.1655 78.4479 37.3997C76.911 38.6338 74.7501 39.2512 71.9654 39.2518C70.5168 39.2584 69.0705 39.1447 67.6431 38.9119C66.6613 38.7747 65.6961 38.5472 64.7613 38.2328L63.8964 37.8921L63.8242 32.4567L66.7779 32.2866L67.1383 35.7854C68.5582 36.2162 70.041 36.434 71.5325 36.4309C73.2858 36.4309 74.5886 36.0969 75.4409 35.4289C75.8548 35.1127 76.1856 34.7106 76.4074 34.2539C76.6292 33.7972 76.736 33.2983 76.7195 32.7962C76.719 32.4487 76.6344 32.1059 76.4721 31.7938C76.3099 31.4818 76.0742 31.2089 75.783 30.9958C75.0936 30.4653 74.297 30.0724 73.4416 29.841C72.505 29.5682 71.4964 29.2398 70.4158 28.8556C69.3352 28.4714 68.3265 28.0637 67.3899 27.6326C66.4388 27.1901 65.6305 26.5157 65.0488 25.6794C64.4092 24.7571 64.0825 23.673 64.1124 22.5713C64.0824 21.6976 64.2555 20.8283 64.6195 20.0244C64.9835 19.2205 65.5296 18.5014 66.2195 17.9176C67.6243 16.7179 69.4912 16.1178 71.8204 16.1172C73.3813 16.1172 74.9903 16.6267 76.6473 17.6458L77.2233 16.4229H79.6378V24.637V24.6385ZM92.9932 24.5765V21.7232H87.8416V16.6277H84.4197L83.914 21.7571L81.753 21.893V24.5765H83.914V34.054C83.914 35.8432 84.3102 37.117 85.1027 37.8754C85.8951 38.6338 87.1438 39.0131 88.8487 39.0133C90.4575 39.0133 93.4967 37.5665 94.4573 37.1817C94.6771 37.4572 94.9307 37.7072 95.2128 37.9265C96.3411 38.8094 97.914 39.2511 99.9315 39.2515C101.002 39.2716 102.064 39.0747 103.047 38.6741C103.948 38.2889 104.548 37.9382 104.848 37.622C105.103 37.3633 105.327 37.0784 105.514 36.7728L106.055 38.7091H111.17L111.35 36.196L109.26 36.0601V27.5654C109.26 23.3087 107.111 21.18 102.813 21.1794C101.116 21.1843 99.4641 21.6958 98.0943 22.6405L97.7339 21.5198H95.3206L95.179 27.1244H98.1327L98.3127 24.9845C99.2723 24.2063 100.506 23.7943 101.771 23.8293C103.067 23.8293 103.992 24.118 104.544 24.6955C105.096 25.2729 105.372 26.2523 105.372 27.6338V28.483C105.228 28.5058 105.001 28.5245 104.688 28.5511C103.415 28.6598 102.586 28.7437 102.203 28.7889C101.819 28.8342 101.032 28.9473 99.8432 29.1285C98.9674 29.2259 98.1114 29.4434 97.3022 29.774C96.7984 30.023 96.1861 30.3457 95.4653 30.7422C94.8106 31.0741 94.2822 31.5905 93.9538 32.2194C93.6659 32.8076 93.5364 34.7538 93.5658 34.9882L90.0745 36.2614C89.3355 36.5309 88.7111 36.018 88.3637 35.5309C88.0164 35.0437 87.8413 34.2679 87.8413 33.2042V24.5762L92.9932 24.5765ZM101.159 36.7039C98.7579 36.7039 97.5573 35.7754 97.5573 33.9184C97.5474 33.5313 97.6338 33.1474 97.8095 32.7974C98.0088 32.4515 98.3172 32.1726 98.692 31.9993C99.076 31.8004 99.473 31.6247 99.8807 31.4733C100.418 31.3022 100.974 31.1883 101.538 31.1338C102.269 31.0434 102.864 30.9811 103.321 30.947L105.374 30.7939V34.4967C105.326 34.5875 105.265 34.6895 105.193 34.8026C105.054 34.9959 104.897 35.1777 104.725 35.3462C104.49 35.5912 104.224 35.808 103.933 35.9917C103.568 36.2055 103.174 36.3713 102.762 36.4844C102.243 36.6348 101.702 36.7086 101.158 36.7033L101.159 36.7039Z" fill="#FEFEFE"/>
<path fill-rule="evenodd" clip-rule="evenodd" d="M65.3116 47.0804H63.8552L63.8242 46.6128L64.2946 46.5891L65.6428 43.2355H66.5793L67.9275 46.6254L68.3923 46.6432L68.3613 47.0815H66.8247V46.7016L67.2074 46.6838L66.9065 45.9503H65.2258L64.9249 46.666L65.3451 46.6838L65.3141 47.0801L65.3116 47.0804ZM66.0705 43.7563L65.3869 45.5248H66.7416L66.0705 43.7563ZM68.9631 47.0804L68.9321 46.6128L69.4214 46.5891V43.6961L68.9256 43.6724L68.9566 43.2341H70.9509C71.5339 43.1966 72.1111 43.3631 72.5722 43.7016C72.7687 43.8826 72.9209 44.1019 73.0178 44.3443C73.1148 44.5866 73.1542 44.8461 73.1333 45.1043C73.1508 45.3706 73.11 45.6375 73.0134 45.8883C72.9169 46.1391 72.7667 46.3685 72.5722 46.5622C72.3526 46.7448 72.0968 46.8846 71.8196 46.9734C71.5423 47.0623 71.2492 47.0984 70.9571 47.0798L68.9631 47.0804ZM70.9512 43.7683H70.136V46.5482H70.9639C71.1594 46.5618 71.3558 46.5363 71.5401 46.4732C71.7243 46.41 71.8923 46.3108 72.033 46.1821C72.2944 45.8797 72.4234 45.4946 72.3937 45.1055C72.4111 44.9219 72.3884 44.7369 72.3269 44.5619C72.2653 44.3869 72.1664 44.2257 72.0361 44.0883C71.7316 43.8542 71.3432 43.7398 70.9515 43.7689L70.9512 43.7683ZM75.1608 43.6736L74.7781 43.6973L75.8627 46.5777H75.8689L76.9413 43.7139L76.5273 43.6961L76.5583 43.2347H78.0572V43.673L77.6308 43.6967L76.3011 47.0798H75.3715L74.044 43.6981L73.5926 43.6745L73.6235 43.2361H75.1602V43.6745L75.1608 43.6736ZM82.7002 45.0991C82.7265 45.6495 82.5253 46.188 82.1391 46.6014C81.9411 46.7956 81.7011 46.9473 81.4354 47.0462C81.1697 47.1452 80.8846 47.1891 80.5993 47.175C80.3167 47.1894 80.0341 47.1458 79.771 47.0473C79.5079 46.9488 79.2706 46.7976 79.0754 46.6043C78.6936 46.1878 78.4961 45.649 78.5235 45.0991C78.4969 44.836 78.5324 44.5706 78.6274 44.322C78.7225 44.0734 78.8747 43.8477 79.0731 43.6611C79.2716 43.4745 79.5114 43.3317 79.7753 43.2429C80.0393 43.154 80.3208 43.1214 80.5996 43.1473C80.8812 43.1315 81.1632 43.1695 81.4289 43.2589C81.6945 43.3483 81.9383 43.4874 82.1456 43.6678C82.3364 43.8583 82.484 44.0836 82.5795 44.3298C82.6749 44.576 82.7161 44.8379 82.7006 45.0997L82.7002 45.0991ZM81.9603 45.0991C81.9863 44.7196 81.8597 44.3448 81.6058 44.0494C81.4764 43.9227 81.3194 43.824 81.1457 43.7602C80.9719 43.6964 80.7855 43.6689 80.5993 43.6797C80.415 43.6689 80.2305 43.6964 80.0587 43.7602C79.8869 43.8241 79.7321 43.9228 79.6053 44.0494C79.3553 44.3465 79.2313 44.7206 79.2573 45.0991C79.2362 45.4998 79.3613 45.8954 79.6118 46.2198C79.729 46.3591 79.8798 46.4702 80.0515 46.5437C80.2233 46.6173 80.4112 46.6511 80.5996 46.6426C80.7904 46.6518 80.9808 46.6183 81.1551 46.5448C81.3295 46.4713 81.483 46.3599 81.603 46.2198C81.8554 45.8961 81.9814 45.5003 81.9603 45.0991ZM87.1106 44.614H86.5587L86.5024 43.9103C86.2929 43.7524 86.0304 43.6706 85.7624 43.6797C85.5777 43.6738 85.3938 43.7045 85.2225 43.77C85.0512 43.8354 84.8965 43.9341 84.7683 44.0596C84.4962 44.3505 84.3575 44.7312 84.3825 45.1184C84.3609 45.5199 84.4996 45.9146 84.7714 46.2244C84.9047 46.3629 85.0689 46.4719 85.2521 46.5435C85.4353 46.6151 85.6331 46.6475 85.8312 46.6385C85.9848 46.6389 86.1378 46.6192 86.2858 46.5801C86.416 46.5471 86.5411 46.498 86.6576 46.4339C86.7512 46.3808 86.8413 46.3223 86.9272 46.2586C86.9898 46.2138 87.0486 46.1644 87.1029 46.1108L87.1593 46.0523L87.4289 46.4722C87.4109 46.4991 87.391 46.5248 87.3694 46.5491C87.31 46.6096 87.2461 46.6659 87.1782 46.7177C87.0774 46.7989 86.9682 46.8703 86.8522 46.9307C86.7027 47.0037 86.5449 47.0603 86.3818 47.0993C86.1799 47.1512 85.9714 47.1771 85.7621 47.1762C85.473 47.1945 85.1832 47.1541 84.9121 47.0577C84.6411 46.9612 84.3952 46.811 84.191 46.6172C83.8128 46.2016 83.6185 45.6647 83.6485 45.1178C83.6354 44.855 83.6792 44.5925 83.7774 44.3463C83.8755 44.1002 84.0259 43.8754 84.2192 43.6859C84.408 43.5081 84.6333 43.3686 84.8814 43.276C85.1295 43.1835 85.395 43.1397 85.6617 43.1476C85.9884 43.1526 86.3066 43.2471 86.5773 43.4197L86.6901 43.2008H87.1103V44.6143L87.1106 44.614ZM89.307 47.0804H87.8506L87.8196 46.6128L88.29 46.5891L89.6382 43.2355H90.5725L91.9207 46.6254L92.3855 46.6432L92.3546 47.0815H90.8179V46.7016L91.2006 46.6838L90.8997 45.9503H89.2184L88.9175 46.666L89.338 46.6838L89.307 47.0804ZM90.0655 43.7563L89.3823 45.5248H90.7367L90.0655 43.7563ZM92.8076 44.2651L92.8696 43.7446H93.7161V46.5894L93.2333 46.6131L93.2643 47.0806H94.8949L94.9259 46.6131L94.4366 46.5894V43.7446H95.3042L95.3482 44.2651H95.8688V43.2063L95.2605 43.2355H92.9337L92.3254 43.2063L92.2944 44.2651H92.8076ZM99.6325 44.1774H99.0806L99.0555 43.7458H97.6505V44.8992L99.4128 44.8933V45.3843H97.6505V46.5731H99.1999L99.2563 46.088L99.7769 46.1172L99.7394 47.0815H96.4774L96.4464 46.614L96.9357 46.5903V43.6973L96.4399 43.6736L96.4709 43.2353H99.0226L99.6309 43.206V44.1759L99.6325 44.1774ZM106.434 44.6157H105.882L105.826 43.9121C105.616 43.7541 105.354 43.6723 105.086 43.6815C104.901 43.6755 104.717 43.7063 104.546 43.7717C104.375 43.8372 104.22 43.9359 104.092 44.0614C103.82 44.3522 103.681 44.733 103.706 45.1201C103.684 45.5217 103.823 45.9163 104.095 46.2262C104.228 46.3647 104.392 46.4736 104.576 46.5452C104.759 46.6168 104.957 46.6493 105.155 46.6403C105.308 46.6406 105.461 46.6209 105.609 46.5818C105.74 46.5489 105.865 46.4998 105.981 46.4357C106.075 46.3826 106.165 46.324 106.25 46.2604C106.313 46.2156 106.372 46.1662 106.426 46.1125L106.483 46.0541L106.752 46.474C106.734 46.5008 106.714 46.5264 106.693 46.5508C106.633 46.6113 106.57 46.6677 106.502 46.7195C106.401 46.8006 106.291 46.872 106.175 46.9325C106.026 47.0055 105.868 47.0621 105.705 47.1011C105.503 47.153 105.295 47.1788 105.085 47.178C104.796 47.1963 104.506 47.1558 104.235 47.0594C103.964 46.963 103.719 46.8127 103.515 46.6189C103.136 46.2033 102.942 45.6665 102.972 45.1195C102.959 44.8568 103.003 44.5943 103.101 44.3481C103.199 44.1019 103.349 43.8772 103.543 43.6876C103.731 43.5098 103.957 43.3703 104.205 43.2778C104.453 43.1852 104.719 43.1415 104.985 43.1493C105.312 43.1543 105.63 43.2489 105.901 43.4214L106.014 43.2025H106.434V44.616L106.434 44.6157ZM111.671 45.1008C111.697 45.6512 111.496 46.1898 111.11 46.6031C110.912 46.7973 110.672 46.949 110.406 47.048C110.14 47.147 109.855 47.1909 109.57 47.1768C109.287 47.1912 109.005 47.1476 108.742 47.0491C108.479 46.9505 108.241 46.7994 108.046 46.6061C107.664 46.1896 107.467 45.6507 107.494 45.1008C107.468 44.8377 107.503 44.5724 107.598 44.3237C107.693 44.0751 107.845 43.8494 108.044 43.6629C108.242 43.4763 108.482 43.3334 108.746 43.2446C109.01 43.1558 109.291 43.1231 109.57 43.149C109.852 43.1333 110.134 43.1712 110.4 43.2607C110.665 43.3501 110.909 43.4891 111.116 43.6695C111.307 43.8601 111.455 44.0854 111.55 44.3315C111.646 44.5777 111.687 44.8397 111.671 45.1014L111.671 45.1008ZM110.931 45.1008C110.957 44.7213 110.83 44.3465 110.576 44.0511C110.447 43.9244 110.29 43.8258 110.116 43.7619C109.943 43.6981 109.756 43.6707 109.57 43.6815C109.386 43.6706 109.201 43.6981 109.029 43.762C108.858 43.8259 108.703 43.9246 108.576 44.0511C108.326 44.3482 108.202 44.7223 108.228 45.1008C108.207 45.5016 108.332 45.8971 108.582 46.2215C108.7 46.3609 108.85 46.4719 109.022 46.5455C109.194 46.619 109.382 46.6529 109.57 46.6444C109.761 46.6535 109.951 46.62 110.126 46.5465C110.3 46.473 110.454 46.3616 110.574 46.2215C110.826 45.8979 110.952 45.5021 110.931 45.1008H110.931ZM114.106 47.0821H112.595L112.564 46.6145L113.053 46.5909L113.059 43.6979L112.564 43.6742L112.595 43.2358H113.981L115.524 46.3822H115.536L117.06 43.2358H118.44V43.7034L117.975 43.7271V46.5909L118.471 46.6145L118.44 47.0821H116.897L116.866 46.673L117.292 46.6493L117.286 44.1534H117.274L115.831 47.0809H115.16L113.718 44.1534H113.705L113.699 46.6613L114.138 46.685L114.107 47.0812L114.106 47.0821ZM121.018 47.0821H119.337L119.306 46.6145L119.795 46.5909V43.6979L119.3 43.6742L119.331 43.2358H121.023C122.077 43.2358 122.604 43.6321 122.604 44.4246C122.617 44.6186 122.581 44.8126 122.499 44.991C122.417 45.1694 122.292 45.327 122.133 45.4509C121.822 45.6843 121.434 45.8083 121.036 45.8016H120.459V46.6531L121.048 46.6709L121.017 47.0801L121.018 47.0821ZM120.905 43.7168H120.46V45.3434H120.905C121.156 45.3527 121.402 45.2771 121.598 45.1303C121.694 45.0467 121.768 44.9436 121.816 44.8288C121.863 44.714 121.882 44.5906 121.871 44.4679C121.871 43.9672 121.549 43.7168 120.905 43.7168ZM124.218 47.0821H122.761L122.73 46.6145L123.201 46.5909L124.549 43.2373H125.486L126.834 46.6271L127.299 46.6449L127.268 47.0833H125.731V46.7034L126.114 46.6856L125.813 45.9521H124.132L123.831 46.6677L124.251 46.6856L124.22 47.0818L124.218 47.0821ZM124.977 43.758L124.293 45.5266H125.648L124.977 43.758ZM131.933 47.1116H131.2L128.961 44.1958H128.948L128.973 44.45V46.6029L129.475 46.6207L129.444 47.0821H127.87L127.839 46.6145L128.328 46.5909V43.6979L127.832 43.6742L127.863 43.2358H129.068L131.294 46.2048L131.275 46.0096V43.7148L130.773 43.697L130.804 43.2355H132.391V43.7031L131.934 43.7268V47.1099L131.933 47.1116ZM135.829 47.0824H134.199L134.161 46.6148L134.651 46.5912V45.5392L133.365 43.6938L132.769 43.6759L132.807 43.2376H134.431V43.6759L134.155 43.6938L135.039 44.9652L135.892 43.7054L135.635 43.6996V43.2382H137.178V43.7057L136.6 43.7236L135.365 45.5333V46.592L135.861 46.6157L135.829 47.0824Z" fill="#FEFEFE"/>
<path fill-rule="evenodd" clip-rule="evenodd" d="M39.8784 33.7915C38.691 33.7868 37.5513 33.3501 36.697 32.5725C35.8426 31.7948 35.3394 30.7362 35.2923 29.6173H44.4976C44.4513 30.7416 43.9441 31.8051 43.0829 32.5838C42.2217 33.3624 41.0736 33.7955 39.8805 33.7918L39.8784 33.7915ZM18.5758 16.8851L32.8518 16.8933V16.229H18.5761L18.5758 16.8851ZM18.5758 18.1583V18.7784H32.8518V18.1151H18.5767V18.1583H18.5758ZM26.8276 14.5984L26.8332 15.2778L26.0408 15.2872L26.8276 14.5984ZM24.595 15.2904C24.9612 15.289 24.8348 15.2343 25.2813 14.8848L26.6782 13.6741C26.8152 13.5423 26.8332 13.5485 26.8332 13.3234V12.4728L25.4697 13.639C24.5485 14.5265 24.5922 13.9684 24.5953 15.2904H24.595ZM24.595 13.3284C24.595 13.116 24.595 12.9038 24.5934 12.6914C24.5934 12.253 24.4862 12.3217 25.0558 11.8603L26.826 10.3372L26.8322 11.2375C26.8322 11.4775 26.7253 11.5038 26.356 11.822L24.5953 13.329L24.595 13.3284ZM24.6074 11.1952C24.7056 11.1057 24.8184 11.0327 24.9172 10.9386C25.0483 10.815 25.1004 10.7676 25.2287 10.6642L26.4474 9.60137C26.5558 9.51575 26.6565 9.42253 26.7594 9.32697C26.8741 9.2209 26.8304 9.07508 26.8313 8.87695C26.6042 8.91464 26.387 9.03124 26.0783 9.06718C25.8524 9.09378 25.8363 9.05316 25.6888 9.17093L25.1825 9.60926C24.7233 10.0102 24.5937 10.0117 24.5937 10.3828L24.6077 11.1946L24.6074 11.1952ZM23.8727 6.74925C23.8294 6.40581 23.8953 6.05799 24.0619 5.74987C24.2285 5.44175 24.4883 5.18719 24.8084 5.01845C25.1285 4.84972 25.4946 4.77439 25.8602 4.80202C26.2257 4.82965 26.5744 4.95899 26.8619 5.17366C27.1495 5.38833 27.363 5.67866 27.4754 6.00787C27.5878 6.33708 27.5941 6.69035 27.4934 7.02292C27.3927 7.35549 27.1896 7.6524 26.9099 7.87601C26.6301 8.09963 26.2862 8.2399 25.9218 8.27905C25.4353 8.3311 24.9466 8.19942 24.5626 7.91277C24.1787 7.62613 23.9306 7.20783 23.8727 6.74925ZM26.0827 4H25.3796C25.1803 4.09264 24.8485 4.11689 24.6247 4.21625C24.24 4.37692 23.9004 4.62012 23.633 4.92646C23.3656 5.2328 23.1777 5.59382 23.0844 5.98073C22.9911 6.36765 22.995 6.76976 23.0956 7.15504C23.1962 7.54031 23.3909 7.89809 23.6641 8.19986C23.8169 8.35474 23.7952 8.28256 23.7918 8.55053C23.7639 11.0485 23.8088 13.5531 23.7902 16.0517H27.6373C27.6599 13.5677 27.6645 11.0546 27.6373 8.58326C27.6314 8.05346 27.9657 8.24895 28.2855 7.32056C28.4487 6.84377 28.458 6.332 28.3123 5.85022C28.1665 5.36843 27.8723 4.93835 27.4669 4.61455C27.1874 4.37859 26.8542 4.20641 26.4929 4.11134L26.0842 4.00205L26.0827 4ZM11.1277 45.2853C11.5925 45.6517 12.0573 46.0743 12.5011 46.472L15.4656 49.0489C15.8957 49.4477 16.6329 50.0255 17.0617 50.4223C17.1519 50.5056 17.1897 50.5524 17.2805 50.6269C17.9201 51.1432 18.4689 51.6923 19.1168 52.2145L20.4802 53.3951C20.9831 53.8504 21.5319 54.3595 22.0606 54.7785C22.4603 55.0956 22.8207 55.4506 23.2071 55.7826L23.8984 56.3653C24.2197 56.6575 25.594 57.8098 25.6922 57.9433C25.8388 57.8872 27.2453 56.6213 27.5493 56.3653L28.9248 55.1672C29.3747 54.7288 30.3369 53.9775 30.7502 53.5719L33.4889 51.192C33.9596 50.8148 34.3766 50.3861 34.8523 50.0114L39.6466 45.8426C39.7278 45.7733 39.7795 45.707 39.8635 45.638L40.3311 45.242V35.2687L39.4387 35.2713C39.4601 38.3189 39.4204 41.3727 39.4387 44.4206C39.4402 44.681 39.4867 44.7175 39.3222 44.8423C39.0104 45.0778 38.7334 45.3715 38.43 45.6129L37.8317 46.1237C37.7112 46.235 37.6591 46.2908 37.5407 46.3867C37.1314 46.7163 36.7642 47.095 36.3595 47.4206C35.8079 47.8648 35.0779 48.5693 34.5799 48.9659L30.7301 52.3191C30.1813 52.7575 29.4702 53.4471 28.9493 53.863L25.7152 56.6683C25.4982 56.5298 24.3412 55.453 23.9858 55.1751C23.6883 54.9413 23.428 54.6695 23.1327 54.4316L21.4207 52.9457C21.2657 52.8209 21.1399 52.69 20.985 52.5658C20.2478 51.9784 19.5968 51.2975 18.859 50.7154C18.704 50.5924 18.5801 50.458 18.4252 50.3355C17.6843 49.7528 17.0388 49.0681 16.2976 48.4869C15.848 48.1345 15.452 47.7219 15.0073 47.3651L14.1533 46.6219C14.0042 46.5015 13.8856 46.3773 13.7356 46.2578C13.5766 46.1313 13.4589 46.01 13.2987 45.8797L12.4462 45.1357C12.3068 45.0255 12.1553 44.8896 12.0223 44.7669L12.0099 35.3037H11.1302L11.1283 45.2853H11.1277ZM25.6848 59.9988C25.472 59.7837 25.2443 59.5822 25.0031 59.3957L23.2969 57.9074C23.1937 57.8238 23.054 57.6832 22.9524 57.6008C22.4876 57.2247 22.0537 56.7908 21.5908 56.4194C21.469 56.3215 21.3844 56.2268 21.2642 56.1271L20.558 55.5275C20.087 55.0722 19.3613 54.4609 18.85 54.0412C18.1509 53.4676 17.5045 52.8139 16.798 52.2481C16.2093 51.7771 15.6645 51.2125 15.0745 50.7449C14.9391 50.6377 14.8641 50.557 14.729 50.4393L13.3681 49.2578C12.8934 48.8861 12.4571 48.4331 11.9898 48.0597L10.1191 46.4416C10.0515 46.3794 10.0261 46.3382 9.95642 46.2806C9.61246 45.9957 9.70387 46.1114 9.70387 45.2388C9.70387 41.9227 9.72495 38.6003 9.70387 35.2848H10.5969C10.556 38.6062 10.6279 41.9475 10.5954 45.271C10.5929 45.5465 10.5814 45.5632 10.7553 45.716L12.388 47.1167C12.5073 47.2175 12.5906 47.3087 12.7158 47.4089C13.1255 47.7338 13.8722 48.4527 14.3123 48.8095L16.2725 50.5015C16.3314 50.5532 16.3602 50.5941 16.4178 50.6476L17.5789 51.6412C17.7047 51.7505 17.7791 51.8323 17.9046 51.9334L21.1458 54.7546C21.2451 54.8511 21.3507 54.9416 21.4622 55.0254L25.0359 58.1333C25.2385 58.3445 25.4623 58.5366 25.7043 58.7069C25.9366 58.5369 26.1549 58.3505 26.3572 58.1493C26.5995 57.9071 27.6478 57.052 27.9862 56.7467L35.4398 50.2525C35.8832 49.8919 36.3074 49.4746 36.749 49.1164L37.7127 48.2864C37.8366 48.1885 37.9163 48.0924 38.0405 47.9963C38.3746 47.7379 38.6835 47.4159 39.0213 47.1509C39.4622 46.8046 39.8731 46.3826 40.3131 46.0305C40.4318 45.9352 40.5192 45.8335 40.6394 45.7382C40.9338 45.5045 40.8449 45.5191 40.8449 44.7362C40.8449 41.5904 40.8055 38.4224 40.8449 35.2798H41.736V46.0319C41.517 46.2719 41.2772 46.4943 41.019 46.6967L37.0186 50.1611C36.9219 50.2388 36.8575 50.3177 36.7642 50.3948L35.7463 51.2692C35.0884 51.7952 34.3996 52.4609 33.747 53.0173C33.6574 53.0935 33.5793 53.1435 33.4907 53.2192L32.747 53.8752C32.6494 53.953 32.607 54.005 32.5097 54.0924L31.0012 55.3893C30.9049 55.467 30.8435 55.5439 30.7478 55.623L29.4931 56.7154C29.402 56.7917 29.3304 56.8419 29.2374 56.9182C28.5697 57.4635 27.9186 58.1219 27.2382 58.6657C26.7622 59.0456 26.3352 59.4816 25.8565 59.8591C25.7992 59.8945 25.7524 59.943 25.7204 60L25.6848 59.9988ZM25.7489 47.7742C25.5374 47.6347 25.3415 47.4753 25.1642 47.2984L22.4516 44.9574C22.3013 44.8095 21.984 44.6263 21.9673 44.4218C21.9447 44.1351 21.9688 43.7388 21.9688 43.4396V19.857H26.3411C26.2082 20.0388 25.5915 20.4482 25.5354 20.5917V21.6145L25.8276 21.374C25.9193 21.3027 26.0057 21.2258 26.0864 21.1437L27.4294 19.9774C27.5753 19.8547 27.5573 19.857 27.8148 19.857H28.7953C28.693 20.0239 27.5961 20.9225 27.3314 21.1478L26.3278 22.0323C26.2122 22.1419 25.5348 22.6384 25.5348 22.772L25.5423 23.7459L27.4991 22.0624C27.883 21.6884 28.3196 21.3611 28.72 21.0017C28.9525 20.7775 29.199 20.5667 29.4581 20.3702V20.7179C29.4581 21.4163 29.5665 21.3459 29.221 21.6349C29.1312 21.71 29.0776 21.781 28.9861 21.8544L27.0101 23.5621C26.804 23.7737 26.5159 23.9905 26.2726 24.1951C26.0411 24.4193 25.7958 24.6305 25.5379 24.8275L25.5357 25.8745C25.8805 25.6101 26.2101 25.3285 26.523 25.0309L28.4829 23.3389C28.5759 23.2644 28.6267 23.1951 28.7175 23.1194C28.8083 23.0437 28.8854 22.9923 28.9728 22.9163L29.4438 22.5005C29.47 22.8416 29.4722 23.1839 29.4503 23.5253C29.4169 23.6483 27.9676 24.864 27.7817 25.0177C27.6707 25.1095 27.6051 25.1916 27.4916 25.2807C27.3919 25.3544 27.2987 25.4355 27.2128 25.5233C27.122 25.6069 27.0265 25.6859 26.9268 25.76L25.5323 26.9601L25.5432 28.0098C25.6222 27.9394 25.6959 27.8847 25.7858 27.8123L29.2058 24.8438C29.275 24.7605 29.3596 24.6897 29.4556 24.6349V25.7161C29.1395 25.9277 28.5604 26.4897 28.2347 26.7722C28.1448 26.85 28.0705 26.9008 27.9803 26.9768C27.6667 27.2398 25.7344 28.9779 25.5364 29.094V30.1419L28.971 27.1825C29.0618 27.1095 29.1154 27.0431 29.2074 26.9648C29.2945 26.8909 29.3695 26.8383 29.4469 26.7678C29.4779 26.9882 29.5089 27.7424 29.4073 27.8804C29.3092 27.9779 29.2023 28.0673 29.0878 28.1474C28.9737 28.2395 28.8978 28.3327 28.7801 28.4251C28.6561 28.5235 28.5749 28.6153 28.4522 28.7173C28.3398 28.8003 28.2326 28.8893 28.1312 28.9841L27.5065 29.5323C27.0637 29.8856 26.6683 30.2836 26.2308 30.636L25.5801 31.1913C25.5129 31.5482 25.5018 31.9125 25.5472 32.2725L27.4951 30.5942C27.588 30.5203 27.6391 30.4481 27.7293 30.3745C27.9861 30.1753 28.2318 29.9637 28.4653 29.7404C28.5426 29.6653 28.6254 29.5953 28.7131 29.5311C28.8142 29.4516 28.852 29.4037 28.9511 29.3137C29.0373 29.2354 29.1138 29.1866 29.204 29.1092C29.3143 29.0139 29.3279 28.963 29.4565 28.8961L29.4516 29.9812C29.1005 30.2149 28.8008 30.5519 28.468 30.8187C28.3751 30.8929 28.3249 30.9619 28.2319 31.037C27.6602 31.499 27.0563 32.0954 26.5214 32.5209C26.2023 32.7748 25.8707 33.1454 25.5348 33.3578L25.5379 34.4054C25.6328 34.3501 25.7167 34.2796 25.7858 34.1971L29.4537 31.0288C29.4813 32.3365 29.5414 31.9584 28.9552 32.5378L26.3752 34.7815C26.2202 34.913 25.577 35.4019 25.5426 35.5445C25.5202 35.8755 25.5234 36.2076 25.5522 36.5381C25.7797 36.3189 26.0205 36.1123 26.2732 35.9192L28.469 34.0089C28.7761 33.7041 29.1069 33.4214 29.4587 33.1632L29.4528 34.2468C29.2359 34.3742 28.4993 35.0869 28.2298 35.3008C28.1396 35.3721 28.0593 35.4282 27.9766 35.5054L26.0272 37.2061C25.85 37.3464 25.7198 37.5036 25.5361 37.6217L25.5392 38.6693C25.8047 38.482 26.0504 38.2709 26.2729 38.039L26.761 37.6147C27.5214 37.0092 28.204 36.3189 28.9638 35.7094C29.1346 35.5723 29.2842 35.4221 29.4568 35.2924V36.3777L28.4634 37.2292C27.8728 37.7032 27.3414 38.24 26.7514 38.7117C26.6641 38.7765 26.582 38.8472 26.5056 38.9232C26.3507 39.0828 26.2038 39.1787 26.0219 39.3511C25.3771 39.9621 25.5339 39.4887 25.5351 40.8002C26.1911 40.3034 26.8555 39.6164 27.5053 39.1053L27.9964 38.6836C28.3351 38.413 29.1628 37.5954 29.4562 37.4271V38.3219C29.4562 38.5618 29.4119 38.5133 29.2842 38.6366L28.5319 39.2865C28.0172 39.7082 27.5558 40.1751 27.0417 40.5971L26.531 41.0328C26.2069 41.2938 25.8701 41.6538 25.5333 41.8832L25.5376 42.9326C25.8118 42.7537 26.4629 42.1453 26.7573 41.8788C26.8434 41.8005 26.9243 41.7526 27.011 41.6743L29.4553 39.5583V40.6395L26.9723 42.7745C26.7926 42.9563 26.6776 43.0276 26.4914 43.2055C25.3783 44.2713 25.5348 43.5816 25.5351 45.0614C25.7141 44.9343 25.8822 44.794 26.0377 44.6418C26.1927 44.4846 26.3386 44.3864 26.5208 44.2137L27.0113 43.7914C27.1824 43.6547 27.3305 43.5062 27.5028 43.3692L29.393 41.7345C29.4435 41.6944 29.3896 41.7277 29.4587 41.6892C29.4531 43.0185 29.6096 42.5875 28.9518 43.1865C28.8504 43.2786 28.8201 43.3239 28.7156 43.4048L27.7144 44.2628C27.2093 44.6763 26.739 45.136 26.2395 45.5571C26.1102 45.6661 25.5364 46.1003 25.5367 46.2216L25.5447 47.1926C25.8732 46.9635 26.4226 46.4302 26.7563 46.1406C26.8462 46.0626 26.9206 46.0132 27.0107 45.9361C27.1009 45.8589 27.1539 45.79 27.2475 45.7178L28.7209 44.451C28.9492 44.2235 29.1955 44.0126 29.4578 43.8204L29.4562 44.5509C29.3087 44.6447 25.8927 47.6076 25.7489 47.7742ZM21.0767 45.0533L21.0786 19.0744L30.3502 19.0838C30.4004 21.9298 30.3502 24.8187 30.3502 27.67C30.3502 33.3812 30.3849 39.1626 30.3527 44.8636C30.3587 44.9324 30.344 45.0014 30.3101 45.0625C30.2762 45.1237 30.2245 45.1745 30.1612 45.209L28.3776 46.7505C28.2536 46.8466 28.2071 46.8998 28.085 47.0115L26.892 48.036C26.7992 48.1281 26.6993 48.2136 26.593 48.2917C26.3631 48.4752 25.9785 48.8589 25.7145 49.0497L21.363 45.2894C21.2809 45.1974 21.1844 45.1178 21.0767 45.0533ZM16.0193 29.6162L16.1833 29.6217C16.1345 30.7423 15.6282 31.8016 14.7702 32.5782C13.9123 33.3548 12.7692 33.7884 11.58 33.7884C10.3908 33.7884 9.24766 33.3548 8.38972 32.5782C7.53177 31.8016 7.02546 30.7423 6.97671 29.6217L7.17286 29.6176H16.0193V29.6162ZM40.3646 20.3819L44.3634 28.7597L40.3503 28.755L40.3646 20.3819ZM39.4384 20.3819V28.7576L35.4135 28.7494L39.4371 20.3816L39.4384 20.3819ZM12.0502 20.317L16.0785 28.7591L12.035 28.7521L12.0496 20.317H12.0502ZM11.1237 20.3366V28.7576L7.07711 28.7518L11.1249 20.3357L11.1237 20.3366ZM39.796 17.0812C40.4795 16.921 40.641 17.9111 40.033 18.0514C39.8966 18.081 39.7533 18.0583 39.6346 17.9883C39.5159 17.9183 39.4315 17.8067 39.4001 17.678C39.3687 17.5494 39.3927 17.4142 39.4669 17.3023C39.5412 17.1904 39.6595 17.1108 39.796 17.0812ZM11.4794 17.0797C12.1302 16.926 12.3824 17.8909 11.7177 18.0502C11.649 18.0682 11.5771 18.0728 11.5064 18.0639C11.4357 18.055 11.3677 18.0327 11.3063 17.9983C11.245 17.9639 11.1917 17.9182 11.1497 17.8639C11.1076 17.8095 11.0776 17.7478 11.0615 17.6822C11.0454 17.6167 11.0436 17.5488 11.056 17.4825C11.0685 17.4163 11.0951 17.3532 11.1341 17.2969C11.1732 17.2406 11.2239 17.1923 11.2832 17.155C11.3426 17.1177 11.4093 17.0921 11.4794 17.0797ZM6.00124 28.7722V29.9046C6.12209 30.16 6.06879 30.7599 6.52058 31.6699C6.88307 32.3988 7.41722 33.0401 8.08233 33.5448C8.30757 33.7172 8.54762 33.8717 8.79998 34.0066C9.34573 34.3039 9.94144 34.511 10.5613 34.6188C11.3398 34.7553 12.1401 34.7339 12.9092 34.5562C13.6783 34.3785 14.3984 34.0485 15.0218 33.5881C15.6452 33.1277 16.1575 32.5474 16.5248 31.8859C16.8921 31.2243 17.1058 30.4966 17.1519 29.7512L17.102 28.7389C16.9688 28.5571 14.1046 22.4973 13.721 21.7179L12.608 19.3857C12.4905 19.1422 12.3223 18.8424 12.2361 18.6016C12.3753 18.4619 12.4453 18.4684 12.577 18.2922C12.6676 18.1633 12.7444 18.0262 12.8063 17.883H38.6714C38.8958 18.3073 38.8883 18.362 39.2695 18.599C39.1486 18.9637 38.8416 19.4876 38.6705 19.8623L34.6794 28.2018C34.6037 28.3864 34.511 28.5643 34.4024 28.7336L34.3856 28.7491C34.3348 28.8006 34.3615 28.7424 34.3237 28.8076C34.3128 29.7404 34.3171 30.3403 34.623 31.1717C34.894 31.9089 35.3354 32.5801 35.9155 33.1365C36.4955 33.6929 37.1995 34.1207 37.9765 34.3888C38.7535 34.6569 39.584 34.7586 40.4078 34.6866C41.2317 34.6146 42.0282 34.3706 42.7397 33.9724C43.9246 33.3034 44.8085 32.2482 45.2243 31.0063C45.3138 30.7433 45.4102 30.0364 45.474 29.9037V28.7599C45.324 28.7424 45.3907 28.7892 45.3163 28.641L40.5186 18.5952C40.6919 18.5014 40.839 18.37 40.9477 18.2119C41.0565 18.0538 41.1236 17.8735 41.1437 17.686C41.1637 17.4985 41.1361 17.3092 41.063 17.1338C40.99 16.9584 40.8736 16.8019 40.7236 16.6774C40.5736 16.5529 40.3943 16.4639 40.2006 16.4178C40.0068 16.3717 39.8042 16.3699 39.6095 16.4124C39.4148 16.4549 39.2337 16.5406 39.0812 16.6624C38.9287 16.7841 38.8091 16.9384 38.7325 17.1124L12.7421 17.1104C12.6232 16.8443 12.4055 16.6282 12.1298 16.5026C11.8541 16.3769 11.5393 16.3502 11.2443 16.4275C10.9492 16.5048 10.6942 16.6808 10.5268 16.9227C10.3594 17.1645 10.2911 17.4555 10.3348 17.7413C10.4141 18.2545 10.7041 18.3927 10.9291 18.601C10.8507 18.8182 10.7215 19.0476 10.6192 19.26C10.517 19.4724 10.4243 19.6808 10.318 19.8918C9.70852 21.1031 9.08228 22.4941 8.48485 23.7264C8.07706 24.5671 7.65749 25.4213 7.26396 26.2725L6.34582 28.1863C6.24077 28.4125 6.14223 28.7059 6 28.7719L6.00124 28.7722Z" fill="#FEFEFE"/>
</svg>
