<svg width="240" height="64" viewBox="0 0 240 64" fill="none" xmlns="http://www.w3.org/2000/svg">
<path d="M14.6829 22.4897C14.5409 21.1842 14.7022 20.6952 15.5038 20.2336C15.6683 20.1335 15.8869 20.0496 16.0488 19.9842M14.6829 22.4897C13.5407 21.966 13.1424 21.6173 13.0244 20.6857L12.9268 19.9632L12.9756 19.5227L13.0244 19.0822C13.3401 17.9023 13.9336 17.5952 15.561 17.4787M14.6829 22.4897L15.561 23.7912M18.138 20.2336C18.4878 20.4286 19.0732 21.3187 18.8883 22.6558M18.138 20.2336C17.281 19.7574 16.6907 19.7249 16.0488 19.9842M18.138 20.2336C17.93 20.1181 17.7345 20.0286 17.5483 19.9632M18.8883 22.6558C20.0907 22.1183 20.51 21.7605 20.6341 20.8044L20.7317 19.9842L20.6341 19.1587C20.3018 17.9477 19.677 17.6326 17.9641 17.513M18.8883 22.6558L18.0976 23.7912M16.0488 19.9842C15.4866 18.8477 15.3368 18.1903 15.561 17.4787M16.0488 19.9842C16.535 19.7878 16.9672 19.7588 17.5483 19.9632M15.561 17.4787L16.7317 16.1758L17.9641 17.513M17.5483 19.9632C18.115 18.9748 18.1554 18.3789 17.9641 17.513M7.46341 22.8571V14M6 20.3297H8.73171M15.561 24.978L16.3415 26.3626H17.2195L18.0976 24.978M15.561 24.978H13.8049M15.561 24.978V23.7912M18.0976 24.978V23.7912M18.0976 24.978H19.9512M15.561 23.7912H18.0976M13.3171 42.5824V31.6044L14.4878 29.7253M13.3171 42.5824H20.1463M13.3171 42.5824C12.7283 42.7066 12.4524 42.8614 12.0488 43.2747V45.2527M14.4878 29.7253H19.2683M14.4878 29.7253C13.804 28.8737 13.4808 28.2935 13.0244 27.0549M19.2683 29.7253L20.1463 31.6044V42.5824M19.2683 29.7253C19.9073 28.7635 20.23 28.0329 20.439 26.8571M20.1463 42.5824C20.7134 42.712 21.0328 42.8245 21.2195 43.2747V45.2527M13.8049 24.978L8.2439 22.5055L6.4878 23.2967L6.29268 24.1868L7.26829 24.978H8.43902L13.0244 27.0549M13.8049 24.978L13.0244 27.0549M19.9512 24.978L25.2195 22.7033M19.9512 24.978L20.439 26.8571M25.2195 22.7033V20.9231L25.7073 20.3297H29.5122L30 20.7253V24.6813L27.7561 27.5495M25.2195 22.7033V24.978M27.7561 27.5495L25.2195 24.978M27.7561 27.5495V20.3297M25.2195 24.978L20.439 26.8571M10.878 26.0659V34.8681C10.9686 35.4236 11.1145 35.5861 11.4634 35.6593H13.3171M22.6829 25.9751V34.8681C22.5924 35.4236 22.4465 35.5861 22.0976 35.6593H20.1463M10.878 31.011H13.6868M19.8691 31.011H22.6829M14.3902 45.2527V42.5824M14.3902 45.2527V50M14.3902 45.2527H10.2927C9.88587 45.2925 9.73927 45.4027 9.70732 45.8462V50H12.1463M14.3902 45.2527H19.0732M16.7317 45.2527V42.5824M19.0732 45.2527V42.5824M19.0732 45.2527V50M19.0732 45.2527H23.1707C23.5775 45.2925 23.7241 45.4027 23.7561 45.8462V50H21.3171M12.1463 47.2308V50M12.1463 50H14.3902M14.3902 50H16.6341M21.3171 47.2308V50M21.3171 50H19.0732M19.0732 50H16.6341M16.6341 47.2308V50" stroke="white" stroke-width="1.2"/>
<path d="M40.8889 36.2828V32.7623H46.2705C47.4591 32.7623 48.3175 32.4881 48.8458 31.9397C49.385 31.3804 49.6547 30.5742 49.6547 29.5214V28.3204C49.6547 27.2456 49.3906 26.4395 48.8623 25.9021C48.334 25.3537 47.4756 25.0795 46.287 25.0795H40.8889V21.5754H46.5347C49.0989 21.5754 50.9753 22.1512 52.1639 23.3028C53.3635 24.4544 53.9633 26.0885 53.9633 28.2053V29.653C53.9633 31.7697 53.3635 33.4039 52.1639 34.5554C50.9753 35.707 49.0989 36.2828 46.5347 36.2828H40.8889ZM38 42.6001V21.5754H42.2591V33.7658L42.2756 35.7235V42.6001H38Z" fill="white"/>
<path d="M65.7972 42.6001L65.9458 38.6518L65.8302 38.2899V33.2393L65.8137 32.5155C65.8137 31.4626 65.5221 30.6894 64.9388 30.1959C64.3665 29.7023 63.4256 29.4556 62.1159 29.4556C61.0044 29.4556 59.9589 29.6036 58.9794 29.8997C58.0109 30.1849 57.114 30.5194 56.2886 30.9033L56.6518 27.5472C57.136 27.295 57.6863 27.0592 58.3026 26.8398C58.9299 26.6095 59.6287 26.423 60.3991 26.2805C61.1695 26.1379 62.0004 26.0666 62.8918 26.0666C64.2125 26.0666 65.3295 26.2256 66.2429 26.5437C67.1564 26.8508 67.8827 27.295 68.422 27.8762C68.9723 28.4575 69.3685 29.154 69.6106 29.9655C69.8527 30.7662 69.9738 31.6545 69.9738 32.6306V42.6001H65.7972ZM60.4981 42.9785C58.8914 42.9785 57.6643 42.5782 56.8168 41.7775C55.9804 40.9769 55.5622 39.8363 55.5622 38.3557V37.895C55.5622 36.3267 56.0465 35.1696 57.0149 34.4238C57.9834 33.6671 59.5187 33.1461 61.6207 32.861L66.2099 32.2358L66.4575 34.9503L62.2315 35.559C61.307 35.6796 60.6467 35.899 60.2505 36.217C59.8653 36.5351 59.6727 37.0012 59.6727 37.6154V37.7799C59.6727 38.3831 59.8598 38.8547 60.234 39.1947C60.6192 39.5237 61.219 39.6882 62.0334 39.6882C62.7597 39.6882 63.3815 39.5731 63.8988 39.3427C64.416 39.1124 64.8398 38.8108 65.1699 38.4379C65.5111 38.0541 65.7532 37.6263 65.8963 37.1547L66.4906 39.244H65.7642C65.5881 39.935 65.302 40.5656 64.9058 41.1359C64.5206 41.6953 63.9758 42.1449 63.2715 42.4849C62.5672 42.814 61.6427 42.9785 60.4981 42.9785Z" fill="white"/>
<path d="M79.5564 42.9456C78.1807 42.9456 77.0802 42.7427 76.2548 42.3369C75.4404 41.9201 74.8516 41.295 74.4885 40.4614C74.1253 39.6279 73.9437 38.6024 73.9437 37.3851V27.9749H78.1367V36.7599C78.1367 37.6373 78.3348 38.2844 78.731 38.7012C79.1382 39.1069 79.8481 39.3098 80.8606 39.3098C81.4548 39.3098 82.0271 39.2495 82.5774 39.1289C83.1277 38.9973 83.6339 38.8273 84.0961 38.6189L83.733 42.1395C83.1827 42.3917 82.5499 42.5891 81.8345 42.7317C81.1302 42.8743 80.3708 42.9456 79.5564 42.9456ZM71.5995 29.9162V26.593H83.9476L83.5844 29.9162H71.5995ZM73.9932 26.9056L73.9767 22.6283L78.1863 22.2006L78.0212 26.9056H73.9932Z" fill="white"/>
<path d="M90.6454 33.2229L89.5724 30.4097H90.5959C90.8931 29.1046 91.4323 28.0791 92.2137 27.3333C92.9951 26.5876 94.0791 26.2147 95.4658 26.2147C95.7519 26.2147 96.0106 26.2366 96.2417 26.2805C96.4728 26.3134 96.6819 26.3572 96.869 26.4121L97.1001 30.6236C96.858 30.5468 96.5773 30.492 96.2582 30.4591C95.939 30.4152 95.6034 30.3933 95.2512 30.3933C94.1286 30.3933 93.1712 30.64 92.3788 31.1336C91.5974 31.6271 91.0196 32.3236 90.6454 33.2229ZM86.5349 42.6001V26.4614H90.5629L90.3813 31.4133L90.761 31.5613V42.6001H86.5349Z" fill="white"/>
<path d="M106.077 43.0443C103.568 43.0443 101.664 42.4027 100.366 41.1195C99.078 39.8363 98.4341 38.0102 98.4341 35.6412V33.4532C98.4341 31.0733 99.078 29.2417 100.366 27.9585C101.664 26.6643 103.568 26.0172 106.077 26.0172C108.576 26.0172 110.469 26.6643 111.756 27.9585C113.044 29.2417 113.688 31.0733 113.688 33.4532V35.6412C113.688 38.0102 113.044 39.8363 111.756 41.1195C110.48 42.4027 108.587 43.0443 106.077 43.0443ZM106.077 39.6718C107.178 39.6718 108.014 39.3427 108.587 38.6847C109.17 38.0266 109.462 37.0834 109.462 35.8551V33.2393C109.462 31.989 109.17 31.0349 108.587 30.3768C108.014 29.7078 107.178 29.3733 106.077 29.3733C104.966 29.3733 104.118 29.7078 103.535 30.3768C102.963 31.0349 102.677 31.989 102.677 33.2393V35.8551C102.677 37.0834 102.963 38.0266 103.535 38.6847C104.118 39.3427 104.966 39.6718 106.077 39.6718Z" fill="white"/>
<path d="M127.327 42.6001V32.9103C127.327 32.2303 127.233 31.6436 127.046 31.15C126.87 30.6565 126.573 30.2726 126.155 29.9984C125.737 29.7243 125.164 29.5872 124.438 29.5872C123.8 29.5872 123.238 29.7023 122.754 29.9326C122.281 30.163 121.89 30.4755 121.582 30.8704C121.285 31.2542 121.059 31.6929 120.905 32.1865L120.245 29.8833H121.037C121.213 29.1704 121.505 28.5288 121.912 27.9585C122.33 27.3882 122.892 26.9385 123.596 26.6095C124.311 26.2695 125.203 26.0995 126.27 26.0995C127.514 26.0995 128.521 26.3353 129.291 26.8069C130.062 27.2675 130.628 27.9585 130.992 28.8798C131.366 29.801 131.553 30.9417 131.553 32.3016V42.6001H127.327ZM116.778 42.6001V26.4614H121.004L120.839 30.3933L121.004 30.7388V42.6001H116.778Z" fill="white"/>
<path d="M138.41 42.6001V39.1453H144.32C145.464 39.1453 146.279 38.9205 146.763 38.4708C147.247 38.0102 147.489 37.3576 147.489 36.5131V36.1183C147.489 35.2519 147.242 34.5938 146.746 34.1442C146.262 33.6945 145.426 33.4697 144.237 33.4697H138.36V30.2452H144.138C145.228 30.2452 146.004 30.0204 146.466 29.5707C146.928 29.121 147.159 28.4904 147.159 27.6788V27.465C147.159 26.6534 146.934 26.0337 146.482 25.606C146.031 25.1782 145.25 24.9644 144.138 24.9644H138.327V21.5754H144.584C147.027 21.5754 148.782 22.0086 149.85 22.8751C150.918 23.7415 151.451 24.9973 151.451 26.6424V26.9221C151.451 28.1724 151.138 29.143 150.51 29.8339C149.894 30.5249 148.926 30.9362 147.605 31.0678V31.2323C149.091 31.4736 150.169 32 150.84 32.8116C151.523 33.6232 151.864 34.7638 151.864 36.2335V36.7764C151.864 38.6628 151.303 40.105 150.18 41.103C149.069 42.1011 147.28 42.6001 144.815 42.6001H138.41ZM135.339 42.6001V21.5754H139.549V42.6001H135.339Z" fill="white"/>
<path d="M164.362 42.6001L164.51 38.6518L164.395 38.2899V33.2393L164.378 32.5155C164.378 31.4626 164.087 30.6894 163.503 30.1959C162.931 29.7023 161.99 29.4556 160.681 29.4556C159.569 29.4556 158.523 29.6036 157.544 29.8997C156.576 30.1849 155.679 30.5194 154.853 30.9033L155.216 27.5472C155.701 27.295 156.251 27.0592 156.867 26.8398C157.494 26.6095 158.193 26.423 158.964 26.2805C159.734 26.1379 160.565 26.0666 161.456 26.0666C162.777 26.0666 163.894 26.2256 164.808 26.5437C165.721 26.8508 166.447 27.295 166.987 27.8762C167.537 28.4575 167.933 29.154 168.175 29.9655C168.417 30.7662 168.538 31.6545 168.538 32.6306V42.6001H164.362ZM159.063 42.9785C157.456 42.9785 156.229 42.5782 155.381 41.7775C154.545 40.9769 154.127 39.8363 154.127 38.3557V37.895C154.127 36.3267 154.611 35.1696 155.58 34.4238C156.548 33.6671 158.083 33.1461 160.185 32.861L164.775 32.2358L165.022 34.9503L160.796 35.559C159.872 35.6796 159.211 35.899 158.815 36.217C158.43 36.5351 158.237 37.0012 158.237 37.6154V37.7799C158.237 38.3831 158.424 38.8547 158.799 39.1947C159.184 39.5237 159.784 39.6882 160.598 39.6882C161.324 39.6882 161.946 39.5731 162.463 39.3427C162.981 39.1124 163.404 38.8108 163.735 38.4379C164.076 38.0541 164.318 37.6263 164.461 37.1547L165.055 39.244H164.329C164.153 39.935 163.867 40.5656 163.47 41.1359C163.085 41.6953 162.54 42.1449 161.836 42.4849C161.132 42.814 160.207 42.9785 159.063 42.9785Z" fill="white"/>
<path d="M177.259 42.9785C175.355 42.9785 173.908 42.3643 172.917 41.1359C171.927 39.9076 171.431 38.0979 171.431 35.707V33.4861C171.431 31.0623 171.932 29.2252 172.934 27.9749C173.935 26.7247 175.426 26.0995 177.407 26.0995C178.376 26.0995 179.19 26.2531 179.851 26.5601C180.522 26.8672 181.061 27.3059 181.468 27.8762C181.887 28.4465 182.178 29.1156 182.343 29.8833H183.581L182.508 33.009C182.486 32.2523 182.327 31.6162 182.03 31.1007C181.743 30.5742 181.342 30.1739 180.824 29.8997C180.307 29.6256 179.696 29.4885 178.992 29.4885C177.925 29.4885 177.105 29.7955 176.532 30.4097C175.971 31.0239 175.69 31.9397 175.69 33.1571V35.8222C175.69 37.0286 175.971 37.9389 176.532 38.5531C177.105 39.1673 177.936 39.4744 179.025 39.4744C179.641 39.4744 180.192 39.3592 180.676 39.1289C181.16 38.8986 181.562 38.586 181.881 38.1912C182.211 37.7854 182.448 37.3302 182.591 36.8257L183.598 39.1782H182.409C182.233 39.8802 181.947 40.5218 181.551 41.103C181.155 41.6733 180.61 42.1285 179.917 42.4685C179.223 42.8085 178.337 42.9785 177.259 42.9785ZM182.442 42.6001L182.591 38.6518L182.508 37.7141V31.1171L182.525 30.4426L182.442 25.8198V20.8516H186.668V42.6001H182.442Z" fill="white"/>
<path d="M197.222 37.6483C194.768 37.6483 192.908 37.1657 191.643 36.2006C190.377 35.2245 189.744 33.859 189.744 32.1042V31.8574C189.744 30.6949 189.997 29.7078 190.504 28.8962C191.01 28.0737 191.802 27.4321 192.881 26.9714C193.959 26.5108 195.357 26.2476 197.074 26.1818L205.608 25.8363V28.9291L201.217 28.7646V28.9456C201.911 29.0881 202.483 29.3185 202.934 29.6365C203.396 29.9436 203.743 30.3439 203.974 30.8375C204.205 31.32 204.321 31.9068 204.321 32.5977V32.7458C204.321 34.3361 203.732 35.5535 202.554 36.398C201.377 37.2315 199.6 37.6483 197.222 37.6483ZM197.024 45.6765H197.487C198.345 45.6765 199.055 45.6162 199.616 45.4955C200.177 45.3858 200.596 45.2104 200.871 44.9691C201.157 44.7388 201.3 44.4371 201.3 44.0643V44.0149C201.3 43.5543 201.118 43.2143 200.755 42.9949C200.403 42.7865 199.831 42.644 199.038 42.5672L194.3 42.1066L195.274 42.0572C194.867 42.134 194.504 42.2491 194.185 42.4027C193.877 42.5453 193.635 42.7372 193.459 42.9785C193.282 43.2198 193.194 43.5159 193.194 43.8668V43.8997C193.194 44.3055 193.337 44.64 193.624 44.9033C193.91 45.1775 194.339 45.3749 194.911 45.4955C195.484 45.6162 196.188 45.6765 197.024 45.6765ZM196.793 48.8516C195.23 48.8516 193.893 48.72 192.782 48.4567C191.67 48.2045 190.817 47.7987 190.223 47.2393C189.64 46.68 189.348 45.9397 189.348 45.0184V44.9526C189.348 44.3275 189.486 43.801 189.761 43.3733C190.036 42.9456 190.427 42.6056 190.933 42.3533C191.439 42.1011 192.022 41.942 192.683 41.8762V41.7117C191.846 41.5472 191.213 41.2785 190.784 40.9056C190.366 40.5218 190.157 40.0008 190.157 39.3427V39.3263C190.157 38.8657 190.262 38.4763 190.471 38.1583C190.68 37.8402 190.988 37.5879 191.395 37.4015C191.813 37.2151 192.325 37.1054 192.93 37.0725V36.5954L196.513 37.4838L195.357 37.4509C194.851 37.4618 194.499 37.5331 194.3 37.6647C194.102 37.7854 194.003 37.9608 194.003 38.1912V38.2076C194.003 38.4928 194.157 38.7012 194.466 38.8328C194.774 38.9534 195.285 39.0576 196.001 39.1453L199.88 39.5731C201.696 39.7814 203.033 40.2256 203.892 40.9056C204.761 41.5856 205.196 42.633 205.196 44.0478V44.1301C205.196 45.2158 204.888 46.1042 204.271 46.7952C203.655 47.4971 202.764 48.0125 201.597 48.3416C200.441 48.6816 199.038 48.8516 197.387 48.8516H196.793ZM197.107 34.72C197.844 34.72 198.455 34.6158 198.939 34.4074C199.434 34.199 199.803 33.8919 200.045 33.4861C200.298 33.0803 200.425 32.5868 200.425 32.0055V31.8245C200.425 31.2433 200.304 30.7552 200.062 30.3604C199.82 29.9546 199.456 29.653 198.972 29.4556C198.488 29.2472 197.877 29.143 197.14 29.143H197.09C196.309 29.143 195.671 29.2527 195.175 29.472C194.68 29.6804 194.317 29.9875 194.086 30.3933C193.855 30.7881 193.739 31.2652 193.739 31.8245V32.0055C193.739 32.5868 193.86 33.0803 194.102 33.4861C194.355 33.8919 194.73 34.199 195.225 34.4074C195.731 34.6158 196.358 34.72 197.107 34.72Z" fill="white"/>
<path d="M215.086 42.9949C212.313 42.9949 210.249 42.3588 208.895 41.0866C207.542 39.8144 206.865 37.9718 206.865 35.559V33.4532C206.865 31.0623 207.498 29.2252 208.763 27.942C210.029 26.6588 211.867 26.0172 214.277 26.0172C215.906 26.0172 217.265 26.3024 218.355 26.8727C219.444 27.443 220.258 28.2546 220.798 29.3075C221.348 30.3494 221.623 31.5997 221.623 33.0584V33.6342C221.623 34.029 221.601 34.4348 221.557 34.8516C221.524 35.2574 221.475 35.6412 221.408 36.0031H217.579C217.612 35.3999 217.628 34.8296 217.628 34.2922C217.639 33.7438 217.645 33.2503 217.645 32.8116C217.645 32.0549 217.524 31.4133 217.281 30.8868C217.039 30.3494 216.671 29.9436 216.175 29.6694C215.68 29.3952 215.047 29.2581 214.277 29.2581C213.143 29.2581 212.307 29.5707 211.768 30.1959C211.229 30.821 210.959 31.7094 210.959 32.861V34.358L210.975 34.8351V36.1019C210.975 36.6064 211.052 37.0725 211.207 37.5002C211.372 37.9279 211.641 38.3008 212.015 38.6189C212.39 38.926 212.885 39.1673 213.501 39.3427C214.128 39.5182 214.91 39.606 215.845 39.606C216.858 39.606 217.821 39.4963 218.734 39.2769C219.659 39.0466 220.534 38.7395 221.359 38.3557L220.996 41.6788C220.258 42.0846 219.389 42.4027 218.388 42.633C217.397 42.8743 216.296 42.9949 215.086 42.9949ZM209.11 36.0031V33.2064H220.55V36.0031H209.11Z" fill="white"/>
<path d="M234 38.4873C234 40.7587 232.152 42.6001 229.873 42.6001C227.594 42.6001 225.746 40.7587 225.746 38.4873C225.746 36.2158 227.594 34.3745 229.873 34.3745C232.152 34.3745 234 36.2158 234 38.4873Z" fill="#FFA62B"/>
</svg>
