<svg width="222" height="64" viewBox="0 0 222 64" fill="none" xmlns="http://www.w3.org/2000/svg">
<path d="M118.377 44.8168L104.601 20.0664L90.8252 44.8168H95.513L104.601 28.4317L111.013 39.9897H103.486L100.801 44.8168H113.69H118.377Z" fill="#F39314"/>
<path d="M186.73 30.1718H180.866C179.133 30.1718 178.44 29.1818 178.44 27.9916C178.44 26.8014 179.133 25.8128 180.866 25.8128H190.282V20.77H180.507C176.882 20.77 173.933 23.8273 173.933 27.9916C173.933 32.1559 176.275 35.1935 180.866 35.1935H186.73C188.464 35.1935 189.155 36.1834 189.155 37.3736C189.155 38.5624 188.464 39.5524 186.73 39.5524H175.623V44.5798H187.224C190.848 44.5798 193.662 41.538 193.662 37.3736C193.662 33.2093 191.352 30.1718 186.73 30.1718ZM91.1471 20.5909H83.1081H78.5998H70.5608V25.6196H78.5998V44.4007H83.1081V25.6196H91.1471V20.5909ZM49.7486 25.8001V20.77H36.207H31.6986V21.609V30.145V31.1519V44.5798H49.7486V39.5496H36.207V35.1751H44.676V30.145H36.207V25.8001H49.7486ZM60.2307 39.3705V20.5909H55.7209V44.4007H70.3896V39.3705H60.2307ZM15.5385 39.6398H10.5097V25.6225H15.5385C20.4523 25.6225 22.5476 28.7475 22.5476 32.617C22.5476 36.4852 20.4523 39.6398 15.5385 39.6398ZM16.1165 20.5923H6V44.67H16.1165C21.0302 44.67 27.4326 42.1401 27.4326 32.617C27.4326 23.0926 21.0302 20.5923 16.1165 20.5923ZM158.689 40.1249C154.6 40.1249 151.284 36.7109 151.284 32.5C151.284 28.2891 154.6 24.8751 158.689 24.8751C162.779 24.8751 166.094 28.2891 166.094 32.5C166.094 36.7109 162.779 40.1249 158.689 40.1249ZM158.689 20C151.986 20 146.55 25.5971 146.55 32.5C146.55 39.4043 151.986 45 158.689 45C165.394 45 170.83 39.4043 170.83 32.5C170.83 25.5971 165.394 20 158.689 20ZM137.317 20.77V30.145H126.591V20.77H122.083V44.5798H126.591V35.1751H137.317V44.5798H141.825V20.77H137.317ZM216 20.77H207.961H203.453H195.414V25.8001H203.453V44.5812L207.961 44.5798V25.8001H216V20.77Z" fill="white"/>
</svg>
