<svg width="40" height="64" viewBox="0 0 40 64" fill="none" xmlns="http://www.w3.org/2000/svg">
<path fill-rule="evenodd" clip-rule="evenodd" d="M39.8784 33.7915C38.691 33.7868 37.5513 33.3501 36.697 32.5725C35.8426 31.7948 35.3394 30.7362 35.2923 29.6173H44.4976C44.4513 30.7416 43.9441 31.8051 43.0829 32.5838C42.2217 33.3624 41.0736 33.7955 39.8806 33.7918L39.8784 33.7915ZM18.5758 16.8851L32.8518 16.8933V16.229H18.5761L18.5758 16.8851ZM18.5758 18.1583V18.7784H32.8518V18.1151H18.5767V18.1583H18.5758ZM26.8276 14.5984L26.8332 15.2778L26.0408 15.2872L26.8276 14.5984ZM24.595 15.2904C24.9612 15.289 24.8348 15.2343 25.2813 14.8848L26.6782 13.6741C26.8152 13.5423 26.8332 13.5485 26.8332 13.3234V12.4728L25.4697 13.639C24.5485 14.5265 24.5922 13.9684 24.5953 15.2904H24.595ZM24.595 13.3284C24.595 13.116 24.595 12.9038 24.5934 12.6914C24.5934 12.253 24.4862 12.3217 25.0558 11.8603L26.826 10.3372L26.8322 11.2375C26.8322 11.4775 26.7253 11.5038 26.356 11.822L24.5953 13.329L24.595 13.3284ZM24.6074 11.1952C24.7056 11.1057 24.8184 11.0327 24.9172 10.9386C25.0483 10.815 25.1004 10.7676 25.2287 10.6642L26.4474 9.60137C26.5558 9.51575 26.6565 9.42253 26.7594 9.32697C26.8741 9.2209 26.8304 9.07508 26.8313 8.87695C26.6042 8.91464 26.387 9.03124 26.0783 9.06718C25.8524 9.09378 25.8363 9.05316 25.6888 9.17093L25.1825 9.60926C24.7233 10.0102 24.5937 10.0117 24.5937 10.3828L24.6077 11.1946L24.6074 11.1952ZM23.8727 6.74925C23.8294 6.40581 23.8953 6.05799 24.0619 5.74987C24.2285 5.44175 24.4883 5.18719 24.8084 5.01845C25.1285 4.84971 25.4946 4.77439 25.8602 4.80202C26.2257 4.82965 26.5744 4.95899 26.8619 5.17366C27.1495 5.38833 27.363 5.67866 27.4754 6.00787C27.5878 6.33708 27.5941 6.69035 27.4934 7.02292C27.3927 7.35549 27.1896 7.6524 26.9099 7.87601C26.6301 8.09963 26.2862 8.2399 25.9218 8.27905C25.4353 8.3311 24.9466 8.19942 24.5627 7.91277C24.1787 7.62613 23.9306 7.20783 23.8727 6.74925ZM26.0827 4H25.3796C25.1803 4.09264 24.8485 4.11689 24.6247 4.21625C24.24 4.37692 23.9004 4.62012 23.633 4.92646C23.3656 5.2328 23.1777 5.59382 23.0844 5.98073C22.9911 6.36765 22.995 6.76976 23.0956 7.15504C23.1962 7.54031 23.3909 7.89809 23.6641 8.19986C23.8169 8.35474 23.7952 8.28256 23.7918 8.55053C23.7639 11.0485 23.8088 13.5531 23.7902 16.0517H27.6373C27.6599 13.5677 27.6646 11.0546 27.6373 8.58326C27.6314 8.05346 27.9657 8.24895 28.2855 7.32055C28.4487 6.84377 28.458 6.332 28.3123 5.85022C28.1665 5.36843 27.8723 4.93835 27.4669 4.61455C27.1874 4.37859 26.8542 4.20641 26.4929 4.11134L26.0842 4.00205L26.0827 4ZM11.1277 45.2853C11.5925 45.6517 12.0573 46.0743 12.5011 46.472L15.4656 49.0489C15.8957 49.4477 16.6329 50.0255 17.0617 50.4223C17.1519 50.5056 17.1897 50.5524 17.2805 50.6269C17.9201 51.1432 18.4689 51.6923 19.1168 52.2145L20.4802 53.3951C20.9831 53.8504 21.5319 54.3595 22.0606 54.7785C22.4603 55.0956 22.8207 55.4506 23.2071 55.7826L23.8984 56.3653C24.2197 56.6575 25.594 57.8098 25.6922 57.9433C25.8388 57.8872 27.2453 56.6213 27.5493 56.3653L28.9248 55.1672C29.3747 54.7288 30.3369 53.9775 30.7502 53.5719L33.4889 51.192C33.9596 50.8148 34.3766 50.3861 34.8523 50.0114L39.6466 45.8426C39.7278 45.7733 39.7795 45.707 39.8635 45.638L40.3311 45.242V35.2687L39.4387 35.2713C39.4601 38.3189 39.4204 41.3727 39.4387 44.4206C39.4402 44.681 39.4867 44.7175 39.3222 44.8423C39.0104 45.0778 38.7334 45.3715 38.43 45.6129L37.8317 46.1237C37.7111 46.235 37.6591 46.2908 37.5407 46.3867C37.1314 46.7163 36.7642 47.095 36.3595 47.4206C35.8079 47.8648 35.0779 48.5693 34.5799 48.9659L30.7301 52.3191C30.1813 52.7575 29.4702 53.4471 28.9493 53.863L25.7152 56.6683C25.4982 56.5298 24.3412 55.453 23.9858 55.1751C23.6883 54.9413 23.428 54.6695 23.1327 54.4316L21.4207 52.9457C21.2657 52.8209 21.1399 52.69 20.985 52.5658C20.2478 51.9784 19.5968 51.2975 18.859 50.7154C18.704 50.5924 18.5801 50.458 18.4252 50.3355C17.6843 49.7528 17.0388 49.0681 16.2976 48.4869C15.848 48.1345 15.452 47.7219 15.0073 47.3651L14.1533 46.6219C14.0042 46.5015 13.8856 46.3773 13.7356 46.2578C13.5766 46.1313 13.4589 46.01 13.2987 45.8797L12.4462 45.1357C12.3068 45.0255 12.1553 44.8896 12.0223 44.7669L12.0099 35.3037H11.1302L11.1283 45.2853H11.1277ZM25.6848 59.9988C25.472 59.7837 25.2443 59.5822 25.0031 59.3957L23.2969 57.9074C23.1937 57.8238 23.054 57.6832 22.9524 57.6008C22.4876 57.2247 22.0537 56.7908 21.5908 56.4194C21.469 56.3215 21.3844 56.2268 21.2642 56.1271L20.558 55.5275C20.087 55.0722 19.3613 54.4609 18.85 54.0412C18.1509 53.4676 17.5045 52.8139 16.798 52.2481C16.2093 51.7771 15.6645 51.2125 15.0745 50.7449C14.9391 50.6377 14.8641 50.557 14.729 50.4393L13.3681 49.2578C12.8934 48.8861 12.4571 48.4331 11.9898 48.0597L10.1191 46.4416C10.0515 46.3794 10.0261 46.3382 9.95642 46.2806C9.61246 45.9957 9.70387 46.1114 9.70387 45.2388C9.70387 41.9227 9.72495 38.6003 9.70387 35.2848H10.5969C10.556 38.6062 10.6279 41.9475 10.5954 45.271C10.5929 45.5465 10.5814 45.5632 10.7553 45.716L12.388 47.1167C12.5073 47.2175 12.5906 47.3087 12.7158 47.4089C13.1255 47.7338 13.8722 48.4527 14.3123 48.8095L16.2725 50.5015C16.3314 50.5532 16.3602 50.5941 16.4178 50.6476L17.5789 51.6412C17.7047 51.7505 17.7791 51.8323 17.9046 51.9334L21.1458 54.7546C21.2451 54.8511 21.3507 54.9416 21.4622 55.0254L25.0359 58.1333C25.2385 58.3445 25.4623 58.5366 25.7043 58.7069C25.9366 58.5369 26.1549 58.3506 26.3572 58.1493C26.5995 57.9071 27.6478 57.052 27.9862 56.7467L35.4398 50.2525C35.8832 49.8919 36.3074 49.4746 36.749 49.1164L37.7127 48.2864C37.8366 48.1885 37.9163 48.0924 38.0405 47.9963C38.3746 47.7379 38.6835 47.4159 39.0213 47.1509C39.4622 46.8046 39.8731 46.3826 40.3131 46.0305C40.4318 45.9352 40.5192 45.8335 40.6394 45.7382C40.9338 45.5045 40.8449 45.5191 40.8449 44.7362C40.8449 41.5904 40.8055 38.4224 40.8449 35.2798H41.736V46.0319C41.517 46.2719 41.2772 46.4943 41.019 46.6967L37.0186 50.1611C36.9219 50.2388 36.8575 50.3177 36.7642 50.3948L35.7463 51.2692C35.0884 51.7952 34.3996 52.4609 33.747 53.0173C33.6574 53.0935 33.5793 53.1435 33.4907 53.2192L32.747 53.8752C32.6494 53.953 32.607 54.005 32.5097 54.0924L31.0012 55.3893C30.9049 55.467 30.8435 55.5438 30.7478 55.623L29.4931 56.7154C29.402 56.7917 29.3304 56.8419 29.2374 56.9182C28.5697 57.4635 27.9186 58.1219 27.2382 58.6657C26.7622 59.0456 26.3352 59.4816 25.8565 59.8591C25.7992 59.8945 25.7524 59.943 25.7204 60L25.6848 59.9988ZM25.7489 47.7742C25.5374 47.6347 25.3415 47.4753 25.1642 47.2984L22.4516 44.9574C22.3013 44.8095 21.984 44.6263 21.9673 44.4218C21.9447 44.1351 21.9688 43.7388 21.9688 43.4396V19.857H26.3411C26.2082 20.0388 25.5915 20.4482 25.5354 20.5917V21.6145L25.8276 21.374C25.9193 21.3027 26.0057 21.2258 26.0864 21.1437L27.4294 19.9774C27.5753 19.8547 27.5573 19.857 27.8148 19.857H28.7953C28.693 20.0239 27.5961 20.9225 27.3314 21.1478L26.3278 22.0323C26.2122 22.1419 25.5348 22.6384 25.5348 22.772L25.5423 23.7459L27.4991 22.0624C27.883 21.6884 28.3196 21.3611 28.72 21.0017C28.9525 20.7775 29.199 20.5667 29.4581 20.3702V20.7179C29.4581 21.4163 29.5665 21.3459 29.221 21.6349C29.1312 21.71 29.0776 21.781 28.9861 21.8544L27.0101 23.5621C26.804 23.7737 26.5159 23.9905 26.2726 24.1951C26.0411 24.4193 25.7958 24.6305 25.5379 24.8275L25.5357 25.8745C25.8805 25.6101 26.2101 25.3285 26.523 25.0309L28.4829 23.3389C28.5759 23.2644 28.6267 23.1951 28.7175 23.1194C28.8083 23.0437 28.8854 22.9923 28.9728 22.9163L29.4438 22.5005C29.47 22.8416 29.4722 23.1839 29.4503 23.5253C29.4169 23.6483 27.9676 24.864 27.7817 25.0177C27.6707 25.1095 27.6051 25.1916 27.4916 25.2807C27.3919 25.3544 27.2987 25.4355 27.2128 25.5233C27.122 25.6069 27.0265 25.6859 26.9268 25.76L25.5323 26.9601L25.5432 28.0098C25.6222 27.9394 25.6959 27.8847 25.7858 27.8123L29.2058 24.8438C29.275 24.7605 29.3596 24.6897 29.4556 24.6349V25.7161C29.1395 25.9277 28.5604 26.4897 28.2347 26.7722C28.1448 26.85 28.0705 26.9008 27.9803 26.9768C27.6667 27.2398 25.7344 28.9779 25.5364 29.094V30.1419L28.971 27.1825C29.0618 27.1095 29.1154 27.0431 29.2074 26.9648C29.2945 26.8909 29.3695 26.8383 29.4469 26.7678C29.4779 26.9882 29.5089 27.7424 29.4073 27.8804C29.3092 27.9779 29.2023 28.0673 29.0878 28.1474C28.9737 28.2395 28.8978 28.3327 28.7801 28.4251C28.6561 28.5235 28.5749 28.6153 28.4522 28.7173C28.3398 28.8003 28.2326 28.8893 28.1312 28.9841L27.5065 29.5323C27.0637 29.8856 26.6683 30.2836 26.2308 30.636L25.5801 31.1913C25.5129 31.5482 25.5018 31.9125 25.5472 32.2725L27.4951 30.5942C27.588 30.5203 27.6391 30.4481 27.7293 30.3745C27.9861 30.1753 28.2318 29.9637 28.4653 29.7404C28.5426 29.6653 28.6255 29.5953 28.7132 29.5311C28.8142 29.4516 28.852 29.4037 28.9511 29.3137C29.0373 29.2354 29.1138 29.1866 29.204 29.1092C29.3143 29.0139 29.3279 28.963 29.4565 28.8961L29.4516 29.9812C29.1005 30.2149 28.8008 30.5519 28.468 30.8187C28.3751 30.8929 28.3249 30.9619 28.2319 31.037C27.6602 31.499 27.0563 32.0954 26.5214 32.5209C26.2023 32.7748 25.8707 33.1454 25.5348 33.3578L25.5379 34.4054C25.6328 34.3501 25.7167 34.2796 25.7858 34.1971L29.4537 31.0288C29.4813 32.3365 29.5414 31.9584 28.9552 32.5378L26.3752 34.7815C26.2202 34.913 25.577 35.4019 25.5426 35.5445C25.5202 35.8755 25.5234 36.2076 25.5522 36.5381C25.7797 36.3189 26.0205 36.1123 26.2732 35.9192L28.469 34.0089C28.7761 33.7041 29.1069 33.4214 29.4587 33.1632L29.4528 34.2468C29.2359 34.3742 28.4993 35.0869 28.2298 35.3008C28.1396 35.3721 28.0593 35.4282 27.9766 35.5054L26.0272 37.2061C25.85 37.3464 25.7198 37.5036 25.5361 37.6217L25.5392 38.6693C25.8047 38.482 26.0504 38.2709 26.2729 38.039L26.761 37.6147C27.5214 37.0092 28.204 36.3189 28.9638 35.7094C29.1346 35.5723 29.2842 35.4221 29.4568 35.2924V36.3777L28.4634 37.2292C27.8728 37.7032 27.3414 38.24 26.7514 38.7117C26.6641 38.7765 26.582 38.8472 26.5056 38.9232C26.3507 39.0828 26.2038 39.1787 26.0219 39.3511C25.3771 39.9621 25.5339 39.4887 25.5351 40.8002C26.1911 40.3034 26.8555 39.6164 27.5053 39.1053L27.9964 38.6836C28.3351 38.413 29.1628 37.5954 29.4562 37.4271V38.3218C29.4562 38.5618 29.4119 38.5133 29.2842 38.6366L28.5319 39.2865C28.0172 39.7082 27.5558 40.1751 27.0417 40.5971L26.531 41.0328C26.2069 41.2938 25.8701 41.6538 25.5333 41.8832L25.5376 42.9326C25.8118 42.7537 26.4629 42.1453 26.7573 41.8788C26.8434 41.8005 26.9243 41.7526 27.011 41.6743L29.4553 39.5583V40.6395L26.9723 42.7745C26.7926 42.9563 26.6776 43.0276 26.4914 43.2055C25.3783 44.2713 25.5348 43.5816 25.5351 45.0614C25.7141 44.9343 25.8822 44.794 26.0377 44.6418C26.1927 44.4846 26.3386 44.3864 26.5208 44.2137L27.0113 43.7914C27.1824 43.6547 27.3305 43.5062 27.5028 43.3692L29.393 41.7345C29.4435 41.6944 29.3896 41.7277 29.4587 41.6892C29.4531 43.0185 29.6096 42.5875 28.9517 43.1865C28.8504 43.2786 28.8201 43.3239 28.7156 43.4048L27.7144 44.2628C27.2093 44.6763 26.739 45.136 26.2395 45.5571C26.1102 45.6661 25.5364 46.1003 25.5367 46.2216L25.5447 47.1926C25.8732 46.9635 26.4226 46.4302 26.7563 46.1406C26.8462 46.0626 26.9206 46.0132 27.0107 45.9361C27.1009 45.8589 27.1539 45.79 27.2475 45.7178L28.7209 44.451C28.9492 44.2235 29.1955 44.0126 29.4578 43.8204L29.4562 44.5509C29.3087 44.6447 25.8927 47.6076 25.7489 47.7742ZM21.0767 45.0533L21.0786 19.0744L30.3502 19.0838C30.4004 21.9298 30.3502 24.8187 30.3502 27.67C30.3502 33.3812 30.3849 39.1626 30.3527 44.8636C30.3587 44.9324 30.344 45.0014 30.3101 45.0625C30.2762 45.1237 30.2245 45.1745 30.1612 45.209L28.3776 46.7505C28.2536 46.8466 28.2071 46.8998 28.085 47.0115L26.892 48.036C26.7992 48.1281 26.6993 48.2136 26.593 48.2917C26.3631 48.4752 25.9785 48.8589 25.7145 49.0497L21.363 45.2894C21.2809 45.1974 21.1844 45.1178 21.0767 45.0533ZM16.0193 29.6162L16.1833 29.6217C16.1345 30.7423 15.6282 31.8016 14.7702 32.5782C13.9123 33.3548 12.7692 33.7884 11.58 33.7884C10.3908 33.7884 9.24766 33.3548 8.38972 32.5782C7.53177 31.8016 7.02546 30.7423 6.97671 29.6217L7.17286 29.6176H16.0193V29.6162ZM40.3646 20.3819L44.3634 28.7597L40.3503 28.755L40.3646 20.3819ZM39.4384 20.3819V28.7576L35.4135 28.7494L39.4371 20.3816L39.4384 20.3819ZM12.0502 20.317L16.0785 28.7591L12.035 28.7521L12.0496 20.317H12.0502ZM11.1237 20.3366V28.7576L7.07711 28.7518L11.1249 20.3357L11.1237 20.3366ZM39.796 17.0812C40.4795 16.921 40.641 17.9111 40.033 18.0514C39.8966 18.081 39.7533 18.0583 39.6346 17.9883C39.5159 17.9183 39.4315 17.8067 39.4001 17.678C39.3687 17.5494 39.3927 17.4142 39.4669 17.3023C39.5412 17.1904 39.6595 17.1108 39.796 17.0812ZM11.4794 17.0797C12.1302 16.926 12.3824 17.8909 11.7177 18.0502C11.649 18.0682 11.5771 18.0728 11.5064 18.0639C11.4357 18.055 11.3677 18.0327 11.3063 17.9983C11.245 17.9639 11.1917 17.9182 11.1497 17.8639C11.1076 17.8095 11.0776 17.7478 11.0615 17.6822C11.0454 17.6167 11.0436 17.5488 11.056 17.4825C11.0685 17.4163 11.0951 17.3532 11.1341 17.2969C11.1732 17.2406 11.2239 17.1923 11.2832 17.155C11.3426 17.1177 11.4093 17.0921 11.4794 17.0797ZM6.00124 28.7722V29.9046C6.12209 30.16 6.06879 30.7599 6.52058 31.6699C6.88307 32.3988 7.41722 33.0401 8.08233 33.5448C8.30757 33.7172 8.54762 33.8717 8.79998 34.0066C9.34573 34.3039 9.94144 34.511 10.5613 34.6188C11.3398 34.7553 12.1401 34.7339 12.9092 34.5562C13.6783 34.3785 14.3984 34.0485 15.0218 33.5881C15.6452 33.1277 16.1575 32.5474 16.5248 31.8859C16.8921 31.2243 17.1058 30.4966 17.1519 29.7512L17.102 28.7389C16.9688 28.5571 14.1046 22.4973 13.721 21.7179L12.608 19.3857C12.4905 19.1422 12.3223 18.8424 12.2361 18.6016C12.3753 18.4619 12.4453 18.4684 12.577 18.2922C12.6676 18.1633 12.7444 18.0262 12.8063 17.883H38.6714C38.8958 18.3073 38.8883 18.362 39.2695 18.599C39.1486 18.9637 38.8416 19.4876 38.6705 19.8623L34.6794 28.2018C34.6037 28.3864 34.511 28.5643 34.4024 28.7337L34.3856 28.7491C34.3348 28.8006 34.3615 28.7424 34.3237 28.8076C34.3128 29.7404 34.3171 30.3403 34.623 31.1717C34.894 31.9089 35.3354 32.5801 35.9155 33.1365C36.4955 33.6929 37.1995 34.1207 37.9765 34.3888C38.7535 34.6569 39.584 34.7586 40.4078 34.6866C41.2317 34.6146 42.0282 34.3706 42.7397 33.9724C43.9246 33.3034 44.8085 32.2482 45.2243 31.0063C45.3138 30.7433 45.4102 30.0364 45.474 29.9037V28.7599C45.324 28.7424 45.3907 28.7892 45.3163 28.641L40.5186 18.5952C40.6919 18.5014 40.839 18.37 40.9477 18.2119C41.0565 18.0538 41.1236 17.8735 41.1437 17.686C41.1637 17.4985 41.1361 17.3092 41.063 17.1338C40.99 16.9584 40.8736 16.8019 40.7236 16.6774C40.5736 16.5529 40.3943 16.4639 40.2006 16.4178C40.0068 16.3717 39.8042 16.3699 39.6095 16.4124C39.4148 16.4549 39.2337 16.5406 39.0812 16.6624C38.9287 16.7841 38.8091 16.9384 38.7325 17.1124L12.7421 17.1104C12.6232 16.8443 12.4055 16.6282 12.1298 16.5026C11.8541 16.3769 11.5393 16.3502 11.2443 16.4275C10.9492 16.5048 10.6942 16.6808 10.5268 16.9227C10.3594 17.1645 10.2911 17.4555 10.3348 17.7413C10.4141 18.2545 10.7041 18.3927 10.9291 18.601C10.8507 18.8182 10.7215 19.0476 10.6192 19.26C10.517 19.4724 10.4243 19.6808 10.318 19.8918C9.70852 21.1031 9.08228 22.4941 8.48485 23.7264C8.07706 24.5671 7.65749 25.4213 7.26396 26.2725L6.34582 28.1863C6.24077 28.4125 6.14223 28.7059 6 28.7719L6.00124 28.7722Z" fill="#FEFEFE"/>
</svg>
