<svg width="69" height="64" viewBox="0 0 69 64" fill="none" xmlns="http://www.w3.org/2000/svg">
<path d="M56.0303 33.7844C56.4519 34.2078 56.4519 34.2078 56.5573 34.8163C56.4879 36.9066 54.8932 38.7289 53.5004 40.1344C53.745 40.1832 53.9896 40.232 54.2416 40.2824C57.3767 40.93 60.6847 41.7817 62.7841 44.409C62.9875 44.791 62.9875 44.791 63.0006 45.5979C62.7766 46.2726 62.7766 46.2726 62.1442 46.696C58.9067 47.1568 55.507 45.8987 52.4479 44.9596C48.289 43.8534 44.1055 45.3212 40.1106 46.4553C39.9623 46.4971 39.814 46.5389 39.6612 46.582C39.2532 46.6973 38.8455 46.8138 38.4379 46.9305C37.2097 47.24 36.0417 47.3575 34.7774 47.3516C34.5159 47.3509 34.2543 47.3503 33.9848 47.3495C33.7156 47.3478 33.4464 47.346 33.1691 47.3442C32.7567 47.3427 32.7567 47.3427 32.3361 47.3413C31.6606 47.3388 30.9852 47.3353 30.3098 47.3309C30.3333 48.0322 30.3607 48.7333 30.3888 49.4344C30.3954 49.6304 30.4019 49.8264 30.4086 50.0284C30.4553 51.1415 30.5715 52.1811 30.8418 53.2625C30.9927 53.8908 31.0716 54.5218 31.1531 55.1625C30.3641 55.6811 29.5841 55.6347 28.6759 55.6123C28.4554 55.6094 28.4554 55.6094 28.2304 55.6065C27.8694 55.6016 27.5084 55.594 27.1474 55.5859C26.5948 54.7566 26.6521 53.8578 26.6385 52.8971C26.6344 52.7197 26.6303 52.5424 26.6261 52.3597C26.6135 51.7947 26.6037 51.2297 26.594 50.6647C26.586 50.281 26.5777 49.8974 26.5693 49.5137C26.5491 48.5745 26.5314 47.6353 26.515 46.696C25.8888 46.696 25.2627 46.696 24.6175 46.696C24.4684 50.2008 24.4684 50.2008 25.1117 53.6164C25.2635 54.1517 25.2736 54.6087 25.25 55.1625C24.479 55.6507 23.803 55.6492 22.9046 55.652C22.6432 55.6555 22.3817 55.6591 22.1124 55.6627C21.8955 55.6374 21.6786 55.612 21.4552 55.5859C21.0013 54.9023 20.9634 54.6343 20.9092 53.8363C20.8937 53.61 20.8783 53.3837 20.8623 53.1505C20.7934 51.8637 20.745 50.5768 20.7041 49.2888C20.695 49.0176 20.6859 48.7464 20.6765 48.467C20.6544 47.8061 20.6329 47.1452 20.6119 46.4843C16.641 47.1281 16.641 47.1281 13.6028 49.5997C13.4092 49.9017 13.2157 50.2038 13.0222 50.5059C12.8831 50.5059 12.7439 50.5059 12.6006 50.5059C12.653 49.0318 13.0409 48.1719 14.0764 47.1193C17.8197 43.9956 23.4303 44.7321 27.9907 44.791C28.0035 44.5893 28.0163 44.3877 28.0294 44.18C28.0559 43.7817 28.0559 43.7817 28.083 43.3755C28.1086 42.9813 28.1086 42.9813 28.1348 42.5792C28.1899 41.9585 28.2749 41.3759 28.4124 40.7694C28.4819 40.7694 28.5515 40.7694 28.6232 40.7694C28.6928 42.1663 28.7623 43.5633 28.834 45.0026C29.4602 45.0725 30.0863 45.1423 30.7314 45.2143C30.8706 45.2842 31.0097 45.354 31.1531 45.426C31.1531 44.029 31.1531 42.632 31.1531 41.1927C31.5511 41.9919 31.7854 42.716 32.0227 43.5739C32.0972 43.8413 32.1717 44.1087 32.2484 44.3842C32.3323 44.6903 32.3323 44.6903 32.418 45.0026C33.8823 45.0609 35.1186 44.8716 36.5291 44.4867C36.7381 44.431 36.947 44.3754 37.1623 44.318C38.9703 43.8199 40.7186 43.1879 42.4752 42.5334C45.4975 41.4174 48.6033 40.4871 51.8138 40.1344C51.6635 40.0318 51.5132 39.9292 51.3584 39.8235C47.9641 37.4384 47.9641 37.4384 47.5973 35.6894C47.6369 35.0147 47.6369 35.0147 47.8082 34.4194C48.4406 33.9961 48.4406 33.9961 49.0204 33.9961C50.2208 34.3669 50.902 35.0125 51.5486 36.0896C52.054 37.0753 52.484 37.9745 52.6571 39.076C52.7267 39.076 52.7962 39.076 52.8679 39.076C52.8989 38.8378 52.8989 38.8378 52.9305 38.5948C53.4489 35.0326 53.4489 35.0326 54.5479 34.0474C55.0854 33.7174 55.4106 33.7026 56.0303 33.7844Z" fill="white"/>
<path d="M25.6707 16.6411C26.6076 17.5252 27.2091 18.4484 27.853 19.5556C27.9677 19.7114 28.0824 19.8672 28.2006 20.0277C28.4093 20.0277 28.618 20.0277 28.833 20.0277C29.1132 19.7326 29.1132 19.7326 29.3486 19.3332C29.4407 19.19 29.5328 19.0467 29.6277 18.8991C29.7692 18.672 29.7692 18.672 29.9135 18.4403C30.2511 17.9073 30.5931 17.379 30.9413 16.8528C31.0108 16.8528 31.0804 16.8528 31.1521 16.8528C31.1624 17.0801 31.1727 17.3073 31.1834 17.5415C31.1992 17.8455 31.2151 18.1495 31.2311 18.4535C31.2377 18.6026 31.2442 18.7517 31.2509 18.9053C31.3146 20.0618 31.3897 21.2246 32.1337 22.1601C32.262 22.2728 32.3903 22.3855 32.5224 22.5016C33.1961 23.102 33.602 23.5903 33.7602 24.4983C33.8001 25.8943 33.4317 26.9505 32.9054 28.233C32.2222 29.9182 31.6956 31.5557 32.2062 33.3626C32.6123 34.1763 33.1222 34.5724 33.9587 34.9368C35.0287 35.1007 35.9667 35.1622 36.897 34.5135C37.2298 34.0482 37.4404 33.6294 37.6744 33.1112C38.0389 32.3345 38.0389 32.3345 38.6627 32.0662C39.1634 32.0926 39.1634 32.0926 39.585 32.5159C39.6114 33.0716 39.6114 33.0716 39.585 33.5743C39.7416 33.4651 39.8981 33.356 40.0594 33.2435C40.6392 32.9393 40.6392 32.9393 41.1135 32.9922C41.4825 33.1509 41.4825 33.1509 41.6933 33.3626C41.5954 35.0336 40.7967 36.0753 39.6353 37.2015C36.5592 39.7724 33.1663 40.6653 29.2547 40.3475C26.9322 39.8961 24.8292 38.61 23.3516 36.7492C21.6818 34.1923 21.5125 30.7097 21.9813 27.7403C22.2237 26.8424 22.6515 26.0238 23.0749 25.2003C23.1412 25.0704 23.2075 24.9405 23.2758 24.8067C23.6952 24.0323 24.1367 23.4688 24.7664 22.853C25.7516 21.7598 25.6712 20.5941 25.6575 19.1811C25.6609 18.9363 25.6643 18.6916 25.6678 18.4394C25.6752 17.8397 25.676 17.2408 25.6707 16.6411Z" fill="white"/>
<path d="M58.5573 48.1079C59.1122 48.199 59.2794 48.3628 59.613 48.8124C60.3147 50.8346 60.167 53.2549 60.2455 55.3739C59.6549 55.5716 59.2642 55.6202 58.6512 55.6253C58.4857 55.6283 58.3202 55.6313 58.1496 55.6344C57.7156 55.5856 57.7156 55.5856 57.294 55.1623C57.1622 54.6067 57.1622 54.6067 57.0832 54.104C55.5771 55.6242 54.5473 57.335 53.4992 59.1839C52.7634 58.2954 52.6322 57.5718 52.6559 56.4323C52.8864 54.801 53.7142 54.0158 54.9749 53.0456C55.1141 52.9059 55.2532 52.7662 55.3966 52.6223C55.1922 52.487 54.9878 52.3516 54.7773 52.2122C54.1316 51.7757 54.1316 51.7757 53.9208 51.564C53.7964 50.2396 53.7964 50.2396 54.2716 49.6392C54.822 49.1882 55.2901 48.9937 55.9632 48.7727C57.8796 48.133 57.8796 48.133 58.5573 48.1079ZM56.4507 49.8707C56.1965 50.6363 56.2442 50.9414 56.5166 51.7227C56.7935 52.4229 56.7935 52.4229 57.294 52.6223C57.3055 52.3225 57.3136 52.0227 57.3203 51.7227C57.3252 51.5558 57.3301 51.3888 57.3352 51.2167C57.2904 50.6735 57.1436 50.3381 56.8723 49.8707C56.7332 49.8707 56.5941 49.8707 56.4507 49.8707Z" fill="white"/>
<path d="M50.9689 48.6021C50.9731 48.7301 50.9773 48.8581 50.9816 48.9899C51.0018 49.5751 51.0248 50.1601 51.048 50.7452C51.0545 50.9465 51.061 51.1479 51.0677 51.3553C51.1121 52.425 51.2202 53.3064 51.6014 54.317C51.5487 54.9123 51.5487 54.9123 51.3906 55.3753C50.8583 55.6425 50.4815 55.6078 49.8884 55.6002C49.6966 55.5983 49.5047 55.5964 49.307 55.5944C49.1597 55.592 49.0124 55.5895 48.8607 55.587C48.4952 54.8532 48.418 54.2499 48.3863 53.4439C48.3602 52.897 48.3602 52.897 48.2282 52.412C47.6196 51.9381 47.6196 51.9381 46.9633 51.777C47.0114 51.9658 47.0595 52.1546 47.109 52.3492C47.1696 52.5969 47.2302 52.8447 47.2927 53.0999C47.3538 53.3455 47.415 53.591 47.478 53.8441C47.5858 54.4711 47.615 54.7943 47.3849 55.3753C47.0338 55.7279 46.6134 55.6232 46.1331 55.6267C45.9443 55.6297 45.7554 55.6327 45.5608 55.6358C45.0658 55.587 45.0658 55.587 44.6442 55.1636C44.593 54.5555 44.593 54.5555 44.5956 53.787C44.596 53.5124 44.5964 53.2378 44.5968 52.9548C44.5981 52.8116 44.5995 52.6684 44.6008 52.5208C44.6047 52.0823 44.6051 51.6438 44.6051 51.2053C44.6147 49.055 44.6147 49.055 44.855 48.8137C46.0643 48.7559 46.0643 48.7559 46.5416 48.8137C46.9633 49.237 46.9633 49.237 47.1346 49.9514C47.4165 50.8157 47.6959 51.0745 48.439 51.5654C48.4582 51.294 48.4582 51.294 48.4777 51.0172C48.4954 50.7833 48.5131 50.5495 48.5313 50.3086C48.5484 50.0753 48.5655 49.842 48.5831 49.6017C48.6498 49.0254 48.6498 49.0254 48.8607 48.8137C50.3364 48.6021 50.3364 48.6021 50.9689 48.6021Z" fill="white"/>
<path d="M13.0211 27.8597C13.8808 28.4307 14.4691 29.1436 15.0898 29.9631C15.2564 30.179 15.423 30.3948 15.5946 30.6172C15.9904 31.2759 16.1265 31.5561 15.9726 32.3047C15.0286 33.511 13.7075 34.2612 12.2174 34.5272C10.2601 34.2189 8.61942 32.9132 7.32887 31.458C7.05876 30.8693 7.05876 30.8693 6.90723 30.3997C10.7335 27.3908 10.7335 27.3908 13.0211 27.8597ZM9.22629 31.458C9.22629 31.7374 9.22629 32.0168 9.22629 32.3047C10.6812 32.4124 11.8172 32.3425 13.0211 31.458C13.4239 31.0546 13.7388 30.6525 14.0752 30.188C13.842 29.9096 13.842 29.9096 13.2583 29.9102C11.8883 29.9273 10.2184 30.4946 9.22629 31.458Z" fill="white"/>
<path d="M14.4966 10.7141C16.7087 10.6075 18.4967 10.6364 20.3445 11.9808C21.0423 12.9148 20.9686 13.7179 20.9399 14.8548C20.9422 15.0549 20.9445 15.2551 20.9469 15.4613C20.9379 16.3138 20.9317 16.8871 20.4755 17.6188C19.4767 18.2049 18.3519 18.0444 17.2373 17.9107C16.3696 17.6433 15.8595 17.181 15.274 16.482C14.3112 14.6202 14.4522 12.7547 14.4966 10.7141ZM15.5507 12.8307C15.4812 13.1101 15.4116 13.3895 15.3399 13.6774C16.7023 14.9643 17.7215 15.4293 19.6075 15.3856C19.7909 15.3782 19.7909 15.3782 19.978 15.3707C19.8586 14.7834 19.7923 14.5509 19.3719 14.1007C18.2088 13.3534 16.9383 12.8307 15.5507 12.8307Z" fill="white"/>
<path d="M12.9946 19.3388C13.2612 19.3306 13.2612 19.3306 13.5332 19.3223C14.229 19.4115 14.5741 19.593 15.1292 20.0267C15.4707 20.5031 15.7568 20.9469 16.0383 21.4554C16.114 21.5815 16.1897 21.7076 16.2677 21.8374C16.7805 22.7436 16.964 23.4374 16.8157 24.4717C16.469 24.8867 16.469 24.8867 16.012 25.186C15.8628 25.2881 15.7136 25.3901 15.5599 25.4953C14.5479 26.0742 13.5225 26.1007 12.3884 25.9533C10.649 25.2579 9.32414 23.7513 8.47421 22.121C8.3828 21.72 8.3828 21.72 8.49644 21.2884C8.92733 20.7078 9.4073 20.5059 10.0562 20.1987C10.2799 20.0909 10.5035 19.9831 10.734 19.8721C11.5228 19.519 12.1365 19.3545 12.9946 19.3388ZM10.2802 22.5667C10.3365 22.9868 10.3365 22.9868 10.491 23.4133C11.9733 23.9094 13.3108 23.593 14.7075 22.99C14.9162 22.8503 15.1249 22.7106 15.34 22.5667C15.2373 22.1298 15.2373 22.1298 14.9183 21.72C13.4087 21.2258 11.5751 21.7 10.2802 22.5667Z" fill="white"/>
<path d="M14.7079 36.1148C14.956 36.6129 14.9538 36.9361 14.9583 37.4906C14.9613 37.6587 14.9643 37.8267 14.9674 37.9999C14.9188 38.4431 14.9188 38.4431 14.4971 38.8664C13.8268 39.0962 13.1689 39.1187 12.4647 39.145C12.1263 39.1583 12.1263 39.1583 11.7811 39.1719C11.5469 39.1802 11.3126 39.1885 11.0712 39.1971C10.8337 39.2063 10.5962 39.2154 10.3515 39.2248C9.76569 39.2472 9.1799 39.2689 8.59406 39.2897C8.59406 39.4294 8.59406 39.5691 8.59406 39.7131C7.72666 39.6618 7.21699 39.571 6.499 39.0648C5.90604 38.2169 5.96275 37.7681 6.06417 36.7498C6.98697 35.8233 9.95981 36.2353 11.1643 36.1983C11.5079 36.1864 11.5079 36.1864 11.8585 36.1743C12.0666 36.1679 12.2747 36.1615 12.4892 36.1549C14.3607 36.0138 14.3607 36.0138 14.7079 36.1148Z" fill="white"/>
<path d="M44.8552 12.4082C46.2222 12.5377 46.2222 12.5377 46.6966 12.896C46.9635 13.2549 46.9635 13.2549 46.9503 14.0618C46.7846 15.204 46.4451 16.2963 46.107 17.3972C45.886 18.1275 45.886 18.1275 45.8336 18.9235C45.6985 19.6048 45.6985 19.6048 45.2999 19.9272C45.1358 19.9867 44.9716 20.0462 44.8025 20.1075C44.6321 20.1713 44.4617 20.2352 44.2862 20.301C43.7759 20.4593 43.2774 20.5944 42.747 20.6631C43.0511 19.9507 43.4496 19.4967 44.0119 18.9698C43.6988 18.2217 43.2804 17.7758 42.6811 17.2368C42.521 17.0897 42.361 16.9427 42.196 16.7911C41.6498 16.3989 41.3053 16.266 40.6387 16.2182C39.9711 16.5092 39.9711 16.5092 39.3738 16.8532C39.2347 16.8532 39.0955 16.8532 38.9521 16.8532C39.0678 16.0401 39.3778 15.6745 40.0063 15.1598C41.1672 14.5151 42.3259 14.3647 43.6339 14.1925C44.2116 14.1341 44.2116 14.1341 44.6444 13.8899C44.7303 13.3985 44.8013 12.9042 44.8552 12.4082ZM42.5362 15.7948C42.7573 16.3498 42.8839 16.5978 43.4058 16.9061C43.5362 16.9585 43.6667 17.0108 43.8011 17.0648C44.1392 16.3223 44.2692 15.7644 44.2227 14.9482C43.5309 14.9482 43.0888 15.4089 42.5362 15.7948Z" fill="white"/>
<path d="M40.4268 47.7554C40.9617 48.2717 41.4649 48.8106 41.9552 49.3693C42.065 49.4943 42.1748 49.6192 42.2879 49.748C42.535 50.0837 42.535 50.0837 42.535 50.507C42.1705 50.5128 41.8059 50.5169 41.4414 50.5202C41.1368 50.5239 41.1368 50.5239 40.8262 50.5277C40.2464 50.508 39.7258 50.4268 39.1618 50.2953C39.0337 51.7357 39.3013 52.5601 40.2159 53.682C40.7695 54.1982 40.7695 54.1982 41.2701 54.5286C41.4092 54.1095 41.5484 53.6904 41.6917 53.2586C42.4222 53.1539 42.4222 53.1539 43.1675 53.047C43.1675 54.0294 42.5698 54.4895 41.9025 55.1636C41.1725 55.8428 40.5773 56.3892 39.5703 56.513C38.406 55.9658 37.5519 54.8637 37.0536 53.682C36.8387 51.8479 37.7333 50.3702 38.8258 48.9683C39.308 48.4427 39.8104 48.109 40.4268 47.7554Z" fill="white"/>
<path d="M51.39 18.9692C51.5291 19.4581 51.6682 19.947 51.8116 20.4508C51.021 21.0858 51.021 21.0858 50.5467 21.0858C50.5467 21.3652 50.5467 21.6446 50.5467 21.9325C50.6787 21.9123 50.8108 21.8921 50.9469 21.8713C51.2054 21.8361 51.2054 21.8361 51.469 21.8002C51.6402 21.7756 51.8114 21.7511 51.9878 21.7258C52.1384 21.7241 52.289 21.7225 52.4441 21.7208C52.8657 22.1441 52.8657 22.1441 52.958 22.6468C52.8657 23.2024 52.8657 23.2024 52.4836 23.6125C51.6754 24.1376 50.8385 24.5867 49.9834 25.0297C49.4672 25.2738 49.4672 25.2738 49.2817 25.7424C48.9128 25.7292 48.9128 25.7292 48.4384 25.5308C48.015 24.9592 47.5951 24.3557 47.5951 23.6258C48.0563 23.3066 48.0563 23.3066 48.6493 22.9643C48.8449 22.8503 49.0406 22.7362 49.2422 22.6187C49.3944 22.5319 49.5466 22.4452 49.7034 22.3558C49.6338 22.1462 49.5642 21.9367 49.4925 21.7208C49.3246 21.8391 49.3246 21.8391 49.1533 21.9597C49.0043 22.0599 48.8554 22.16 48.702 22.2632C48.5552 22.3639 48.4085 22.4645 48.2573 22.5683C47.806 22.7791 47.806 22.7791 47.3283 22.7055C47.2076 22.66 47.087 22.6144 46.9627 22.5675C46.8235 22.0785 46.6844 21.5896 46.541 21.0858C47.1089 20.4119 47.8375 20.0592 48.6097 19.6703C48.737 19.6025 48.8644 19.5347 48.9955 19.4648C49.8294 19.0422 50.4595 18.8933 51.39 18.9692Z" fill="white"/>
<path d="M48.8609 26.8008C49.7528 26.7277 50.3458 26.7509 51.1009 27.2241C51.9405 27.7284 51.9405 27.7284 52.8666 27.6475C53.2551 27.2452 53.2551 27.2452 53.499 26.8008C54.1315 27.0125 54.1315 27.0125 54.3819 27.3829C54.5858 27.9498 54.6195 28.3171 54.5532 28.9174C53.5411 30.2195 51.8759 31.3211 50.3367 31.8807C49.7404 31.8072 49.7404 31.8072 49.2826 31.6691C49.2874 31.4956 49.2923 31.322 49.2974 31.1432C49.3012 30.9151 49.305 30.687 49.3089 30.452C49.3162 30.1131 49.3162 30.1131 49.3237 29.7674C49.2827 29.1307 49.157 28.8305 48.8609 28.2825C48.8445 27.7888 48.842 27.2943 48.8609 26.8008ZM50.1259 28.2825C50.1954 28.5618 50.265 28.8412 50.3367 29.1291C51.1015 28.7342 51.1015 28.7342 51.6016 28.0708C50.8366 28.0387 50.8366 28.0387 50.1259 28.2825Z" fill="white"/>
<path d="M40.6402 8.80931C41.3123 10.0659 41.5422 11.418 41.2726 12.8309C40.5169 13.7192 39.6265 14.1514 38.5319 14.5242C37.8072 14.5639 37.8072 14.5639 37.267 14.5242C36.5879 13.4504 36.2823 12.628 36.5102 11.3559C36.8873 10.052 37.9682 9.5001 39.0516 8.81758C39.6945 8.55301 39.9942 8.56224 40.6402 8.80931ZM38.7428 9.86763C38.1741 10.724 38.23 11.4031 38.3211 12.4076C38.5038 13.028 38.5038 13.028 38.7428 13.4659C38.9515 13.3961 39.1602 13.3262 39.3752 13.2543C39.6335 12.7357 39.6213 12.3775 39.6256 11.7991C39.6286 11.6163 39.6316 11.4335 39.6346 11.2451C39.5836 10.688 39.4448 10.346 39.1644 9.86763C39.0253 9.86763 38.8861 9.86763 38.7428 9.86763Z" fill="white"/>
<path d="M33.4776 48.7861C33.6493 48.7867 33.8211 48.7872 33.9981 48.7878C34.1698 48.7872 34.3416 48.7867 34.5185 48.7861C34.9468 48.8142 34.9468 48.8142 35.1576 49.0259C35.2029 49.3357 35.2358 49.6474 35.263 49.9594C35.2891 50.2477 35.2891 50.2477 35.3157 50.5419C35.3418 50.8458 35.3418 50.8458 35.3684 51.1558C35.4033 51.5507 35.4384 51.9457 35.4738 52.3406C35.4904 52.5316 35.507 52.7227 35.5241 52.9195C35.575 53.4286 35.6468 53.9301 35.7242 54.4358C35.7459 54.6761 35.7677 54.9165 35.7901 55.1642C35.3684 55.5875 35.3684 55.5875 34.8809 55.6437C34.6939 55.6426 34.5069 55.6415 34.3143 55.6404C34.0338 55.6421 34.0338 55.6421 33.7477 55.6437C33.2602 55.5875 33.2602 55.5875 32.8385 55.1642C32.7873 54.556 32.7873 54.556 32.7899 53.7875C32.7903 53.5129 32.7908 53.2383 32.7912 52.9553C32.7925 52.8121 32.7938 52.6689 32.7951 52.5213C32.799 52.0828 32.7995 51.6443 32.7994 51.2058C32.81 48.83 32.81 48.83 33.4776 48.7861Z" fill="white"/>
<path d="M12.3895 51.5649C13.022 51.7766 13.022 51.7766 13.2608 52.1768C13.9919 53.9221 14.4478 55.5451 13.7599 57.3857C13.6555 57.6302 13.5512 57.8747 13.4437 58.1265C12.7321 58.153 12.7321 58.153 11.9679 58.1265C11.308 57.464 11.3033 56.7869 11.2959 55.8776C11.3139 54.3473 11.4659 52.8295 12.3895 51.5649Z" fill="white"/>
<path d="M12.6006 50.9325C17.0794 50.8259 17.0794 50.8259 19.1361 52.2025C19.4301 52.7927 19.401 53.244 19.3469 53.8958C18.6585 54.3566 18.3586 54.3883 17.5566 54.2621C15.697 53.7183 13.921 52.562 12.6006 51.1442C12.6006 51.0743 12.6006 51.0045 12.6006 50.9325Z" fill="white"/>
<path d="M28.201 6.69324C29.4981 6.67257 29.4981 6.67257 29.8876 6.69324C30.4119 7.21963 30.2729 8.52065 30.3356 9.23321C30.3565 9.45258 30.3774 9.67195 30.399 9.89797C30.4177 10.1064 30.4365 10.3149 30.4558 10.5297C30.4732 10.7223 30.4907 10.9149 30.5086 11.1134C30.5124 11.2613 30.5162 11.4092 30.5201 11.5615C30.3092 11.7732 30.3092 11.7732 29.8736 11.7939C29.6999 11.7914 29.5263 11.7889 29.3473 11.7864C29.1731 11.7845 28.9989 11.7826 28.8195 11.7806C28.6177 11.7769 28.6177 11.7769 28.4118 11.7732C28.2438 10.0746 28.1739 8.39999 28.201 6.69324Z" fill="white"/>
<path d="M12.176 51.1399C12.0789 52.1437 11.6875 52.6029 10.9901 53.3094C10.8135 53.4939 10.6368 53.6783 10.4548 53.8684C9.74651 54.3973 9.25503 54.4883 8.3812 54.5265C8.17037 54.3148 8.17037 54.3148 8.10449 53.8386C8.19337 53.0534 8.46751 52.761 9.01367 52.1982C10.1094 51.3899 10.8213 51.1097 12.176 51.1399Z" fill="white"/>
<path d="M28.8329 5C29.2677 5.0926 29.2677 5.0926 29.6762 5.21166C29.7458 5.49106 29.8153 5.77046 29.887 6.05832C29.5392 6.12817 29.1913 6.19802 28.8329 6.26999C28.7523 5.91944 28.6824 5.56629 28.6221 5.21166C28.6916 5.14182 28.7612 5.07197 28.8329 5Z" fill="white"/>
</svg>
