<svg width="150" height="54" viewBox="0 0 150 54" fill="none" xmlns="http://www.w3.org/2000/svg">
<path d="M41.4639 6.58808C41.5355 6.62427 41.6071 6.66047 41.681 6.69776C42.7667 7.25405 43.6777 7.91622 44.571 8.74808C44.6486 8.81755 44.7262 8.88702 44.8062 8.95859C45.7832 9.87757 46.5314 11.0356 47.1558 12.2176C47.1963 12.2943 47.2369 12.371 47.2786 12.45C47.4742 12.8339 47.6229 13.1746 47.6781 13.6081C47.765 13.5507 47.8519 13.4934 47.9414 13.4343C49.8806 12.1873 52.0113 11.7707 54.2891 12.2071C56.2209 12.643 57.8286 13.778 58.9281 15.4441C60.0125 17.4344 60.3279 19.6702 59.7141 21.8569C59.5987 22.2764 59.5157 22.5919 59.6781 23.0041C59.8866 23.2265 59.8866 23.2265 60.1536 23.4293C61.9249 24.9751 62.9015 27.3754 63.1067 29.7001C63.2755 32.4962 62.5955 35.2235 60.7496 37.3681C60.6845 37.4551 60.6195 37.5421 60.5524 37.6317C59.1245 39.3366 56.8872 40.2017 54.7496 40.5001C52.5016 40.6721 50.5851 40.3207 48.5353 39.4201C48.357 39.3474 48.1785 39.2751 47.9996 39.2041C47.9554 39.2577 47.9112 39.3113 47.8656 39.3665C46.4246 41.0752 44.5652 42.0883 42.3574 42.415C41.5966 42.4769 40.8335 42.4594 40.071 42.4441C40.0577 42.5332 40.0445 42.6223 40.0308 42.7141C39.7689 44.1927 39.1477 45.5367 38.1424 46.6561C38.0815 46.7274 38.0206 46.7986 37.9579 46.8721C36.6917 48.2594 34.8576 49.1268 32.9996 49.2481C30.8118 49.2865 28.952 48.5472 27.3507 47.0168C26.4416 46.0753 25.728 45.0612 25.4755 43.7526C25.3443 43.0605 25.3443 43.0605 24.8998 42.5479C24.678 42.4421 24.4524 42.3441 24.2239 42.2538C23.0886 41.7958 22.0714 40.6609 21.4281 39.6361C21.4281 39.5648 21.4281 39.4935 21.4281 39.4201C21.3261 39.4578 21.224 39.4955 21.1188 39.5344C20.9831 39.5841 20.8474 39.6337 20.7116 39.6833C20.6446 39.7082 20.5775 39.733 20.5084 39.7586C18.8808 40.3513 17.1115 40.1999 15.5478 39.4973C14.7945 39.1176 14.2008 38.6129 13.6067 38.0161C13.5042 37.9165 13.5042 37.9165 13.3995 37.8148C12.6173 36.9947 11.889 35.6943 11.8933 34.5275C11.9039 34.3546 11.9156 34.1817 11.9283 34.0088C12.0025 33.1845 12.0025 33.1845 11.6924 32.457C11.4108 32.27 11.1215 32.122 10.821 31.9681C8.43385 30.0517 7.09058 27.3289 6.74957 24.3001C6.56608 20.8552 7.37961 17.7882 9.67884 15.1572C11.7084 13.0086 14.4454 12.0255 17.3387 11.856C19.07 11.816 20.9342 12.0631 22.4996 12.8521C22.5262 12.7609 22.5529 12.6697 22.5803 12.5757C22.7262 12.1697 22.9157 11.8098 23.1357 11.4413C23.1986 11.3361 23.1986 11.3361 23.2627 11.2287C23.7226 10.4809 24.2697 9.82861 24.8567 9.18008C24.9256 9.1017 24.9945 9.02332 25.0656 8.94256C26.1699 7.75216 27.5694 6.9178 29.0353 6.26408C29.152 6.21201 29.2687 6.15994 29.3889 6.1063C33.1803 4.53573 37.8157 4.71505 41.4639 6.58808Z" fill="#009736"/>
<path d="M41.4646 6.58808C41.5362 6.62427 41.6079 6.66047 41.6817 6.69776C42.7674 7.25405 43.6784 7.91622 44.5717 8.74808C44.6882 8.85228 44.6882 8.85228 44.8069 8.95859C45.7839 9.87757 46.5322 11.0356 47.1565 12.2176C47.2173 12.3326 47.2173 12.3326 47.2794 12.45C47.4749 12.8339 47.6236 13.1746 47.6789 13.6081C47.8092 13.522 47.8092 13.522 47.9421 13.4343C49.8813 12.1873 52.012 11.7707 54.2898 12.2071C56.2216 12.643 57.8293 13.778 58.9289 15.4441C60.0132 17.4344 60.3287 19.6702 59.7148 21.8569C59.5994 22.2764 59.5164 22.5919 59.6789 23.0041C59.8873 23.2265 59.8873 23.2265 60.1543 23.4293C61.9257 24.9751 62.9023 27.3754 63.1074 29.7001C63.2762 32.4962 62.5962 35.2235 60.7503 37.3681C60.6852 37.4551 60.6202 37.5421 60.5532 37.6317C59.1252 39.3366 56.8879 40.2017 54.7503 40.5001C52.6378 40.6617 49.8336 40.5403 48.1074 39.0961C48.2534 38.7024 48.4317 38.3329 48.6236 37.9601C49.8799 35.5114 50.2264 32.888 49.3932 30.2401C48.638 27.9728 47.1929 26.3258 45.1342 25.1911C42.9935 24.1673 40.3434 23.918 38.0724 24.6026C37.5409 24.7949 37.0348 25.0047 36.536 25.2721C36.4011 25.3435 36.4011 25.3435 36.2635 25.4164C35.6489 25.7641 35.1438 26.1838 34.6317 26.6706C34.4179 26.8691 34.2003 27.0452 33.9646 27.2161C33.9071 27.1768 33.8497 27.1376 33.7905 27.0971C33.2214 26.7292 32.6464 26.4501 32.0159 26.2103C31.9447 26.1829 31.8735 26.1554 31.8002 26.1272C29.8538 25.4107 27.2228 25.5848 25.3526 26.4575C24.9309 26.6626 24.519 26.8831 24.1074 27.1081C23.9649 27.1808 23.8223 27.2532 23.6789 27.3241C22.8095 26.1921 22.265 24.9576 21.8307 23.6048C21.793 23.4893 21.793 23.4893 21.7547 23.3713C21.3222 21.9579 21.1546 20.5617 21.1677 19.0891C21.168 19.012 21.1683 18.9348 21.1686 18.8554C21.1759 17.5723 21.2887 16.3564 21.6432 15.1201C21.6732 15.0123 21.6732 15.0123 21.7039 14.9023C22.6374 11.6406 24.594 8.73311 27.5394 6.99999C28.0274 6.73049 28.5273 6.49094 29.036 6.26408C29.1527 6.21201 29.2694 6.15994 29.3897 6.1063C33.181 4.53573 37.8165 4.71505 41.4646 6.58808Z" fill="#E40004"/>
<path d="M57.3079 13.6262C58.8833 14.994 59.7503 16.718 59.9999 18.7921C60.0662 19.8602 60.0043 20.8241 59.7143 21.8569C59.599 22.2764 59.516 22.5919 59.6784 23.0041C59.8869 23.2265 59.8869 23.2265 60.1539 23.4293C61.9252 24.9751 62.9018 27.3754 63.107 29.7001C63.2758 32.4961 62.5958 35.2235 60.7499 37.3681C60.6523 37.4986 60.6523 37.4986 60.5527 37.6317C59.1248 39.3366 56.8875 40.2017 54.7499 40.5001C52.6373 40.6617 49.8332 40.5403 48.107 39.0961C48.253 38.7024 48.4312 38.3329 48.6232 37.9601C49.8795 35.5113 50.2259 32.888 49.3927 30.2401C48.6987 28.1564 47.4485 26.6579 45.6427 25.4881C45.5366 25.4168 45.4306 25.3455 45.3213 25.2721C45.474 24.7953 45.7296 24.4705 46.0646 24.1111C46.1163 24.0551 46.1679 23.999 46.2211 23.9413C47.6084 22.4678 47.6084 22.4678 48.3213 22.3561C48.8158 19.6099 48.717 16.6801 47.7571 14.0527C47.6784 13.8241 47.6784 13.8241 47.6784 13.6081C50.5 11.519 54.5028 11.494 57.3079 13.6262Z" fill="#ED7C04"/>
<path d="M22.2853 12.744C22.3914 12.8509 22.3914 12.8509 22.4996 12.96C22.4581 13.0634 22.4167 13.1669 22.374 13.2734C21.2044 16.2621 20.8087 19.7827 21.7496 22.896C21.776 22.9877 21.8024 23.0795 21.8297 23.174C22.2687 24.6803 22.873 25.9815 23.6781 27.324C23.546 27.4361 23.546 27.4361 23.4111 27.5505C21.5671 29.1604 20.433 31.236 20.2303 33.7162C20.1253 35.4851 20.3727 37.2545 21.1954 38.8332C21.321 39.096 21.321 39.096 21.321 39.42C21.1002 39.5083 20.8792 39.5959 20.658 39.6832C20.535 39.7321 20.4119 39.781 20.2851 39.8313C18.7538 40.3833 17.0007 40.1501 15.5478 39.4972C14.7945 39.1175 14.2008 38.6128 13.6067 38.016C13.5383 37.9496 13.47 37.8832 13.3995 37.8148C12.6173 36.9946 11.889 35.6942 11.8933 34.5275C11.9039 34.3545 11.9156 34.1816 11.9283 34.0088C12.0025 33.1844 12.0025 33.1844 11.6924 32.4569C11.4108 32.2699 11.1215 32.1219 10.821 31.968C8.43385 30.0516 7.09058 27.3288 6.74957 24.3C6.56608 20.8551 7.37961 17.7881 9.67884 15.1571C12.8348 11.8161 18.1177 10.9736 22.2853 12.744Z" fill="#149AD7"/>
<path d="M32.4708 26.264C32.5438 26.2971 32.6168 26.3301 32.692 26.3642C33.3107 26.6533 33.8584 27.0038 34.3927 27.4318C34.4579 27.48 34.523 27.5281 34.5902 27.5778C35.9733 28.6614 37.0788 30.7266 37.3635 32.4602C37.6571 35.1115 37.3346 37.8843 35.6439 40.0317C34.9949 40.8136 34.3071 41.4946 33.4284 42.0118C33.3332 42.0679 33.2381 42.124 33.14 42.1818C30.9708 43.3629 28.3457 43.7024 25.9753 42.9973C25.7929 42.9371 25.7929 42.9371 25.607 42.8758C25.5009 42.8446 25.3948 42.8134 25.2855 42.7813C23.4532 42.1936 22.0024 40.7417 21.1312 39.0511C19.9855 36.6817 19.7612 33.9045 20.6148 31.4046C21.4388 29.153 22.9717 27.4837 25.1047 26.426C27.3323 25.4698 30.2218 25.2232 32.4708 26.264Z" fill="#F5CF6A"/>
<path d="M107.036 14.4722C108.415 14.4722 109.794 14.4722 111.215 14.4722C111.25 16.5749 111.285 18.6777 111.322 20.8442C111.569 20.559 111.817 20.2739 112.072 19.9802C112.406 19.715 112.763 19.5243 113.143 19.3322C113.228 19.2873 113.312 19.2425 113.399 19.1963C114.54 18.6804 116.055 18.706 117.228 19.1094C118.385 19.641 119.246 20.577 119.722 21.7563C120.325 23.4313 120.352 25.0522 120.343 26.8133C120.342 27.0437 120.342 27.2742 120.342 27.5046C120.341 28.1067 120.339 28.7087 120.337 29.3108C120.334 29.9269 120.333 30.5431 120.332 31.1592C120.33 32.3649 120.326 33.5705 120.322 34.7762C118.943 34.7762 117.564 34.7762 116.143 34.7762C116.138 34.1039 116.133 33.4316 116.127 32.7389C116.124 32.3112 116.12 31.8835 116.116 31.4558C116.109 30.778 116.103 30.1002 116.098 29.4223C116.094 28.8754 116.089 28.3285 116.083 27.7816C116.082 27.5737 116.08 27.3658 116.079 27.1579C116.096 24.9814 116.096 24.9814 115.286 23.0042C114.735 22.5397 114.298 22.4299 113.588 22.4405C112.969 22.504 112.393 22.7655 111.965 23.2202C111.448 24.0914 111.307 24.8145 111.3 25.8136C111.299 25.9106 111.298 26.0075 111.297 26.1075C111.293 26.4271 111.291 26.7468 111.288 27.0664C111.286 27.2884 111.283 27.5104 111.281 27.7324C111.275 28.316 111.27 28.8996 111.265 29.4832C111.259 30.079 111.253 30.6748 111.248 31.2706C111.236 32.4391 111.225 33.6076 111.215 34.7762C109.836 34.7762 108.457 34.7762 107.036 34.7762C107.036 28.0758 107.036 21.3755 107.036 14.4722Z" fill="#E3E3E3"/>
<path d="M78.857 19.2241C80.236 19.2241 81.6149 19.2241 83.0356 19.2241C83.0396 19.8926 83.0436 20.5612 83.0477 21.25C83.051 21.6762 83.0543 22.1024 83.058 22.5287C83.0638 23.2036 83.0693 23.8785 83.0727 24.5535C83.0755 25.0983 83.0799 25.6431 83.0852 26.1879C83.087 26.3947 83.0882 26.6014 83.0889 26.8082C83.0498 29.1805 83.0498 29.1805 84.107 31.2121C84.6536 31.5551 85.1921 31.6425 85.8213 31.5361C86.5447 31.3081 86.9975 30.958 87.4117 30.3232C87.7274 29.5611 87.7819 28.7464 87.784 27.9292C87.7851 27.8343 87.7862 27.7393 87.7873 27.6415C87.7906 27.3318 87.7924 27.0221 87.7942 26.7124C87.7963 26.496 87.7983 26.2796 87.8005 26.0633C87.806 25.4969 87.8103 24.9305 87.8143 24.3641C87.8193 23.6829 87.8259 23.0017 87.8322 22.3204C87.8417 21.2883 87.8492 20.2562 87.857 19.2241C89.236 19.2241 90.6149 19.2241 92.0356 19.2241C92.071 24.3563 92.1063 29.4884 92.1427 34.7761C90.9406 34.7761 89.7385 34.7761 88.4999 34.7761C88.3938 34.2059 88.2877 33.6356 88.1785 33.0481C88.0304 33.2107 87.8823 33.3733 87.7298 33.5409C86.7327 34.5459 85.5271 35.1183 84.1122 35.1357C83.9837 35.1348 83.9837 35.1348 83.8526 35.1339C83.7628 35.1333 83.673 35.1327 83.5805 35.132C82.3813 35.1083 81.3774 34.7518 80.4671 33.9395C79.1456 32.5314 78.8374 30.6026 78.8449 28.7385C78.8448 28.6351 78.8448 28.5317 78.8448 28.4253C78.8449 28.0863 78.8457 27.7474 78.8466 27.4085C78.8468 27.1724 78.8469 26.9364 78.847 26.7003C78.8474 26.081 78.8485 25.4617 78.8497 24.8425C78.8508 24.2097 78.8513 23.577 78.8518 22.9442C78.8529 21.7042 78.8548 20.4642 78.857 19.2241Z" fill="#E3E3E3"/>
<path d="M132.831 20.1088C134.038 21.2411 134.627 22.8341 134.694 24.481C134.696 24.6306 134.698 24.7802 134.699 24.9298C134.7 25.0533 134.7 25.0533 134.701 25.1792C134.703 25.3572 134.705 25.5353 134.706 25.7133C134.708 25.997 134.711 26.2806 134.714 26.5643C134.721 27.1686 134.726 27.7728 134.732 28.3771C134.738 29.0737 134.745 29.7702 134.752 30.4668C134.755 30.7428 134.757 31.0187 134.76 31.2947C134.771 32.4584 134.821 33.6145 134.892 34.7761C133.655 34.7761 132.417 34.7761 131.142 34.7761C131.036 34.3128 130.93 33.8495 130.821 33.3721C130.715 33.4857 130.609 33.5993 130.5 33.7163C129.387 34.8315 128.062 35.1327 126.537 35.1341C125.329 35.1134 124.339 34.7188 123.428 33.9121C122.358 32.7796 122.011 31.4888 122.044 29.9368C122.177 28.5184 122.736 27.3377 123.78 26.3715C125.655 24.8565 128.149 24.4117 130.5 24.5161C130.304 23.2814 130.304 23.2814 129.535 22.3561C128.513 21.7464 127.073 21.9391 125.966 22.2143C125.264 22.4011 124.608 22.6682 123.964 23.0041C123.165 20.9908 123.165 20.9908 123.214 20.0881C126.054 18.746 130.171 17.9812 132.831 20.1088ZM126.706 28.4214C126.221 28.9856 126.161 29.5594 126.183 30.2781C126.256 30.9585 126.54 31.4248 127.071 31.8601C127.728 32.1624 128.316 32.1495 128.993 31.9208C129.607 31.6553 130.027 31.2308 130.392 30.6721C130.571 30.2145 130.633 29.837 130.628 29.3466C130.627 29.1597 130.627 29.1597 130.626 28.969C130.624 28.8405 130.622 28.712 130.62 28.5796C130.619 28.4486 130.618 28.3176 130.617 28.1826C130.615 27.8604 130.611 27.5383 130.607 27.2161C129.222 27.2048 127.734 27.4167 126.706 28.4214Z" fill="#E3E3E3"/>
<path d="M44.2499 24.7321C44.3547 24.7657 44.4595 24.7992 44.5675 24.8338C46.6662 25.5791 48.1322 27.3025 49.0944 29.2479C50.1788 31.54 50.2069 34.1318 49.3978 36.5148C49.067 37.4336 48.6143 38.2655 48.107 39.0961C48.0716 39.0249 48.0363 38.9536 47.9999 38.8801C47.9229 38.8517 47.846 38.8233 47.7667 38.7941C46.2234 38.1314 45.1034 36.233 44.4857 34.7424C43.8868 33.2351 43.6984 31.7484 43.607 30.1321C43.5121 30.2001 43.4172 30.268 43.3195 30.338C41.6046 31.5417 39.4374 32.77 37.2856 32.7241C37.2541 32.5788 37.2541 32.5788 37.222 32.4305C36.8632 30.9217 36.2641 29.5846 35.2499 28.4041C35.1791 28.3084 35.1084 28.2126 35.0356 28.1139C34.7455 27.7758 34.414 27.4985 34.0713 27.2161C35.0271 26.036 36.0874 25.2494 37.4999 24.7051C37.5684 24.6785 37.637 24.6519 37.7077 24.6245C39.8077 23.8515 42.1644 24.0058 44.2499 24.7321Z" fill="#277D2D"/>
<path d="M69.7496 14.9038C71.0932 14.9038 72.4367 14.9038 73.821 14.9038C73.821 16.3294 73.821 17.755 73.821 19.2238C74.9524 19.2238 76.0839 19.2238 77.2496 19.2238C77.2496 20.2574 77.2496 21.2909 77.2496 22.3558C76.1182 22.3558 74.9867 22.3558 73.821 22.3558C73.8339 23.6374 73.8339 23.6374 73.8486 24.9189C73.8551 25.4422 73.8613 25.9655 73.8662 26.4888C73.8702 26.9111 73.8752 27.3333 73.8808 27.7556C73.8828 27.916 73.8844 28.0765 73.8857 28.237C73.8471 29.7141 73.8471 29.7141 74.3835 31.0431C74.8647 31.4951 75.2801 31.561 75.9295 31.5539C76.2995 31.527 76.6672 31.4742 77.0353 31.4278C77.0353 32.5326 77.0353 33.6375 77.0353 34.7758C75.2628 35.1656 73.2151 35.4983 71.5844 34.4788C70.4755 33.6582 69.9749 32.5584 69.7496 31.2118C69.6952 30.5256 69.712 29.8358 69.7182 29.148C69.7188 28.9513 69.7192 28.7546 69.7196 28.5579C69.7208 28.0444 69.7239 27.531 69.7275 27.0175C69.7308 26.4919 69.7323 25.9662 69.7339 25.4406C69.7373 24.4123 69.743 23.3841 69.7496 22.3558C69.0778 22.3558 68.406 22.3558 67.7139 22.3558C67.7139 21.3222 67.7139 20.2887 67.7139 19.2238C68.3857 19.2238 69.0574 19.2238 69.7496 19.2238C69.7496 17.7982 69.7496 16.3726 69.7496 14.9038Z" fill="#E3E3E3"/>
<path d="M33.964 27.3242C34.6965 27.4126 35.1913 28.1157 35.618 28.6607C37.2783 30.9713 37.7283 33.5129 37.3009 36.3275C36.915 38.4355 35.6811 40.4161 33.964 41.6815C33.7877 41.7955 33.6091 41.9058 33.4282 42.0122C33.3331 42.0683 33.2379 42.1244 33.1399 42.1822C30.9368 43.3817 28.3294 43.6822 25.9266 42.9813C25.7126 42.911 25.4989 42.84 25.2854 42.7682C25.1921 40.7805 25.5897 38.9825 26.9327 37.4492C27.0969 37.2773 27.2621 37.1063 27.4282 36.9362C27.5387 36.8113 27.5387 36.8113 27.6513 36.6839C28.7694 35.4587 30.3034 34.7693 31.9282 34.5602C31.926 34.4952 31.9238 34.4301 31.9214 34.363C31.847 31.8611 32.1442 29.5589 33.7497 27.5402C33.8204 27.4689 33.8911 27.3977 33.964 27.3242Z" fill="#E9CE6A"/>
<path d="M105.429 19.44C105.342 19.899 105.255 20.358 105.168 20.817C105.143 20.9473 105.118 21.0776 105.093 21.2118C105.069 21.3371 105.045 21.4624 105.021 21.5915C104.999 21.7069 104.977 21.8223 104.955 21.9412C104.905 22.1898 104.85 22.4347 104.786 22.68C104.723 22.6656 104.659 22.6513 104.594 22.6365C104.509 22.6174 104.425 22.5984 104.337 22.5787C104.254 22.5599 104.171 22.5411 104.085 22.5218C103.998 22.5027 103.911 22.4836 103.822 22.464C103.741 22.4445 103.66 22.425 103.576 22.4049C102.341 22.1965 101.096 22.2641 100.027 22.9559C99.0883 23.6953 98.5358 24.8811 98.3797 26.0588C98.261 27.6277 98.4409 29.2126 99.4561 30.4758C100.247 31.3052 101.265 31.6308 102.389 31.6912C103.232 31.6674 104.079 31.4079 104.893 31.212C105.035 32.2812 105.176 33.3504 105.322 34.452C102.878 35.273 100.302 35.4717 97.8984 34.3853C97.4508 34.1555 97.0447 33.8913 96.6432 33.588C96.5798 33.5431 96.5164 33.4983 96.4511 33.4521C95.0645 32.3839 94.3295 30.5182 94.0718 28.836C93.7935 26.4244 94.0342 23.8294 95.5789 21.8573C95.818 21.5815 96.0655 21.3196 96.3218 21.06C96.393 20.9844 96.4643 20.9088 96.5377 20.8309C98.7574 18.6404 102.642 18.2911 105.429 19.44Z" fill="#E3E3E3"/>
<path d="M57.3082 13.6262C58.8836 14.994 59.7506 16.718 60.0001 18.7921C60.0872 20.1927 59.9051 21.4555 59.4644 22.7881C59.1588 22.7221 58.9157 22.6277 58.6445 22.4721C58.5709 22.4307 58.4972 22.3894 58.4214 22.3468C58.3435 22.3031 58.2656 22.2594 58.1854 22.2143C55.8562 20.9436 53.0215 20.6662 50.4644 21.3841C49.9166 21.5716 49.3873 21.7985 48.8573 22.0321C48.6789 22.1045 48.5003 22.1766 48.3216 22.2481C48.3441 22.1012 48.3441 22.1012 48.367 21.9514C48.5098 20.9601 48.5773 19.9912 48.576 18.9878C48.576 18.9156 48.5761 18.8435 48.5761 18.7691C48.5719 17.1193 48.3235 15.6023 47.7574 14.0527C47.6787 13.8241 47.6787 13.8241 47.6787 13.6081C50.5003 11.519 54.5031 11.494 57.3082 13.6262Z" fill="#7D66AA"/>
<path d="M22.1785 28.4042C22.2315 28.5112 22.2315 28.5112 22.2856 28.6202C22.2157 28.7184 22.1458 28.8165 22.0738 28.9177C20.5067 31.1679 19.9114 33.6474 20.3713 36.3747C20.539 37.2601 20.7783 38.0325 21.1958 38.8334C21.3213 39.0962 21.3213 39.0962 21.3213 39.4202C21.1005 39.5085 20.8795 39.5962 20.6584 39.6835C20.5353 39.7324 20.4122 39.7812 20.2855 39.8316C18.7541 40.3835 17.001 40.1503 15.5482 39.4974C14.7948 39.1178 14.2011 38.613 13.607 38.0162C13.5387 37.9498 13.4703 37.8834 13.3999 37.815C12.2962 36.658 11.8414 35.1646 11.8467 33.5959C11.8912 31.8634 12.7465 30.3599 13.9017 29.1197C16.2714 26.8681 19.4845 26.5742 22.1785 28.4042Z" fill="#6876B6"/>
<path d="M35.143 40.5C35.1952 40.5302 35.2474 40.5604 35.3012 40.5915C36.4664 41.2557 37.5676 41.8654 38.893 42.12C39.0058 42.142 39.1186 42.164 39.2349 42.1867C39.5134 42.239 39.7921 42.2889 40.0715 42.336C39.816 44.5039 38.7431 46.2675 37.095 47.6651C35.4392 48.911 33.5612 49.4395 31.5067 49.1759C29.4377 48.84 27.7103 47.6344 26.4447 45.9721C25.8162 45.0416 25.2496 43.9171 25.2858 42.768C25.4913 42.8148 25.4913 42.8148 25.701 42.8625C25.8838 42.9041 26.0669 42.9443 26.2501 42.984C26.3265 43.0019 26.4029 43.0199 26.4816 43.0384C28.1515 43.4096 29.8832 43.3131 31.5001 42.768C31.6232 42.7276 31.7462 42.6873 31.873 42.6457C33.1683 42.1834 34.1563 41.4514 35.143 40.5Z" fill="#4BBCEA"/>
<path d="M22.3932 12.96C23.7643 13.1353 25.0103 14.375 25.9289 15.336C26.0592 15.4719 26.0592 15.4719 26.1921 15.6106C27.2242 16.7858 28.009 18.3538 28.3931 19.872C28.4248 19.9829 28.4564 20.0939 28.489 20.2082C28.7163 21.132 28.7447 22.0284 28.7481 22.977C28.7486 23.0997 28.7492 23.2224 28.7498 23.3489C28.7434 24.123 28.658 24.8383 28.5003 25.596C28.9246 25.596 29.3489 25.596 29.786 25.596C29.786 25.6316 29.786 25.6672 29.786 25.704C29.7268 25.705 29.6676 25.706 29.6067 25.707C27.526 25.7513 25.9379 26.1075 24.1074 27.108C23.9649 27.1807 23.8223 27.2531 23.6789 27.324C22.8095 26.192 22.265 24.9575 21.8307 23.6047C21.8056 23.5277 21.7805 23.4506 21.7547 23.3712C21.3222 21.9578 21.1546 20.5616 21.1677 19.089C21.168 19.0118 21.1683 18.9347 21.1686 18.8552C21.1805 16.7646 21.6119 14.8925 22.3932 12.96Z" fill="#C11A28"/>
<path d="M45.2147 25.272C45.7313 25.4156 46.1175 25.6426 46.5339 25.974C46.5947 26.0222 46.6554 26.0704 46.718 26.1201C48.1203 27.2594 49.1175 28.8124 49.6076 30.564C49.6552 30.7306 49.6552 30.7306 49.7039 30.9006C50.3736 33.5824 49.7519 36.3046 48.3798 38.6463C48.2899 38.7967 48.1989 38.9465 48.1076 39.096C48.0722 39.0247 48.0369 38.9534 48.0005 38.88C47.8851 38.8374 47.8851 38.8374 47.7673 38.7939C46.224 38.1312 45.104 36.2329 44.4863 34.7422C43.403 32.0158 43.4845 29.1667 44.5719 26.46C44.7697 26.0531 44.9821 25.6596 45.2147 25.272Z" fill="#29922D"/>
<path d="M59.036 22.5718C59.236 22.7566 59.236 22.7566 59.3574 22.8958C58.8808 23.7949 58.3573 24.5494 57.6431 25.2718C57.5774 25.3405 57.5117 25.4093 57.4439 25.4802C56.0608 26.8207 54.0896 27.2881 52.2256 27.2666C50.4254 27.201 48.6375 26.5902 47.3574 25.2718C47.4639 24.9116 47.5712 24.5516 47.6789 24.1918C47.7329 24.0109 47.7329 24.0109 47.7881 23.8264C47.825 23.7042 47.8618 23.582 47.8998 23.456C47.9342 23.3417 47.9686 23.2274 48.004 23.1097C48.0382 23.0034 48.0723 22.8972 48.1074 22.7878C48.1335 22.6928 48.1596 22.5979 48.1865 22.5001C48.5071 21.9018 49.4242 21.621 50.0497 21.4177C50.5406 21.2759 51.0356 21.1618 51.536 21.0598C51.637 21.0389 51.7379 21.018 51.8419 20.9965C54.3942 20.6577 56.8504 21.2165 59.036 22.5718Z" fill="#DA781F"/>
<path d="M12.0001 32.7241C12.4654 32.8729 12.9055 33.0542 13.3528 33.2506C15.5134 34.1372 17.8484 34.21 20.1429 33.9121C20.1493 34.0074 20.1493 34.0074 20.1558 34.1045C20.2739 35.7911 20.4546 37.3289 21.2194 38.8616C21.3215 39.0961 21.3215 39.0961 21.3215 39.4201C21.1008 39.5084 20.8797 39.596 20.6586 39.6834C20.5355 39.7322 20.4125 39.7811 20.2857 39.8314C18.7543 40.3834 17.0012 40.1502 15.5484 39.4973C14.795 39.1176 14.2013 38.6129 13.6072 38.0161C13.5389 37.9497 13.4705 37.8833 13.4001 37.8149C12.3438 36.7075 11.8495 35.2677 11.8729 33.7569C11.8729 33.669 11.873 33.581 11.8731 33.4905C11.8779 32.8473 11.8779 32.8473 12.0001 32.7241Z" fill="#7A6EAF"/>
<path d="M28.9753 25.6768C29.0986 25.676 29.2218 25.6752 29.3488 25.6743C30.4646 25.6769 31.4678 25.8008 32.4842 26.2776C32.5572 26.3107 32.6302 26.3439 32.7054 26.378C33.2247 26.6184 33.7069 26.8891 34.1784 27.2158C34.0856 27.3183 33.9928 27.4208 33.8972 27.5263C32.6433 29.0133 32.2594 30.7464 31.9284 32.6158C28.8087 32.2883 25.9528 30.2434 23.9999 27.8638C23.8565 27.6842 23.7136 27.5043 23.5713 27.3238C25.3256 26.2554 26.9056 25.6629 28.9753 25.6768Z" fill="#F8C15F"/>
<path d="M47.5718 13.8242C47.6425 13.8242 47.7132 13.8242 47.786 13.8242C48.6196 16.2715 49.3905 19.8654 48.3218 22.3562C48.1058 22.5868 47.9126 22.7143 47.632 22.8561C47.1154 23.1348 46.7108 23.574 46.286 23.9762C46.04 23.6655 45.8613 23.3585 45.6968 22.9975C45.6321 22.8586 45.6321 22.8586 45.5662 22.7169C45.1801 21.7025 45.0481 20.7758 45.0539 19.69C45.0545 19.5568 45.0551 19.4236 45.0558 19.2864C45.0992 17.0414 46.0099 15.3986 47.5718 13.8242Z" fill="#D2111F"/>
<path d="M37.2857 36.2881C38.6542 37.0518 39.4682 38.6288 39.9304 40.0824C40.1269 40.8229 40.0908 41.5753 40.0714 42.3361C38.2582 42.2317 36.7358 41.6444 35.25 40.6081C35.3917 40.2099 35.567 39.9056 35.8192 39.5686C36.4516 38.6732 36.7938 37.7232 37.0932 36.672C37.1786 36.3961 37.1786 36.3961 37.2857 36.2881Z" fill="#0C9D54"/>
<path d="M69.75 8.31592C71.0936 8.31592 72.4371 8.31592 73.8214 8.31592C73.8214 9.6346 73.8214 10.9533 73.8214 12.3119C72.4779 12.3119 71.1343 12.3119 69.75 12.3119C69.75 10.9932 69.75 9.67456 69.75 8.31592Z" fill="#E00714"/>
<path d="M108.75 39.4199C109.068 39.4199 109.386 39.4199 109.714 39.4199C109.714 40.7386 109.714 42.0573 109.714 43.4159C110.209 43.4159 110.704 43.4159 111.214 43.4159C111.214 42.0972 111.214 40.7786 111.214 39.4199C111.497 39.4199 111.78 39.4199 112.071 39.4199C112.071 40.7386 112.071 42.0573 112.071 43.4159C112.602 43.4159 113.132 43.4159 113.679 43.4159C113.679 42.0972 113.679 40.7786 113.679 39.4199C113.997 39.4199 114.315 39.4199 114.643 39.4199C114.645 40.0947 114.647 40.7695 114.649 41.4443C114.649 41.674 114.65 41.9038 114.651 42.1335C114.652 42.463 114.653 42.7924 114.653 43.1219C114.654 43.2253 114.654 43.3286 114.655 43.4352C114.655 43.5303 114.655 43.6254 114.655 43.7234C114.655 43.8076 114.655 43.8918 114.656 43.9785C114.643 44.1719 114.643 44.1719 114.536 44.2799C114.355 44.29 114.174 44.2926 113.992 44.2922C113.877 44.2922 113.761 44.2922 113.641 44.2922C113.452 44.2913 113.452 44.2913 113.26 44.2905C113.131 44.2903 113.003 44.2902 112.871 44.29C112.459 44.2894 112.048 44.288 111.636 44.2867C111.358 44.2861 111.08 44.2856 110.801 44.2852C110.118 44.2841 109.434 44.282 108.75 44.2799C108.75 42.6761 108.75 41.0723 108.75 39.4199Z" fill="#E3E3E3"/>
<path d="M75.214 39.4199C75.6029 39.4199 75.9919 39.4199 76.3926 39.4199C76.7495 40.2558 77.0683 41.0943 77.3603 41.9552C77.4674 42.3371 77.4674 42.3371 77.6783 42.6599C78.0672 41.5907 78.4561 40.5215 78.8569 39.4199C79.2458 39.4199 79.6347 39.4199 80.0354 39.4199C80.1943 40.0604 80.2126 40.7064 80.2564 41.3639C80.2662 41.5005 80.2759 41.6371 80.2859 41.7778C80.3427 42.6134 80.3699 43.4424 80.3569 44.2799C80.074 44.2799 79.7911 44.2799 79.4997 44.2799C79.3673 43.6057 79.3542 42.9308 79.3277 42.2461C79.3217 42.1064 79.3217 42.1064 79.3156 41.9638C79.3123 41.8797 79.3091 41.7956 79.3057 41.709C79.2886 41.4365 79.2886 41.4365 79.1783 41.0399C78.5949 42.5903 78.5949 42.5903 77.9997 44.1719C77.7169 44.1719 77.434 44.1719 77.1426 44.1719C76.789 43.1384 76.4354 42.1048 76.0711 41.0399C76.0004 42.1091 75.9297 43.1783 75.8569 44.2799C75.5386 44.2799 75.2204 44.2799 74.8926 44.2799C74.9986 42.6761 75.1047 41.0723 75.214 39.4199Z" fill="#E3E3E3"/>
<path d="M89.7859 39.7442C90.3642 40.3115 90.5535 40.9923 90.5827 41.7827C90.5608 42.5138 90.4121 43.1577 89.9382 43.7276C89.478 44.1601 89.0073 44.3896 88.3645 44.3874C87.8181 44.3454 87.6086 44.2594 87.1073 43.9562C87.0719 44.669 87.0366 45.3818 87.0001 46.1162C86.6819 46.1162 86.3637 46.1162 86.0359 46.1162C86.0005 43.9066 85.9651 41.6969 85.9287 39.4202C86.2469 39.4202 86.5651 39.4202 86.893 39.4202C86.9284 39.5628 86.9637 39.7054 87.0001 39.8522C87.0974 39.7832 87.1946 39.7141 87.2948 39.643C88.1255 39.1116 88.9867 39.197 89.7859 39.7442ZM87.4287 40.3922C87.0256 40.8809 86.93 41.2835 86.9399 41.9042C86.9373 41.9783 86.9348 42.0524 86.9321 42.1287C86.9333 42.5501 86.9994 42.8177 87.2584 43.1395C87.5968 43.477 87.7509 43.5431 88.2122 43.558C88.5631 43.5523 88.7059 43.5289 89.0225 43.3555C89.4815 42.8247 89.6289 42.2925 89.6021 41.6026C89.5354 41.0823 89.3612 40.7202 88.9957 40.3517C88.3946 39.9767 88.0451 40.042 87.4287 40.3922Z" fill="#E3E3E3"/>
<path d="M104.786 39.7438C105.283 40.1953 105.505 40.7129 105.568 41.3798C105.572 42.3936 105.464 43.1428 104.764 43.9039C104.276 44.3101 103.72 44.4222 103.099 44.3743C102.665 44.3209 102.522 44.2063 102.108 43.9558C102.072 44.6686 102.037 45.3814 102 46.1158C101.682 46.1158 101.364 46.1158 101.036 46.1158C101.036 43.9061 101.036 41.6964 101.036 39.4198C101.319 39.4198 101.602 39.4198 101.893 39.4198C101.929 39.598 101.964 39.7762 102 39.9598C102.146 39.8295 102.146 39.8295 102.295 39.6966C103.057 39.0644 104.008 39.1994 104.786 39.7438ZM102.429 40.3918C102.026 40.8804 101.93 41.283 101.94 41.9038C101.938 41.9779 101.935 42.0519 101.932 42.1282C101.934 42.5497 102 42.8172 102.259 43.1391C102.593 43.4721 102.75 43.544 103.206 43.5643C103.574 43.5601 103.792 43.5188 104.083 43.2876C104.575 42.7434 104.614 42.2555 104.599 41.5427C104.55 41.0168 104.365 40.7205 103.996 40.3581C103.399 39.9714 103.045 40.0416 102.429 40.3918Z" fill="#E3E3E3"/>
<path d="M69.321 37.584C69.6932 37.5239 70.0219 37.5053 70.3924 37.584C70.6974 37.8551 70.8535 38.1934 71.0353 38.556C71.1389 38.7462 71.2426 38.9364 71.3464 39.1265C71.4959 39.4026 71.6408 39.6812 71.7853 39.96C72.0007 39.6787 72.192 39.3953 72.3687 39.088C72.4155 39.007 72.4624 38.9261 72.5106 38.8426C72.5825 38.7175 72.5825 38.7175 72.6558 38.5897C72.7519 38.4227 72.8482 38.2558 72.9446 38.089C72.9869 38.0154 73.0292 37.9418 73.0727 37.8659C73.1782 37.692 73.1782 37.692 73.2853 37.584C73.4659 37.5762 73.6469 37.5749 73.8277 37.5772C73.9262 37.5782 74.0247 37.5792 74.1261 37.5802C74.2022 37.5814 74.2783 37.5827 74.3567 37.584C74.22 37.9527 74.0622 38.2754 73.8516 38.6066C73.7957 38.695 73.7398 38.7834 73.6823 38.8745C73.6242 38.9654 73.5661 39.0563 73.5063 39.15C73.3373 39.4164 73.1684 39.6828 73.0012 39.9503C72.8877 40.1276 72.7662 40.2997 72.642 40.4696C72.5094 40.7158 72.5094 40.7158 72.5788 41.0016C72.829 41.5324 73.1342 42.0223 73.446 42.5182C73.5097 42.6208 73.5734 42.7233 73.639 42.8289C73.8744 43.2074 74.1109 43.5843 74.3567 43.956C74.3567 44.0629 74.3567 44.1698 74.3567 44.28C73.9784 44.3552 73.6612 44.3761 73.2853 44.28C72.9434 43.9377 72.7414 43.5346 72.5219 43.1055C72.4603 42.994 72.3987 42.8825 72.3352 42.7676C71.8924 41.9546 71.8924 41.9546 71.8924 41.688C71.8217 41.688 71.751 41.688 71.6782 41.688C71.654 41.7565 71.6298 41.825 71.6049 41.8955C71.4088 42.3577 71.1653 42.789 70.9215 43.227C70.8722 43.3164 70.823 43.4057 70.7723 43.4978C70.4071 44.1572 70.4071 44.1572 70.2853 44.28C69.9282 44.2954 69.5712 44.2845 69.2139 44.28C69.5881 43.4867 70.0153 42.7413 70.4795 41.9985C70.5435 41.8952 70.6075 41.7919 70.6735 41.6854C70.8294 41.434 70.9857 41.1829 71.1424 40.932C70.6829 40.0669 70.1999 39.2175 69.7076 38.3711C69.6327 38.2417 69.6327 38.2417 69.5562 38.1096C69.5109 38.0318 69.4657 37.954 69.419 37.8738C69.321 37.692 69.321 37.692 69.321 37.584Z" fill="#E3E3E3"/>
<path d="M133.494 39.3928C133.663 39.3936 133.663 39.3936 133.835 39.3945C134.662 39.4031 134.662 39.4031 134.786 39.5278C134.796 39.677 134.799 39.8267 134.798 39.9762C134.798 40.0714 134.798 40.1665 134.798 40.2645C134.798 40.3679 134.797 40.4713 134.796 40.5778C134.796 40.6831 134.796 40.7885 134.796 40.897C134.795 41.2348 134.794 41.5727 134.793 41.9105C134.792 42.139 134.792 42.3674 134.791 42.5959C134.79 43.1572 134.788 43.7185 134.786 44.2798C134.468 44.2798 134.15 44.2798 133.822 44.2798C133.822 43.6026 133.822 42.9254 133.822 42.2278C133.543 42.2645 133.543 42.2645 133.259 42.302C133.155 42.3158 133.05 42.3296 132.943 42.3438C132.55 42.4747 132.437 42.6362 132.215 42.9838C132.109 43.2075 132.01 43.435 131.92 43.6655C131.851 43.8386 131.851 43.8386 131.781 44.0153C131.73 44.1462 131.73 44.1462 131.679 44.2798C131.325 44.2798 130.972 44.2798 130.607 44.2798C130.638 44.2042 130.668 44.1286 130.699 44.0507C130.782 43.8405 130.864 43.6298 130.945 43.4187C130.988 43.3086 131.031 43.1985 131.076 43.085C131.119 42.9746 131.162 42.8642 131.206 42.7505C131.362 42.4355 131.527 42.2438 131.786 42.0118C131.733 41.9763 131.68 41.9408 131.626 41.9042C131.227 41.6062 130.987 41.3849 130.909 40.8778C130.898 40.5224 130.94 40.3659 131.083 40.0273C131.753 39.3353 132.594 39.3745 133.494 39.3928ZM132.107 40.2838C131.96 40.611 131.96 40.611 131.893 40.9318C132.363 41.4427 132.363 41.4427 133.016 41.5903C133.112 41.5891 133.207 41.5878 133.306 41.5865C133.476 41.5843 133.646 41.5821 133.822 41.5798C133.822 41.0808 133.822 40.5818 133.822 40.0678C133.638 40.0633 133.455 40.0589 133.266 40.0543C133.111 40.0505 133.111 40.0505 132.953 40.0467C132.623 40.0692 132.399 40.1264 132.107 40.2838Z" fill="#E3E3E3"/>
<path d="M84.1261 39.5942C84.4792 39.8655 84.6288 40.1897 84.7495 40.6079C84.8162 41.2377 84.8243 41.8649 84.8299 42.4979C84.8329 42.6708 84.8361 42.8438 84.8395 43.0168C84.8474 43.4378 84.8527 43.8588 84.8567 44.2799C84.5738 44.2799 84.291 44.2799 83.9995 44.2799C83.9288 44.1373 83.8581 43.9947 83.7852 43.8479C83.6825 43.9514 83.6825 43.9514 83.5777 44.0571C83.1473 44.3493 82.8 44.4103 82.2852 44.3879C81.8539 44.2959 81.5293 44.1692 81.2205 43.8479C80.9807 43.3928 80.9319 42.9499 80.9995 42.4439C81.2852 41.868 81.6681 41.5121 82.2727 41.2896C82.7836 41.1442 83.2564 41.1288 83.7852 41.1479C83.6913 40.6354 83.6913 40.6354 83.3902 40.2366C82.7361 40.0762 82.1662 40.2133 81.5352 40.3919C81.4645 40.178 81.3938 39.9642 81.321 39.7439C82.2025 39.2794 83.2194 39.0306 84.1261 39.5942ZM82.1647 42.2481C81.9289 42.5453 81.9289 42.5453 81.9571 42.9434C82.0449 43.3027 82.0449 43.3027 82.2451 43.5239C82.6247 43.685 82.8563 43.6351 83.2495 43.5239C83.5863 43.3375 83.5863 43.3375 83.7852 42.9839C83.8288 42.5837 83.8166 42.1966 83.7852 41.7959C83.1779 41.7959 82.6663 41.8942 82.1647 42.2481Z" fill="#E3E3E3"/>
<path d="M125.893 39.4199C126.211 39.4199 126.529 39.4199 126.857 39.4199C126.857 40.0614 126.857 40.703 126.857 41.3639C127.564 41.3639 128.271 41.3639 129 41.3639C129 40.7224 129 40.0809 129 39.4199C129.318 39.4199 129.636 39.4199 129.964 39.4199C129.964 41.0237 129.964 42.6275 129.964 44.2799C129.646 44.2799 129.328 44.2799 129 44.2799C129 43.5671 129 42.8543 129 42.1199C128.293 42.1199 127.585 42.1199 126.857 42.1199C126.857 42.8327 126.857 43.5455 126.857 44.2799C126.539 44.2799 126.22 44.2799 125.893 44.2799C125.893 42.6761 125.893 41.0723 125.893 39.4199Z" fill="#E3E3E3"/>
<path d="M91.5 39.4199C91.8182 39.4199 92.1364 39.4199 92.4643 39.4199C92.4643 40.0614 92.4643 40.703 92.4643 41.3639C93.1361 41.3639 93.8079 41.3639 94.5 41.3639C94.5 40.7224 94.5 40.0809 94.5 39.4199C94.8182 39.4199 95.1364 39.4199 95.4643 39.4199C95.4643 41.0237 95.4643 42.6275 95.4643 44.2799C95.1461 44.2799 94.8279 44.2799 94.5 44.2799C94.5 43.5671 94.5 42.8543 94.5 42.1199C93.8282 42.1199 93.1564 42.1199 92.4643 42.1199C92.4685 42.7904 92.4685 42.7904 92.4739 43.4608C92.4742 43.5439 92.4745 43.6269 92.4747 43.7125C92.4753 43.7979 92.4759 43.8833 92.4764 43.9713C92.4643 44.1719 92.4643 44.1719 92.3571 44.2799C92.0743 44.2799 91.7914 44.2799 91.5 44.2799C91.5 42.6761 91.5 41.0723 91.5 39.4199Z" fill="#E3E3E3"/>
<path d="M118.928 39.636C119.535 40.1168 119.667 40.6482 119.772 41.3995C119.785 41.688 119.785 41.688 119.678 42.012C118.618 42.012 117.557 42.012 116.464 42.012C116.69 42.9357 116.69 42.9357 117.107 43.308C117.464 43.4279 117.736 43.4304 118.111 43.4295C118.232 43.4298 118.352 43.4301 118.475 43.4304C118.783 43.4176 119.058 43.3791 119.357 43.308C119.41 43.6823 119.41 43.6823 119.464 44.064C118.607 44.4432 117.669 44.4958 116.785 44.172C116.196 43.847 115.827 43.4898 115.58 42.8558C115.392 41.8932 115.463 41.0531 115.928 40.176C116.699 39.2335 117.883 39.0311 118.928 39.636ZM116.678 40.608C116.49 40.9013 116.464 41.0092 116.464 41.364C117.242 41.364 118.02 41.364 118.821 41.364C118.719 40.7487 118.682 40.6002 118.285 40.176C117.603 39.8323 117.152 40.12 116.678 40.608Z" fill="#E3E3E3"/>
<path d="M120.643 39.4199C120.961 39.4199 121.279 39.4199 121.607 39.4199C121.607 40.0614 121.607 40.703 121.607 41.3639C122.314 41.3639 123.021 41.3639 123.75 41.3639C123.75 40.7224 123.75 40.0809 123.75 39.4199C124.033 39.4199 124.315 39.4199 124.607 39.4199C124.607 41.0237 124.607 42.6275 124.607 44.2799C124.324 44.2799 124.041 44.2799 123.75 44.2799C123.75 43.5671 123.75 42.8543 123.75 42.1199C123.043 42.1199 122.335 42.1199 121.607 42.1199C121.607 42.8327 121.607 43.5455 121.607 44.2799C121.289 44.2799 120.97 44.2799 120.643 44.2799C120.643 42.6761 120.643 41.0723 120.643 39.4199Z" fill="#E3E3E3"/>
<path d="M48.107 22.356C48.2816 22.7904 48.1373 23.1544 47.9999 23.5777C47.9761 23.6527 47.9524 23.7278 47.928 23.8051C47.6626 24.6137 47.3049 25.3748 46.9284 26.136C46.5181 26.066 46.229 25.871 45.8838 25.6432C45.7255 25.5394 45.7255 25.5394 45.564 25.4335C45.4839 25.3802 45.4038 25.3269 45.3213 25.272C45.4741 24.7952 45.7296 24.4705 46.0646 24.111C46.1161 24.0549 46.1676 23.9989 46.2207 23.9412C46.7691 23.3574 47.3901 22.7173 48.107 22.356Z" fill="#E86707"/>
<path d="M106.5 39.4199C106.818 39.4199 107.136 39.4199 107.464 39.4199C107.464 41.0237 107.464 42.6275 107.464 44.2799C107.146 44.2799 106.828 44.2799 106.5 44.2799C106.5 42.6761 106.5 41.0723 106.5 39.4199Z" fill="#E3E3E3"/>
<path d="M96.75 39.4199C97.0682 39.4199 97.3864 39.4199 97.7143 39.4199C97.7143 41.0237 97.7143 42.6275 97.7143 44.2799C97.3961 44.2799 97.0779 44.2799 96.75 44.2799C96.75 42.6761 96.75 41.0723 96.75 39.4199Z" fill="#E3E3E3"/>
<path d="M107.464 37.6922C107.499 37.9417 107.535 38.1912 107.571 38.4482C107.39 38.617 107.39 38.617 107.143 38.7722C106.781 38.7462 106.651 38.7087 106.393 38.4482C106.419 38.0635 106.419 38.0635 106.5 37.6922C106.829 37.5265 107.111 37.6328 107.464 37.6922Z" fill="#E3E3E3"/>
<path d="M97.4997 37.5842C97.7006 37.7057 97.7006 37.7057 97.8211 37.9082C97.8078 38.239 97.8078 38.239 97.714 38.5562C97.3926 38.7722 97.3926 38.7722 97.118 38.7452C96.8569 38.6642 96.8569 38.6642 96.6426 38.4482C96.6694 38.0635 96.6694 38.0635 96.7497 37.6922C97.0228 37.5546 97.1969 37.5545 97.4997 37.5842Z" fill="#E3E3E3"/>
</svg>
