<svg width="26" height="14" viewBox="0 0 26 14"  xmlns="http://www.w3.org/2000/svg">
<rect x="0.5" y="0.5" width="24" height="12" rx="5.5" stroke="currentColor"  stroke-width="1"/>
<path d="M13 2L13.7538 3.94153L15.3236 2.57272L15.0888 4.64219L17.1149 4.15968L15.9453 5.88299L17.9635 6.39732L16.127 7.37969L17.6751 8.77302L15.5924 8.7894L16.3156 10.7426L14.4639 9.78919L14.1966 11.8547L13 10.15L11.8034 11.8547L11.5361 9.78919L9.68439 10.7426L10.4076 8.7894L8.32492 8.77302L9.87297 7.37969L8.03646 6.39732L10.0547 5.88299L8.88508 4.15968L10.9112 4.64219L10.6764 2.57272L12.2462 3.94153L13 2Z  " fill="currentColor" />
</svg>
 

