<svg width="37" height="37" viewBox="0 0 37 37" fill="none" xmlns="http://www.w3.org/2000/svg">
<path d="M0.616 8.6C0.616 7.192 0.872 5.96533 1.384 4.92C1.91733 3.896 2.67467 3.04267 3.656 2.36C4.63733 1.69867 5.84267 1.208 7.272 0.888C8.70133 0.568 10.3333 0.408 12.168 0.408C13.9813 0.408 15.6027 0.568 17.032 0.888C18.4827 1.208 19.6987 1.69867 20.68 2.36C21.6613 3.04267 22.408 3.896 22.92 4.92C23.4533 5.96533 23.72 7.192 23.72 8.6C23.72 10.008 23.4533 11.224 22.92 12.248C22.408 13.2933 21.6613 14.1467 20.68 14.808C19.6987 15.4907 18.4827 15.992 17.032 16.312C15.6027 16.632 13.9813 16.792 12.168 16.792C10.3333 16.792 8.70133 16.632 7.272 16.312C5.84267 15.992 4.63733 15.4907 3.656 14.808C2.67467 14.1467 1.91733 13.2933 1.384 12.248C0.872 11.224 0.616 10.008 0.616 8.6ZM3.56 8.6C3.56 10.2213 4.15733 11.3733 5.352 12.056C6.568 12.76 8.2 13.112 10.248 13.112H14.088C16.136 13.112 17.7573 12.76 18.952 12.056C20.168 11.3733 20.776 10.2213 20.776 8.6C20.776 7.78933 20.616 7.096 20.296 6.52C19.9973 5.944 19.5493 5.47467 18.952 5.112C18.376 4.74933 17.672 4.48267 16.84 4.312C16.0293 4.16267 15.112 4.088 14.088 4.088H10.248C9.224 4.088 8.296 4.16267 7.464 4.312C6.65333 4.48267 5.94933 4.74933 5.352 5.112C4.776 5.47467 4.328 5.944 4.008 6.52C3.70933 7.096 3.56 7.78933 3.56 8.6ZM10.28 8.6C10.28 7.85333 10.4293 7.33067 10.728 7.032C11.0267 6.75467 11.3893 6.616 11.816 6.616H12.52C12.9467 6.616 13.3093 6.75467 13.608 7.032C13.9067 7.33067 14.056 7.85333 14.056 8.6C14.056 9.34667 13.9067 9.85867 13.608 10.136C13.3093 10.4347 12.9467 10.584 12.52 10.584H11.816C11.3893 10.584 11.0267 10.4347 10.728 10.136C10.4293 9.85867 10.28 9.34667 10.28 8.6ZM1 21.6435H3.976V27.9155H20.712V27.6595L15.176 22.4755L17.16 20.2675L23.336 25.9635V31.4995H3.976V36.9075H1V21.6435Z" fill="currentColor"/>
</svg>