<svg width="37" height="36" viewBox="0 0 37 36" fill="none" xmlns="http://www.w3.org/2000/svg">
<path d="M0.616 8.6C0.616 7.192 0.872 5.96533 1.384 4.92C1.91733 3.896 2.67467 3.04267 3.656 2.36C4.63733 1.69867 5.84267 1.208 7.272 0.888C8.70133 0.568 10.3333 0.408 12.168 0.408C13.9813 0.408 15.6027 0.568 17.032 0.888C18.4827 1.208 19.6987 1.69867 20.68 2.36C21.6613 3.04267 22.408 3.896 22.92 4.92C23.4533 5.96533 23.72 7.192 23.72 8.6C23.72 10.008 23.4533 11.224 22.92 12.248C22.408 13.2933 21.6613 14.1467 20.68 14.808C19.6987 15.4907 18.4827 15.992 17.032 16.312C15.6027 16.632 13.9813 16.792 12.168 16.792C10.3333 16.792 8.70133 16.632 7.272 16.312C5.84267 15.992 4.63733 15.4907 3.656 14.808C2.67467 14.1467 1.91733 13.2933 1.384 12.248C0.872 11.224 0.616 10.008 0.616 8.6ZM3.56 8.6C3.56 10.2213 4.15733 11.3733 5.352 12.056C6.568 12.76 8.2 13.112 10.248 13.112H14.088C16.136 13.112 17.7573 12.76 18.952 12.056C20.168 11.3733 20.776 10.2213 20.776 8.6C20.776 7.78933 20.616 7.096 20.296 6.52C19.9973 5.944 19.5493 5.47467 18.952 5.112C18.376 4.74933 17.672 4.48267 16.84 4.312C16.0293 4.16267 15.112 4.088 14.088 4.088H10.248C9.224 4.088 8.296 4.16267 7.464 4.312C6.65333 4.48267 5.94933 4.74933 5.352 5.112C4.776 5.47467 4.328 5.944 4.008 6.52C3.70933 7.096 3.56 7.78933 3.56 8.6ZM10.28 8.6C10.28 7.85333 10.4293 7.33067 10.728 7.032C11.0267 6.75467 11.3893 6.616 11.816 6.616H12.52C12.9467 6.616 13.3093 6.75467 13.608 7.032C13.9067 7.33067 14.056 7.85333 14.056 8.6C14.056 9.34667 13.9067 9.85867 13.608 10.136C13.3093 10.4347 12.9467 10.584 12.52 10.584H11.816C11.3893 10.584 11.0267 10.4347 10.728 10.136C10.4293 9.85867 10.28 9.34667 10.28 8.6ZM14.12 27.4995C14.12 28.9288 14.4187 29.9848 15.016 30.6675C15.6347 31.3715 16.4027 31.7235 17.32 31.7235H17.544C18.568 31.7235 19.3467 31.3822 19.88 30.6995C20.4347 30.0382 20.712 29.1422 20.712 28.0115C20.712 26.9235 20.4667 25.9955 19.976 25.2275C19.4853 24.4808 18.8133 23.8515 17.96 23.3395L20.04 20.9075C20.5307 21.2488 21 21.6435 21.448 22.0915C21.896 22.5395 22.28 23.0515 22.6 23.6275C22.9413 24.2035 23.208 24.8648 23.4 25.6115C23.6133 26.3582 23.72 27.2008 23.72 28.1395C23.72 29.1848 23.592 30.1555 23.336 31.0515C23.08 31.9475 22.696 32.7262 22.184 33.3875C21.6933 34.0488 21.0853 34.5608 20.36 34.9235C19.656 35.2862 18.856 35.4675 17.96 35.4675C17.256 35.4675 16.616 35.3502 16.04 35.1155C15.464 34.9022 14.952 34.5928 14.504 34.1875C14.0773 33.8035 13.7253 33.3448 13.448 32.8115C13.1707 32.2782 12.968 31.7128 12.84 31.1155H12.68C12.552 31.7555 12.3387 32.3635 12.04 32.9395C11.7627 33.5155 11.3893 34.0275 10.92 34.4755C10.472 34.9235 9.928 35.2755 9.288 35.5315C8.66933 35.7875 7.95467 35.9155 7.144 35.9155C6.16267 35.9155 5.26667 35.7235 4.456 35.3395C3.66667 34.9555 2.984 34.4008 2.408 33.6755C1.832 32.9715 1.384 32.1182 1.064 31.1155C0.765333 30.1128 0.616 28.9928 0.616 27.7555C0.616 26.7102 0.733333 25.7822 0.968 24.9715C1.18133 24.1822 1.46933 23.4782 1.832 22.8595C2.216 22.2408 2.64267 21.6968 3.112 21.2275C3.60267 20.7795 4.104 20.3848 4.616 20.0435L6.664 22.6995C5.768 23.2542 5.032 23.9048 4.456 24.6515C3.90133 25.4195 3.624 26.4648 3.624 27.7875C3.624 29.1955 3.944 30.2728 4.584 31.0195C5.24533 31.7662 6.152 32.1395 7.304 32.1395H7.56C8.712 32.1395 9.58667 31.7448 10.184 30.9555C10.8027 30.1875 11.112 29.0675 11.112 27.5955V25.1955H14.12V27.4995Z" fill="currentColor"/>
</svg>